G04 ================== begin FILE IDENTIFICATION RECORD ==================*
G04 Layout Name:  C:/NOW_WORK/VoloKh/CPI2/MAIN/BRD/CPI2_MAIN.brd*
G04 Film Name:    L3-INT1*
G04 File Format:  Gerber RS274X*
G04 File Origin:  Cadence Allegro 17.2-S074*
G04 Origin Date:  Tue Mar 30 10:27:56 2021*
G04 *
G04 Layer:  BOARD GEOMETRY/OUTLINE*
G04 Layer:  VIA CLASS/L3-INT1*
G04 Layer:  PIN/L3-INT1*
G04 Layer:  ETCH/L3-INT1*
G04 *
G04 Offset:    (0.0000 0.0000)*
G04 Mirror:    No*
G04 Mode:      Positive*
G04 Rotation:  0*
G04 FullContactRelief:  No*
G04 UndefLineWidth:     0.1000*
G04 ================== end FILE IDENTIFICATION RECORD ====================*
%FSLAX25Y25*MOMM*%
%IR0*IPPOS*OFA0.00000B0.00000*MIA0B0*SFA1.00000B1.00000*%
%ADD13C,.6*%
%ADD18C,1.*%
%ADD11C,1.1*%
%ADD21C,1.2*%
%ADD15C,2.1*%
%ADD19C,1.4*%
%ADD10C,3.2*%
%ADD16C,1.5*%
%ADD14C,3.3*%
%ADD17R,2.X2.*%
%ADD20C,1.9*%
%ADD12C,1.75*%
%ADD22C,.4*%
%ADD23C,.15*%
%ADD24C,.1*%
%ADD29C,.9004*%
%ADD25C,1.4004*%
%ADD28C,1.5004*%
%ADD26C,2.0504*%
%ADD27C,1.8004*%
G75*
%LPD*%
G75*
G36*
G01X2860000Y360000D02*
X2771170Y448830D01*
X2773320Y452260D01*
G03X2649260Y576320I-76320J47740D01*
G01X2645830Y574170D01*
X2640000Y580000D01*
X2484270D01*
G03X2401730I-41270J-80000D01*
G01X2230270D01*
G03X2147730I-41270J-80000D01*
G01X1976270D01*
G03X1893730I-41270J-80000D01*
G01X1722270D01*
G03X1639730I-41270J-80000D01*
G01X1468270D01*
G03X1385730I-41270J-80000D01*
G01X470000D01*
X309630Y740370D01*
X312750Y743950D01*
G03X300000Y847470I-52749J46048D01*
G01Y1052530D01*
G03Y1167470I-40000J57470D01*
G01Y1337550D01*
G03Y1494450I-66000J78450D01*
G01Y1591550D01*
G03Y1748450I-66000J78450D01*
G01Y1820000D01*
X560000D01*
X655240Y1724760D01*
X653280Y1721380D01*
G03X740000Y1567500I88718J-51378D01*
G01Y1518500D01*
G03Y1313500I2000J-102500D01*
G01Y1180110D01*
X745580Y1174570D01*
X739210Y1168150D01*
X735800Y1170170D01*
G03X768250Y1125640I-35798J-60175D01*
G02X785310Y1135120I9904J2267D01*
G01X991880Y930000D01*
X1382060D01*
G03X1471940I44940J78000D01*
G01X1636060D01*
G03X1725940I44940J78000D01*
G01X1890060D01*
G03X1979940I44940J78000D01*
G01X2144060D01*
G03X2233940I44940J78000D01*
G01X2398060D01*
G03X2487940I44940J78000D01*
G01X2652060D01*
G03X2777760Y1047760I44938J78000D01*
G01X2880000Y1150000D01*
X3020000D01*
X3090000Y1080000D01*
Y420000D01*
X3030000Y360000D01*
X2860000D01*
G37*
G36*
G01X1899870Y1394770D02*
X1870130Y1394790D01*
G02X1860030Y1405940I9J10157D01*
G03X1860520Y1416000I-102032J10012D01*
G03X1655480I-102520J0D01*
G03X1655960Y1406040I102522J-51D01*
G02X1645850Y1394890I-10111J-991D01*
G01X1616140Y1394910D01*
G02X1606040Y1406050I10J10157D01*
G03X1606520Y1416000I-102042J9909D01*
G03X1401480I-102520J0D01*
G03X1445180Y1332040I102517J6D01*
G02X1446530Y1316530I-5832J-8321D01*
G01X1190000Y1060000D01*
X1089580D01*
G02X1080760Y1075210I-2J10161D01*
G03X1090020Y1110000I-60758J34799D01*
G03X949980I-70020J0D01*
G03X959240Y1075210I70018J9D01*
G02X950420Y1060000I-8818J-5049D01*
G01X920000D01*
X780000Y1200000D01*
Y1320780D01*
G03Y1511220I-38004J95220D01*
G01Y1574780D01*
G03X844520Y1670000I-38004J95220D01*
G03X742000Y1772520I-102520J0D01*
G03X735160Y1772290I23J-102519D01*
G01X732860Y1772140D01*
X315000Y2190000D01*
Y2299360D01*
G03X350020Y2360000I-34992J60640D01*
G03X315000Y2420640I-70012J0D01*
G01Y2519360D01*
G03X350020Y2580000I-34992J60640D01*
G03X315000Y2640640I-70012J0D01*
G01Y2739360D01*
G03X350020Y2800000I-34992J60640D01*
G03X315000Y2860640I-70012J0D01*
G01Y3129360D01*
G03X350020Y3190000I-34992J60640D01*
G03X340530Y3225190I-70018J-8D01*
G01X338570Y3228570D01*
X561430Y3451430D01*
X564810Y3449470D01*
G03X600000Y3439980I35198J60528D01*
G03X670020Y3510000I0J70020D01*
G03X660530Y3545190I-70018J-8D01*
G01X658570Y3548570D01*
X811180Y3701180D01*
G02X827440Y3698550I7180J-7188D01*
G03X890000Y3659980I62560J31451D01*
G03X960020Y3730000I0J70020D01*
G03X921450Y3792560I-70021J0D01*
G02X918820Y3808820I4558J9080D01*
G01X1241260Y4131260D01*
X1420560Y4130910D01*
G02X1430610Y4119380I-18J-10161D01*
G03X1429980Y4110000I69391J-9372D01*
G03X1570020I70020J0D01*
G03X1569420Y4119110I-70018J-37D01*
G02X1579520Y4130590I10075J1319D01*
G01X1740480Y4130270D01*
G02X1750540Y4118830I-18J-10159D01*
G03X1749980Y4110000I69459J-8838D01*
G03X1890020I70020J0D01*
G03X1889500Y4118560I-70023J42D01*
G02X1899600Y4129960I10082J1242D01*
G01X2020410Y4129720D01*
G02X2030480Y4118350I-18J-10160D01*
G03X2029980Y4110000I69520J-8353D01*
G03X2170020I70020J0D01*
G03X2169550Y4118070I-70018J-29D01*
G02X2179670Y4129400I10092J1171D01*
G01X2340340Y4129090D01*
G02X2350420Y4117800I-19J-10162D01*
G03X2349980Y4110000I69578J-7837D01*
G03X2490020I70020J0D01*
G03X2489610Y4117520I-70017J-46D01*
G02X2499740Y4128770I10102J1089D01*
G01X2620280Y4128530D01*
G02X2630360Y4117310I-22J-10158D01*
G03X2629980Y4110000I69641J-7285D01*
G03X2770020I70020J0D01*
G03X2769670Y4117040I-70022J47D01*
G02X2779790Y4128220I10107J1021D01*
G01X2940210Y4127900D01*
G02X2950310Y4116760I-13J-10160D01*
G03X2949980Y4110000I69689J-6790D01*
G03X3090020I70020J0D01*
G03X3089720Y4116480I-70020J5D01*
G02X3099860Y4127590I10117J949D01*
G01X3220160Y4127350D01*
G02X3230260Y4116280I-19J-10160D01*
G03X3229980Y4110000I69741J-6256D01*
G03X3370020I70020J0D01*
G03X3369760Y4116000I-70019J-29D01*
G02X3379900Y4127030I10123J870D01*
G01X3540110Y4126710D01*
G02X3550210Y4115720I-22J-10157D01*
G03X3549980Y4110000I69792J-5671D01*
G03X3620000Y4039980I70020J0D01*
G03X3665690Y4056940I0J70024D01*
G02X3682480Y4049240I6631J-7697D01*
G01Y4045710D01*
X3680710Y4044190D01*
G03X3664980Y4010000I29292J-34190D01*
G03X3710000Y3964980I45020J0D01*
G03X3754840Y4005960I0J45022D01*
G02X3765890Y4015170I10119J-907D01*
G03X3770000Y4014980I4132J44829D01*
G03X3815020Y4060000I0J45020D01*
G03X3797520Y4095630I-45021J0D01*
G01Y4126210D01*
X3820070Y4126160D01*
G02X3830180Y4115240I-22J-10160D01*
G03X3829980Y4110000I69818J-5289D01*
G03X3970020I70020J0D01*
G03X3969840Y4114970I-70018J-48D01*
G02X3980000Y4125850I10137J718D01*
G01X4140020Y4125530D01*
G02X4150140Y4114690I-18J-10161D01*
G03X4149980Y4110000I69859J-4731D01*
G03X4290020I70020J0D01*
G03X4289880Y4114410I-70020J-16D01*
G02X4300040Y4125210I10139J641D01*
G01X4419990Y4124980D01*
G02X4430110Y4114210I-24J-10162D01*
G03X4429980Y4110000I69888J-4265D01*
G03X4570020I70020J0D01*
G03X4569910Y4113930I-70020J7D01*
G02X4580070Y4124660I10144J570D01*
G01X4739950Y4124340D01*
G02X4750080Y4113650I-17J-10160D01*
G03X4749980Y4110000I69917J-3742D01*
G03X4890020I70020J0D01*
G03X4889940Y4113380I-70021J34D01*
G02X4900110Y4124030I10149J490D01*
G01X5019920Y4123790D01*
G02X5030050Y4113170I-19J-10159D01*
G03X5029980Y4110000I69951J-3130D01*
G03X5170020I70020J0D01*
G03X5169960Y4112890I-70020J-8D01*
G02X5180130Y4123470I10150J421D01*
G01X5339900Y4123160D01*
G02X5350030Y4112620I-24J-10161D01*
G03X5349980Y4110000I69970J-2646D01*
G03X5490020I70020J0D01*
G03X5489980Y4112340I-70020J-27D01*
G02X5500150Y4122840I10154J340D01*
G01X5619880Y4122600D01*
G02X5630010Y4112130I-23J-10158D01*
G03X5629980Y4110000I69991J-2051D01*
G03X5770020I70020J0D01*
G03X5770000Y4111860I-70022J177D01*
G02X5780170Y4122290I10156J271D01*
G01X5939860Y4121970D01*
G02X5950000Y4111580I-18J-10160D01*
G03X5949980Y4110000I69999J-1676D01*
G03X6090020I70020J0D01*
G03X6090010Y4111300I-70021J111D01*
G02X6100190Y4121650I10156J192D01*
G01X6219850Y4121420D01*
G02X6229990Y4111100I-20J-10161D01*
G03X6229980Y4110000I70009J-1186D01*
G03X6370020I70020J0D01*
G01Y4110820D01*
G02X6380190Y4121100I10157J122D01*
G01X6539840Y4120780D01*
G02X6549980Y4110550I-17J-10158D01*
G01Y4110000D01*
G03X6690020I70020J0D01*
G01Y4110270D01*
G02X6700200Y4120470I10160J39D01*
G01X6819840Y4120230D01*
G02X6829980Y4110070I-20J-10160D01*
G01Y4110000D01*
G03X6900000Y4039980I70020J0D01*
G03X6913990Y4041390I9J70021D01*
G02X6925960Y4029330I2031J-9955D01*
G03X6924980Y4020000I44039J-9342D01*
G03X7015020I45020J0D01*
G03X6971800Y4064980I-45016J0D01*
G02X6963050Y4079550I402J10154D01*
G03X6970020Y4109780I-63049J30455D01*
G02X6980200Y4119910I10158J-28D01*
G01X7139840Y4119600D01*
G02X7149980Y4109510I-20J-10160D01*
G03X7220000Y4039980I70020J492D01*
G03X7290020Y4109230I0J70024D01*
G02X7300190Y4119280I10157J-108D01*
G01X7419850Y4119040D01*
G02X7429990Y4109030I-18J-10159D01*
G03X7500000Y4039980I70010J967D01*
G03X7570010Y4108750I0J70021D01*
G02X7580190Y4118730I10159J-180D01*
G01X7739860Y4118410D01*
G02X7750000Y4108470I-18J-10160D01*
G03X7820000Y4039980I70000J1527D01*
G03X7890000Y4108200I0J70023D01*
G02X7900170Y4118090I10154J-267D01*
G01X8019870Y4117860D01*
G02X8030010Y4107990I-17J-10161D01*
G03X8100000Y4039980I69990J2009D01*
G03X8169980Y4107710I0J70017D01*
G02X8180160Y4117540I10155J-330D01*
G01X8339890Y4117230D01*
G02X8350030Y4107440I-16J-10162D01*
G03X8420000Y4039980I69970J2557D01*
G03X8489960Y4107160I0J70018D01*
G02X8500130Y4116910I10153J-411D01*
G01X8619920Y4116670D01*
G02X8630050Y4106950I-21J-10160D01*
G03X8700000Y4039980I69950J3046D01*
G03X8769940Y4106680I0J70019D01*
G02X8780110Y4116350I10147J-488D01*
G01X8950000Y4116020D01*
X8949990Y4110910D01*
Y4110880D01*
G03X8949980Y4110000I70006J-1236D01*
G03X9090020I70020J0D01*
G01Y4110640D01*
X9090030Y4115740D01*
X9229990Y4115470D01*
X9229980Y4110380D01*
Y4110370D01*
Y4110000D01*
G03X9370020I70020J0D01*
G01Y4110100D01*
X9370030Y4115190D01*
X9549960Y4114830D01*
X9549980Y4109780D01*
G03X9620000Y4039980I70020J220D01*
G03X9690020Y4109500I0J70022D01*
G01X9690050Y4114560D01*
X9839930Y4114260D01*
X9839980Y4109240D01*
G03X9910000Y4039980I70020J764D01*
G03X9980010Y4108970I0J70018D01*
G01X9980090Y4113980D01*
X10159900Y4113630D01*
X10159990Y4108650D01*
G03X10230000Y4039980I70010J1353D01*
G03X10300000Y4108380I0J70019D01*
G01X10300120Y4113350D01*
X10439870Y4113070D01*
X10440000Y4108140D01*
G03X10510000Y4039980I70000J1865D01*
G03X10579990Y4107860I0J70023D01*
G01X10580140Y4112800D01*
X10759850Y4112440D01*
X10760020Y4107550D01*
G03X10830000Y4039980I69980J2453D01*
G03X10899970Y4107270I0J70023D01*
G01X10900160Y4112160D01*
X11039840Y4111890D01*
X11040040Y4107030D01*
G03X11110000Y4039980I69960J2973D01*
G03X11179940Y4106760I0J70015D01*
G01X11180170Y4111610D01*
X11359830Y4111250D01*
X11360070Y4106440D01*
G03X11430000Y4039980I69930J3561D01*
G03X11499910Y4106170I0J70015D01*
G01X11500180Y4110980D01*
X11639820Y4110700D01*
X11640100Y4105930D01*
G03X11710000Y4039980I69900J4068D01*
G03X11779880Y4105650I0J70015D01*
G01X11780180Y4110420D01*
X11959820Y4110070D01*
X11960140Y4105340D01*
G03X12030000Y4039980I69860J4655D01*
G03X12099850Y4105060I0J70025D01*
G01X12100180Y4109790D01*
X12239820Y4109510D01*
X12240170Y4104820D01*
G03X12310000Y4039980I69830J5182D01*
G03X12379810Y4104540I0J70023D01*
G01X12380170Y4109240D01*
X12559830Y4108880D01*
X12560220Y4104230D01*
G03X12630000Y4039980I69780J5768D01*
G03X12699760Y4103950I0J70022D01*
G01X12700160Y4108600D01*
X12722480Y4108560D01*
Y4021400D01*
X12656120Y3955040D01*
X12653110Y3956100D01*
G03X12630000Y3960020I-23100J-66102D01*
G03X12700020Y3890000I0J-70020D01*
G03X12696100Y3913110I-70022J10D01*
G01X12695040Y3916120D01*
X12769460Y3990540D01*
G03X12777520Y4010000I-19462J19460D01*
G01Y4108450D01*
X12829850Y4108350D01*
X12830260Y4103730D01*
G03X12900000Y4039980I69740J6271D01*
G03X12969710Y4103460I0J70016D01*
G01X12970150Y4108070D01*
X13048000Y4107920D01*
G02X13055000Y4090410I-17J-10161D01*
G03X13041080Y4057860I31097J-32550D01*
G03X13046080Y4037230I45022J-9D01*
G02X13042200Y4023820I-9029J-4654D01*
G03X13019980Y3985000I22801J-38820D01*
G03X13110020I45020J0D01*
G03X13105020Y4005630I-45022J9D01*
G02X13108900Y4019040I9029J4654D01*
G03X13131120Y4057860I-22801J38820D01*
G03X13117330Y4090290I-45028J0D01*
G02X13124400Y4107770I7047J7320D01*
G01X13149870Y4107720D01*
X13150320Y4103140D01*
G03X13220000Y4039980I69680J6857D01*
G03X13289660Y4102870I0J70024D01*
G01X13290120Y4107440D01*
X13439890Y4107140D01*
X13440370Y4102610D01*
G03X13510000Y4039980I69630J7391D01*
G03X13579600Y4102330I0J70022D01*
G01X13580100Y4106860D01*
X13759920Y4106510D01*
X13760440Y4102020D01*
G03X13830000Y4039980I69560J7976D01*
G03X13899530Y4101740I0J70019D01*
G01X13900060Y4106230D01*
X14185410Y4105670D01*
X14530000Y3761080D01*
Y3743370D01*
G02X14512260Y3736600I-10160J-5D01*
G03X14460000Y3760020I-52260J-46597D01*
G03Y3619980I0J-70020D01*
G03X14512260Y3643400I0J70017D01*
G02X14530000Y3636630I7580J-6765D01*
G01Y3523370D01*
G02X14512260Y3516600I-10160J-5D01*
G03X14460000Y3540020I-52260J-46597D01*
G03X14530020Y3470000I0J-70020D01*
G01Y3470400D01*
G02X14547360Y3477640I10159J53D01*
G01X14910000Y3115000D01*
Y3008820D01*
G02X14893600Y3000800I-10160J-1D01*
G03X14826000Y3024020I-67600J-86791D01*
G03Y2803980I0J-110020D01*
G03X14893600Y2827200I0J110011D01*
G02X14910000Y2819180I6240J-8019D01*
G01Y2754820D01*
G02X14893600Y2746800I-10160J-1D01*
G03X14826000Y2770020I-67600J-86791D01*
G03Y2549980I0J-110020D01*
G03X14893600Y2573200I0J110011D01*
G02X14910000Y2565180I6240J-8019D01*
G01Y2500820D01*
G02X14893600Y2492800I-10160J-1D01*
G03X14826000Y2516020I-67600J-86791D01*
G03Y2295980I0J-110020D01*
G03X14893600Y2319200I0J110011D01*
G02X14910000Y2311180I6240J-8019D01*
G01Y2246820D01*
G02X14893600Y2238800I-10160J-1D01*
G03X14826000Y2262020I-67600J-86791D01*
G03X14715980Y2152000I0J-110020D01*
G03X14752390Y2070230I110025J0D01*
G02X14745590Y2052520I-6797J-7551D01*
G01X14735000D01*
G03X14724390Y2050390I6J-27519D01*
G01X14723450Y2050000D01*
X14448990D01*
X14448920Y2055010D01*
G03X14358880I-45020J-665D01*
G01X14358810Y2050000D01*
X14085000D01*
X13925000Y2210000D01*
X13915690D01*
X13914640Y2210510D01*
G03X13900720Y2214660I-19655J-40506D01*
G02X13892880Y2229200I1286J10077D01*
G03X13900020Y2260000I-62879J30804D01*
G03X13759980I-70020J0D01*
G03X13769240Y2225210I70018J9D01*
G02X13760420Y2210000I-8818J-5049D01*
G01X13720020D01*
Y2295000D01*
G03X13705370Y2330370I-50023J0D01*
G01X13620370Y2415370D01*
G03X13585000Y2430020I-35370J-35373D01*
G01X13445000D01*
G03X13409630Y2415370I0J-50023D01*
G01X13339630Y2345370D01*
G03X13324980Y2310000I35373J-35370D01*
G01Y2220720D01*
X13314260Y2210000D01*
X13289580D01*
G02X13280760Y2225210I-2J10161D01*
G03X13290020Y2260000I-60758J34799D01*
G03X13149980I-70020J0D01*
G03X13159240Y2225210I70018J9D01*
G02X13150420Y2210000I-8818J-5049D01*
G01X13020740D01*
X12970040Y2260690D01*
X12969970Y2262680D01*
G03X12900000Y2330020I-69970J-2681D01*
G03X12829980Y2260000I0J-70020D01*
G03X12897320Y2190030I70021J0D01*
G01X12899310Y2189960D01*
X12944630Y2144630D01*
X12585020Y1785020D01*
X12580000D01*
G03X12564980Y1770000I0J-15020D01*
G01Y1764980D01*
X12526290Y1726290D01*
G02X12510710Y1727750I-7185J7181D01*
G03X12426000Y1772520I-84710J-57756D01*
G03X12323480Y1670000I0J-102520D01*
G03X12368250Y1585290I102526J0D01*
G02X12369710Y1569710I-5721J-8395D01*
G01X12272290Y1472290D01*
G02X12256710Y1473750I-7185J7181D01*
G03X12172000Y1518520I-84710J-57756D01*
G03X12069480Y1416000I0J-102520D01*
G03X12070500Y1401600I102518J26D01*
G02X12060440Y1390010I-10060J-1429D01*
G01X12029560Y1390030D01*
G02X12019510Y1401610I6J10156D01*
G03X12020520Y1416000I-101512J14355D01*
G03X11815480I-102520J0D01*
G03X11816480Y1401710I102520J-6D01*
G02X11806420Y1390130I-10060J-1421D01*
G01X11775580Y1390140D01*
G02X11765520Y1401720I2J10161D01*
G03X11766520Y1416000I-101520J14284D01*
G03X11561480I-102520J0D01*
G03X11562470Y1401810I102518J23D01*
G02X11552400Y1390250I-10064J-1400D01*
G01X11521590Y1390260D01*
G02X11511540Y1401830I11J10159D01*
G03X11512520Y1416000I-101542J14142D01*
G03X11307480I-102520J0D01*
G03X11308450Y1401920I102521J-11D01*
G02X11298390Y1390370I-10063J-1391D01*
G01X11267610Y1390380D01*
G02X11257550Y1401940I4J10161D01*
G03X11258520Y1416000I-101549J14069D01*
G03X11053480I-102520J0D01*
G03X11054440Y1402030I102518J27D01*
G02X11044370Y1390490I-10066J-1380D01*
G01X11013630Y1390500D01*
G02X11003570Y1402040I4J10159D01*
G03X11004520Y1416000I-101572J13924D01*
G03X10799480I-102520J0D01*
G03X10800420Y1402140I102521J-9D01*
G02X10790350Y1390610I-10065J-1372D01*
G01X10759640Y1390620D01*
G02X10749580Y1402150I7J10160D01*
G03X10750520Y1416000I-101580J13851D01*
G03X10545480I-102520J0D01*
G03X10546410Y1402250I102518J28D01*
G02X10536340Y1390730I-10068J-1361D01*
G01X10505660Y1390740D01*
G02X10495600Y1402260I6J10158D01*
G03X10496520Y1416000I-101602J13704D01*
G03X10291480I-102520J0D01*
G03X10292390Y1402360I102521J-11D01*
G02X10282320Y1390840I-10069J-1359D01*
G01X10251670Y1390860D01*
G02X10241610Y1402370I9J10159D01*
G03X10242520Y1416000I-101620J13630D01*
G03X10037480I-102520J0D01*
G03X10038380Y1402460I102519J15D01*
G02X10028310Y1390960I-10073J-1339D01*
G01X9997690Y1390980D01*
G02X9987620Y1402480I2J10160D01*
G03X9988520Y1416000I-101618J13554D01*
G03X9783480I-102520J0D01*
G03X9784360Y1402570I102522J-26D01*
G02X9774290Y1391080I-10072J-1331D01*
G01X9743710Y1391100D01*
G02X9733640Y1402590I1J10158D01*
G03X9734520Y1416000I-101640J13404D01*
G03X9529480I-102520J0D01*
G03X9530350Y1402680I102519J8D01*
G02X9520280Y1391200I-10075J-1319D01*
G01X9489720Y1391220D01*
G02X9479650Y1402690I4J10159D01*
G03X9480520Y1416000I-101649J13328D01*
G03X9275480I-102520J0D01*
G03X9276330Y1402790I102522J-36D01*
G02X9266260Y1391320I-10073J-1312D01*
G01X9235740Y1391340D01*
G02X9225670Y1402800I3J10157D01*
G03X9226520Y1416000I-101672J13174D01*
G03X9021480I-102520J0D01*
G03X9022320Y1402900I102520J-3D01*
G02X9012240Y1391440I-10076J-1301D01*
G01X8981750Y1391450D01*
G02X8971680Y1402910I8J10161D01*
G03X8972520Y1416000I-101680J13097D01*
G03X8767480I-102520J0D01*
G03X8768310Y1403010I102518J29D01*
G02X8758230Y1391560I-10078J-1289D01*
G01X8727770Y1391570D01*
G02X8717690Y1403020I0J10162D01*
G03X8718520Y1416000I-101688J13019D01*
G03X8513480I-102520J0D01*
G03X8514290Y1403110I102522J-28D01*
G02X8504210Y1391680I-10078J-1272D01*
G01X8473780Y1391690D01*
G02X8463710Y1403130I9J10160D01*
G03X8464520Y1416000I-101711J12862D01*
G03X8259480I-102520J0D01*
G03X8260280Y1403220I102520J2D01*
G02X8250200Y1391800I-10080J-1261D01*
G01X8219800Y1391810D01*
G02X8209720Y1403240I2J10161D01*
G03X8210520Y1416000I-101719J12782D01*
G03X8005480I-102520J0D01*
G03X8006270Y1403330I102518J33D01*
G02X7996180Y1391920I-10083J-1250D01*
G01X7965810Y1391930D01*
G02X7955740Y1403340I11J10158D01*
G03X7956520Y1416000I-101742J12623D01*
G03X7751480I-102520J0D01*
G03X7752250Y1403440I102521J-18D01*
G02X7742170Y1392040I-10081J-1243D01*
G01X7711830Y1392050D01*
G02X7701750Y1403450I3J10159D01*
G03X7702520Y1416000I-101751J12541D01*
G03X7497480I-102520J0D01*
G03X7498240Y1403550I102519J10D01*
G02X7488150Y1392150I-10086J-1238D01*
G01X7457840Y1392170D01*
G02X7447760Y1403560I5J10160D01*
G03X7448520Y1416000I-101759J12460D01*
G03X7243480I-102520J0D01*
G03X7244230Y1403660I102518J38D01*
G02X7234140Y1392270I-10088J-1228D01*
G01X7203860Y1392290D01*
G02X7193780Y1403670I4J10158D01*
G03X7194520Y1416000I-101782J12296D01*
G03X6989480I-102520J0D01*
G03X6990210Y1403760I102522J-27D01*
G02X6980130Y1392390I-10087J-1211D01*
G01X6949870Y1392410D01*
G02X6939790Y1403780I6J10158D01*
G03X6940520Y1416000I-101790J12213D01*
G03X6735480I-102520J0D01*
G03X6736200Y1403870I102520J-1D01*
G02X6726110Y1392510I-10089J-1200D01*
G01X6695890Y1392530D01*
G02X6685800Y1403890I-2J10159D01*
G03X6686520Y1416000I-101799J12129D01*
G03X6481480I-102520J0D01*
G03X6482190Y1403980I102519J25D01*
G02X6472100Y1392630I-10091J-1189D01*
G01X6441900Y1392640D01*
G02X6431810Y1403990I3J10163D01*
G03X6432520Y1416000I-101808J12045D01*
G03X6227480I-102520J0D01*
G03X6228170Y1404090I102522J-35D01*
G02X6218080Y1392750I-10089J-1182D01*
G01X6187910Y1392760D01*
G02X6177830Y1404100I11J10160D01*
G03X6178520Y1416000I-101831J11875D01*
G03X5973480I-102520J0D01*
G03X5974160Y1404200I102521J-12D01*
G02X5964070Y1392870I-10091J-1171D01*
G01X5933930Y1392880D01*
G02X5923840Y1404210I3J10161D01*
G03X5924520Y1416000I-101840J11788D01*
G03X5719480I-102520J0D01*
G03X5720150Y1404310I102519J12D01*
G02X5710060Y1392990I-10093J-1161D01*
G01X5679940Y1393000D01*
G02X5669850Y1404320I5J10161D01*
G03X5670520Y1416000I-101849J11702D01*
G03X5465480I-102520J0D01*
G03X5466140Y1404410I102519J24D01*
G02X5456040Y1393110I-10095J-1140D01*
G01X5425950Y1393120D01*
G02X5415860Y1404430I7J10162D01*
G03X5416520Y1416000I-101857J11614D01*
G03X5211480I-102520J0D01*
G03X5212120Y1404520I102522J-42D01*
G02X5202030Y1393230I-10093J-1133D01*
G01X5171970Y1393240D01*
G02X5161880Y1404540I5J10159D01*
G03X5162520Y1416000I-101881J11438D01*
G03X4957480I-102520J0D01*
G03X4958110Y1404630I102521J-22D01*
G02X4948020Y1393350I-10095J-1123D01*
G01X4917980Y1393360D01*
G02X4907890Y1404640I7J10159D01*
G03X4908520Y1416000I-101891J11348D01*
G03X4703480I-102520J0D01*
G03X4704100Y1404740I102520J-2D01*
G02X4694000Y1393460I-10099J-1119D01*
G01X4663990Y1393480D01*
G02X4653900Y1404750I9J10159D01*
G03X4654520Y1416000I-101900J11258D01*
G03X4449480I-102520J0D01*
G03X4450090Y1404850I102519J17D01*
G02X4439990Y1393580I-10101J-1109D01*
G01X4410010Y1393600D01*
G02X4399910Y1404860I0J10160D01*
G03X4400520Y1416000I-101909J11167D01*
G03X4195480I-102520J0D01*
G03X4196080Y1404960I102518J35D01*
G02X4185980Y1393700I-10102J-1098D01*
G01X4156020Y1393720D01*
G02X4145920Y1404970I2J10160D01*
G03X4146520Y1416000I-101918J11075D01*
G03X3941480I-102520J0D01*
G03X3942060Y1405060I102523J-50D01*
G02X3931960Y1393820I-10101J-1082D01*
G01X3902030Y1393840D01*
G02X3891940Y1405080I9J10157D01*
G03X3892520Y1416000I-101942J10890D01*
G03X3687480I-102520J0D01*
G03X3688050Y1405170I102522J-34D01*
G02X3677950Y1393940I-10102J-1071D01*
G01X3648050Y1393950D01*
G02X3637950Y1405190I3J10161D01*
G03X3638520Y1416000I-101951J10796D01*
G03X3433480I-102520J0D01*
G03X3434040Y1405280I102521J-19D01*
G02X3423940Y1394060I-10103J-1061D01*
G01X3394060Y1394070D01*
G02X3383960Y1405290I5J10161D01*
G03X3384520Y1416000I-101960J10701D01*
G03X3179480I-102520J0D01*
G03X3180030Y1405390I102520J-5D01*
G02X3169930Y1394180I-10105J-1051D01*
G01X3140070Y1394190D01*
G02X3129970Y1405400I6J10161D01*
G03X3130520Y1416000I-101970J10605D01*
G03X2925480I-102520J0D01*
G03X2926020Y1405500I102520J9D01*
G02X2915910Y1394300I-10106J-1041D01*
G01X2886080Y1394310D01*
G02X2875980Y1405510I8J10161D01*
G03X2876520Y1416000I-101979J10509D01*
G03X2671480I-102520J0D01*
G03X2672010Y1405610I102519J21D01*
G02X2661900Y1394420I-10107J-1031D01*
G01X2632100Y1394430D01*
G02X2621990Y1405620I-1J10161D01*
G03X2622520Y1416000I-101988J10411D01*
G03X2417480I-102520J0D01*
G03X2418000Y1405710I102519J23D01*
G02X2407890Y1394540I-10109J-1011D01*
G01X2378110Y1394550D01*
G02X2368000Y1405730I0J10161D01*
G03X2368520Y1416000I-101998J10313D01*
G03X2163480I-102520J0D01*
G03X2163990Y1405820I102518J33D01*
G02X2153880Y1394660I-10110J-1001D01*
G01X2124120Y1394670D01*
G02X2114010Y1405840I1J10161D01*
G03X2114520Y1416000I-102007J10213D01*
G03X1909480I-102520J0D01*
G03X1909980Y1405930I102518J43D01*
G02X1899870Y1394770I-10113J-997D01*
G37*
%LPC*%
G75*
G36*
G01X13029630Y3149630D02*
X12899310Y3279960D01*
X12897320Y3280030D01*
G02X12829980Y3350000I2681J69970D01*
G02X12900000Y3420020I70020J0D01*
G02X12969970Y3352680I0J-70021D01*
G01X12970040Y3350690D01*
X13085720Y3235020D01*
X13550000D01*
G02X13585370Y3220370I0J-50023D01*
G01X13700370Y3105370D01*
G02X13715020Y3070000I-35373J-35370D01*
G01Y3015920D01*
X13742870Y2988070D01*
G02X13757520Y2952700I-35373J-35370D01*
G01Y2880000D01*
G02X13657480I-50020J0D01*
G01Y2931980D01*
X13629630Y2959830D01*
G02X13614980Y2995200I35373J35370D01*
G01Y3049280D01*
X13529280Y3134980D01*
X13065000D01*
G02X13029630Y3149630I0J50023D01*
G37*
G36*
G01X3073390Y3280020D02*
X3083780D01*
X3228780Y3425020D01*
X3336220D01*
X3385020Y3376220D01*
Y2104980D01*
X3326000D01*
X3325120Y2104640D01*
G02X3300000Y2099980I-25117J65361D01*
G02X3274880Y2104640I-3J70021D01*
G01X3274000Y2104980D01*
X3208780D01*
X3098780Y2214980D01*
X3092220D01*
G03X3083070Y2200410I3J-10160D01*
G02X3090020Y2170000I-63069J-30413D01*
G02X2949980I-70020J0D01*
G02X2956930Y2200410I70019J-3D01*
G03X2947780Y2214980I-9153J4410D01*
G01X2941220D01*
X2831220Y2104980D01*
X2726000D01*
X2725120Y2104640D01*
G02X2700000Y2099980I-25117J65361D01*
G02X2674880Y2104640I-3J70021D01*
G01X2674000Y2104980D01*
X2603780D01*
X2503780Y2204980D01*
X2496240D01*
G03X2486580Y2191680I2J-10159D01*
G02X2490020Y2170000I-66580J-21677D01*
G02X2349980I-70020J0D01*
G02X2353420Y2191680I70020J3D01*
G03X2343760Y2204980I-9662J3141D01*
G01X2316220D01*
X2216220Y2104980D01*
X2126000D01*
X2125120Y2104640D01*
G02X2100000Y2099980I-25117J65361D01*
G02X2032900Y2150000I0J70016D01*
G01X2032530Y2151230D01*
X2019980Y2163780D01*
Y3356220D01*
X2032530Y3368770D01*
X2032900Y3370000D01*
G02X2100000Y3420020I67100J-19996D01*
G02X2149000Y3400020I0J-70025D01*
G01X2216220D01*
X2336220Y3280020D01*
X2366610D01*
G03X2373380Y3297760I3J10161D01*
G02X2349980Y3350000I46612J52240D01*
G02X2490020I70020J0D01*
G02X2466620Y3297760I-70012J0D01*
G03X2473390Y3280020I6767J-7579D01*
G01X2478780D01*
X2623780Y3425020D01*
X2771220D01*
X2916220Y3280020D01*
X2966610D01*
G03X2973380Y3297760I3J10161D01*
G02X2949980Y3350000I46612J52240D01*
G02X3090020I70020J0D01*
G02X3066620Y3297760I-70012J0D01*
G03X3073390Y3280020I6767J-7579D01*
G37*
G36*
G01X6678510Y3285020D02*
X6683780D01*
X6828780Y3430020D01*
X6936220D01*
X6985020Y3381220D01*
Y2109980D01*
X6936060D01*
G02X6863940I-36060J60016D01*
G01X6808780D01*
X6698780Y2219980D01*
X6689590D01*
G03X6680770Y2204770I-1J-10162D01*
G02X6690020Y2170000I-60767J-34781D01*
G02X6549980I-70020J0D01*
G02X6559230Y2204770I70017J-11D01*
G03X6550410Y2219980I-8819J5048D01*
G01X6541220D01*
X6431220Y2109980D01*
X6336060D01*
G02X6263940I-36060J60016D01*
G01X6203780D01*
X6103780Y2209980D01*
X6094430D01*
G03X6085000Y2196040I-1J-10159D01*
G02X6090020Y2170000I-65001J-26035D01*
G02X5949980I-70020J0D01*
G02X5955000Y2196040I70021J5D01*
G03X5945570Y2209980I-9429J3781D01*
G01X5916220D01*
X5816220Y2109980D01*
X5736060D01*
G02X5700000Y2099980I-36060J60016D01*
G02X5631350Y2156200I0J70024D01*
G01X5631050Y2157710D01*
X5619980Y2168780D01*
Y3361220D01*
X5635140Y3376380D01*
G02X5700000Y3420020I64860J-26379D01*
G02X5743310Y3405020I0J-70025D01*
G01X5816220D01*
X5936220Y3285020D01*
X5961490D01*
G03X5968900Y3302130I-1J10160D01*
G02X5949980Y3350000I51099J47870D01*
G02X6090020I70020J0D01*
G02X6062230Y3294150I-70016J0D01*
G01X6060220Y3292630D01*
Y3285020D01*
X6078780D01*
X6223780Y3430020D01*
X6371220D01*
X6516220Y3285020D01*
X6561490D01*
G03X6568900Y3302130I-1J10160D01*
G02X6549980Y3350000I51099J47870D01*
G02X6690020I70020J0D01*
G02X6671100Y3302130I-70019J0D01*
G03X6678510Y3285020I7411J-6950D01*
G37*
G36*
G01X10270220D02*
X10283780D01*
X10428780Y3430020D01*
X10536220D01*
X10585020Y3381220D01*
Y2109980D01*
X10546060D01*
G02X10473940I-36060J60016D01*
G01X10408780D01*
X10298780Y2219980D01*
X10285120D01*
Y2213210D01*
X10286130Y2211860D01*
G02X10300020Y2170000I-56131J-41860D01*
G02X10159980I-70020J0D01*
G02X10169230Y2204770I70017J-11D01*
G03X10160410Y2219980I-8819J5048D01*
G01X10141220D01*
X10031220Y2109980D01*
X9946060D01*
G02X9873940I-36060J60016D01*
G01X9803780D01*
X9703780Y2209980D01*
X9694430D01*
G03X9685000Y2196040I-1J-10159D01*
G02X9690020Y2170000I-65001J-26035D01*
G02X9549980I-70020J0D01*
G02X9555000Y2196040I70021J5D01*
G03X9545570Y2209980I-9429J3781D01*
G01X9516220D01*
X9416220Y2109980D01*
X9336060D01*
G02X9300000Y2099980I-36060J60016D01*
G02X9231350Y2156200I0J70024D01*
G01X9231050Y2157710D01*
X9219980Y2168780D01*
Y3361220D01*
X9235140Y3376380D01*
G02X9300000Y3420020I64860J-26379D01*
G02X9343310Y3405020I0J-70025D01*
G01X9416220D01*
X9536220Y3285020D01*
X9561490D01*
G03X9568900Y3302130I-1J10160D01*
G02X9549980Y3350000I51099J47870D01*
G02X9690020I70020J0D01*
G02X9662230Y3294150I-70016J0D01*
G01X9660220Y3292630D01*
Y3285020D01*
X9678780D01*
X9823780Y3430020D01*
X9971220D01*
X10116220Y3285020D01*
X10171490D01*
G03X10178900Y3302130I-1J10160D01*
G02X10159980Y3350000I51099J47870D01*
G02X10300020I70020J0D01*
G02X10272230Y3294150I-70016J0D01*
G01X10270220Y3292630D01*
Y3285020D01*
G37*
G36*
G01X4882820Y3290020D02*
X4888780D01*
X5033780Y3435020D01*
X5141220D01*
X5190020Y3386220D01*
Y2114980D01*
X5143310D01*
G02X5056690I-43310J55025D01*
G01X5013780D01*
X4903780Y2224980D01*
X4886480D01*
G03X4878060Y2209140I3J-10159D01*
G02X4890020Y2170000I-58064J-39140D01*
G02X4749980I-70020J0D01*
G02X4761940Y2209140I70024J0D01*
G03X4753520Y2224980I-8423J5681D01*
G01X4746220D01*
X4636220Y2114980D01*
X4543310D01*
G02X4456690I-43310J55025D01*
G01X4408780D01*
X4308780Y2214980D01*
X4292220D01*
G03X4283070Y2200410I3J-10160D01*
G02X4290020Y2170000I-63069J-30413D01*
G02X4149980I-70020J0D01*
G02X4156930Y2200410I70019J-3D01*
G03X4147780Y2214980I-9153J4410D01*
G01X4121220D01*
X4021220Y2114980D01*
X3943310D01*
G02X3900000Y2099980I-43310J55025D01*
G02X3830050Y2166830I0J70022D01*
G01X3829960Y2168800D01*
X3824980Y2173780D01*
Y3366220D01*
X3835140Y3376380D01*
G02X3900000Y3420020I64860J-26379D01*
G02X3936060Y3410020I0J-70016D01*
G01X4021220D01*
X4141220Y3290020D01*
X4157180D01*
G03X4165140Y3306490I-3J10160D01*
G02X4149980Y3350000I54858J43510D01*
G02X4290020I70020J0D01*
G02X4267780Y3298810I-70032J0D01*
G01X4266160Y3297310D01*
Y3290020D01*
X4283780D01*
X4428780Y3435020D01*
X4576220D01*
X4721220Y3290020D01*
X4757180D01*
G03X4765140Y3306490I-3J10160D01*
G02X4749980Y3350000I54858J43510D01*
G02X4890020I70020J0D01*
G02X4874860Y3306490I-70018J0D01*
G03X4882820Y3290020I7963J-6310D01*
G37*
G36*
G01X8489490Y3341430D02*
G03X8506760Y3333000I10085J-1245D01*
G01X8608780Y3435020D01*
X8716220D01*
X8765020Y3386220D01*
Y3376000D01*
X8765360Y3375120D01*
G02X8770020Y3350000I-65361J-25117D01*
G02X8765360Y3324880I-70021J-3D01*
G01X8765020Y3324000D01*
Y2956000D01*
X8765360Y2955120D01*
G02X8770020Y2930000I-65361J-25117D01*
G02X8765360Y2904880I-70021J-3D01*
G01X8765020Y2904000D01*
Y2736000D01*
X8765360Y2735120D01*
G02X8770020Y2710000I-65361J-25117D01*
G02X8765360Y2684880I-70021J-3D01*
G01X8765020Y2684000D01*
Y2516000D01*
X8765360Y2515120D01*
G02X8770020Y2490000I-65361J-25117D01*
G02X8765360Y2464880I-70021J-3D01*
G01X8765020Y2464000D01*
Y2196000D01*
X8765360Y2195120D01*
G02X8770020Y2170000I-65361J-25117D01*
G02X8765360Y2144880I-70021J-3D01*
G01X8765020Y2144000D01*
Y2114980D01*
X8743310D01*
G02X8656690I-43310J55025D01*
G01X8588780D01*
X8478780Y2224980D01*
X8471040D01*
Y2217970D01*
X8472330Y2216520D01*
G02X8490020Y2170000I-52323J-46520D01*
G02X8349980I-70020J0D01*
G02X8361940Y2209140I70024J0D01*
G03X8353520Y2224980I-8423J5681D01*
G01X8321220D01*
X8211220Y2114980D01*
X8143310D01*
G02X8056690I-43310J55025D01*
G01X7983780D01*
X7905800Y2192960D01*
G03X7888650Y2183780I-7188J-7180D01*
G02X7890020Y2170000I-68650J-13783D01*
G02X7749980I-70020J0D01*
G02X7756930Y2200410I70019J-3D01*
G03X7747780Y2214980I-9153J4410D01*
G01X7696220D01*
X7596220Y2114980D01*
X7543310D01*
G02X7500000Y2099980I-43310J55025D01*
G02X7440530Y2133040I0J70019D01*
G01X7440220Y2133540D01*
X7399980Y2173780D01*
Y3366220D01*
X7443780Y3410020D01*
X7463910D01*
X7465090Y3410700D01*
G02X7500000Y3420020I34905J-60701D01*
G02X7536060Y3410020I0J-70016D01*
G01X7596220D01*
X7716220Y3290020D01*
X7757180D01*
G03X7765140Y3306490I-3J10160D01*
G02X7749980Y3350000I54858J43510D01*
G02X7890020I70020J0D01*
G02X7889920Y3346220I-70021J-39D01*
G03X7907250Y3338490I10145J-548D01*
G01X8003780Y3435020D01*
X8151220D01*
X8296220Y3290020D01*
X8357180D01*
G03X8365140Y3306490I-3J10160D01*
G02X8349980Y3350000I54858J43510D01*
G02X8490020I70020J0D01*
G02X8489490Y3341430I-70018J29D01*
G37*
G36*
G01X11136190Y3414940D02*
G03X11150120Y3423560I3803J9420D01*
G02X11195000Y3465020I44880J-3561D01*
G02X11240020Y3420000I0J-45020D01*
G02X11234020Y3397540I-45021J-4D01*
G01X11232080Y3394170D01*
X11336220Y3290020D01*
X11367180D01*
G03X11375140Y3306490I-3J10160D01*
G02X11359980Y3350000I54858J43510D01*
G02X11500020I70020J0D01*
G02X11498650Y3336220I-70020J3D01*
G03X11515800Y3327040I9962J-2000D01*
G01X11623780Y3435020D01*
X11771220D01*
X11916220Y3290020D01*
X11967180D01*
G03X11975140Y3306490I-3J10160D01*
G02X11959980Y3350000I54858J43510D01*
G02X12100020I70020J0D01*
G02X12077780Y3298810I-70032J0D01*
G01X12076160Y3297310D01*
Y3290020D01*
X12083780D01*
X12228780Y3435020D01*
X12336220D01*
X12385020Y3386220D01*
Y2114980D01*
X12353310D01*
G02X12266690I-43310J55025D01*
G01X12208780D01*
X12098780Y2224980D01*
X12096480D01*
G03X12088060Y2209140I3J-10159D01*
G02X12100020Y2170000I-58064J-39140D01*
G02X11959980I-70020J0D01*
G02X11971940Y2209140I70024J0D01*
G03X11963520Y2224980I-8423J5681D01*
G01X11941220D01*
X11831220Y2114980D01*
X11753310D01*
G02X11666690I-43310J55025D01*
G01X11603780D01*
X11503780Y2214980D01*
X11493620D01*
G03X11489320Y2207200I3J-5080D01*
G02X11500020Y2170000I-59315J-37200D01*
G02X11359980I-70020J0D01*
G02X11366930Y2200410I70019J-3D01*
G03X11357780Y2214980I-9153J4410D01*
G01X11316220D01*
X11216220Y2114980D01*
X11153310D01*
G02X11110000Y2099980I-43310J55025D01*
G02X11042900Y2150000I0J70016D01*
G01X11042530Y2151230D01*
X11019980Y2173780D01*
Y3366220D01*
X11063780Y3410020D01*
X11073910D01*
X11075090Y3410700D01*
G02X11110000Y3420020I34905J-60701D01*
G02X11136190Y3414940I6J-70021D01*
G37*
G36*
G01X12250530Y3633040D02*
G02X12239980Y3670000I59466J36960D01*
G02X12380020I70020J0D01*
G02X12369470Y3633040I-70016J0D01*
G03X12378100Y3617520I8631J-5360D01*
G01X12475120D01*
G02X12500000Y3625020I24880J-37518D01*
G02Y3534980I0J-45020D01*
G02X12491960Y3535700I-20J45022D01*
G03X12480000Y3526040I-1808J-9995D01*
G02X12435000Y3482480I-45000J1464D01*
G02X12390110Y3524070I0J45021D01*
G01X12389750Y3528760D01*
X1520110D01*
X1296890Y3305540D01*
G02X1277430Y3297480I-19460J19462D01*
G01X871390D01*
X752520Y3178610D01*
Y3139380D01*
G03X767210Y3130290I10159J3D01*
G02X787300Y3135020I20090J-40300D01*
G02X832320Y3090000I0J-45020D01*
G02X809250Y3050690I-45026J0D01*
G03X808820Y3033200I4950J-8872D01*
G02X830020Y2995000I-23816J-38200D01*
G02X739980I-45020J0D01*
G02X740110Y2998460I45022J41D01*
G01X740290Y3000790D01*
X705540Y3035540D01*
G02X697480Y3055000I19462J19460D01*
G01Y3094030D01*
G03X680140Y3101220I-10159J3D01*
G01X560190Y2981270D01*
X559810Y2980180D01*
G02X540210Y2956250I-42508J14824D01*
G03Y2938750I5171J-8750D01*
G02X562320Y2900000I-22902J-38750D01*
G02X472280I-45020J0D01*
G02X494390Y2938750I45012J0D01*
G03Y2956250I-5171J8750D01*
G02Y3033750I22902J38750D01*
G03Y3051250I-5171J8750D01*
G02X487640Y3056130I22888J38766D01*
G03X474260I-6690J-7645D01*
G02X444600Y3044980I-29660J33874D01*
G02Y3135020I0J45020D01*
G02X474260Y3123870I0J-45024D01*
G03X487640I6690J7645D01*
G02X517300Y3135020I29660J-33874D01*
G02X562320Y3090000I0J-45020D01*
G02X562180Y3086400I-45022J-52D01*
G03X579490Y3078410I10126J-808D01*
G01X603790Y3102710D01*
G03X597040Y3120040I-7186J7181D01*
G02X529980Y3190000I2963J69960D01*
G02X600000Y3260020I70020J0D01*
G02X658120Y3229050I0J-70021D01*
G03X674230Y3228050I8437J5661D01*
G02X675540Y3229460I20804J-18015D01*
G01X820540Y3374460D01*
G02X840000Y3382520I19460J-19462D01*
G01X1253600D01*
X1465440Y3594360D01*
G03X1463550Y3610220I-7183J7187D01*
G02X1429980Y3670000I36442J59780D01*
G02X1570020I70020J0D01*
G02X1559470Y3633040I-70016J0D01*
G03X1568100Y3617520I8631J-5360D01*
G01X1751900D01*
G03X1760530Y3633040I-1J10160D01*
G02X1749980Y3670000I59466J36960D01*
G02X1890020I70020J0D01*
G02X1879470Y3633040I-70016J0D01*
G03X1888100Y3617520I8631J-5360D01*
G01X2031900D01*
G03X2040530Y3633040I-1J10160D01*
G02X2029980Y3670000I59466J36960D01*
G02X2170020I70020J0D01*
G02X2159470Y3633040I-70016J0D01*
G03X2168100Y3617520I8631J-5360D01*
G01X2351900D01*
G03X2360530Y3633040I-1J10160D01*
G02X2349980Y3670000I59466J36960D01*
G02X2490020I70020J0D01*
G02X2479470Y3633040I-70016J0D01*
G03X2488100Y3617520I8631J-5360D01*
G01X2631900D01*
G03X2640530Y3633040I-1J10160D01*
G02X2629980Y3670000I59466J36960D01*
G02X2770020I70020J0D01*
G02X2759470Y3633040I-70016J0D01*
G03X2768100Y3617520I8631J-5360D01*
G01X2951900D01*
G03X2960530Y3633040I-1J10160D01*
G02X2949980Y3670000I59466J36960D01*
G02X3090020I70020J0D01*
G02X3079470Y3633040I-70016J0D01*
G03X3088100Y3617520I8631J-5360D01*
G01X3231900D01*
G03X3240530Y3633040I-1J10160D01*
G02X3229980Y3670000I59466J36960D01*
G02X3370020I70020J0D01*
G02X3359470Y3633040I-70016J0D01*
G03X3368100Y3617520I8631J-5360D01*
G01X3551900D01*
G03X3560530Y3633040I-1J10160D01*
G02X3549980Y3670000I59466J36960D01*
G02X3690020I70020J0D01*
G02X3679470Y3633040I-70016J0D01*
G03X3688100Y3617520I8631J-5360D01*
G01X3831900D01*
G03X3840530Y3633040I-1J10160D01*
G02X3829980Y3670000I59466J36960D01*
G02X3970020I70020J0D01*
G02X3959470Y3633040I-70016J0D01*
G03X3968100Y3617520I8631J-5360D01*
G01X4151900D01*
G03X4160530Y3633040I-1J10160D01*
G02X4149980Y3670000I59466J36960D01*
G02X4290020I70020J0D01*
G02X4279470Y3633040I-70016J0D01*
G03X4288100Y3617520I8631J-5360D01*
G01X4431900D01*
G03X4440530Y3633040I-1J10160D01*
G02X4429980Y3670000I59466J36960D01*
G02X4570020I70020J0D01*
G02X4559470Y3633040I-70016J0D01*
G03X4568100Y3617520I8631J-5360D01*
G01X4751900D01*
G03X4760530Y3633040I-1J10160D01*
G02X4749980Y3670000I59466J36960D01*
G02X4890020I70020J0D01*
G02X4879470Y3633040I-70016J0D01*
G03X4888100Y3617520I8631J-5360D01*
G01X5031900D01*
G03X5040530Y3633040I-1J10160D01*
G02X5029980Y3670000I59466J36960D01*
G02X5170020I70020J0D01*
G02X5159470Y3633040I-70016J0D01*
G03X5168100Y3617520I8631J-5360D01*
G01X5351900D01*
G03X5360530Y3633040I-1J10160D01*
G02X5349980Y3670000I59466J36960D01*
G02X5490020I70020J0D01*
G02X5479470Y3633040I-70016J0D01*
G03X5488100Y3617520I8631J-5360D01*
G01X5631900D01*
G03X5640530Y3633040I-1J10160D01*
G02X5629980Y3670000I59466J36960D01*
G02X5770020I70020J0D01*
G02X5759470Y3633040I-70016J0D01*
G03X5768100Y3617520I8631J-5360D01*
G01X5951900D01*
G03X5960530Y3633040I-1J10160D01*
G02X5949980Y3670000I59466J36960D01*
G02X6090020I70020J0D01*
G02X6079470Y3633040I-70016J0D01*
G03X6088100Y3617520I8631J-5360D01*
G01X6231900D01*
G03X6240530Y3633040I-1J10160D01*
G02X6229980Y3670000I59466J36960D01*
G02X6370020I70020J0D01*
G02X6359470Y3633040I-70016J0D01*
G03X6368100Y3617520I8631J-5360D01*
G01X6551900D01*
G03X6560530Y3633040I-1J10160D01*
G02X6549980Y3670000I59466J36960D01*
G02X6690020I70020J0D01*
G02X6679470Y3633040I-70016J0D01*
G03X6688100Y3617520I8631J-5360D01*
G01X6831900D01*
G03X6840530Y3633040I-1J10160D01*
G02X6829980Y3670000I59466J36960D01*
G02X6970020I70020J0D01*
G02X6959470Y3633040I-70016J0D01*
G03X6968100Y3617520I8631J-5360D01*
G01X7151900D01*
G03X7160530Y3633040I-1J10160D01*
G02X7149980Y3670000I59466J36960D01*
G02X7290020I70020J0D01*
G02X7279470Y3633040I-70016J0D01*
G03X7288100Y3617520I8631J-5360D01*
G01X7431900D01*
G03X7440530Y3633040I-1J10160D01*
G02X7429980Y3670000I59466J36960D01*
G02X7570020I70020J0D01*
G02X7559470Y3633040I-70016J0D01*
G03X7568100Y3617520I8631J-5360D01*
G01X7751900D01*
G03X7760530Y3633040I-1J10160D01*
G02X7749980Y3670000I59466J36960D01*
G02X7890020I70020J0D01*
G02X7879470Y3633040I-70016J0D01*
G03X7888100Y3617520I8631J-5360D01*
G01X8031900D01*
G03X8040530Y3633040I-1J10160D01*
G02X8029980Y3670000I59466J36960D01*
G02X8170020I70020J0D01*
G02X8159470Y3633040I-70016J0D01*
G03X8168100Y3617520I8631J-5360D01*
G01X8351900D01*
G03X8360530Y3633040I-1J10160D01*
G02X8349980Y3670000I59466J36960D01*
G02X8490020I70020J0D01*
G02X8479470Y3633040I-70016J0D01*
G03X8488100Y3617520I8631J-5360D01*
G01X8631900D01*
G03X8640530Y3633040I-1J10160D01*
G02X8629980Y3670000I59466J36960D01*
G02X8770020I70020J0D01*
G02X8759470Y3633040I-70016J0D01*
G03X8768100Y3617520I8631J-5360D01*
G01X8951900D01*
G03X8960530Y3633040I-1J10160D01*
G02X8949980Y3670000I59466J36960D01*
G02X9090020I70020J0D01*
G02X9079470Y3633040I-70016J0D01*
G03X9088100Y3617520I8631J-5360D01*
G01X9231900D01*
G03X9240530Y3633040I-1J10160D01*
G02X9229980Y3670000I59466J36960D01*
G02X9370020I70020J0D01*
G02X9359470Y3633040I-70016J0D01*
G03X9368100Y3617520I8631J-5360D01*
G01X9551900D01*
G03X9560530Y3633040I-1J10160D01*
G02X9549980Y3670000I59466J36960D01*
G02X9690020I70020J0D01*
G02X9679470Y3633040I-70016J0D01*
G03X9688100Y3617520I8631J-5360D01*
G01X9841900D01*
G03X9850530Y3633040I-1J10160D01*
G02X9839980Y3670000I59466J36960D01*
G02X9980020I70020J0D01*
G02X9969470Y3633040I-70016J0D01*
G03X9978100Y3617520I8631J-5360D01*
G01X10161900D01*
G03X10170530Y3633040I-1J10160D01*
G02X10159980Y3670000I59466J36960D01*
G02X10300020I70020J0D01*
G02X10289470Y3633040I-70016J0D01*
G03X10298100Y3617520I8631J-5360D01*
G01X10441900D01*
G03X10450530Y3633040I-1J10160D01*
G02X10439980Y3670000I59466J36960D01*
G02X10580020I70020J0D01*
G02X10569470Y3633040I-70016J0D01*
G03X10578100Y3617520I8631J-5360D01*
G01X10761900D01*
G03X10770530Y3633040I-1J10160D01*
G02X10759980Y3670000I59466J36960D01*
G02X10900020I70020J0D01*
G02X10889470Y3633040I-70016J0D01*
G03X10898100Y3617520I8631J-5360D01*
G01X11041900D01*
G03X11050530Y3633040I-1J10160D01*
G02X11039980Y3670000I59466J36960D01*
G02X11180020I70020J0D01*
G02X11169470Y3633040I-70016J0D01*
G03X11178100Y3617520I8631J-5360D01*
G01X11361900D01*
G03X11370530Y3633040I-1J10160D01*
G02X11359980Y3670000I59466J36960D01*
G02X11500020I70020J0D01*
G02X11489470Y3633040I-70016J0D01*
G03X11498100Y3617520I8631J-5360D01*
G01X11641900D01*
G03X11650530Y3633040I-1J10160D01*
G02X11639980Y3670000I59466J36960D01*
G02X11780020I70020J0D01*
G02X11769470Y3633040I-70016J0D01*
G03X11778100Y3617520I8631J-5360D01*
G01X11961900D01*
G03X11970530Y3633040I-1J10160D01*
G02X11959980Y3670000I59466J36960D01*
G02X12100020I70020J0D01*
G02X12089470Y3633040I-70016J0D01*
G03X12098100Y3617520I8631J-5360D01*
G01X12241900D01*
G03X12250530Y3633040I-1J10160D01*
G37*
G36*
G01X10574990Y3948320D02*
G02X10620000Y3992520I45010J-817D01*
G02Y3902480I0J-45020D01*
G02X10594980Y3910070I0J45033D01*
G03X10579280Y3900150I-5649J-8444D01*
G02X10580020Y3890000I-69280J-10153D01*
G02X10510000Y3960020I-70020J0D01*
G02X10557880Y3941090I0J-70017D01*
G03X10574990Y3948320I6951J7411D01*
G37*
G54D29*
X7370000Y4000000D03*
X12990000Y3540000D03*
X13030000Y3670000D03*
X10912700Y3235000D03*
X7295000D03*
X3455000Y1845000D03*
X3935000Y2035000D03*
G54D25*
X480000Y790000D03*
X700000D03*
X480000Y1110000D03*
X1020000Y790000D03*
X11710000Y3890000D03*
X12030000D03*
X13220000Y3350000D03*
X12900000Y3670000D03*
Y3890000D03*
X13220000D03*
Y3670000D03*
X13510000Y3350000D03*
X13830000D03*
X13510000Y3670000D03*
Y3890000D03*
X13830000D03*
Y3670000D03*
X14140000Y4010000D03*
X14460000Y3250000D03*
X14140000D03*
Y3470000D03*
Y3690000D03*
X14170000Y2160000D03*
X14490000D03*
X14170000Y2480000D03*
Y2700000D03*
Y2920000D03*
X14490000D03*
Y2700000D03*
Y2480000D03*
X12900000Y2580000D03*
Y2800000D03*
Y3020000D03*
X13220000D03*
Y2800000D03*
Y2580000D03*
X9910000Y3890000D03*
X10230000D03*
X10830000Y3350000D03*
Y3890000D03*
X13510000Y2580000D03*
Y2800000D03*
Y3020000D03*
X13830000D03*
Y2800000D03*
Y2580000D03*
X600000Y2040000D03*
Y2800000D03*
Y2580000D03*
Y2360000D03*
X890000Y2040000D03*
X1210000D03*
X890000Y2360000D03*
Y2580000D03*
Y2800000D03*
X1210000D03*
Y2580000D03*
Y2360000D03*
X1500000Y2170000D03*
X1820000D03*
X1500000Y2490000D03*
Y2710000D03*
Y2930000D03*
X1820000D03*
Y2710000D03*
Y2490000D03*
X12630000Y3350000D03*
X12310000Y3890000D03*
X12630000Y3670000D03*
X890000Y3190000D03*
X1210000D03*
X890000Y3510000D03*
X1210000Y3950000D03*
Y3730000D03*
Y3510000D03*
X1500000Y3350000D03*
X1820000D03*
X1500000Y3890000D03*
X1820000D03*
X3620000Y2170000D03*
Y2930000D03*
Y2710000D03*
Y2490000D03*
X2100000Y3890000D03*
X2420000D03*
X2700000D03*
X3020000D03*
X3620000Y3350000D03*
X3300000Y3890000D03*
X3620000D03*
X11110000D03*
X11430000D03*
X5420000Y2170000D03*
Y2930000D03*
Y2710000D03*
Y2490000D03*
X3900000Y3890000D03*
X4220000D03*
X4500000D03*
X4820000D03*
X5420000Y3350000D03*
X5100000Y3890000D03*
X5420000D03*
X7220000Y2170000D03*
Y2930000D03*
Y2710000D03*
Y2490000D03*
X5700000Y3890000D03*
X6020000D03*
X6300000D03*
X6620000D03*
X7220000Y3350000D03*
X6900000Y3890000D03*
X7220000D03*
X9020000Y2170000D03*
Y2930000D03*
Y2710000D03*
Y2490000D03*
X7500000Y3890000D03*
X7820000D03*
X8100000D03*
X8420000D03*
X9020000Y3350000D03*
X8700000Y3890000D03*
X9020000D03*
X9300000D03*
X9620000D03*
X10830000Y2170000D03*
Y2930000D03*
Y2710000D03*
Y2490000D03*
X12630000Y2170000D03*
Y2930000D03*
Y2710000D03*
Y2490000D03*
G54D28*
X14700000Y3180000D03*
G54D26*
X488000Y1416000D03*
Y1670000D03*
X996000Y1416000D03*
Y1670000D03*
X1250000Y1416000D03*
Y1670000D03*
X11664000D03*
X1504000D03*
X1758000D03*
X2012000D03*
X2266000D03*
X2520000D03*
X2774000D03*
X3028000D03*
X3282000D03*
X3536000D03*
X3790000D03*
X11918000D03*
X4044000D03*
X4298000D03*
X4552000D03*
X4806000D03*
X5060000D03*
X5314000D03*
X5568000D03*
X5822000D03*
X6076000D03*
X6330000D03*
X12172000D03*
X6584000D03*
X6838000D03*
X7092000D03*
X7346000D03*
X7600000D03*
X7854000D03*
X8108000D03*
X8362000D03*
X8616000D03*
X8870000D03*
X9124000D03*
X9378000D03*
X9632000D03*
X9886000D03*
X10140000D03*
X10394000D03*
X10648000D03*
X10902000D03*
X11156000D03*
X11410000D03*
G54D27*
X1427000Y754000D03*
X2189000D03*
X1935000D03*
X1681000D03*
X2951000Y500000D03*
Y754000D03*
X2697000D03*
X2443000D03*
X2951000Y1008000D03*
%LPD*%
G75*
G36*
G01X2160760Y2135210D02*
G03X2052110Y2221080I-60766J34786D01*
G02X2035000Y2228490I-6950J7411D01*
G01Y2431510D01*
G02X2052110Y2438920I10160J-1D01*
G03Y2541080I47890J51080D01*
G02X2035000Y2548490I-6950J7411D01*
G01Y2651510D01*
G02X2052110Y2658920I10160J-1D01*
G03Y2761080I47890J51080D01*
G02X2035000Y2768490I-6950J7411D01*
G01Y2871510D01*
G02X2052110Y2878920I10160J-1D01*
G03Y2981080I47890J51080D01*
G02X2035000Y2988490I-6950J7411D01*
G01Y3291510D01*
G02X2052110Y3298920I10160J-1D01*
G03X2166570Y3371690I47886J51083D01*
G02X2176230Y3385000I9661J3148D01*
G01X2210000D01*
X2330000Y3265000D01*
X2485000D01*
X2630000Y3410000D01*
X2637190D01*
G02X2645150Y3393520I4J-10160D01*
G03X2754850I54850J-43520D01*
G02X2762810Y3410000I7956J6320D01*
G01X2765000D01*
X2910000Y3265000D01*
X3090000D01*
X3235000Y3410000D01*
X3237190D01*
G02X3245150Y3393520I4J-10160D01*
G03X3352260Y3303400I54850J-43520D01*
G02X3370000Y3296630I7580J-6765D01*
G01Y2983370D01*
G02X3352260Y2976600I-10160J-5D01*
G03Y2883400I-52260J-46600D01*
G02X3370000Y2876630I7580J-6765D01*
G01Y2763370D01*
G02X3352260Y2756600I-10160J-5D01*
G03Y2663400I-52260J-46600D01*
G02X3370000Y2656630I7580J-6765D01*
G01Y2543370D01*
G02X3352260Y2536600I-10160J-5D01*
G03Y2443400I-52260J-46600D01*
G02X3370000Y2436630I7580J-6765D01*
G01Y2223370D01*
G02X3352260Y2216600I-10160J-5D01*
G03X3239240Y2135210I-52253J-46606D01*
G02X3230420Y2120000I-8818J-5049D01*
G01X3215000D01*
X3105000Y2230000D01*
X3056090D01*
G03X2983910I-36090J-60000D01*
G01X2935000D01*
X2825000Y2120000D01*
X2769580D01*
G02X2760760Y2135210I-2J10161D01*
G03X2639240I-60760J34790D01*
G02X2630420Y2120000I-8818J-5049D01*
G01X2610000D01*
X2510000Y2220000D01*
X2469020D01*
G03X2370980I-49020J-50000D01*
G01X2310000D01*
X2210000Y2120000D01*
X2169580D01*
G02X2160760Y2135210I-2J10161D01*
G37*
G36*
G01X3974420Y2130000D02*
G02X3964990Y2143940I0J10160D01*
G03X3856480Y2224850I-64990J26058D01*
G02X3840000Y2232810I-6320J7956D01*
G01Y2427190D01*
G02X3856480Y2435150I10160J4D01*
G03Y2544850I43520J54850D01*
G02X3840000Y2552810I-6320J7956D01*
G01Y2647190D01*
G02X3856480Y2655150I10160J4D01*
G03Y2764850I43520J54850D01*
G02X3840000Y2772810I-6320J7956D01*
G01Y2867190D01*
G02X3856480Y2875150I10160J4D01*
G03Y2984850I43520J54850D01*
G02X3840000Y2992810I-6320J7956D01*
G01Y3287190D01*
G02X3856480Y3295150I10160J4D01*
G03X3963060Y3380430I43518J54852D01*
G02X3972210Y3395000I9153J4410D01*
G01X4015000D01*
X4135000Y3275000D01*
X4290000D01*
X4435000Y3420000D01*
X4446630D01*
G02X4453400Y3402260I5J-10160D01*
G03X4546600I46600J-52260D01*
G02X4553370Y3420000I6765J7580D01*
G01X4570000D01*
X4715000Y3275000D01*
X4895000D01*
X5040000Y3420000D01*
X5046630D01*
G02X5053400Y3402260I5J-10160D01*
G03X5156620Y3308810I46596J-52264D01*
G02X5175000Y3302840I8219J-5973D01*
G01Y2977160D01*
G02X5156620Y2971190I-10161J3D01*
G03Y2888810I-56620J-41190D01*
G02X5175000Y2882840I8219J-5973D01*
G01Y2757160D01*
G02X5156620Y2751190I-10161J3D01*
G03Y2668810I-56620J-41190D01*
G02X5175000Y2662840I8219J-5973D01*
G01Y2537160D01*
G02X5156620Y2531190I-10161J3D01*
G03Y2448810I-56620J-41190D01*
G02X5175000Y2442840I8219J-5973D01*
G01Y2217160D01*
G02X5156620Y2211190I-10161J3D01*
G03X5035010Y2143940I-56620J-41194D01*
G02X5025580Y2130000I-9430J-3780D01*
G01X5020000D01*
X4910000Y2240000D01*
X4821620D01*
G03X4818380I-1620J-70000D01*
G01X4740000D01*
X4630000Y2130000D01*
X4574420D01*
G02X4564990Y2143940I0J10160D01*
G03X4435010I-64990J26060D01*
G02X4425580Y2130000I-9430J-3780D01*
G01X4415000D01*
X4315000Y2230000D01*
X4256090D01*
G03X4183910I-36090J-60000D01*
G01X4115000D01*
X4015000Y2130000D01*
X3974420D01*
G37*
G36*
G01X5763060Y2139570D02*
G03X5652110Y2221080I-63062J30428D01*
G02X5635000Y2228490I-6950J7411D01*
G01Y2431510D01*
G02X5652110Y2438920I10160J-1D01*
G03Y2541080I47890J51080D01*
G02X5635000Y2548490I-6950J7411D01*
G01Y2651510D01*
G02X5652110Y2658920I10160J-1D01*
G03Y2761080I47890J51080D01*
G02X5635000Y2768490I-6950J7411D01*
G01Y2871510D01*
G02X5652110Y2878920I10160J-1D01*
G03Y2981080I47890J51080D01*
G02X5635000Y2988490I-6950J7411D01*
G01Y3291510D01*
G02X5652110Y3298920I10160J-1D01*
G03X5764990Y3376060I47890J51081D01*
G02X5774420Y3390000I9430J3780D01*
G01X5810000D01*
X5930000Y3270000D01*
X6085000D01*
X6230000Y3415000D01*
X6241510D01*
G02X6248920Y3397890I-1J-10160D01*
G03X6351080I51080J-47890D01*
G02X6358490Y3415000I7411J6950D01*
G01X6365000D01*
X6510000Y3270000D01*
X6690000D01*
X6835000Y3415000D01*
X6841510D01*
G02X6848920Y3397890I-1J-10160D01*
G03X6952260Y3303400I51080J-47890D01*
G02X6970000Y3296630I7580J-6765D01*
G01Y2983370D01*
G02X6952260Y2976600I-10160J-5D01*
G03Y2883400I-52260J-46600D01*
G02X6970000Y2876630I7580J-6765D01*
G01Y2763370D01*
G02X6952260Y2756600I-10160J-5D01*
G03Y2663400I-52260J-46600D01*
G02X6970000Y2656630I7580J-6765D01*
G01Y2543370D01*
G02X6952260Y2536600I-10160J-5D01*
G03Y2443400I-52260J-46600D01*
G02X6970000Y2436630I7580J-6765D01*
G01Y2223370D01*
G02X6952260Y2216600I-10160J-5D01*
G03X6836940Y2139570I-52258J-46603D01*
G02X6827790Y2125000I-9153J-4410D01*
G01X6815000D01*
X6705000Y2235000D01*
X6646050D01*
X6645170Y2235340D01*
G03X6594830I-25170J-65340D01*
G01X6593950Y2235000D01*
X6535000D01*
X6425000Y2125000D01*
X6372210D01*
G02X6363060Y2139570I3J10160D01*
G03X6236940I-63060J30430D01*
G02X6227790Y2125000I-9153J-4410D01*
G01X6210000D01*
X6110000Y2225000D01*
X6063330D01*
G03X5976670I-43330J-55000D01*
G01X5910000D01*
X5810000Y2125000D01*
X5772210D01*
G02X5763060Y2139570I3J10160D01*
G37*
G36*
G01X8750000Y2779580D02*
G02X8734790Y2770760I-10161J-2D01*
G03Y2649240I-34790J-60760D01*
G02X8750000Y2640420I5049J-8818D01*
G01Y2559580D01*
G02X8734790Y2550760I-10161J-2D01*
G03Y2429240I-34790J-60760D01*
G02X8750000Y2420420I5049J-8818D01*
G01Y2239580D01*
G02X8734790Y2230760I-10161J-2D01*
G03X8635010Y2143940I-34790J-60764D01*
G02X8625580Y2130000I-9430J-3780D01*
G01X8595000D01*
X8485000Y2240000D01*
X8421620D01*
G03X8418380I-1620J-70000D01*
G01X8315000D01*
X8205000Y2130000D01*
X8174420D01*
G02X8164990Y2143940I0J10160D01*
G03X8035010I-64990J26060D01*
G02X8025580Y2130000I-9430J-3780D01*
G01X7990000D01*
X7929460Y2190540D01*
G03X7915640Y2204360I-34360J-20540D01*
G01X7890000Y2230000D01*
X7856090D01*
G03X7783910I-36090J-60000D01*
G01X7690000D01*
X7590000Y2130000D01*
X7574420D01*
G02X7564990Y2143940I0J10160D01*
G03X7430280Y2176490I-64991J26058D01*
G01X7430110Y2174660D01*
X7425220Y2169780D01*
X7415000Y2180000D01*
Y3360000D01*
X7426220Y3371220D01*
X7431720Y3365730D01*
X7431210Y3363090D01*
G03X7563060Y3380430I68787J-13089D01*
G02X7572210Y3395000I9153J4410D01*
G01X7590000D01*
X7710000Y3275000D01*
X7865000D01*
X7900310Y3310310D01*
G03X7934790Y3344790I-5210J39690D01*
G01X8010000Y3420000D01*
X8046640D01*
G02X8053400Y3402260I-5J-10160D01*
G03X8135200Y3410530I46602J-52260D01*
G01X8132670Y3412000D01*
Y3420000D01*
X8145000D01*
X8290000Y3275000D01*
X8470000D01*
X8506680Y3311680D01*
G03X8533420Y3338420I-11580J38320D01*
G01X8615000Y3420000D01*
X8646640D01*
G02X8653400Y3402260I-5J-10160D01*
G03X8734790Y3289240I46606J-52253D01*
G02X8750000Y3280420I5049J-8818D01*
G01Y2999580D01*
G02X8734790Y2990760I-10161J-2D01*
G03Y2869240I-34790J-60760D01*
G02X8750000Y2860420I5049J-8818D01*
G01Y2779580D01*
G37*
G36*
G01X9363060Y2139570D02*
G03X9252110Y2221080I-63062J30428D01*
G02X9235000Y2228490I-6950J7411D01*
G01Y2431510D01*
G02X9252110Y2438920I10160J-1D01*
G03Y2541080I47890J51080D01*
G02X9235000Y2548490I-6950J7411D01*
G01Y2651510D01*
G02X9252110Y2658920I10160J-1D01*
G03Y2761080I47890J51080D01*
G02X9235000Y2768490I-6950J7411D01*
G01Y2871510D01*
G02X9252110Y2878920I10160J-1D01*
G03Y2981080I47890J51080D01*
G02X9235000Y2988490I-6950J7411D01*
G01Y3291510D01*
G02X9252110Y3298920I10160J-1D01*
G03X9364990Y3376060I47890J51081D01*
G02X9374420Y3390000I9430J3780D01*
G01X9410000D01*
X9530000Y3270000D01*
X9685000D01*
X9830000Y3415000D01*
X9851510D01*
G02X9858920Y3397890I-1J-10160D01*
G03X9952210Y3405870I51083J-47890D01*
G01X9950190Y3407390D01*
Y3415000D01*
X9965000D01*
X10110000Y3270000D01*
X10290000D01*
X10435000Y3415000D01*
X10451510D01*
G02X10458920Y3397890I-1J-10160D01*
G03X10553520Y3295150I51085J-47885D01*
G02X10570000Y3287190I6320J-7956D01*
G01Y2992810D01*
G02X10553520Y2984850I-10160J-4D01*
G03Y2875150I-43520J-54850D01*
G02X10570000Y2867190I6320J-7956D01*
G01Y2772810D01*
G02X10553520Y2764850I-10160J-4D01*
G03Y2655150I-43520J-54850D01*
G02X10570000Y2647190I6320J-7956D01*
G01Y2552810D01*
G02X10553520Y2544850I-10160J-4D01*
G03Y2435150I-43520J-54850D01*
G02X10570000Y2427190I6320J-7956D01*
G01Y2232810D01*
G02X10553520Y2224850I-10160J-4D01*
G03X10446940Y2139570I-43518J-54852D01*
G02X10437790Y2125000I-9153J-4410D01*
G01X10415000D01*
X10305000Y2235000D01*
X10256050D01*
X10255170Y2235340D01*
G03X10204830I-25170J-65340D01*
G01X10203950Y2235000D01*
X10135000D01*
X10025000Y2125000D01*
X9982210D01*
G02X9973060Y2139570I3J10160D01*
G03X9846940I-63060J30430D01*
G02X9837790Y2125000I-9153J-4410D01*
G01X9810000D01*
X9710000Y2225000D01*
X9663330D01*
G03X9576670I-43330J-55000D01*
G01X9510000D01*
X9410000Y2125000D01*
X9372210D01*
G02X9363060Y2139570I3J10160D01*
G37*
G36*
G01X11184420Y2130000D02*
G02X11174990Y2143940I0J10160D01*
G03X11053380Y2211190I-64990J26056D01*
G02X11035000Y2217160I-8219J5973D01*
G01Y2442840D01*
G02X11053380Y2448810I10161J-3D01*
G03Y2531190I56620J41190D01*
G02X11035000Y2537160I-8219J5973D01*
G01Y2662840D01*
G02X11053380Y2668810I10161J-3D01*
G03Y2751190I56620J41190D01*
G02X11035000Y2757160I-8219J5973D01*
G01Y2882840D01*
G02X11053380Y2888810I10161J-3D01*
G03Y2971190I56620J41190D01*
G02X11035000Y2977160I-8219J5973D01*
G01Y3302840D01*
G02X11053250Y3308990I10162J-1D01*
G03X11178750Y3363250I56747J41015D01*
G02X11189880Y3375270I9977J1925D01*
G03X11221440Y3383560I5120J44729D01*
G01X11330000Y3275000D01*
X11485000D01*
X11525640Y3315640D01*
G03X11539460Y3329460I-20540J34360D01*
G01X11630000Y3420000D01*
X11656640D01*
G02X11663400Y3402260I-5J-10160D01*
G03X11745200Y3410530I46602J-52260D01*
G01X11742680Y3412000D01*
Y3420000D01*
X11765000D01*
X11910000Y3275000D01*
X12090000D01*
X12235000Y3420000D01*
X12256640D01*
G02X12263400Y3402260I-5J-10160D01*
G03X12353520Y3295150I46600J-52260D01*
G02X12370000Y3287200I6320J-7956D01*
G01Y2992800D01*
G02X12353520Y2984850I-10160J6D01*
G03Y2875150I-43520J-54850D01*
G02X12370000Y2867200I6320J-7956D01*
G01Y2772800D01*
G02X12353520Y2764850I-10160J6D01*
G03Y2655150I-43520J-54850D01*
G02X12370000Y2647200I6320J-7956D01*
G01Y2552800D01*
G02X12353520Y2544850I-10160J6D01*
G03Y2435150I-43520J-54850D01*
G02X12370000Y2427200I6320J-7956D01*
G01Y2232800D01*
G02X12353520Y2224850I-10160J6D01*
G03X12245010Y2143940I-43520J-54852D01*
G02X12235580Y2130000I-9430J-3780D01*
G01X12215000D01*
X12105000Y2240000D01*
X12031560D01*
G03X12028440I-1560J-70000D01*
G01X11935000D01*
X11825000Y2130000D01*
X11784420D01*
G02X11774990Y2143940I0J10160D01*
G03X11645010I-64990J26060D01*
G02X11635580Y2130000I-9430J-3780D01*
G01X11610000D01*
X11510000Y2230000D01*
X11466090D01*
G03X11393910I-36090J-60000D01*
G01X11310000D01*
X11210000Y2130000D01*
X11184420D01*
G37*
%LPC*%
G75*
G54D29*
X6835000Y3045000D03*
X10445000D03*
G54D25*
X2700000Y2710000D03*
Y2930000D03*
Y2490000D03*
X2420000Y2930000D03*
Y2710000D03*
Y2490000D03*
X3020000Y2930000D03*
Y2710000D03*
Y2490000D03*
X4500000Y2710000D03*
Y2930000D03*
Y2490000D03*
X4220000Y2930000D03*
Y2710000D03*
Y2490000D03*
X4820000Y2930000D03*
Y2710000D03*
Y2490000D03*
X6020000Y2930000D03*
Y2710000D03*
Y2490000D03*
X6300000Y2710000D03*
Y2930000D03*
Y2490000D03*
X6620000Y2930000D03*
Y2710000D03*
Y2490000D03*
X7500000Y2710000D03*
Y2930000D03*
Y2490000D03*
X8100000Y2710000D03*
Y2930000D03*
Y2490000D03*
X7820000Y2930000D03*
Y2710000D03*
Y2490000D03*
X8420000Y2930000D03*
Y2710000D03*
Y2490000D03*
X9620000Y2930000D03*
Y2710000D03*
Y2490000D03*
X9910000Y2710000D03*
Y2930000D03*
Y2490000D03*
X10230000Y2930000D03*
Y2710000D03*
Y2490000D03*
X11430000D03*
Y2710000D03*
Y2930000D03*
X12030000Y2490000D03*
Y2710000D03*
Y2930000D03*
X11710000Y2490000D03*
Y2930000D03*
Y2710000D03*
%LPD*%
G75*
G54D10*
X300000Y300000D03*
Y5700000D03*
X15000000Y300000D03*
Y5700000D03*
G54D20*
X14826000Y1644000D03*
Y1390000D03*
Y2406000D03*
Y2152000D03*
Y1898000D03*
Y2914000D03*
Y2660000D03*
X15080000Y1644000D03*
Y1390000D03*
Y2406000D03*
Y2152000D03*
Y1898000D03*
Y2914000D03*
Y2660000D03*
G54D11*
X260000Y790000D03*
Y1110000D03*
X280000Y2360000D03*
Y2040000D03*
Y3190000D03*
Y2580000D03*
Y2800000D03*
Y3730000D03*
Y3510000D03*
Y3950000D03*
X480000Y790000D03*
X700000D03*
X1020000D03*
X480000Y1110000D03*
X700000D03*
X1020000D03*
X890000Y2360000D03*
Y2040000D03*
X600000Y2360000D03*
Y2040000D03*
X890000Y3190000D03*
X600000D03*
X890000Y2580000D03*
Y2800000D03*
X600000D03*
Y2580000D03*
X890000Y3730000D03*
Y3510000D03*
X600000Y3730000D03*
Y3510000D03*
X890000Y3950000D03*
X600000D03*
X1500000Y2490000D03*
Y2170000D03*
X1820000Y2490000D03*
Y2170000D03*
X1210000Y2360000D03*
Y2040000D03*
Y3190000D03*
X1500000Y2710000D03*
Y2930000D03*
X1820000D03*
Y2710000D03*
X1210000Y2800000D03*
Y2580000D03*
X1500000Y3890000D03*
Y3670000D03*
Y3350000D03*
X1820000Y3890000D03*
Y3670000D03*
Y3350000D03*
X1210000Y3730000D03*
Y3510000D03*
X1500000Y4110000D03*
X1820000D03*
X1210000Y3950000D03*
X2100000Y2490000D03*
Y2170000D03*
X2420000Y2490000D03*
Y2170000D03*
X2100000Y2710000D03*
Y2930000D03*
X2420000D03*
Y2710000D03*
X2100000Y3890000D03*
Y3670000D03*
Y3350000D03*
X2420000Y3890000D03*
Y3670000D03*
Y3350000D03*
X2100000Y4110000D03*
X2420000D03*
X2700000Y2490000D03*
Y2170000D03*
X3020000Y2490000D03*
Y2170000D03*
X2700000Y2710000D03*
Y2930000D03*
X3020000D03*
Y2710000D03*
X2700000Y3890000D03*
Y3670000D03*
Y3350000D03*
X3020000Y3890000D03*
Y3670000D03*
Y3350000D03*
X2700000Y4110000D03*
X3020000D03*
X3900000Y2490000D03*
Y2170000D03*
X3300000Y2490000D03*
Y2170000D03*
X3620000Y2490000D03*
Y2170000D03*
X3900000Y2710000D03*
Y2930000D03*
X3300000Y2710000D03*
Y2930000D03*
X3620000D03*
Y2710000D03*
X3900000Y3890000D03*
Y3670000D03*
Y3350000D03*
X3300000Y3890000D03*
Y3670000D03*
Y3350000D03*
X3620000Y3890000D03*
Y3670000D03*
Y3350000D03*
X3900000Y4110000D03*
X3300000D03*
X3620000D03*
X4500000Y2490000D03*
Y2170000D03*
X4220000Y2490000D03*
Y2170000D03*
X4500000Y2710000D03*
Y2930000D03*
X4220000D03*
Y2710000D03*
X4500000Y3890000D03*
Y3670000D03*
Y3350000D03*
X4220000Y3890000D03*
Y3670000D03*
Y3350000D03*
X4500000Y4110000D03*
X4220000D03*
X5100000Y2490000D03*
Y2170000D03*
X4820000Y2490000D03*
Y2170000D03*
X5100000Y2710000D03*
Y2930000D03*
X4820000D03*
Y2710000D03*
X5100000Y3890000D03*
Y3670000D03*
Y3350000D03*
X4820000Y3890000D03*
Y3670000D03*
Y3350000D03*
X5100000Y4110000D03*
X4820000D03*
X5700000Y2490000D03*
Y2170000D03*
X5420000Y2490000D03*
Y2170000D03*
X5700000Y2710000D03*
Y2930000D03*
X5420000D03*
Y2710000D03*
X5700000Y3890000D03*
Y3670000D03*
Y3350000D03*
X5420000Y3890000D03*
Y3670000D03*
Y3350000D03*
X5700000Y4110000D03*
X5420000D03*
X6300000Y2490000D03*
Y2170000D03*
X6620000Y2490000D03*
Y2170000D03*
X6020000Y2490000D03*
Y2170000D03*
X6300000Y2710000D03*
Y2930000D03*
X6620000D03*
Y2710000D03*
X6020000Y2930000D03*
Y2710000D03*
X6300000Y3890000D03*
Y3670000D03*
Y3350000D03*
X6620000Y3890000D03*
Y3670000D03*
Y3350000D03*
X6020000Y3890000D03*
Y3670000D03*
Y3350000D03*
X6300000Y4110000D03*
X6620000D03*
X6020000D03*
X6900000Y2490000D03*
Y2170000D03*
X7220000Y2490000D03*
Y2170000D03*
X6900000Y2710000D03*
Y2930000D03*
X7220000D03*
Y2710000D03*
X6900000Y3890000D03*
Y3670000D03*
Y3350000D03*
X7220000Y3890000D03*
Y3670000D03*
Y3350000D03*
X6900000Y4110000D03*
X7220000D03*
X7500000Y2490000D03*
Y2170000D03*
X7820000Y2490000D03*
Y2170000D03*
X7500000Y2710000D03*
Y2930000D03*
X7820000D03*
Y2710000D03*
X7500000Y3890000D03*
Y3670000D03*
Y3350000D03*
X7820000Y3890000D03*
Y3670000D03*
Y3350000D03*
X7500000Y4110000D03*
X7820000D03*
X8700000Y2490000D03*
Y2170000D03*
X8100000Y2490000D03*
Y2170000D03*
X8420000Y2490000D03*
Y2170000D03*
X8700000Y2710000D03*
Y2930000D03*
X8100000Y2710000D03*
Y2930000D03*
X8420000D03*
Y2710000D03*
X8700000Y3890000D03*
Y3670000D03*
Y3350000D03*
X8100000Y3890000D03*
Y3670000D03*
Y3350000D03*
X8420000Y3890000D03*
Y3670000D03*
Y3350000D03*
X8700000Y4110000D03*
X8100000D03*
X8420000D03*
X9020000Y2490000D03*
Y2170000D03*
X9300000Y2490000D03*
Y2170000D03*
X9020000Y2930000D03*
Y2710000D03*
X9300000D03*
Y2930000D03*
Y3890000D03*
Y3670000D03*
Y3350000D03*
X9020000Y3890000D03*
Y3670000D03*
Y3350000D03*
X9300000Y4110000D03*
X9020000D03*
X9910000Y2490000D03*
Y2170000D03*
X9620000Y2490000D03*
Y2170000D03*
X9910000Y2710000D03*
Y2930000D03*
X9620000D03*
Y2710000D03*
Y3890000D03*
Y3670000D03*
Y3350000D03*
X9910000Y3890000D03*
Y3670000D03*
Y3350000D03*
X9620000Y4110000D03*
X9910000D03*
X10510000Y2490000D03*
Y2170000D03*
X10830000Y2490000D03*
Y2170000D03*
X10230000Y2490000D03*
Y2170000D03*
X10510000Y2710000D03*
Y2930000D03*
X10830000D03*
Y2710000D03*
X10230000Y2930000D03*
Y2710000D03*
X10510000Y3890000D03*
Y3670000D03*
Y3350000D03*
X10830000Y3890000D03*
Y3670000D03*
Y3350000D03*
X10230000Y3890000D03*
Y3670000D03*
Y3350000D03*
X10510000Y4110000D03*
X10830000D03*
X10230000D03*
X11110000Y2490000D03*
Y2170000D03*
X11430000Y2490000D03*
Y2170000D03*
X11110000Y2710000D03*
Y2930000D03*
X11430000D03*
Y2710000D03*
X11110000Y3890000D03*
Y3670000D03*
Y3350000D03*
X11430000Y3890000D03*
Y3670000D03*
Y3350000D03*
X11110000Y4110000D03*
X11430000D03*
X11710000Y2490000D03*
Y2170000D03*
X12030000Y2490000D03*
Y2170000D03*
X11710000Y2710000D03*
Y2930000D03*
X12030000D03*
Y2710000D03*
X11710000Y3890000D03*
Y3670000D03*
Y3350000D03*
X12030000Y3890000D03*
Y3670000D03*
Y3350000D03*
X11710000Y4110000D03*
X12030000D03*
X12310000Y2490000D03*
Y2170000D03*
X12630000Y2490000D03*
Y2170000D03*
X12900000Y2260000D03*
X12310000Y2710000D03*
Y2930000D03*
X12630000D03*
Y2710000D03*
X12900000Y2800000D03*
Y3020000D03*
Y2580000D03*
X12310000Y3890000D03*
Y3670000D03*
Y3350000D03*
X12630000Y3890000D03*
Y3670000D03*
Y3350000D03*
X12900000Y3890000D03*
Y3670000D03*
Y3350000D03*
X12310000Y4110000D03*
X12630000D03*
X12900000D03*
X13510000Y2260000D03*
X13220000D03*
X13510000Y2800000D03*
Y3020000D03*
Y2580000D03*
X13220000Y3020000D03*
Y2800000D03*
Y2580000D03*
X13510000Y3890000D03*
Y3670000D03*
Y3350000D03*
X13220000Y3890000D03*
Y3670000D03*
Y3350000D03*
X13510000Y4110000D03*
X13220000D03*
X13830000Y2260000D03*
X14170000Y2480000D03*
Y2160000D03*
X13830000Y3020000D03*
Y2800000D03*
Y2580000D03*
X14170000Y2700000D03*
Y2920000D03*
X14140000Y3250000D03*
Y3470000D03*
Y3690000D03*
X13830000Y3890000D03*
Y3670000D03*
Y3350000D03*
X14140000Y4010000D03*
X13830000Y4110000D03*
X14490000Y2480000D03*
Y2160000D03*
Y2920000D03*
Y2700000D03*
X14460000Y3470000D03*
Y3250000D03*
Y3690000D03*
Y4010000D03*
G54D12*
X234000Y1416000D03*
X488000D03*
X234000Y1670000D03*
X488000D03*
X742000Y1416000D03*
X996000D03*
X742000Y1670000D03*
X996000D03*
X1250000Y1416000D03*
X1504000D03*
X1758000D03*
X1250000Y1670000D03*
X1504000D03*
X1758000D03*
X1404000Y4456000D03*
X1658000D03*
X1404000Y4710000D03*
X1658000D03*
X2012000Y1416000D03*
X2266000D03*
X2520000D03*
X2012000Y1670000D03*
X2266000D03*
X2520000D03*
X1912000Y4456000D03*
X2166000D03*
X2420000D03*
X1912000Y4710000D03*
X2166000D03*
X2420000D03*
X2774000Y1416000D03*
X3028000D03*
X2774000Y1670000D03*
X3028000D03*
X2674000Y4456000D03*
X2928000D03*
X3182000D03*
X2674000Y4710000D03*
X2928000D03*
X3182000D03*
X3282000Y1416000D03*
X3536000D03*
X3790000D03*
X3282000Y1670000D03*
X3536000D03*
X3790000D03*
X3436000Y4456000D03*
X3690000D03*
X3944000D03*
X3436000Y4710000D03*
X3690000D03*
X3944000D03*
X4044000Y1416000D03*
X4298000D03*
X4552000D03*
X4044000Y1670000D03*
X4298000D03*
X4552000D03*
X4198000Y4456000D03*
X4452000D03*
X4198000Y4710000D03*
X4452000D03*
X4806000Y1416000D03*
X5060000D03*
X5314000D03*
X4806000Y1670000D03*
X5060000D03*
X5314000D03*
X4706000Y4456000D03*
X4960000D03*
X5214000D03*
X4706000Y4710000D03*
X4960000D03*
X5214000D03*
X5568000Y1416000D03*
X5822000D03*
X5568000Y1670000D03*
X5822000D03*
X5468000Y4456000D03*
X5722000D03*
X5976000D03*
X5468000Y4710000D03*
X5722000D03*
X5976000D03*
X6076000Y1416000D03*
X6330000D03*
X6584000D03*
X6076000Y1670000D03*
X6330000D03*
X6584000D03*
X6230000Y4456000D03*
X6484000D03*
X6230000Y4710000D03*
X6484000D03*
X6838000Y1416000D03*
X7092000D03*
X7346000D03*
X6838000Y1670000D03*
X7092000D03*
X7346000D03*
X6738000Y4456000D03*
X6992000D03*
X7246000D03*
X6738000Y4710000D03*
X6992000D03*
X7246000D03*
X7600000Y1416000D03*
Y1670000D03*
X7854000Y1416000D03*
Y1670000D03*
X8108000Y1416000D03*
Y1670000D03*
X7500000Y4456000D03*
X7754000D03*
X8008000D03*
X7500000Y4710000D03*
X7754000D03*
X8008000D03*
X8362000Y1416000D03*
Y1670000D03*
X8616000Y1416000D03*
Y1670000D03*
X8262000Y4456000D03*
X8516000D03*
X8770000D03*
X8262000Y4710000D03*
X8516000D03*
X8770000D03*
X8870000Y1416000D03*
Y1670000D03*
X9124000Y1416000D03*
Y1670000D03*
X9378000Y1416000D03*
Y1670000D03*
X9024000Y4456000D03*
X9278000D03*
X9024000Y4710000D03*
X9278000D03*
X9632000Y1416000D03*
Y1670000D03*
X9886000Y1416000D03*
Y1670000D03*
X10140000Y1416000D03*
Y1670000D03*
X9532000Y4456000D03*
X9786000D03*
X10040000D03*
X9532000Y4710000D03*
X9786000D03*
X10040000D03*
X10394000Y1416000D03*
Y1670000D03*
X10648000Y1416000D03*
Y1670000D03*
X10294000Y4456000D03*
X10548000D03*
X10802000D03*
X10294000Y4710000D03*
X10548000D03*
X10802000D03*
X10902000Y1416000D03*
Y1670000D03*
X11156000Y1416000D03*
Y1670000D03*
X11410000Y1416000D03*
Y1670000D03*
X11056000Y4456000D03*
X11310000D03*
X11564000D03*
X11056000Y4710000D03*
X11310000D03*
X11564000D03*
X11664000Y1416000D03*
Y1670000D03*
X11918000Y1416000D03*
Y1670000D03*
X12172000Y1416000D03*
Y1670000D03*
X11818000Y4456000D03*
X12072000D03*
X11818000Y4710000D03*
X12072000D03*
X12426000Y1416000D03*
Y1670000D03*
X12680000Y1416000D03*
X12326000Y4456000D03*
X12580000D03*
X12834000D03*
X12326000Y4710000D03*
X12580000D03*
X12834000D03*
X13088000Y4456000D03*
X13342000D03*
X13596000D03*
X13088000Y4710000D03*
X13342000D03*
X13596000D03*
X13850000Y4456000D03*
G54D21*
X14700000Y3180000D03*
G54D22*
G01X380400Y1670000D02*
X488000D01*
G01X380400Y1416000D02*
X488000D01*
G01X1020000Y1110000D02*
Y1185100D01*
G01X944900Y1110000D02*
X1020000D01*
G01D02*
X1095100D01*
G01X488000Y1562400D02*
Y1670000D01*
G01D02*
Y1777600D01*
G01Y1670000D02*
X595600D01*
G01X488000Y1308400D02*
Y1416000D01*
G01D02*
Y1523600D01*
G01Y1416000D02*
X595600D01*
G01X600000Y1964900D02*
Y2040000D01*
G01D02*
Y2115100D01*
G01X524900Y2040000D02*
X600000D01*
G01D02*
X675100D01*
G01X600000Y3190000D02*
Y3265100D01*
G01X524900Y3190000D02*
X600000D01*
G01X1681000Y658900D02*
Y754000D01*
G01D02*
Y849100D01*
G01X1585900Y754000D02*
X1681000D01*
G01D02*
X1776100D01*
G01X1427000Y658900D02*
Y754000D01*
G01D02*
Y849100D01*
G01X1331900Y754000D02*
X1427000D01*
G01D02*
X1522100D01*
G01X1210000Y1964900D02*
Y2040000D01*
G01D02*
Y2115100D01*
G01X1134900Y2040000D02*
X1210000D01*
G01D02*
X1285100D01*
G01X1744900Y2170000D02*
X1820000D01*
G01X1210000Y3114900D02*
Y3190000D01*
G01D02*
Y3265100D01*
G01X1134900Y3190000D02*
X1210000D01*
G01D02*
X1285100D01*
G01X1744900Y3350000D02*
X1820000D01*
G01X2443000Y658900D02*
Y754000D01*
G01D02*
Y849100D01*
G01X2347900Y754000D02*
X2443000D01*
G01D02*
X2538100D01*
G01X1935000Y658900D02*
Y754000D01*
G01D02*
Y849100D01*
G01X1839900Y754000D02*
X1935000D01*
G01D02*
X2030100D01*
G01X2189000Y658900D02*
Y754000D01*
G01D02*
Y849100D01*
G01X2093900Y754000D02*
X2189000D01*
G01D02*
X2284100D01*
G01X2420000Y2094900D02*
Y2170000D01*
G01X2344900D02*
X2420000D01*
G01D02*
X2495100D01*
G01X1820000Y2094900D02*
Y2170000D01*
G01D02*
Y2245100D01*
G01Y2170000D02*
X1895100D01*
G01X2100000D02*
Y2245100D01*
G01Y2170000D02*
X2175100D01*
G01X1820000Y3274900D02*
Y3350000D01*
G01D02*
Y3425100D01*
G01Y3350000D02*
X1895100D01*
G01X2420000D02*
Y3425100D01*
G01X2344900Y3350000D02*
X2420000D01*
G01D02*
X2495100D01*
G01X2100000Y3274900D02*
Y3350000D01*
G01D02*
X2175100D01*
G01X2951000Y404900D02*
Y500000D01*
G01Y912900D02*
Y1008000D01*
G01D02*
Y1103100D01*
G01X2855900Y1008000D02*
X2951000D01*
G01D02*
X3046100D01*
G01X2697000Y658900D02*
Y754000D01*
G01D02*
Y849100D01*
G01X2601900Y754000D02*
X2697000D01*
G01D02*
X2792100D01*
G01X2951000Y658900D02*
Y754000D01*
G01D02*
Y849100D01*
G01X2855900Y754000D02*
X2951000D01*
G01D02*
X3046100D01*
G01X2951000Y500000D02*
Y595100D01*
G01X2855900Y500000D02*
X2951000D01*
G01D02*
X3046100D01*
G01X3020000Y2094900D02*
Y2170000D01*
G01X2944900D02*
X3020000D01*
G01D02*
X3095100D01*
G01X2700000D02*
Y2245100D01*
G01X2624900Y2170000D02*
X2700000D01*
G01D02*
X2775100D01*
G01X3020000Y3350000D02*
Y3425100D01*
G01X2944900Y3350000D02*
X3020000D01*
G01D02*
X3095100D01*
G01X2700000Y3274900D02*
Y3350000D01*
G01X2624900D02*
X2700000D01*
G01D02*
X2775100D01*
G01X3620000Y2094900D02*
Y2170000D01*
G01D02*
Y2245100D01*
G01X3544900Y2170000D02*
X3620000D01*
G01D02*
X3695100D01*
G01X3300000D02*
Y2245100D01*
G01X3224900Y2170000D02*
X3300000D01*
G01X3620000Y3274900D02*
Y3350000D01*
G01D02*
Y3425100D01*
G01X3544900Y3350000D02*
X3620000D01*
G01D02*
X3695100D01*
G01X3300000Y3274900D02*
Y3350000D01*
G01X3224900D02*
X3300000D01*
G01X3900000Y2170000D02*
Y2245100D01*
G01Y2170000D02*
X3975100D01*
G01X4500000D02*
Y2245100D01*
G01X4424900Y2170000D02*
X4500000D01*
G01D02*
X4575100D01*
G01X4220000Y2094900D02*
Y2170000D01*
G01X4144900D02*
X4220000D01*
G01D02*
X4295100D01*
G01X3900000Y3274900D02*
Y3350000D01*
G01D02*
X3975100D01*
G01X4500000Y3274900D02*
Y3350000D01*
G01X4424900D02*
X4500000D01*
G01D02*
X4575100D01*
G01X4220000D02*
Y3425100D01*
G01X4144900Y3350000D02*
X4220000D01*
G01D02*
X4295100D01*
G01X5100000Y2170000D02*
Y2245100D01*
G01X5024900Y2170000D02*
X5100000D01*
G01X4820000Y2094900D02*
Y2170000D01*
G01X4744900D02*
X4820000D01*
G01D02*
X4895100D01*
G01X5100000Y3274900D02*
Y3350000D01*
G01X5024900D02*
X5100000D01*
G01X4820000D02*
Y3425100D01*
G01X4744900Y3350000D02*
X4820000D01*
G01D02*
X4895100D01*
G01X5700000Y2170000D02*
Y2245100D01*
G01Y2170000D02*
X5775100D01*
G01X5420000Y2094900D02*
Y2170000D01*
G01D02*
Y2245100D01*
G01X5344900Y2170000D02*
X5420000D01*
G01D02*
X5495100D01*
G01X5944900D02*
X6020000D01*
G01X5700000Y3274900D02*
Y3350000D01*
G01D02*
X5775100D01*
G01X5420000Y3274900D02*
Y3350000D01*
G01D02*
Y3425100D01*
G01X5344900Y3350000D02*
X5420000D01*
G01D02*
X5495100D01*
G01X5944900D02*
X6020000D01*
G01X6300000Y2170000D02*
Y2245100D01*
G01X6224900Y2170000D02*
X6300000D01*
G01D02*
X6375100D01*
G01X6020000Y2094900D02*
Y2170000D01*
G01D02*
X6095100D01*
G01X6620000Y2094900D02*
Y2170000D01*
G01X6544900D02*
X6620000D01*
G01D02*
X6695100D01*
G01X6300000Y3274900D02*
Y3350000D01*
G01X6224900D02*
X6300000D01*
G01D02*
X6375100D01*
G01X6620000D02*
Y3425100D01*
G01X6544900Y3350000D02*
X6620000D01*
G01D02*
X6695100D01*
G01X6020000D02*
Y3425100D01*
G01Y3350000D02*
X6095100D01*
G01X6900000Y2170000D02*
Y2245100D01*
G01X6824900Y2170000D02*
X6900000D01*
G01X7220000Y2094900D02*
Y2170000D01*
G01D02*
Y2245100D01*
G01X7144900Y2170000D02*
X7220000D01*
G01D02*
X7295100D01*
G01X6900000Y3274900D02*
Y3350000D01*
G01X6824900D02*
X6900000D01*
G01X7220000Y3274900D02*
Y3350000D01*
G01D02*
Y3425100D01*
G01X7144900Y3350000D02*
X7220000D01*
G01D02*
X7295100D01*
G01X8024900Y2170000D02*
X8100000D01*
G01X7500000D02*
Y2245100D01*
G01Y2170000D02*
X7575100D01*
G01X7820000Y2094900D02*
Y2170000D01*
G01X7744900D02*
X7820000D01*
G01D02*
X7895100D01*
G01X8024900Y3350000D02*
X8100000D01*
G01X7500000Y3274900D02*
Y3350000D01*
G01D02*
X7575100D01*
G01X7820000D02*
Y3425100D01*
G01X7744900Y3350000D02*
X7820000D01*
G01D02*
X7895100D01*
G01X8700000Y2170000D02*
Y2245100D01*
G01X8624900Y2170000D02*
X8700000D01*
G01X8100000D02*
Y2245100D01*
G01Y2170000D02*
X8175100D01*
G01X8420000Y2094900D02*
Y2170000D01*
G01X8344900D02*
X8420000D01*
G01D02*
X8495100D01*
G01X8700000Y3274900D02*
Y3350000D01*
G01X8624900D02*
X8700000D01*
G01X8100000Y3274900D02*
Y3350000D01*
G01D02*
X8175100D01*
G01X8420000D02*
Y3425100D01*
G01X8344900Y3350000D02*
X8420000D01*
G01D02*
X8495100D01*
G01X9300000Y2170000D02*
Y2245100D01*
G01Y2170000D02*
X9375100D01*
G01X9020000Y2094900D02*
Y2170000D01*
G01D02*
Y2245100D01*
G01X8944900Y2170000D02*
X9020000D01*
G01D02*
X9095100D01*
G01X9300000Y3274900D02*
Y3350000D01*
G01D02*
X9375100D01*
G01X9020000Y3274900D02*
Y3350000D01*
G01D02*
Y3425100D01*
G01X8944900Y3350000D02*
X9020000D01*
G01D02*
X9095100D01*
G01X9910000Y2170000D02*
Y2245100D01*
G01X9834900Y2170000D02*
X9910000D01*
G01D02*
X9985100D01*
G01X9620000Y2094900D02*
Y2170000D01*
G01X9544900D02*
X9620000D01*
G01D02*
X9695100D01*
G01X9910000Y3274900D02*
Y3350000D01*
G01X9834900D02*
X9910000D01*
G01D02*
X9985100D01*
G01X9620000D02*
Y3425100D01*
G01X9544900Y3350000D02*
X9620000D01*
G01D02*
X9695100D01*
G01X10510000Y2170000D02*
Y2245100D01*
G01X10434900Y2170000D02*
X10510000D01*
G01X10230000Y2094900D02*
Y2170000D01*
G01X10154900D02*
X10230000D01*
G01D02*
X10305100D01*
G01X10754900D02*
X10830000D01*
G01X10510000Y3274900D02*
Y3350000D01*
G01X10434900D02*
X10510000D01*
G01X10230000D02*
Y3425100D01*
G01X10154900Y3350000D02*
X10230000D01*
G01D02*
X10305100D01*
G01X10754900D02*
X10830000D01*
G01X11110000Y2170000D02*
Y2245100D01*
G01Y2170000D02*
X11185100D01*
G01X11430000Y2094900D02*
Y2170000D01*
G01X11354900D02*
X11430000D01*
G01D02*
X11505100D01*
G01X10830000Y2094900D02*
Y2170000D01*
G01D02*
Y2245100D01*
G01Y2170000D02*
X10905100D01*
G01X11110000Y3274900D02*
Y3350000D01*
G01D02*
X11185100D01*
G01X10830000Y3274900D02*
Y3350000D01*
G01D02*
Y3425100D01*
G01Y3350000D02*
X10905100D01*
G01X11430000D02*
Y3425100D01*
G01X11354900Y3350000D02*
X11430000D01*
G01D02*
X11505100D01*
G01X11710000Y2170000D02*
Y2245100D01*
G01X11634900Y2170000D02*
X11710000D01*
G01D02*
X11785100D01*
G01X12030000Y2094900D02*
Y2170000D01*
G01X11954900D02*
X12030000D01*
G01D02*
X12105100D01*
G01X11710000Y3274900D02*
Y3350000D01*
G01X11634900D02*
X11710000D01*
G01D02*
X11785100D01*
G01X12030000D02*
Y3425100D01*
G01X11954900Y3350000D02*
X12030000D01*
G01D02*
X12105100D01*
G01X12310000Y2170000D02*
Y2245100D01*
G01X12234900Y2170000D02*
X12310000D01*
G01X12630000Y2094900D02*
Y2170000D01*
G01D02*
Y2245100D01*
G01X12554900Y2170000D02*
X12630000D01*
G01D02*
X12705100D01*
G01X12310000Y3274900D02*
Y3350000D01*
G01X12234900D02*
X12310000D01*
G01X12630000Y3274900D02*
Y3350000D01*
G01D02*
Y3425100D01*
G01X12554900Y3350000D02*
X12630000D01*
G01D02*
X12705100D01*
G01X13220000Y2260000D02*
Y2335100D01*
G01X13144900Y2260000D02*
X13220000D01*
G01D02*
X13295100D01*
G01X13220000Y3274900D02*
Y3350000D01*
G01D02*
Y3425100D01*
G01X13144900Y3350000D02*
X13220000D01*
G01D02*
X13295100D01*
G01X13830000Y2260000D02*
Y2335100D01*
G01X13754900Y2260000D02*
X13830000D01*
G01D02*
X13905100D01*
G01X13830000Y3274900D02*
Y3350000D01*
G01D02*
Y3425100D01*
G01X13754900Y3350000D02*
X13830000D01*
G01D02*
X13905100D01*
G01X14140000Y3934900D02*
Y4010000D01*
G01D02*
Y4085100D01*
G01X14064900Y4010000D02*
X14140000D01*
G01D02*
X14215100D01*
G01X14490000Y2084900D02*
Y2160000D01*
G01D02*
Y2235100D01*
G01X14414900Y2160000D02*
X14490000D01*
G01D02*
X14565100D01*
G01X14826000Y2290900D02*
Y2406000D01*
G01D02*
Y2521100D01*
G01X14710900Y2406000D02*
X14826000D01*
G01Y2152000D02*
Y2267100D01*
G01X14710900Y2152000D02*
X14826000D01*
G01X14935000Y3785000D02*
Y4068700D01*
X15049800Y4183500D01*
G54D13*
G01X6960000Y1730000D02*
Y1750000D01*
G01X8740000Y1720000D02*
Y1750000D01*
G01X12900000Y2260000D02*
X13030000Y2130000D01*
X13305000D01*
X13375000Y2200000D01*
Y2310000D01*
X13445000Y2380000D01*
X13585000D01*
X13670000Y2295000D01*
Y2155000D01*
X14025000Y1800000D01*
Y1710000D01*
X14085780Y1649220D01*
G01X13707500Y2952700D02*
X13665000Y2995200D01*
Y3070000D01*
X13550000Y3185000D01*
X13065000D01*
X12900000Y3350000D01*
G01X13755000Y1530000D02*
Y1746370D01*
X13758410Y1749780D01*
Y1861590D01*
X13510000Y2110000D01*
Y2260000D01*
G01X13785000Y1390000D02*
X13755000Y1420000D01*
Y1470000D01*
G01D02*
Y1530000D01*
G01X13832500Y1390000D02*
X13785000D01*
G01X13832500D02*
X13857500Y1365000D01*
G01X13832500Y1390000D02*
Y1392500D01*
X13755000Y1470000D01*
G01X13857500Y1365000D02*
Y1427500D01*
X13755000Y1530000D01*
G01X14254890Y1597810D02*
X14203480Y1649220D01*
G01X14085780D02*
X14203480D01*
G01X14254890Y1597810D02*
X14233600Y1576520D01*
X14158480D01*
X14085780Y1649220D01*
G01X14254890Y1597810D02*
X14152070D01*
G01X13707500Y2880000D02*
Y2952700D01*
G01X14869500Y4973700D02*
X14870000Y4973200D01*
Y4395000D01*
X14760000Y4285000D01*
X14480000D01*
G01X14612700Y4712500D02*
X14500000Y4599800D01*
Y4480000D01*
X14410000Y4390000D01*
X200000Y3855000D03*
X90000Y3562300D03*
X95000Y4047700D03*
X444600Y3090000D03*
X517300D03*
Y2995000D03*
X787300Y3090000D03*
X517300Y2900000D03*
X785000Y2995000D03*
X1390000Y80000D03*
X1730000Y5920000D03*
X1230000D03*
X2390000Y80000D03*
X1890000D03*
X2230000Y5920000D03*
X2890000Y80000D03*
X2730000Y5920000D03*
X3890000Y80000D03*
X3390000D03*
X3455000Y1845000D03*
X3710000Y4010000D03*
X3770000Y4060000D03*
X3230000Y5920000D03*
X3730000D03*
X4390000Y80000D03*
X3935000Y2035000D03*
X4230000Y5920000D03*
X4890000Y80000D03*
X4730000Y5920000D03*
X5230000D03*
X5390000Y80000D03*
X5890000D03*
X5730000Y5920000D03*
X6390000Y80000D03*
X6230000Y5920000D03*
X6890000Y80000D03*
X6835000Y3045000D03*
X7295000Y3235000D03*
X6970000Y4020000D03*
X7230000Y5920000D03*
X6730000D03*
X7890000Y80000D03*
X7390000D03*
X7370000Y4000000D03*
X7730000Y5920000D03*
X8390000Y80000D03*
X8730000Y5920000D03*
X8230000D03*
X9390000Y80000D03*
X8890000D03*
X9230000Y5920000D03*
X9890000Y80000D03*
X9730000Y5920000D03*
X10390000Y80000D03*
X10445000Y3045000D03*
X10620000Y3947500D03*
X10730000Y5920000D03*
X10230000D03*
X11390000Y80000D03*
X10890000D03*
X11195000Y3420000D03*
X10912700Y3235000D03*
X11230000Y5920000D03*
X11890000Y80000D03*
X11730000Y5920000D03*
X12890000Y80000D03*
X12390000D03*
X12500000Y3580000D03*
X12435000Y3527500D03*
X12230000Y5920000D03*
X12730000D03*
X13390000Y80000D03*
X13070000Y1415000D03*
X13375000Y1277700D03*
X13427500Y1342500D03*
X13070000Y1325000D03*
X13480000Y1279290D03*
X13280000Y1450000D03*
X13314170Y1345830D03*
X13275000Y1525000D03*
X13587500Y1290000D03*
X13532500Y1350000D03*
X13525000Y1905000D03*
X13375000Y1910000D03*
X13060000Y1920000D03*
X13267300Y2025000D03*
X13140000Y1932700D03*
X12990000Y3540000D03*
X13030000Y3670000D03*
X13065000Y3985000D03*
X13086100Y4057860D03*
X13230000Y5920000D03*
X13530000Y5652500D03*
X13450000Y5654630D03*
X13890000Y80000D03*
X14127810Y1772570D03*
X13849500Y1739670D03*
X13654520Y1544520D03*
X13617870Y1697870D03*
X13990000Y1260000D03*
X13610000Y1777500D03*
X13862300Y1660000D03*
X13683410Y1780850D03*
X13860000Y1277700D03*
X14196520Y1300000D03*
X13620000Y1620000D03*
X13925000Y1775000D03*
X13785000Y1390000D03*
X13857500Y1365000D03*
X13794890Y1310060D03*
X14255000Y1716620D03*
X14254890Y1597810D03*
X14203480Y1649220D03*
X13725000Y1290000D03*
X13932700Y1174170D03*
X13895000Y2170000D03*
X13950000Y2117700D03*
X13825000Y2140000D03*
X13707500Y2952700D03*
Y2880000D03*
X14040000Y4880000D03*
X14113000Y5522500D03*
X13730000Y5920000D03*
X13810000Y5712500D03*
X14187870Y5477870D03*
X13730000Y5732500D03*
X14332700Y1805000D03*
X14395000Y1900000D03*
X14403900Y2054350D03*
X14935000Y3785000D03*
X14480000Y4285000D03*
X14410000Y4390000D03*
X14405000Y4510000D03*
X14869500Y4973700D03*
X14612700Y4712500D03*
X15095000Y3597300D03*
X15049800Y4183500D03*
Y3929500D03*
X15049500Y4310500D03*
X15055000Y4990000D03*
X15125000D03*
X15200000D03*
X15195000Y4895000D03*
Y4820000D03*
X15045000Y4670000D03*
X15195000Y4677300D03*
Y4750000D03*
X15197700Y5250000D03*
X15005000D03*
G54D23*
G01X12500000Y3580000D02*
X12490000D01*
X12480000Y3590000D01*
X1500000D01*
X1265000Y3355000D01*
X840000D01*
X695000Y3210000D01*
Y3155000D01*
X535000Y2995000D01*
X517300D01*
G01X12435000Y3527500D02*
X12406220Y3556280D01*
X1508710D01*
X1277430Y3325000D01*
X859990D01*
X725000Y3190010D01*
Y3055000D01*
X785000Y2995000D01*
G01X2951000Y4992000D02*
X3050000Y4893000D01*
Y4350000D01*
X3140000Y4260000D01*
X3630000D01*
X3710000Y4180000D01*
Y4010000D01*
G01X3436000Y4710000D02*
X3560000Y4586000D01*
Y4360000D01*
X3600000Y4320000D01*
X3650000D01*
X3770000Y4200000D01*
Y4060000D01*
G01X12970000Y1564000D02*
X12969000D01*
X12880000Y1475000D01*
Y1255000D01*
X13015000Y1120000D01*
X13960000D01*
X13995000Y1155000D01*
Y1179990D01*
X14085000Y1269990D01*
Y1310000D01*
X14320000Y1545000D01*
Y1735010D01*
X14085010Y1970000D01*
X14015000D01*
X13890000Y2095000D01*
Y2165000D01*
X13895000Y2170000D01*
G01X13873000Y1008000D02*
X14148000D01*
X14580010Y1440010D01*
Y1870010D01*
X14735000Y2025000D01*
X14885000D01*
X14950000Y2090000D01*
Y3150000D01*
X14600000Y3500000D01*
Y3730000D01*
X14077500Y4252500D01*
X12857500D01*
X12750000Y4145000D01*
Y4010000D01*
X12630000Y3890000D01*
G01X12970000Y1310000D02*
X13070000Y1210000D01*
X13866550D01*
X13925000Y1268450D01*
Y1775000D01*
G01X14146000Y900000D02*
X14640000Y1394000D01*
Y1712000D01*
X14826000Y1898000D01*
G54D14*
X919000Y246000D03*
Y5754000D03*
X14381000Y246000D03*
Y5754000D03*
G54D24*
G01X0Y0D02*
Y6000000D01*
X15300000D01*
Y0D01*
X0D01*
G54D15*
X599800Y4513340D03*
Y5021340D03*
X14700000Y4540000D03*
Y5048000D03*
G54D16*
X1681000Y500000D03*
X1427000D03*
X1681000Y754000D03*
X1427000D03*
X1681000Y1008000D03*
X1427000D03*
Y5246000D03*
X1681000D03*
X1427000Y4992000D03*
X1681000D03*
X1427000Y5500000D03*
X1681000D03*
X2443000Y500000D03*
X2189000D03*
X1935000D03*
X2443000Y754000D03*
X2189000D03*
X1935000D03*
X2443000Y1008000D03*
X2189000D03*
X1935000D03*
Y5246000D03*
X2189000D03*
X2443000D03*
X1935000Y4992000D03*
X2189000D03*
X2443000D03*
X1935000Y5500000D03*
X2189000D03*
X2443000D03*
X3205000Y500000D03*
X2951000D03*
X2697000D03*
X3205000Y754000D03*
X2951000D03*
X2697000D03*
X3205000Y1008000D03*
X2951000D03*
X2697000D03*
Y5246000D03*
X2951000D03*
X3205000D03*
X2697000Y4992000D03*
X2951000D03*
X3205000D03*
X2697000Y5500000D03*
X2951000D03*
X3205000D03*
X3713000Y500000D03*
X3459000D03*
X3713000Y754000D03*
X3459000D03*
X3713000Y1008000D03*
X3459000D03*
Y5246000D03*
X3713000D03*
X3459000Y4992000D03*
X3713000D03*
X3459000Y5500000D03*
X3713000D03*
X4475000Y500000D03*
X4221000D03*
X3967000D03*
X4475000Y754000D03*
X4221000D03*
X3967000D03*
X4475000Y1008000D03*
X4221000D03*
X3967000D03*
Y5246000D03*
X4221000D03*
X4475000D03*
X3967000Y4992000D03*
X4221000D03*
X4475000D03*
X3967000Y5500000D03*
X4221000D03*
X4475000D03*
X5237000Y500000D03*
X4983000D03*
X4729000D03*
X5237000Y754000D03*
X4983000D03*
X4729000D03*
X5237000Y1008000D03*
X4983000D03*
X4729000D03*
Y5246000D03*
X4983000D03*
X5237000D03*
X4729000Y4992000D03*
X4983000D03*
X5237000D03*
X4729000Y5500000D03*
X4983000D03*
X5237000D03*
X5999000Y500000D03*
X5745000D03*
X5491000D03*
X5999000Y754000D03*
X5745000D03*
X5491000D03*
X5999000Y1008000D03*
X5745000D03*
X5491000D03*
Y5246000D03*
X5745000D03*
X5999000D03*
X5491000Y4992000D03*
X5745000D03*
X5999000D03*
X5491000Y5500000D03*
X5745000D03*
X5999000D03*
X6507000Y500000D03*
X6253000D03*
X6507000Y754000D03*
X6253000D03*
X6507000Y1008000D03*
X6253000D03*
Y5246000D03*
X6507000D03*
X6253000Y4992000D03*
X6507000D03*
X6253000Y5500000D03*
X6507000D03*
X7269000Y500000D03*
X7015000D03*
X6761000D03*
X7269000Y754000D03*
X7015000D03*
X6761000D03*
X7269000Y1008000D03*
X7015000D03*
X6761000D03*
Y5246000D03*
X7015000D03*
X7269000D03*
X6761000Y4992000D03*
X7015000D03*
X7269000D03*
X6761000Y5500000D03*
X7015000D03*
X7269000D03*
X8031000Y500000D03*
X7777000D03*
X7523000D03*
X8031000Y754000D03*
X7777000D03*
X7523000D03*
X8031000Y1008000D03*
X7777000D03*
X7523000D03*
Y5246000D03*
X7777000D03*
X8031000D03*
X7523000Y4992000D03*
X7777000D03*
X8031000D03*
X7523000Y5500000D03*
X7777000D03*
X8031000D03*
X8793000Y500000D03*
X8539000D03*
X8285000D03*
X8793000Y754000D03*
X8539000D03*
X8285000D03*
X8793000Y1008000D03*
X8539000D03*
X8285000D03*
Y5246000D03*
X8539000D03*
X8793000D03*
X8285000Y4992000D03*
X8539000D03*
X8793000D03*
X8285000Y5500000D03*
X8539000D03*
X8793000D03*
X9301000Y500000D03*
X9047000D03*
X9301000Y754000D03*
X9047000D03*
X9301000Y1008000D03*
X9047000D03*
Y5246000D03*
X9301000D03*
X9047000Y4992000D03*
X9301000D03*
X9047000Y5500000D03*
X9301000D03*
X10063000Y500000D03*
X9809000D03*
X9555000D03*
X10063000Y754000D03*
X9809000D03*
X9555000D03*
X10063000Y1008000D03*
X9809000D03*
X9555000D03*
Y5246000D03*
X9809000D03*
X10063000D03*
X9555000Y4992000D03*
X9809000D03*
X10063000D03*
X9555000Y5500000D03*
X9809000D03*
X10063000D03*
X10825000Y500000D03*
X10571000D03*
X10317000D03*
X10825000Y754000D03*
X10571000D03*
X10317000D03*
X10825000Y1008000D03*
X10571000D03*
X10317000D03*
Y5246000D03*
X10571000D03*
X10825000D03*
X10317000Y4992000D03*
X10571000D03*
X10825000D03*
X10317000Y5500000D03*
X10571000D03*
X10825000D03*
X11333000Y500000D03*
X11079000D03*
X11333000Y754000D03*
X11079000D03*
X11333000Y1008000D03*
X11079000D03*
Y5246000D03*
X11333000D03*
X11079000Y4992000D03*
X11333000D03*
X11079000Y5500000D03*
X11333000D03*
X12095000Y500000D03*
X11841000D03*
X11587000D03*
X12095000Y754000D03*
X11841000D03*
X11587000D03*
X12095000Y1008000D03*
X11841000D03*
X11587000D03*
Y5246000D03*
X11841000D03*
X12095000D03*
X11587000Y4992000D03*
X11841000D03*
X12095000D03*
X11587000Y5500000D03*
X11841000D03*
X12095000D03*
X12857000Y500000D03*
X12603000D03*
X12349000D03*
X12857000Y754000D03*
X12603000D03*
X12349000D03*
X12857000Y1008000D03*
X12603000D03*
X12349000D03*
Y5246000D03*
X12603000D03*
X12857000D03*
X12349000Y4992000D03*
X12603000D03*
X12857000D03*
X12349000Y5500000D03*
X12603000D03*
X12857000D03*
X13619000Y500000D03*
X13365000D03*
X13111000D03*
X13619000Y754000D03*
X13365000D03*
X13111000D03*
X13619000Y1008000D03*
X13365000D03*
X13111000D03*
Y5246000D03*
X13365000D03*
X13619000D03*
X13111000Y4992000D03*
X13365000D03*
X13619000D03*
X13111000Y5500000D03*
X13365000D03*
X13619000D03*
X13873000Y500000D03*
Y754000D03*
Y1008000D03*
Y5246000D03*
Y4992000D03*
Y5500000D03*
G54D17*
X12680000Y1670000D03*
X13850000Y4710000D03*
G54D18*
X12970000Y1310000D03*
Y1437000D03*
Y1564000D03*
Y1691000D03*
Y1818000D03*
G54D19*
X14146000Y1154000D03*
Y900000D03*
Y646000D03*
X14654000D03*
Y1154000D03*
M02*
