G04 ================== begin FILE IDENTIFICATION RECORD ==================*
G04 Layout Name:  C:/NOW_WORK/VoloKh/CPI2/MAIN/BRD/CPI2_MAIN.brd*
G04 Film Name:    SILKSCREEN_BOT*
G04 File Format:  Gerber RS274X*
G04 File Origin:  Cadence Allegro 17.2-S074*
G04 Origin Date:  Tue Mar 30 10:27:56 2021*
G04 *
G04 Layer:  REF DES/SILKSCREEN_BOTTOM*
G04 Layer:  PACKAGE GEOMETRY/SILKSCREEN_BOTTOM*
G04 Layer:  BOARD GEOMETRY/SILKSCREEN_BOTTOM*
G04 *
G04 Offset:    (0.0000 0.0000)*
G04 Mirror:    No*
G04 Mode:      Positive*
G04 Rotation:  0*
G04 FullContactRelief:  No*
G04 UndefLineWidth:     0.1000*
G04 ================== end FILE IDENTIFICATION RECORD ====================*
%FSLAX25Y25*MOMM*%
%IR0*IPPOS*OFA0.00000B0.00000*MIA0B0*SFA1.00000B1.00000*%
%ADD10C,.12*%
%ADD11C,.5*%
%ADD12C,.15*%
%ADD13C,.125*%
G75*
%LPD*%
G75*
G54D10*
G01X238330Y3430000D02*
Y3520000D01*
X209170D01*
X199830Y3515500D01*
X194000Y3509500D01*
X191670Y3497500D01*
X194000Y3485500D01*
X201000Y3478000D01*
X209170Y3473500D01*
X238330D01*
G01X209170D02*
X191670Y3430000D01*
G01X142000D02*
Y3520000D01*
X156000Y3502000D01*
G01Y3430000D02*
X128000D01*
G01X69000Y3520000D02*
X78330Y3517000D01*
X85330Y3509500D01*
X90000Y3500500D01*
X93500Y3488500D01*
X94670Y3475000D01*
X93500Y3461500D01*
X90000Y3449500D01*
X85330Y3440500D01*
X78330Y3433000D01*
X69000Y3430000D01*
X59670Y3433000D01*
X52670Y3440500D01*
X48000Y3449500D01*
X44500Y3461500D01*
X43330Y3475000D01*
X44500Y3488500D01*
X48000Y3500500D01*
X52670Y3509500D01*
X59670Y3517000D01*
X69000Y3520000D01*
G01X1175670Y3070000D02*
Y3005500D01*
X1171000Y2992000D01*
X1161670Y2983000D01*
X1150000Y2980000D01*
X1138330Y2983000D01*
X1129000Y2992000D01*
X1124330Y3005500D01*
Y3070000D01*
G01X1077000Y2980000D02*
Y3070000D01*
X1091000Y3052000D01*
G01Y2980000D02*
X1063000D01*
G01X1004000Y3070000D02*
X1013330Y3067000D01*
X1020330Y3059500D01*
X1025000Y3050500D01*
X1028500Y3038500D01*
X1029670Y3025000D01*
X1028500Y3011500D01*
X1025000Y2999500D01*
X1020330Y2990500D01*
X1013330Y2983000D01*
X1004000Y2980000D01*
X994670Y2983000D01*
X987670Y2990500D01*
X983000Y2999500D01*
X979500Y3011500D01*
X978330Y3025000D01*
X979500Y3038500D01*
X983000Y3050500D01*
X987670Y3059500D01*
X994670Y3067000D01*
X1004000Y3070000D01*
G01X4018300Y1884330D02*
X3953800D01*
X3940300Y1889000D01*
X3931300Y1898330D01*
X3928300Y1910000D01*
X3931300Y1921670D01*
X3940300Y1931000D01*
X3953800Y1935670D01*
X4018300D01*
G01X3938800Y1963170D02*
X3931300Y1971330D01*
X3928300Y1980670D01*
X3931300Y1990000D01*
X3940300Y1998170D01*
X3953800Y2004000D01*
X3967300Y2006330D01*
X3983800D01*
X3997300Y2004000D01*
X4009300Y1998170D01*
X4015300Y1991170D01*
X4018300Y1983000D01*
X4015300Y1973670D01*
X4009300Y1966670D01*
X4000300Y1962000D01*
X3988300Y1959670D01*
X3977800Y1962000D01*
X3967300Y1967830D01*
X3961300Y1974830D01*
X3959800Y1983000D01*
X3962800Y1992330D01*
X3970300Y1999330D01*
X3983800Y2006330D01*
G01X7388300Y3064330D02*
X7323800D01*
X7310300Y3069000D01*
X7301300Y3078330D01*
X7298300Y3090000D01*
X7301300Y3101670D01*
X7310300Y3111000D01*
X7323800Y3115670D01*
X7388300D01*
G01X7298300Y3163000D02*
X7299800Y3171170D01*
X7304300Y3180500D01*
X7311800Y3186330D01*
X7322300Y3188670D01*
X7332800Y3186330D01*
X7341800Y3179330D01*
X7346300Y3168830D01*
Y3157170D01*
X7349300Y3150170D01*
X7356800Y3144330D01*
X7367300Y3142000D01*
X7377800Y3145500D01*
X7385300Y3153670D01*
X7388300Y3163000D01*
X7385300Y3172330D01*
X7377800Y3180500D01*
X7367300Y3184000D01*
X7356800Y3181670D01*
X7349300Y3175830D01*
X7346300Y3168830D01*
Y3157170D01*
X7341800Y3146670D01*
X7332800Y3139670D01*
X7322300Y3137330D01*
X7311800Y3139670D01*
X7304300Y3145500D01*
X7299800Y3154830D01*
X7298300Y3163000D01*
G01X11008300Y3064330D02*
X10943800D01*
X10930300Y3069000D01*
X10921300Y3078330D01*
X10918300Y3090000D01*
X10921300Y3101670D01*
X10930300Y3111000D01*
X10943800Y3115670D01*
X11008300D01*
G01X10918300Y3160670D02*
X10937800Y3163000D01*
X10954300Y3166500D01*
X10969300Y3171170D01*
X10985800Y3177000D01*
X11008300Y3186330D01*
Y3139670D01*
G01X13219330Y1597500D02*
X13226330Y1602000D01*
X13234500Y1605000D01*
X13243830D01*
X13254330Y1600500D01*
X13262500Y1593000D01*
X13268330Y1584000D01*
X13273000Y1569000D01*
X13274170Y1555500D01*
X13271830Y1542000D01*
X13268330Y1533000D01*
X13261330Y1524000D01*
X13253170Y1518000D01*
X13245000Y1515000D01*
X13236830D01*
X13228670Y1518000D01*
X13221670Y1522500D01*
X13215830Y1528500D01*
G01X13191830Y1525500D02*
X13183670Y1518000D01*
X13174330Y1515000D01*
X13165000Y1518000D01*
X13156830Y1527000D01*
X13151000Y1540500D01*
X13148670Y1554000D01*
Y1570500D01*
X13151000Y1584000D01*
X13156830Y1596000D01*
X13163830Y1602000D01*
X13172000Y1605000D01*
X13181330Y1602000D01*
X13188330Y1596000D01*
X13193000Y1587000D01*
X13195330Y1575000D01*
X13193000Y1564500D01*
X13187170Y1554000D01*
X13180170Y1548000D01*
X13172000Y1546500D01*
X13162670Y1549500D01*
X13155670Y1557000D01*
X13148670Y1570500D01*
G01X13319330Y1892500D02*
X13326330Y1897000D01*
X13334500Y1900000D01*
X13343830D01*
X13354330Y1895500D01*
X13362500Y1888000D01*
X13368330Y1879000D01*
X13373000Y1864000D01*
X13374170Y1850500D01*
X13371830Y1837000D01*
X13368330Y1828000D01*
X13361330Y1819000D01*
X13353170Y1813000D01*
X13345000Y1810000D01*
X13336830D01*
X13328670Y1813000D01*
X13321670Y1817500D01*
X13315830Y1823500D01*
G01X13294170Y1847500D02*
X13286000Y1858000D01*
X13279000Y1864000D01*
X13269670Y1867000D01*
X13261500Y1864000D01*
X13255670Y1858000D01*
X13251000Y1849000D01*
X13249830Y1838500D01*
X13251000Y1829500D01*
X13255670Y1820500D01*
X13262670Y1813000D01*
X13270830Y1810000D01*
X13280170Y1813000D01*
X13288330Y1822000D01*
X13293000Y1835500D01*
X13294170Y1850500D01*
X13291830Y1870000D01*
X13288330Y1880500D01*
X13282500Y1891000D01*
X13274330Y1898500D01*
X13266170Y1900000D01*
X13258000Y1897000D01*
X13252170Y1889500D01*
G01X13629330Y1222500D02*
X13636330Y1227000D01*
X13644500Y1230000D01*
X13653830D01*
X13664330Y1225500D01*
X13672500Y1218000D01*
X13678330Y1209000D01*
X13683000Y1194000D01*
X13684170Y1180500D01*
X13681830Y1167000D01*
X13678330Y1158000D01*
X13671330Y1149000D01*
X13663170Y1143000D01*
X13655000Y1140000D01*
X13646830D01*
X13638670Y1143000D01*
X13631670Y1147500D01*
X13625830Y1153500D01*
G01X13568000Y1140000D02*
Y1230000D01*
X13611170Y1165500D01*
X13552830D01*
G01X13775670Y1465000D02*
Y1400500D01*
X13771000Y1387000D01*
X13761670Y1378000D01*
X13750000Y1375000D01*
X13738330Y1378000D01*
X13729000Y1387000D01*
X13724330Y1400500D01*
Y1465000D01*
G01X13677000Y1375000D02*
Y1465000D01*
X13691000Y1447000D01*
G01Y1375000D02*
X13663000D01*
G01X13604000D02*
Y1465000D01*
X13618000Y1447000D01*
G01Y1375000D02*
X13590000D01*
G01X13482500Y1970670D02*
X13487000Y1963670D01*
X13490000Y1955500D01*
Y1946170D01*
X13485500Y1935670D01*
X13478000Y1927500D01*
X13469000Y1921670D01*
X13454000Y1917000D01*
X13440500Y1915830D01*
X13427000Y1918170D01*
X13418000Y1921670D01*
X13409000Y1928670D01*
X13403000Y1936830D01*
X13400000Y1945000D01*
Y1953170D01*
X13403000Y1961330D01*
X13407500Y1968330D01*
X13413500Y1974170D01*
G01X13400000Y2015670D02*
X13419500Y2018000D01*
X13436000Y2021500D01*
X13451000Y2026170D01*
X13467500Y2032000D01*
X13490000Y2041330D01*
Y1994670D01*
G01X13098330Y2125000D02*
Y2215000D01*
X13069170D01*
X13059830Y2210500D01*
X13054000Y2204500D01*
X13051670Y2192500D01*
X13054000Y2180500D01*
X13061000Y2173000D01*
X13069170Y2168500D01*
X13098330D01*
G01X13069170D02*
X13051670Y2125000D01*
G01X13021830Y2135500D02*
X13013670Y2128000D01*
X13004330Y2125000D01*
X12995000Y2128000D01*
X12986830Y2137000D01*
X12981000Y2150500D01*
X12978670Y2164000D01*
Y2180500D01*
X12981000Y2194000D01*
X12986830Y2206000D01*
X12993830Y2212000D01*
X13002000Y2215000D01*
X13011330Y2212000D01*
X13018330Y2206000D01*
X13023000Y2197000D01*
X13025330Y2185000D01*
X13023000Y2174500D01*
X13017170Y2164000D01*
X13010170Y2158000D01*
X13002000Y2156500D01*
X12992670Y2159500D01*
X12985670Y2167000D01*
X12978670Y2180500D01*
G01X13790670Y1730000D02*
Y1665500D01*
X13786000Y1652000D01*
X13776670Y1643000D01*
X13765000Y1640000D01*
X13753330Y1643000D01*
X13744000Y1652000D01*
X13739330Y1665500D01*
Y1730000D01*
G01X13692000Y1640000D02*
Y1730000D01*
X13706000Y1712000D01*
G01Y1640000D02*
X13678000D01*
G01X13644670Y1658000D02*
X13637670Y1647500D01*
X13628330Y1641500D01*
X13617830Y1640000D01*
X13608500Y1641500D01*
X13599170Y1649000D01*
X13593330Y1658000D01*
X13592170Y1667000D01*
X13594500Y1677500D01*
X13602670Y1685000D01*
X13610830Y1688000D01*
X13621330D01*
G01X13610830D02*
X13603830Y1692500D01*
X13598000Y1700000D01*
X13595670Y1709000D01*
X13598000Y1718000D01*
X13603830Y1725500D01*
X13614330Y1730000D01*
X13624830Y1728500D01*
X13635330Y1722500D01*
G01X14350000Y4208330D02*
X14260000D01*
Y4179170D01*
X14264500Y4169830D01*
X14270500Y4164000D01*
X14282500Y4161670D01*
X14294500Y4164000D01*
X14302000Y4171000D01*
X14306500Y4179170D01*
Y4208330D01*
G01Y4179170D02*
X14350000Y4161670D01*
G01X14312500Y4134170D02*
X14302000Y4126000D01*
X14296000Y4119000D01*
X14293000Y4109670D01*
X14296000Y4101500D01*
X14302000Y4095670D01*
X14311000Y4091000D01*
X14321500Y4089830D01*
X14330500Y4091000D01*
X14339500Y4095670D01*
X14347000Y4102670D01*
X14350000Y4110830D01*
X14347000Y4120170D01*
X14338000Y4128330D01*
X14324500Y4133000D01*
X14309500Y4134170D01*
X14290000Y4131830D01*
X14279500Y4128330D01*
X14269000Y4122500D01*
X14261500Y4114330D01*
X14260000Y4106170D01*
X14263000Y4098000D01*
X14270500Y4092170D01*
G01X14100000Y4271670D02*
X14190000D01*
Y4300830D01*
X14185500Y4310170D01*
X14179500Y4316000D01*
X14167500Y4318330D01*
X14155500Y4316000D01*
X14148000Y4309000D01*
X14143500Y4300830D01*
Y4271670D01*
G01Y4300830D02*
X14100000Y4318330D01*
G01Y4365670D02*
X14119500Y4368000D01*
X14136000Y4371500D01*
X14151000Y4376170D01*
X14167500Y4382000D01*
X14190000Y4391330D01*
Y4344670D01*
G01X14201670Y4553330D02*
X14111670D01*
Y4524170D01*
X14116170Y4514830D01*
X14122170Y4509000D01*
X14134170Y4506670D01*
X14146170Y4509000D01*
X14153670Y4516000D01*
X14158170Y4524170D01*
Y4553330D01*
G01Y4524170D02*
X14201670Y4506670D01*
G01Y4457000D02*
X14111670D01*
X14129670Y4471000D01*
G01X14201670D02*
Y4443000D01*
G01X14790670Y1880000D02*
Y1815500D01*
X14786000Y1802000D01*
X14776670Y1793000D01*
X14765000Y1790000D01*
X14753330Y1793000D01*
X14744000Y1802000D01*
X14739330Y1815500D01*
Y1880000D01*
G01X14692000Y1790000D02*
Y1880000D01*
X14706000Y1862000D01*
G01Y1790000D02*
X14678000D01*
G01X14641170Y1865000D02*
X14634170Y1874000D01*
X14626000Y1878500D01*
X14616670Y1880000D01*
X14605000Y1877000D01*
X14596830Y1869500D01*
X14594500Y1860500D01*
X14595670Y1851500D01*
X14600330Y1844000D01*
X14623670Y1829000D01*
X14634170Y1818500D01*
X14641170Y1803500D01*
X14643500Y1790000D01*
X14594500D01*
G01X14949330Y3112500D02*
X14956330Y3117000D01*
X14964500Y3120000D01*
X14973830D01*
X14984330Y3115500D01*
X14992500Y3108000D01*
X14998330Y3099000D01*
X15003000Y3084000D01*
X15004170Y3070500D01*
X15001830Y3057000D01*
X14998330Y3048000D01*
X14991330Y3039000D01*
X14983170Y3033000D01*
X14975000Y3030000D01*
X14966830D01*
X14958670Y3033000D01*
X14951670Y3037500D01*
X14945830Y3043500D01*
G01X14927670D02*
X14920670Y3036000D01*
X14912500Y3031500D01*
X14902000Y3030000D01*
X14891500Y3033000D01*
X14883330Y3039000D01*
X14877500Y3049500D01*
X14876330Y3061500D01*
X14878670Y3073500D01*
X14884500Y3081000D01*
X14892670Y3087000D01*
X14900830Y3088500D01*
X14909000Y3087000D01*
X14919500Y3081000D01*
X14916000Y3120000D01*
X14884500D01*
G01X14510000Y3753330D02*
X14420000D01*
Y3724170D01*
X14424500Y3714830D01*
X14430500Y3709000D01*
X14442500Y3706670D01*
X14454500Y3709000D01*
X14462000Y3716000D01*
X14466500Y3724170D01*
Y3753330D01*
G01Y3724170D02*
X14510000Y3706670D01*
G01Y3643000D02*
X14420000D01*
X14484500Y3686170D01*
Y3627830D01*
G01X14706670Y3735000D02*
Y3645000D01*
X14735830D01*
X14745170Y3649500D01*
X14751000Y3655500D01*
X14753330Y3667500D01*
X14751000Y3679500D01*
X14744000Y3687000D01*
X14735830Y3691500D01*
X14706670D01*
G01X14735830D02*
X14753330Y3735000D01*
G01X14777330Y3721500D02*
X14784330Y3729000D01*
X14792500Y3733500D01*
X14803000Y3735000D01*
X14813500Y3732000D01*
X14821670Y3726000D01*
X14827500Y3715500D01*
X14828670Y3703500D01*
X14826330Y3691500D01*
X14820500Y3684000D01*
X14812330Y3678000D01*
X14804170Y3676500D01*
X14796000Y3678000D01*
X14785500Y3684000D01*
X14789000Y3645000D01*
X14820500D01*
G01X14775000Y3400000D02*
Y3310000D01*
G01X14801830Y3400000D02*
X14748170D01*
G01X14725330Y3310000D02*
Y3400000D01*
X14697330D01*
X14688000Y3395500D01*
X14681000Y3385000D01*
X14678670Y3373000D01*
X14681000Y3361000D01*
X14686830Y3352000D01*
X14697330Y3347500D01*
X14725330D01*
G01X14629000Y3310000D02*
Y3400000D01*
X14643000Y3382000D01*
G01Y3310000D02*
X14615000D01*
G01X14620670Y4460000D02*
Y4395500D01*
X14616000Y4382000D01*
X14606670Y4373000D01*
X14595000Y4370000D01*
X14583330Y4373000D01*
X14574000Y4382000D01*
X14569330Y4395500D01*
Y4460000D01*
G01X14522000Y4370000D02*
Y4460000D01*
X14536000Y4442000D01*
G01Y4370000D02*
X14508000D01*
G01X14865000Y4321670D02*
X14955000D01*
Y4350830D01*
X14950500Y4360170D01*
X14944500Y4366000D01*
X14932500Y4368330D01*
X14920500Y4366000D01*
X14913000Y4359000D01*
X14908500Y4350830D01*
Y4321670D01*
G01Y4350830D02*
X14865000Y4368330D01*
G01X14883000Y4392330D02*
X14872500Y4399330D01*
X14866500Y4408670D01*
X14865000Y4419170D01*
X14866500Y4428500D01*
X14874000Y4437830D01*
X14883000Y4443670D01*
X14892000Y4444830D01*
X14902500Y4442500D01*
X14910000Y4434330D01*
X14913000Y4426170D01*
Y4415670D01*
G01Y4426170D02*
X14917500Y4433170D01*
X14925000Y4439000D01*
X14934000Y4441330D01*
X14943000Y4439000D01*
X14950500Y4433170D01*
X14955000Y4422670D01*
X14953500Y4412170D01*
X14947500Y4401670D01*
G01X14475000Y4845000D02*
X14473500Y4854330D01*
X14467500Y4862500D01*
X14458500Y4869500D01*
X14448000Y4874170D01*
X14436000Y4876500D01*
X14424000D01*
X14412000Y4874170D01*
X14401500Y4869500D01*
X14392500Y4862500D01*
X14386500Y4854330D01*
X14385000Y4845000D01*
X14386500Y4835670D01*
X14392500Y4827500D01*
X14401500Y4820500D01*
X14412000Y4815830D01*
X14424000Y4813500D01*
X14436000D01*
X14448000Y4815830D01*
X14458500Y4820500D01*
X14467500Y4827500D01*
X14473500Y4835670D01*
X14475000Y4845000D01*
G01X14451000Y4835670D02*
X14475000Y4821670D01*
G01Y4772000D02*
X14385000D01*
X14403000Y4786000D01*
G01X14475000D02*
Y4758000D01*
G01X14719170Y5204330D02*
X14714670Y5211330D01*
X14711670Y5219500D01*
Y5228830D01*
X14716170Y5239330D01*
X14723670Y5247500D01*
X14732670Y5253330D01*
X14747670Y5258000D01*
X14761170Y5259170D01*
X14774670Y5256830D01*
X14783670Y5253330D01*
X14792670Y5246330D01*
X14798670Y5238170D01*
X14801670Y5230000D01*
Y5221830D01*
X14798670Y5213670D01*
X14794170Y5206670D01*
X14788170Y5200830D01*
G01X14726670Y5179170D02*
X14717670Y5172170D01*
X14713170Y5164000D01*
X14711670Y5154670D01*
X14714670Y5143000D01*
X14722170Y5134830D01*
X14731170Y5132500D01*
X14740170Y5133670D01*
X14747670Y5138330D01*
X14762670Y5161670D01*
X14773170Y5172170D01*
X14788170Y5179170D01*
X14801670Y5181500D01*
Y5132500D01*
G01X15255670Y3500000D02*
Y3590000D01*
X15232330D01*
X15223000Y3585500D01*
X15216000Y3579500D01*
X15210170Y3570500D01*
X15205500Y3560000D01*
X15204330Y3545000D01*
X15205500Y3530000D01*
X15210170Y3519500D01*
X15216000Y3510500D01*
X15223000Y3504500D01*
X15232330Y3500000D01*
X15255670D01*
G01X15157000D02*
Y3590000D01*
X15171000Y3572000D01*
G01Y3500000D02*
X15143000D01*
G01X15360000Y4305000D02*
X15270000D01*
X15288000Y4319000D01*
G01X15360000D02*
Y4291000D01*
G01X15180000Y5060000D02*
X15170670Y5058500D01*
X15162500Y5052500D01*
X15155500Y5043500D01*
X15150830Y5033000D01*
X15148500Y5021000D01*
Y5009000D01*
X15150830Y4997000D01*
X15155500Y4986500D01*
X15162500Y4977500D01*
X15170670Y4971500D01*
X15180000Y4970000D01*
X15189330Y4971500D01*
X15197500Y4977500D01*
X15204500Y4986500D01*
X15209170Y4997000D01*
X15211500Y5009000D01*
Y5021000D01*
X15209170Y5033000D01*
X15204500Y5043500D01*
X15197500Y5052500D01*
X15189330Y5058500D01*
X15180000Y5060000D01*
G01X15189330Y5036000D02*
X15203330Y5060000D01*
G01X15230830Y4985000D02*
X15237830Y4976000D01*
X15246000Y4971500D01*
X15255330Y4970000D01*
X15267000Y4973000D01*
X15275170Y4980500D01*
X15277500Y4989500D01*
X15276330Y4998500D01*
X15271670Y5006000D01*
X15248330Y5021000D01*
X15237830Y5031500D01*
X15230830Y5046500D01*
X15228500Y5060000D01*
X15277500D01*
G01X15132500Y5585670D02*
X15137000Y5578670D01*
X15140000Y5570500D01*
Y5561170D01*
X15135500Y5550670D01*
X15128000Y5542500D01*
X15119000Y5536670D01*
X15104000Y5532000D01*
X15090500Y5530830D01*
X15077000Y5533170D01*
X15068000Y5536670D01*
X15059000Y5543670D01*
X15053000Y5551830D01*
X15050000Y5560000D01*
Y5568170D01*
X15053000Y5576330D01*
X15057500Y5583330D01*
X15063500Y5589170D01*
G01X15068000Y5607330D02*
X15057500Y5614330D01*
X15051500Y5623670D01*
X15050000Y5634170D01*
X15051500Y5643500D01*
X15059000Y5652830D01*
X15068000Y5658670D01*
X15077000Y5659830D01*
X15087500Y5657500D01*
X15095000Y5649330D01*
X15098000Y5641170D01*
Y5630670D01*
G01Y5641170D02*
X15102500Y5648170D01*
X15110000Y5654000D01*
X15119000Y5656330D01*
X15128000Y5654000D01*
X15135500Y5648170D01*
X15140000Y5637670D01*
X15138500Y5627170D01*
X15132500Y5616670D01*
G54D11*
G01X670000Y2822500D02*
X747500D01*
G01X3610000Y1787500D02*
X3687500D01*
G01X6980000Y2967500D02*
X7057500D01*
G01X10600000D02*
X10677500D01*
G01X13857500Y1580000D02*
Y1502500D01*
G01X13760000Y1777500D02*
X13837500D01*
G01X14450000Y2072500D02*
X14372500D01*
G01X15080000Y4390000D02*
X14900000D01*
G01X14880000Y4635000D02*
X15000000D01*
G01X14535000Y4985000D02*
X14415000D01*
G01X15202000Y3385000D02*
Y3325000D01*
G54D12*
G01X25000Y3875000D02*
Y3585000D01*
X155000D01*
Y3875000D01*
X25000D01*
G01X857500Y2850000D02*
Y2822500D01*
X642500D01*
Y2850000D01*
G01X857500Y3140000D02*
Y3167500D01*
X642500D01*
Y3140000D01*
G01X3797500Y1815000D02*
Y1787500D01*
X3582500D01*
Y1815000D01*
G01X3797500Y2105000D02*
Y2132500D01*
X3582500D01*
Y2105000D01*
G01X7167500Y2995000D02*
Y2967500D01*
X6952500D01*
Y2995000D01*
G01X7167500Y3285000D02*
Y3312500D01*
X6952500D01*
Y3285000D01*
G01X10787500Y2995000D02*
Y2967500D01*
X10572500D01*
Y2995000D01*
G01X10787500Y3285000D02*
Y3312500D01*
X10572500D01*
Y3285000D01*
G01X13115000Y2095000D02*
X12825000D01*
Y1965000D01*
X13115000D01*
Y2095000D01*
G01Y1660000D02*
X13025000D01*
G01D02*
Y1480000D01*
G01D02*
X13115000D01*
G01D02*
Y1660000D01*
G01X13285000Y1930000D02*
X13375000D01*
G01D02*
Y2110000D01*
G01D02*
X13285000D01*
G01D02*
Y1930000D01*
G01X13030000Y1895000D02*
Y1805000D01*
G01D02*
X13210000D01*
G01D02*
Y1895000D01*
G01D02*
X13030000D01*
G01X13720000Y1225000D02*
Y1135000D01*
G01D02*
X13900000D01*
G01D02*
Y1225000D01*
G01D02*
X13720000D01*
G01X13885000Y1392500D02*
X13857500D01*
Y1607500D01*
X13885000D01*
G01X14175000Y1392500D02*
X14202500D01*
Y1607500D01*
X14175000D01*
G01X14262500Y1755000D02*
Y1727500D01*
X14477500D01*
Y1755000D01*
G01X13947500Y1805000D02*
Y1777500D01*
X13732500D01*
Y1805000D01*
G01X14262500Y2045000D02*
Y2072500D01*
X14477500D01*
Y2045000D01*
G01X13947500Y2095000D02*
Y2122500D01*
X13732500D01*
Y2095000D01*
G01X14210000Y4120000D02*
Y4410000D01*
X14080000D01*
Y4120000D01*
X14210000D01*
G01X14080000Y4705000D02*
Y4415000D01*
X14210000D01*
Y4705000D01*
X14080000D01*
G01X14245000Y4615000D02*
Y4325000D01*
X14375000D01*
Y4615000D01*
X14245000D01*
G01X15005000Y2880000D02*
X14915000D01*
G01D02*
Y2700000D01*
G01D02*
X15005000D01*
G01X14780000Y3180000D02*
G03I-80000J0D01*
G01X14680000Y3879500D02*
Y3850000D01*
X15120000D01*
Y3879500D01*
G01X14980000Y3475000D02*
X14858000D01*
G01X14885000Y3295000D02*
X14858000D01*
Y3475000D01*
G01X14545000Y3620000D02*
X14835000D01*
Y3750000D01*
X14545000D01*
Y3620000D01*
G01X14870000D02*
X15160000D01*
Y3750000D01*
X14870000D01*
Y3620000D01*
G01X15120000Y4360500D02*
Y4390000D01*
X14680000D01*
Y4360500D01*
G01X14845000Y4490000D02*
X15135000D01*
Y4620000D01*
X14845000D01*
Y4490000D01*
G01X15135000Y4665000D02*
Y4635000D01*
X14845000D01*
Y4665000D01*
G01Y4955000D02*
Y4985000D01*
X15135000D01*
Y4955000D01*
G01X14280000D02*
Y4985000D01*
X14570000D01*
Y4955000D01*
G01Y4665000D02*
Y4635000D01*
X14280000D01*
Y4665000D01*
G01X14845000Y5315000D02*
Y5025000D01*
X14975000D01*
Y5315000D01*
X14845000D01*
G01X15005000Y2700000D02*
Y2880000D01*
G01X15202000Y3475000D02*
Y3295000D01*
X15175000D01*
G01X15202000Y3475000D02*
X15080000D01*
G01X15075000Y3295000D02*
X14985000D01*
G01X15175000Y5025000D02*
Y5315000D01*
X15045000D01*
Y5025000D01*
X15175000D01*
G54D13*
G01X8421670Y145000D02*
Y265000D01*
X8389670D01*
X8379000Y259000D01*
X8371000Y245000D01*
X8368330Y229000D01*
X8371000Y213000D01*
X8377670Y201000D01*
X8389670Y195000D01*
X8421670D01*
G01X8338000Y145000D02*
Y265000D01*
G01X8282000D02*
Y145000D01*
G01Y205000D02*
X8338000D01*
G01X8225000Y145000D02*
Y199000D01*
X8251670Y265000D01*
G01X8198330D02*
X8225000Y199000D01*
G01X8140000Y265000D02*
Y145000D01*
G01X8170670Y265000D02*
X8109330D01*
G01X8055000Y145000D02*
X8065670Y147000D01*
X8075000Y155000D01*
X8083000Y167000D01*
X8088330Y181000D01*
X8091000Y197000D01*
Y213000D01*
X8088330Y229000D01*
X8083000Y243000D01*
X8075000Y255000D01*
X8065670Y263000D01*
X8055000Y265000D01*
X8044330Y263000D01*
X8035000Y255000D01*
X8027000Y243000D01*
X8021670Y229000D01*
X8019000Y213000D01*
Y197000D01*
X8021670Y181000D01*
X8027000Y167000D01*
X8035000Y155000D01*
X8044330Y147000D01*
X8055000Y145000D01*
G01X8000670D02*
Y265000D01*
X7939330Y145000D01*
Y265000D01*
G01X7770670Y255000D02*
X7778670Y261000D01*
X7788000Y265000D01*
X7798670D01*
X7810670Y259000D01*
X7820000Y249000D01*
X7826670Y237000D01*
X7832000Y217000D01*
X7833330Y199000D01*
X7830670Y181000D01*
X7826670Y169000D01*
X7818670Y157000D01*
X7809330Y149000D01*
X7800000Y145000D01*
X7790670D01*
X7781330Y149000D01*
X7773330Y155000D01*
X7766670Y163000D01*
G01X7741670Y145000D02*
Y265000D01*
X7709670D01*
X7699000Y259000D01*
X7691000Y245000D01*
X7688330Y229000D01*
X7691000Y213000D01*
X7697670Y201000D01*
X7709670Y195000D01*
X7741670D01*
G01X7646000Y265000D02*
X7614000D01*
G01X7630000D02*
Y145000D01*
G01X7646000D02*
X7614000D01*
G01X7570330Y245000D02*
X7562330Y257000D01*
X7553000Y263000D01*
X7542330Y265000D01*
X7529000Y261000D01*
X7519670Y251000D01*
X7517000Y239000D01*
X7518330Y227000D01*
X7523670Y217000D01*
X7550330Y197000D01*
X7562330Y183000D01*
X7570330Y163000D01*
X7573000Y145000D01*
X7517000D01*
G01X7477330Y185000D02*
X7442670D01*
G01X7367000Y205000D02*
X7340330D01*
Y169000D01*
X7348330Y157000D01*
X7357670Y149000D01*
X7371000Y145000D01*
X7384330Y149000D01*
X7393670Y157000D01*
X7401670Y169000D01*
X7407000Y183000D01*
X7409670Y199000D01*
Y213000D01*
X7407000Y225000D01*
X7401670Y239000D01*
X7393670Y251000D01*
X7385670Y259000D01*
X7375000Y265000D01*
X7365670D01*
X7355000Y261000D01*
X7347000Y253000D01*
G01X7307330Y185000D02*
X7272670D01*
G01X7231670Y145000D02*
Y265000D01*
X7198330D01*
X7187670Y259000D01*
X7181000Y251000D01*
X7178330Y235000D01*
X7181000Y219000D01*
X7189000Y209000D01*
X7198330Y203000D01*
X7231670D01*
G01X7198330D02*
X7178330Y145000D01*
G01X7154670D02*
Y265000D01*
X7120000Y165000D01*
X7085330Y265000D01*
Y145000D01*
G01X7068330D02*
X7035000Y265000D01*
X7001670Y145000D01*
G01X7013670Y187000D02*
X7056330D01*
G01X6966000Y265000D02*
X6934000D01*
G01X6950000D02*
Y145000D01*
G01X6966000D02*
X6934000D01*
G01X6895670D02*
Y265000D01*
X6834330Y145000D01*
Y265000D01*
G01X6721670Y145000D02*
Y265000D01*
X6688330D01*
X6677670Y259000D01*
X6671000Y251000D01*
X6668330Y235000D01*
X6671000Y219000D01*
X6679000Y209000D01*
X6688330Y203000D01*
X6721670D01*
G01X6688330D02*
X6668330Y145000D01*
G01X6630000Y199000D02*
X6587330D01*
X6591330Y213000D01*
X6598000Y221000D01*
X6607330Y225000D01*
X6616670Y223000D01*
X6624670Y217000D01*
X6630000Y203000D01*
X6632670Y191000D01*
Y179000D01*
X6630000Y167000D01*
X6623330Y155000D01*
X6615330Y147000D01*
X6606000Y145000D01*
X6596670Y149000D01*
X6587330Y161000D01*
G01X6549000Y225000D02*
X6525000Y145000D01*
X6501000Y225000D01*
G01X6440000Y145000D02*
Y265000D01*
X6456000Y241000D01*
G01Y145000D02*
X6424000D01*
G01X6355000Y141000D02*
X6357670Y143000D01*
Y147000D01*
X6355000Y149000D01*
X6352330Y147000D01*
Y143000D01*
X6355000Y141000D01*
G01X6270000Y265000D02*
X6280670Y261000D01*
X6288670Y251000D01*
X6294000Y239000D01*
X6298000Y223000D01*
X6299330Y205000D01*
X6298000Y187000D01*
X6294000Y171000D01*
X6288670Y159000D01*
X6280670Y149000D01*
X6270000Y145000D01*
X6259330Y149000D01*
X6251330Y159000D01*
X6246000Y171000D01*
X6242000Y187000D01*
X6240670Y205000D01*
X6242000Y223000D01*
X6246000Y239000D01*
X6251330Y251000D01*
X6259330Y261000D01*
X6270000Y265000D01*
M02*
