G04 ================== begin FILE IDENTIFICATION RECORD ==================*
G04 Layout Name:  C:/NOW_WORK/VoloKh/CPI2/MAIN/BRD/CPI2_MAIN.brd*
G04 Film Name:    BOTTOM*
G04 File Format:  Gerber RS274X*
G04 File Origin:  Cadence Allegro 17.2-S074*
G04 Origin Date:  Tue Mar 30 10:27:56 2021*
G04 *
G04 Layer:  BOARD GEOMETRY/OUTLINE*
G04 Layer:  ETCH/BOTTOM*
G04 Layer:  PIN/BOTTOM*
G04 Layer:  VIA CLASS/BOTTOM*
G04 *
G04 Offset:    (0.0000 0.0000)*
G04 Mirror:    No*
G04 Mode:      Positive*
G04 Rotation:  0*
G04 FullContactRelief:  No*
G04 UndefLineWidth:     0.1000*
G04 ================== end FILE IDENTIFICATION RECORD ====================*
%FSLAX25Y25*MOMM*%
%IR0*IPPOS*OFA0.00000B0.00000*MIA0B0*SFA1.00000B1.00000*%
%ADD16R,1.1X.6*%
%ADD25R,.6X1.1*%
%ADD28R,.6X1.05*%
%ADD29R,1.55X.6*%
%ADD14C,.6*%
%ADD23C,.55*%
%ADD13R,.9X.9*%
%ADD22C,1.*%
%ADD11C,1.1*%
%ADD27C,1.2*%
%ADD17C,2.1*%
%ADD24C,1.4*%
%ADD10C,3.2*%
%ADD19C,1.5*%
%ADD15C,3.3*%
%ADD21R,2.X2.*%
%ADD26C,1.9*%
%ADD18R,2.1X2.1*%
%ADD20R,1.5X1.5*%
%ADD30R,.49X.47*%
%ADD31R,1.9X1.9*%
%ADD12C,1.79*%
%ADD32C,.3*%
%ADD33C,.4*%
%ADD34C,.5*%
%ADD35C,.15*%
%ADD36C,.1*%
%ADD37R,.7444X2.6744*%
G75*
%LPD*%
G75*
G36*
G01X14167720Y1570000D02*
Y1675000D01*
X14230000D01*
X14285000Y1620000D01*
Y1570000D01*
X14167720D01*
G37*
G36*
G01X14495000Y4380000D02*
X14445000Y4430000D01*
Y4489310D01*
X14445510Y4490360D01*
G03Y4529640I-40510J19640D01*
G01X14445000Y4530690D01*
Y4540000D01*
X14326060Y4658940D01*
G02X14333250Y4676280I7188J7180D01*
G01X14341720D01*
Y4930000D01*
X14375000D01*
X14420000Y4885000D01*
Y4790000D01*
X14485000Y4725000D01*
Y4680000D01*
X14510000Y4655000D01*
X14579980D01*
Y4419980D01*
X14805000D01*
Y4405000D01*
X14780000Y4380000D01*
X14495000D01*
G37*
G36*
G01X14860000Y4612720D02*
Y4676280D01*
X14906720D01*
Y4866720D01*
X14925000Y4885000D01*
Y4985000D01*
X14885000Y5025000D01*
Y5032280D01*
X14967720D01*
Y5135000D01*
X14990000D01*
Y4710000D01*
X14955000Y4675000D01*
Y4612720D01*
X14860000D01*
G37*
G36*
G01X14705000Y4690000D02*
X14635000Y4760000D01*
X14582720D01*
Y4930000D01*
X14615000D01*
X14625000Y4920000D01*
X14775000D01*
X14830000Y4865000D01*
X14832280D01*
Y4690000D01*
X14705000D01*
G37*
G36*
G01X14485000Y4760000D02*
X14455000Y4790000D01*
Y4980000D01*
X14485000D01*
X14512610Y4952390D01*
G02X14509020Y4943720I-3594J-3590D01*
G01X14508280D01*
Y4760000D01*
X14485000D01*
G37*
G36*
G01X15025000Y4635000D02*
X15010000Y4650000D01*
Y4690000D01*
X15025000Y4705000D01*
Y5135000D01*
X15052280D01*
Y5032280D01*
X15167720D01*
Y5135000D01*
X15230000D01*
Y4665000D01*
X15200000Y4635000D01*
X15025000D01*
G37*
%LPC*%
G75*
G54D37*
X15110500Y4810000D03*
%LPD*%
G75*
G54D10*
X300000Y300000D03*
Y5700000D03*
X15000000Y300000D03*
Y5700000D03*
G54D20*
X1427000Y5246000D03*
Y4992000D03*
Y5500000D03*
X13873000Y500000D03*
Y754000D03*
Y1008000D03*
G54D11*
X260000Y790000D03*
Y1110000D03*
X280000Y2360000D03*
Y2040000D03*
Y3190000D03*
Y2580000D03*
Y2800000D03*
Y3730000D03*
Y3510000D03*
Y3950000D03*
X480000Y790000D03*
X700000D03*
X1020000D03*
X480000Y1110000D03*
X700000D03*
X1020000D03*
X890000Y2360000D03*
Y2040000D03*
X600000Y2360000D03*
Y2040000D03*
X890000Y3190000D03*
X600000D03*
X890000Y2580000D03*
Y2800000D03*
X600000D03*
Y2580000D03*
X890000Y3730000D03*
Y3510000D03*
X600000Y3730000D03*
Y3510000D03*
X890000Y3950000D03*
X600000D03*
X1500000Y2490000D03*
Y2170000D03*
X1820000Y2490000D03*
Y2170000D03*
X1210000Y2360000D03*
Y2040000D03*
Y3190000D03*
X1500000Y2710000D03*
Y2930000D03*
X1820000D03*
Y2710000D03*
X1210000Y2800000D03*
Y2580000D03*
X1500000Y3890000D03*
Y3670000D03*
Y3350000D03*
X1820000Y3890000D03*
Y3670000D03*
Y3350000D03*
X1210000Y3730000D03*
Y3510000D03*
X1500000Y4110000D03*
X1820000D03*
X1210000Y3950000D03*
X2100000Y2490000D03*
Y2170000D03*
X2420000Y2490000D03*
Y2170000D03*
X2100000Y2710000D03*
Y2930000D03*
X2420000D03*
Y2710000D03*
X2100000Y3890000D03*
Y3670000D03*
Y3350000D03*
X2420000Y3890000D03*
Y3670000D03*
Y3350000D03*
X2100000Y4110000D03*
X2420000D03*
X2700000Y2490000D03*
Y2170000D03*
X3020000Y2490000D03*
Y2170000D03*
X2700000Y2710000D03*
Y2930000D03*
X3020000D03*
Y2710000D03*
X2700000Y3890000D03*
Y3670000D03*
Y3350000D03*
X3020000Y3890000D03*
Y3670000D03*
Y3350000D03*
X2700000Y4110000D03*
X3020000D03*
X3900000Y2490000D03*
Y2170000D03*
X3300000Y2490000D03*
Y2170000D03*
X3620000Y2490000D03*
Y2170000D03*
X3900000Y2710000D03*
Y2930000D03*
X3300000Y2710000D03*
Y2930000D03*
X3620000D03*
Y2710000D03*
X3900000Y3890000D03*
Y3670000D03*
Y3350000D03*
X3300000Y3890000D03*
Y3670000D03*
Y3350000D03*
X3620000Y3890000D03*
Y3670000D03*
Y3350000D03*
X3900000Y4110000D03*
X3300000D03*
X3620000D03*
X4500000Y2490000D03*
Y2170000D03*
X4220000Y2490000D03*
Y2170000D03*
X4500000Y2710000D03*
Y2930000D03*
X4220000D03*
Y2710000D03*
X4500000Y3890000D03*
Y3670000D03*
Y3350000D03*
X4220000Y3890000D03*
Y3670000D03*
Y3350000D03*
X4500000Y4110000D03*
X4220000D03*
X5100000Y2490000D03*
Y2170000D03*
X4820000Y2490000D03*
Y2170000D03*
X5100000Y2710000D03*
Y2930000D03*
X4820000D03*
Y2710000D03*
X5100000Y3890000D03*
Y3670000D03*
Y3350000D03*
X4820000Y3890000D03*
Y3670000D03*
Y3350000D03*
X5100000Y4110000D03*
X4820000D03*
X5700000Y2490000D03*
Y2170000D03*
X5420000Y2490000D03*
Y2170000D03*
X5700000Y2710000D03*
Y2930000D03*
X5420000D03*
Y2710000D03*
X5700000Y3890000D03*
Y3670000D03*
Y3350000D03*
X5420000Y3890000D03*
Y3670000D03*
Y3350000D03*
X5700000Y4110000D03*
X5420000D03*
X6300000Y2490000D03*
Y2170000D03*
X6620000Y2490000D03*
Y2170000D03*
X6020000Y2490000D03*
Y2170000D03*
X6300000Y2710000D03*
Y2930000D03*
X6620000D03*
Y2710000D03*
X6020000Y2930000D03*
Y2710000D03*
X6300000Y3890000D03*
Y3670000D03*
Y3350000D03*
X6620000Y3890000D03*
Y3670000D03*
Y3350000D03*
X6020000Y3890000D03*
Y3670000D03*
Y3350000D03*
X6300000Y4110000D03*
X6620000D03*
X6020000D03*
X6900000Y2490000D03*
Y2170000D03*
X7220000Y2490000D03*
Y2170000D03*
X6900000Y2710000D03*
Y2930000D03*
X7220000D03*
Y2710000D03*
X6900000Y3890000D03*
Y3670000D03*
Y3350000D03*
X7220000Y3890000D03*
Y3670000D03*
Y3350000D03*
X6900000Y4110000D03*
X7220000D03*
X7500000Y2490000D03*
Y2170000D03*
X7820000Y2490000D03*
Y2170000D03*
X7500000Y2710000D03*
Y2930000D03*
X7820000D03*
Y2710000D03*
X7500000Y3890000D03*
Y3670000D03*
Y3350000D03*
X7820000Y3890000D03*
Y3670000D03*
Y3350000D03*
X7500000Y4110000D03*
X7820000D03*
X8700000Y2490000D03*
Y2170000D03*
X8100000Y2490000D03*
Y2170000D03*
X8420000Y2490000D03*
Y2170000D03*
X8700000Y2710000D03*
Y2930000D03*
X8100000Y2710000D03*
Y2930000D03*
X8420000D03*
Y2710000D03*
X8700000Y3890000D03*
Y3670000D03*
Y3350000D03*
X8100000Y3890000D03*
Y3670000D03*
Y3350000D03*
X8420000Y3890000D03*
Y3670000D03*
Y3350000D03*
X8700000Y4110000D03*
X8100000D03*
X8420000D03*
X9020000Y2490000D03*
Y2170000D03*
X9300000Y2490000D03*
Y2170000D03*
X9020000Y2930000D03*
Y2710000D03*
X9300000D03*
Y2930000D03*
Y3890000D03*
Y3670000D03*
Y3350000D03*
X9020000Y3890000D03*
Y3670000D03*
Y3350000D03*
X9300000Y4110000D03*
X9020000D03*
X9910000Y2490000D03*
Y2170000D03*
X9620000Y2490000D03*
Y2170000D03*
X9910000Y2710000D03*
Y2930000D03*
X9620000D03*
Y2710000D03*
Y3890000D03*
Y3670000D03*
Y3350000D03*
X9910000Y3890000D03*
Y3670000D03*
Y3350000D03*
X9620000Y4110000D03*
X9910000D03*
X10510000Y2490000D03*
Y2170000D03*
X10830000Y2490000D03*
Y2170000D03*
X10230000Y2490000D03*
Y2170000D03*
X10510000Y2710000D03*
Y2930000D03*
X10830000D03*
Y2710000D03*
X10230000Y2930000D03*
Y2710000D03*
X10510000Y3890000D03*
Y3670000D03*
Y3350000D03*
X10830000Y3890000D03*
Y3670000D03*
Y3350000D03*
X10230000Y3890000D03*
Y3670000D03*
Y3350000D03*
X10510000Y4110000D03*
X10830000D03*
X10230000D03*
X11110000Y2490000D03*
Y2170000D03*
X11430000Y2490000D03*
Y2170000D03*
X11110000Y2710000D03*
Y2930000D03*
X11430000D03*
Y2710000D03*
X11110000Y3890000D03*
Y3670000D03*
Y3350000D03*
X11430000Y3890000D03*
Y3670000D03*
Y3350000D03*
X11110000Y4110000D03*
X11430000D03*
X11710000Y2490000D03*
Y2170000D03*
X12030000Y2490000D03*
Y2170000D03*
X11710000Y2710000D03*
Y2930000D03*
X12030000D03*
Y2710000D03*
X11710000Y3890000D03*
Y3670000D03*
Y3350000D03*
X12030000Y3890000D03*
Y3670000D03*
Y3350000D03*
X11710000Y4110000D03*
X12030000D03*
X12310000Y2490000D03*
Y2170000D03*
X12630000Y2490000D03*
Y2170000D03*
X12900000Y2260000D03*
X12310000Y2710000D03*
Y2930000D03*
X12630000D03*
Y2710000D03*
X12900000Y2800000D03*
Y3020000D03*
Y2580000D03*
X12310000Y3890000D03*
Y3670000D03*
Y3350000D03*
X12630000Y3890000D03*
Y3670000D03*
Y3350000D03*
X12900000Y3890000D03*
Y3670000D03*
Y3350000D03*
X12310000Y4110000D03*
X12630000D03*
X12900000D03*
X13510000Y2260000D03*
X13220000D03*
X13510000Y2800000D03*
Y3020000D03*
Y2580000D03*
X13220000Y3020000D03*
Y2800000D03*
Y2580000D03*
X13510000Y3890000D03*
Y3670000D03*
Y3350000D03*
X13220000Y3890000D03*
Y3670000D03*
Y3350000D03*
X13510000Y4110000D03*
X13220000D03*
X13830000Y2260000D03*
X14170000Y2480000D03*
Y2160000D03*
X13830000Y3020000D03*
Y2800000D03*
Y2580000D03*
X14170000Y2700000D03*
Y2920000D03*
X14140000Y3250000D03*
Y3470000D03*
Y3690000D03*
X13830000Y3890000D03*
Y3670000D03*
Y3350000D03*
X14140000Y4010000D03*
X13830000Y4110000D03*
X14490000Y2480000D03*
Y2160000D03*
Y2920000D03*
Y2700000D03*
X14460000Y3470000D03*
Y3250000D03*
Y3690000D03*
Y4010000D03*
G54D12*
X234000Y1416000D03*
X488000D03*
X234000Y1670000D03*
X488000D03*
X742000Y1416000D03*
X996000D03*
X742000Y1670000D03*
X996000D03*
X1250000Y1416000D03*
X1504000D03*
X1758000D03*
X1250000Y1670000D03*
X1504000D03*
X1758000D03*
X1404000Y4456000D03*
X1658000D03*
X1404000Y4710000D03*
X1658000D03*
X2012000Y1416000D03*
X2266000D03*
X2520000D03*
X2012000Y1670000D03*
X2266000D03*
X2520000D03*
X1912000Y4456000D03*
X2166000D03*
X2420000D03*
X1912000Y4710000D03*
X2166000D03*
X2420000D03*
X2774000Y1416000D03*
X3028000D03*
X2774000Y1670000D03*
X3028000D03*
X2674000Y4456000D03*
X2928000D03*
X3182000D03*
X2674000Y4710000D03*
X2928000D03*
X3182000D03*
X3282000Y1416000D03*
X3536000D03*
X3790000D03*
X3282000Y1670000D03*
X3536000D03*
X3790000D03*
X3436000Y4456000D03*
X3690000D03*
X3944000D03*
X3436000Y4710000D03*
X3690000D03*
X3944000D03*
X4044000Y1416000D03*
X4298000D03*
X4552000D03*
X4044000Y1670000D03*
X4298000D03*
X4552000D03*
X4198000Y4456000D03*
X4452000D03*
X4198000Y4710000D03*
X4452000D03*
X4806000Y1416000D03*
X5060000D03*
X5314000D03*
X4806000Y1670000D03*
X5060000D03*
X5314000D03*
X4706000Y4456000D03*
X4960000D03*
X5214000D03*
X4706000Y4710000D03*
X4960000D03*
X5214000D03*
X5568000Y1416000D03*
X5822000D03*
X5568000Y1670000D03*
X5822000D03*
X5468000Y4456000D03*
X5722000D03*
X5976000D03*
X5468000Y4710000D03*
X5722000D03*
X5976000D03*
X6076000Y1416000D03*
X6330000D03*
X6584000D03*
X6076000Y1670000D03*
X6330000D03*
X6584000D03*
X6230000Y4456000D03*
X6484000D03*
X6230000Y4710000D03*
X6484000D03*
X6838000Y1416000D03*
X7092000D03*
X7346000D03*
X6838000Y1670000D03*
X7092000D03*
X7346000D03*
X6738000Y4456000D03*
X6992000D03*
X7246000D03*
X6738000Y4710000D03*
X6992000D03*
X7246000D03*
X7600000Y1416000D03*
Y1670000D03*
X7854000Y1416000D03*
Y1670000D03*
X8108000Y1416000D03*
Y1670000D03*
X7500000Y4456000D03*
X7754000D03*
X8008000D03*
X7500000Y4710000D03*
X7754000D03*
X8008000D03*
X8362000Y1416000D03*
Y1670000D03*
X8616000Y1416000D03*
Y1670000D03*
X8262000Y4456000D03*
X8516000D03*
X8770000D03*
X8262000Y4710000D03*
X8516000D03*
X8770000D03*
X8870000Y1416000D03*
Y1670000D03*
X9124000Y1416000D03*
Y1670000D03*
X9378000Y1416000D03*
Y1670000D03*
X9024000Y4456000D03*
X9278000D03*
X9024000Y4710000D03*
X9278000D03*
X9632000Y1416000D03*
Y1670000D03*
X9886000Y1416000D03*
Y1670000D03*
X10140000Y1416000D03*
Y1670000D03*
X9532000Y4456000D03*
X9786000D03*
X10040000D03*
X9532000Y4710000D03*
X9786000D03*
X10040000D03*
X10394000Y1416000D03*
Y1670000D03*
X10648000Y1416000D03*
Y1670000D03*
X10294000Y4456000D03*
X10548000D03*
X10802000D03*
X10294000Y4710000D03*
X10548000D03*
X10802000D03*
X10902000Y1416000D03*
Y1670000D03*
X11156000Y1416000D03*
Y1670000D03*
X11410000Y1416000D03*
Y1670000D03*
X11056000Y4456000D03*
X11310000D03*
X11564000D03*
X11056000Y4710000D03*
X11310000D03*
X11564000D03*
X11664000Y1416000D03*
Y1670000D03*
X11918000Y1416000D03*
Y1670000D03*
X12172000Y1416000D03*
Y1670000D03*
X11818000Y4456000D03*
X12072000D03*
X11818000Y4710000D03*
X12072000D03*
X12426000Y1416000D03*
Y1670000D03*
X12680000Y1416000D03*
X12326000Y4456000D03*
X12580000D03*
X12834000D03*
X12326000Y4710000D03*
X12580000D03*
X12834000D03*
X13088000Y4456000D03*
X13342000D03*
X13596000D03*
X13088000Y4710000D03*
X13342000D03*
X13596000D03*
X13850000Y4456000D03*
G54D30*
X14869500Y4712500D03*
Y4777500D03*
Y4842500D03*
Y4907500D03*
X14545500D03*
Y4842500D03*
Y4777500D03*
Y4712500D03*
X14304500D03*
Y4777500D03*
Y4842500D03*
Y4907500D03*
X15110500D03*
Y4842500D03*
Y4777500D03*
Y4712500D03*
G54D21*
X12680000Y1670000D03*
X13850000Y4710000D03*
G54D31*
X15080000Y1390000D03*
G54D22*
X12970000Y1310000D03*
Y1437000D03*
Y1564000D03*
Y1691000D03*
Y1818000D03*
G54D13*
X90000Y3810000D03*
Y3650000D03*
X12890000Y2030000D03*
X13050000D03*
X14145000Y4185000D03*
Y4345000D03*
Y4480000D03*
X14310000Y4550000D03*
Y4390000D03*
X14145000Y4640000D03*
X14610000Y3685000D03*
X14770000D03*
X14935000D03*
X14910000Y4555000D03*
Y5250000D03*
Y5090000D03*
X15095000Y3685000D03*
X15070000Y4555000D03*
X15110000Y5090000D03*
Y5250000D03*
G54D32*
G01X90000Y3650000D02*
Y3562300D01*
G01X615000Y2900000D02*
X517300D01*
G01X885000Y3090000D02*
X787300D01*
G01X3555000Y1865000D02*
X3475000D01*
X3455000Y1845000D01*
G01X3825000Y2055000D02*
X3915000D01*
X3935000Y2035000D01*
G01X6925000Y3045000D02*
X6835000D01*
G01X7195000Y3235000D02*
X7295000D01*
G01X10545000Y3045000D02*
X10445000D01*
G01X10815000Y3235000D02*
X10912700D01*
G01X12890000Y2030000D02*
Y1898000D01*
X12970000Y1818000D01*
G01X13070000Y1620000D02*
X13041000D01*
X12970000Y1691000D01*
G01X13070000Y1520000D02*
X13053000D01*
X12970000Y1437000D01*
G01X13070000Y1850000D02*
Y1910000D01*
X13060000Y1920000D01*
G01X13050000Y2030000D02*
X13140000Y1940000D01*
Y1932700D01*
G01X13170000Y1850000D02*
Y1902700D01*
X13140000Y1932700D01*
G01X13860000Y1277700D02*
X13847700D01*
X13760000Y1190000D01*
Y1180000D01*
G01X14125000Y1365000D02*
Y1335000D01*
X14160000Y1300000D01*
X14196520D01*
G01X13935000Y1635000D02*
X13910000Y1660000D01*
X13862300D01*
G01X13683410Y1780850D02*
Y1833410D01*
X13705000Y1855000D01*
G01X13860000Y1180000D02*
X13926870D01*
X13932700Y1174170D01*
G01X13975000Y2045000D02*
X13950000Y2070000D01*
Y2117700D01*
G01X14235000Y1805000D02*
X14332700D01*
G01X14403900Y2054350D02*
X14463250Y1995000D01*
X14505000D01*
G01X14960000Y2840000D02*
X15006000D01*
X15080000Y2914000D01*
G01X14960000Y2740000D02*
X15000000D01*
X15080000Y2660000D01*
G54D23*
X13070000Y1620000D03*
Y1520000D03*
X13330000Y1970000D03*
Y2070000D03*
X13070000Y1850000D03*
X13170000D03*
X13760000Y1180000D03*
X13860000D03*
X14960000Y2840000D03*
Y2740000D03*
G54D14*
G01X885000Y2900000D02*
X965000D01*
X1002500Y2937500D01*
Y3140000D01*
X952500Y3190000D01*
X890000D01*
G01X615000Y3090000D02*
X517300D01*
G01D02*
X444600D01*
G01X3900000Y2170000D02*
X3775000D01*
X3700000Y2095000D01*
Y1925000D01*
X3760000Y1865000D01*
X3825000D01*
G01X3555000Y2055000D02*
X3415000D01*
X3300000Y2170000D01*
G01X7500000Y3350000D02*
Y3180000D01*
X7365000Y3045000D01*
X7195000D01*
G01X6900000Y3350000D02*
Y3260000D01*
X6925000Y3235000D01*
G01X11110000Y3350000D02*
Y3130000D01*
X11025000Y3045000D01*
X10815000D01*
G01X10510000Y3350000D02*
Y3270000D01*
X10545000Y3235000D01*
G01X13510000Y3350000D02*
X13645000D01*
X13805000Y3190000D01*
X13890000D01*
X14025000Y3055000D01*
Y2150000D01*
X14095000Y2080000D01*
Y1915000D01*
X14035000Y1855000D01*
X13975000D01*
G01X13935000Y1365000D02*
X13857500D01*
G01D02*
X13832500Y1390000D01*
X13785000D01*
G01X14203480Y1649220D02*
X14254890Y1597810D01*
G01X14203480Y1649220D02*
X14189260Y1635000D01*
G01D02*
X14125000D01*
G01X14235000Y1995000D02*
Y2095000D01*
X14170000Y2160000D01*
G01X13705000Y2045000D02*
X13707500Y2047500D01*
Y2880000D01*
G01D02*
Y2952700D01*
G01X14460000Y4010000D02*
X14330000Y3880000D01*
Y3175000D01*
X14420000Y3085000D01*
X14535000D01*
X14637440Y2982560D01*
Y1847440D01*
X14595000Y1805000D01*
X14505000D01*
X200000Y3855000D03*
X90000Y3562300D03*
X95000Y4047700D03*
X444600Y3090000D03*
X517300D03*
Y2995000D03*
X787300Y3090000D03*
X517300Y2900000D03*
X785000Y2995000D03*
X1390000Y80000D03*
X1730000Y5920000D03*
X1230000D03*
X2390000Y80000D03*
X1890000D03*
X2230000Y5920000D03*
X2890000Y80000D03*
X2730000Y5920000D03*
X3890000Y80000D03*
X3390000D03*
X3455000Y1845000D03*
X3710000Y4010000D03*
X3770000Y4060000D03*
X3230000Y5920000D03*
X3730000D03*
X4390000Y80000D03*
X3935000Y2035000D03*
X4230000Y5920000D03*
X4890000Y80000D03*
X4730000Y5920000D03*
X5230000D03*
X5390000Y80000D03*
X5890000D03*
X5730000Y5920000D03*
X6390000Y80000D03*
X6230000Y5920000D03*
X6890000Y80000D03*
X6835000Y3045000D03*
X7295000Y3235000D03*
X6970000Y4020000D03*
X7230000Y5920000D03*
X6730000D03*
X7890000Y80000D03*
X7390000D03*
X7370000Y4000000D03*
X7730000Y5920000D03*
X8390000Y80000D03*
X8730000Y5920000D03*
X8230000D03*
X9390000Y80000D03*
X8890000D03*
X9230000Y5920000D03*
X9890000Y80000D03*
X9730000Y5920000D03*
X10390000Y80000D03*
X10445000Y3045000D03*
X10620000Y3947500D03*
X10730000Y5920000D03*
X10230000D03*
X11390000Y80000D03*
X10890000D03*
X11195000Y3420000D03*
X10912700Y3235000D03*
X11230000Y5920000D03*
X11890000Y80000D03*
X11730000Y5920000D03*
X12890000Y80000D03*
X12390000D03*
X12500000Y3580000D03*
X12435000Y3527500D03*
X12230000Y5920000D03*
X12730000D03*
X13390000Y80000D03*
X13070000Y1415000D03*
X13375000Y1277700D03*
X13427500Y1342500D03*
X13070000Y1325000D03*
X13480000Y1279290D03*
X13280000Y1450000D03*
X13314170Y1345830D03*
X13275000Y1525000D03*
X13587500Y1290000D03*
X13532500Y1350000D03*
X13525000Y1905000D03*
X13375000Y1910000D03*
X13060000Y1920000D03*
X13267300Y2025000D03*
X13140000Y1932700D03*
X12990000Y3540000D03*
X13030000Y3670000D03*
X13065000Y3985000D03*
X13086100Y4057860D03*
X13230000Y5920000D03*
X13530000Y5652500D03*
X13450000Y5654630D03*
X13890000Y80000D03*
X14127810Y1772570D03*
X13849500Y1739670D03*
X13654520Y1544520D03*
X13617870Y1697870D03*
X13990000Y1260000D03*
X13610000Y1777500D03*
X13862300Y1660000D03*
X13683410Y1780850D03*
X13860000Y1277700D03*
X14196520Y1300000D03*
X13620000Y1620000D03*
X13925000Y1775000D03*
X13785000Y1390000D03*
X13857500Y1365000D03*
X13794890Y1310060D03*
X14255000Y1716620D03*
X14254890Y1597810D03*
X14203480Y1649220D03*
X13725000Y1290000D03*
X13932700Y1174170D03*
X13895000Y2170000D03*
X13950000Y2117700D03*
X13825000Y2140000D03*
X13707500Y2952700D03*
Y2880000D03*
X14040000Y4880000D03*
X14113000Y5522500D03*
X13730000Y5920000D03*
X13810000Y5712500D03*
X14187870Y5477870D03*
X13730000Y5732500D03*
X14332700Y1805000D03*
X14395000Y1900000D03*
X14403900Y2054350D03*
X14935000Y3785000D03*
X14480000Y4285000D03*
X14410000Y4390000D03*
X14405000Y4510000D03*
X14869500Y4973700D03*
X14612700Y4712500D03*
X15095000Y3597300D03*
X15049800Y4183500D03*
Y3929500D03*
X15049500Y4310500D03*
X15055000Y4990000D03*
X15125000D03*
X15200000D03*
X15195000Y4895000D03*
Y4820000D03*
X15045000Y4670000D03*
X15195000Y4677300D03*
Y4750000D03*
X15197700Y5250000D03*
X15005000D03*
G54D33*
G01X90000Y3810000D02*
X89960Y3810300D01*
X124700Y3854960D01*
X189960D01*
X190000Y3855000D01*
X200000D01*
G01X13330000Y1970000D02*
Y1955000D01*
X13375000Y1910000D01*
G01X13330000Y2070000D02*
X13312300D01*
X13267300Y2025000D01*
G01X14700000Y4414900D02*
Y4540000D01*
G01X14574900D02*
X14700000D01*
G01X14304500Y4907500D02*
X14346800D01*
G01X14304500Y4842500D02*
X14346800D01*
G01X14304500Y4777500D02*
X14346800D01*
G01X14304500Y4712500D02*
X14346800D01*
G01X14700000Y5048000D02*
Y5170000D01*
X14780000Y5250000D01*
X14910000D01*
G01Y5027200D02*
Y5090000D01*
G01D02*
X14972800D01*
G01X14827200Y4842500D02*
X14869500D01*
G01D02*
X14911800D01*
G01X14827200Y4777500D02*
X14869500D01*
G01D02*
X14911800D01*
G01X14869500Y4671200D02*
Y4712500D01*
G01X14827200D02*
X14869500D01*
G01D02*
X14911800D01*
G01X14503200Y4907500D02*
X14545500D01*
G01D02*
X14587800D01*
G01X14503200Y4842500D02*
X14545500D01*
G01D02*
X14587800D01*
G01X14503200Y4777500D02*
X14545500D01*
G01D02*
X14587800D01*
G01X15170000Y4183500D02*
X15049800D01*
G01X15110000Y5027200D02*
Y5090000D01*
G01X15047200D02*
X15110000D01*
G01D02*
X15172800D01*
G01X15110500Y4907500D02*
Y4948800D01*
G01X15068200Y4907500D02*
X15110500D01*
G01D02*
X15152800D01*
G01X15068200Y4842500D02*
X15110500D01*
G01D02*
X15152800D01*
G01X15068200Y4777500D02*
X15110500D01*
G01D02*
X15152800D01*
G01X15110500Y4671200D02*
Y4712500D01*
G01X15068200D02*
X15110500D01*
G01D02*
X15152800D01*
G01X15110000Y5250000D02*
X15197700D01*
G54D15*
X919000Y246000D03*
Y5754000D03*
X14381000Y246000D03*
Y5754000D03*
G54D24*
X14146000Y1154000D03*
Y900000D03*
Y646000D03*
X14654000D03*
Y1154000D03*
G54D34*
G01X14480000Y4285000D02*
X14235000D01*
X14175000Y4345000D01*
X14145000D01*
G01D02*
Y4480000D01*
G01X14630000Y4183500D02*
X14146500D01*
X14145000Y4185000D01*
G01Y4640000D02*
Y4715000D01*
X14180000Y4750000D01*
Y4895000D01*
X14270360Y4985360D01*
X14467640D01*
X14545500Y4907500D01*
G01X14145000Y4640000D02*
X14220000D01*
X14310000Y4550000D01*
G01X14935000Y3266500D02*
Y3023000D01*
X14826000Y2914000D01*
G01X14770000Y3685000D02*
X14935000D01*
G01D02*
Y3785000D01*
G01X14799810Y4310500D02*
Y3909810D01*
X14610000Y3720000D01*
Y3685000D01*
G01X15030000Y3503500D02*
X15143500D01*
X15195000Y3555000D01*
Y3770000D01*
X15155000Y3810000D01*
X15040000D01*
X14975000Y3875000D01*
Y4056500D01*
G01X14310000Y4390000D02*
X14410000D01*
G01X14910000Y4555000D02*
Y4635000D01*
G01X14799810Y4310500D02*
Y4314810D01*
X14910000Y4425000D01*
Y4555000D01*
G01X14630000Y4310500D02*
X14799810D01*
G01X15170000Y4056500D02*
X14975000D01*
G01D02*
Y4350000D01*
X15070000Y4445000D01*
Y4555000D01*
G01X14869500Y4907500D02*
Y4973700D01*
G01X14545500Y4712500D02*
X14612700D01*
G01X14910000Y5250000D02*
X15005000D01*
G01X15095000Y3685000D02*
Y3597300D01*
G01X15170000Y4310500D02*
X15049500D01*
G01X15170000Y3929500D02*
X15049800D01*
G01X15110000Y5250000D02*
X15005000D01*
G54D25*
X13935000Y1635000D03*
X14030000D03*
X14125000D03*
Y1365000D03*
X14030000D03*
X13935000D03*
G54D16*
X615000Y2900000D03*
Y2995000D03*
Y3090000D03*
X885000D03*
Y2995000D03*
Y2900000D03*
X3555000Y1865000D03*
Y1960000D03*
Y2055000D03*
X3825000D03*
Y1960000D03*
Y1865000D03*
X6925000Y3045000D03*
Y3140000D03*
X7195000D03*
Y3045000D03*
X6925000Y3235000D03*
X7195000D03*
X10545000Y3045000D03*
Y3140000D03*
X10815000D03*
Y3045000D03*
X10545000Y3235000D03*
X10815000D03*
X14235000Y1805000D03*
Y1900000D03*
Y1995000D03*
X13705000Y1855000D03*
Y1950000D03*
Y2045000D03*
X13975000D03*
Y1950000D03*
Y1855000D03*
X14505000Y1805000D03*
Y1995000D03*
Y1900000D03*
G54D35*
G01X1681000Y1008000D02*
X1573000Y900000D01*
X545010D01*
X385000Y1060010D01*
Y1100000D01*
X111100Y1373900D01*
Y2601100D01*
X207490Y2697490D01*
X482510D01*
X600000Y2580000D01*
G01Y3730000D02*
Y3705000D01*
X81100Y3186100D01*
Y1163900D01*
X240000Y1005000D01*
X390000D01*
X580000Y815000D01*
Y750000D01*
X700000Y630000D01*
X1551000D01*
X1681000Y500000D01*
G01X890000Y3730000D02*
X770000Y3610000D01*
Y3445000D01*
X720000Y3395000D01*
Y2590000D01*
X410000Y2280000D01*
Y1757560D01*
X376000Y1723560D01*
Y1353990D01*
X449990Y1280000D01*
X880010D01*
X945010Y1215000D01*
X1145010D01*
X1230010Y1130000D01*
X1720000D01*
X1810000Y1040000D01*
Y625000D01*
X1935000Y500000D01*
G01X1427000Y1008000D02*
X647000D01*
X605000Y1050000D01*
Y1155000D01*
X515000Y1245000D01*
X410000D01*
X346000Y1309000D01*
Y1735990D01*
X380000Y1769990D01*
Y2480000D01*
X280000Y2580000D01*
G01X600000Y2800000D02*
X480000D01*
X375000Y2905000D01*
Y3110010D01*
X410000Y3145010D01*
Y3190000D01*
X715000Y3495000D01*
Y3660000D01*
X780000Y3725000D01*
Y4215000D01*
X1230000Y4665000D01*
Y4810000D01*
X1310000Y4890000D01*
X1520000D01*
X1540000Y4910000D01*
Y4970000D01*
X1562000Y4992000D01*
X1681000D01*
G01X1427000D02*
X1365000Y4930000D01*
X1290000D01*
X1180000Y4820000D01*
Y4690010D01*
X740000Y4250010D01*
Y3760390D01*
X370000Y3390390D01*
Y3160000D01*
X280000Y3070000D01*
Y2800000D01*
G01X1935000Y1008000D02*
X1783000Y1160000D01*
X1250010D01*
X1155010Y1255000D01*
X955000D01*
X870000Y1340000D01*
Y1840000D01*
X770000Y1940000D01*
Y2460000D01*
X890000Y2580000D01*
G01X615000Y2995000D02*
X517300D01*
G01X890000Y2800000D02*
X970000D01*
X1055000Y2885000D01*
Y3922570D01*
X1292000Y4159570D01*
Y4822000D01*
X1330000Y4860000D01*
X1532430D01*
X1562430Y4890000D01*
X1720000D01*
X1822000Y4992000D01*
X1935000D01*
G01X885000Y2995000D02*
X785000D01*
G01X2189000Y1008000D02*
X2087000Y1110000D01*
X1953400D01*
X1941100Y1122300D01*
X1937850D01*
X1870150Y1190000D01*
X1280000D01*
X1120000Y1350000D01*
Y2490000D01*
X1210000Y2580000D01*
G01X2443000Y1008000D02*
X2251000Y1200000D01*
X1979990D01*
X1929990Y1250000D01*
X1720000D01*
X1630000Y1340000D01*
Y2087570D01*
X1600000Y2117570D01*
Y2610000D01*
X1500000Y2710000D01*
G01X2189000Y500000D02*
X2330000Y641000D01*
Y1050000D01*
X2227700Y1152300D01*
X1950280D01*
X1882580Y1220000D01*
X1490000D01*
X1375000Y1335000D01*
Y1780000D01*
X1350000Y1805000D01*
Y3590000D01*
X1210000Y3730000D01*
G01X2443000Y500000D02*
X2560000Y617000D01*
Y1060000D01*
X2490000Y1130000D01*
X2363430D01*
X2263430Y1230000D01*
X2020000D01*
X1880000Y1370000D01*
Y1950000D01*
X1660000Y2170000D01*
Y3730000D01*
X1500000Y3890000D01*
G01Y2930000D02*
X1410000Y3020000D01*
Y4185140D01*
X1546000Y4321140D01*
Y4788710D01*
X1587290Y4830000D01*
X1744860D01*
X1774860Y4860000D01*
X2002430D01*
X2032430Y4890000D01*
X2341000D01*
X2443000Y4992000D01*
G01X1210000Y2800000D02*
X1110000Y2900000D01*
Y3785000D01*
X1175000Y3850000D01*
X1310000D01*
X1365000Y3905000D01*
Y4182570D01*
X1516000Y4333570D01*
Y4801140D01*
X1574860Y4860000D01*
X1732430D01*
X1762430Y4890000D01*
X1990000D01*
X2092000Y4992000D01*
X2189000D01*
G01X2697000D02*
Y4845400D01*
X2786000Y4756400D01*
Y4663600D01*
X2720400Y4598000D01*
X2283010D01*
X2253010Y4568000D01*
X2093000D01*
X2035000Y4510000D01*
Y4370010D01*
X1884990Y4220000D01*
X1789990D01*
X1710000Y4140010D01*
Y3040000D01*
X1820000Y2930000D01*
G01X1658000Y4456000D02*
Y4458000D01*
X1798000Y4598000D01*
X2212400D01*
X2290000Y4675600D01*
Y4760000D01*
X2360000Y4830000D01*
X2492430D01*
X2590000Y4927570D01*
Y5027570D01*
X2652430Y5090000D01*
X2780000D01*
X2830000Y5040000D01*
Y4930000D01*
X2880000Y4880000D01*
X3020000D01*
X3070000Y4930000D01*
Y5381000D01*
X2951000Y5500000D01*
G01Y4992000D02*
X2813000Y5130000D01*
X2650000D01*
X2560000Y5040000D01*
Y4940000D01*
X2480000Y4860000D01*
X2044860D01*
X2014860Y4830000D01*
X1787290D01*
X1667290Y4710000D01*
X1658000D01*
G01X3205000Y500000D02*
X3060000Y645000D01*
Y810000D01*
X2990000Y880000D01*
X2941100D01*
X2853500Y967600D01*
Y1036500D01*
X2840000Y1050000D01*
Y1052430D01*
X2742430Y1150000D01*
X2639860D01*
X2559860Y1230000D01*
X2470000D01*
X2378000Y1322000D01*
Y1716400D01*
X2350000Y1744400D01*
Y2030000D01*
X2020000Y2360000D01*
Y3810000D01*
X2100000Y3890000D01*
G01X2697000Y1008000D02*
X2535000Y1170000D01*
X2365860D01*
X2275860Y1260000D01*
X2174160D01*
X2120000Y1314160D01*
Y1365600D01*
X2124000Y1369600D01*
Y1462400D01*
X2120000Y1466400D01*
Y1619600D01*
X2124000Y1623600D01*
Y1856000D01*
X1910000Y2070000D01*
Y2620000D01*
X1820000Y2710000D01*
G01X2697000Y500000D02*
X2810000Y613000D01*
Y1040000D01*
X2730000Y1120000D01*
X2627430D01*
X2547430Y1200000D01*
X2378290D01*
X2288290Y1290000D01*
X2200000D01*
X2154000Y1336000D01*
Y1916000D01*
X1970000Y2100000D01*
Y3740000D01*
X1820000Y3890000D01*
G01X3205000Y1008000D02*
X3164430D01*
X2992430Y1180000D01*
X2652290D01*
X2572290Y1260000D01*
X2482430D01*
X2408000Y1334430D01*
Y1728830D01*
X2380000Y1756830D01*
Y2042430D01*
X2200000Y2222430D01*
Y2610000D01*
X2100000Y2710000D01*
G01X2420000Y2930000D02*
X2330000Y3020000D01*
Y4200000D01*
X2474000Y4344000D01*
X2720400D01*
X2786000Y4409600D01*
Y4516000D01*
X2868000Y4598000D01*
X2974400D01*
X3040000Y4663600D01*
Y4770000D01*
X3164500Y4894500D01*
X3245400D01*
X3342900Y4992000D01*
X3459000D01*
G01X3205000D02*
X3035000Y4822000D01*
X2881600D01*
X2816000Y4756400D01*
Y4641000D01*
X2743000Y4568000D01*
X2328000D01*
X2278000Y4518000D01*
Y4409600D01*
X2180000Y4311600D01*
Y3010000D01*
X2100000Y2930000D01*
G01X2420000Y2710000D02*
X2430000D01*
X2510000Y2630000D01*
Y1838400D01*
X2632000Y1716400D01*
Y1248000D01*
X2670000Y1210000D01*
X3004860D01*
X3064860Y1150000D01*
X3317000D01*
X3459000Y1008000D01*
G01X2420000Y3890000D02*
X2550000Y3760000D01*
Y1840830D01*
X2662000Y1728830D01*
Y1260430D01*
X2682430Y1240000D01*
X3017290D01*
X3077290Y1180000D01*
X3329430D01*
X3403930Y1105500D01*
X3499400D01*
X3556500Y1048400D01*
Y596500D01*
X3460000Y500000D01*
X3459000D01*
G01X2700000Y2710000D02*
X2710000D01*
X2850000Y2570000D01*
Y1785000D01*
X2886000Y1749000D01*
Y1354000D01*
X2970000Y1270000D01*
X3029720D01*
X3089720Y1210000D01*
X3341860D01*
X3416360Y1135500D01*
X3585500D01*
X3713000Y1008000D01*
G01Y500000D02*
Y503000D01*
X3810000Y600000D01*
Y713090D01*
X3810500Y713600D01*
Y1048400D01*
X3693400Y1165500D01*
X3428790D01*
X3354290Y1240000D01*
X3102150D01*
X3042150Y1300000D01*
X3020000D01*
X3016000Y1304000D01*
X2981600D01*
X2916000Y1369600D01*
Y1763990D01*
X2900000Y1779990D01*
Y3690000D01*
X2700000Y3890000D01*
G01X3967000Y500000D02*
X4064500Y597500D01*
Y1048400D01*
X4007400Y1105500D01*
X3944500D01*
X3824500Y1225500D01*
X3464490D01*
X3389990Y1300000D01*
X3202440D01*
X3170000Y1332440D01*
Y1728830D01*
X3150000Y1748830D01*
Y2622430D01*
X3120000Y2652430D01*
Y3790000D01*
X3020000Y3890000D01*
G01Y2710000D02*
X3120000Y2610000D01*
Y1736400D01*
X3140000Y1716400D01*
Y1320010D01*
X3190010Y1270000D01*
X3377560D01*
X3452060Y1195500D01*
X3779500D01*
X3967000Y1008000D01*
G01X4221000Y500000D02*
X4094500Y626500D01*
Y1060830D01*
X4019830Y1135500D01*
X3956930D01*
X3836930Y1255500D01*
X3749670D01*
X3648000Y1357170D01*
Y1462400D01*
X3582400Y1528000D01*
X3439560D01*
X3394000Y1573560D01*
Y1746000D01*
X3180000Y1960000D01*
Y2634860D01*
X3160000Y2654860D01*
Y3750000D01*
X3300000Y3890000D01*
G01X3020000Y2930000D02*
X2942500Y3007500D01*
Y4222500D01*
X3040000Y4320000D01*
Y4578740D01*
X3059260Y4598000D01*
X3228400D01*
X3294000Y4663600D01*
Y4832740D01*
X3325760Y4864500D01*
X3516930D01*
X3546930Y4894500D01*
X3764500D01*
X3862000Y4992000D01*
X3967000D01*
G01X2700000Y2930000D02*
X2594410Y3035590D01*
Y4175580D01*
X2816000Y4397170D01*
Y4503570D01*
X2880430Y4568000D01*
X2986830D01*
X3070000Y4651170D01*
Y4757570D01*
X3176930Y4864500D01*
X3257830D01*
X3287830Y4894500D01*
X3504500D01*
X3602000Y4992000D01*
X3713000D01*
G01X13730000Y5732500D02*
X13697210D01*
X13599710Y5830000D01*
X3280000D01*
X2951000Y5501000D01*
Y5500000D01*
G01X13375000Y1277700D02*
Y1383790D01*
X13431210Y1440000D01*
X13562430D01*
X13670000Y1332430D01*
Y1199280D01*
X13760000Y1109280D01*
Y405000D01*
X13695000Y340000D01*
X4410000D01*
X4318500Y431500D01*
Y1048400D01*
X4171400Y1195500D01*
X3981790D01*
X3902000Y1275290D01*
Y1462400D01*
X3836400Y1528000D01*
X3692000D01*
X3640000Y1580000D01*
Y1615600D01*
X3648000Y1623600D01*
Y1716400D01*
X3640000Y1724400D01*
Y1940000D01*
X3620000Y1960000D01*
X3555000D01*
G01X3300000Y2710000D02*
X3210000Y2620000D01*
Y1972430D01*
X3424000Y1758430D01*
Y1585990D01*
X3451990Y1558000D01*
X3602000D01*
X3678000Y1482000D01*
Y1369600D01*
X3762100Y1285500D01*
X3849360D01*
X3969360Y1165500D01*
X4032260D01*
X4189760Y1008000D01*
X4221000D01*
G01X4475000D02*
X4156000Y1327000D01*
Y1901700D01*
X4030000Y2027700D01*
Y2187560D01*
X3710000Y2507560D01*
Y2510000D01*
X3700000Y2520000D01*
Y2630000D01*
X3620000Y2710000D01*
G01X4475000Y500000D02*
X4620000Y645000D01*
Y1100000D01*
X4430000Y1290000D01*
X4235430D01*
X4186000Y1339430D01*
Y1914130D01*
X4060000Y2040130D01*
Y2199990D01*
X3750000Y2509990D01*
Y3760000D01*
X3620000Y3890000D01*
G01X3825000Y1960000D02*
X3910000D01*
X3932000Y1938000D01*
Y1287720D01*
X3994220Y1225500D01*
X4183830D01*
X4348500Y1060830D01*
Y443930D01*
X4422430Y370000D01*
X13682570D01*
X13730000Y417430D01*
Y1096850D01*
X13640000Y1186850D01*
Y1320000D01*
X13550000Y1410000D01*
X13494570D01*
X13427500Y1342930D01*
Y1342500D01*
G01X3300000Y2930000D02*
X3280000Y2950000D01*
Y3113570D01*
X3405000Y3238570D01*
Y3895390D01*
X3222500Y4077890D01*
Y4302510D01*
X3294000Y4374010D01*
Y4621170D01*
X3324000Y4651170D01*
Y4820310D01*
X3338190Y4834500D01*
X3529360D01*
X3559360Y4864500D01*
X3776930D01*
X3802430Y4890000D01*
X4119000D01*
X4221000Y4992000D01*
G01X3620000Y2930000D02*
Y2940000D01*
X3515000Y3045000D01*
Y4165000D01*
X3610000Y4260000D01*
X4230000D01*
X4320000Y4350000D01*
Y4837000D01*
X4475000Y4992000D01*
G01X4983000Y500000D02*
X4838000Y645000D01*
Y1098310D01*
X4662310Y1274000D01*
X4493170D01*
X4410000Y1357170D01*
Y1817560D01*
X4110000Y2117560D01*
Y2457570D01*
X3957570Y2610000D01*
X3859990D01*
X3798000Y2671990D01*
Y3788000D01*
X3900000Y3890000D01*
G01X4729000Y5500000D02*
X4840000Y5389000D01*
Y4950000D01*
X4770000Y4880000D01*
X4670000D01*
X4610000Y4940000D01*
Y5060000D01*
X4560000Y5110000D01*
X4372430D01*
X4350000Y5087570D01*
Y4940670D01*
X4239330Y4830000D01*
X3890000D01*
X3830000Y4770000D01*
Y4691600D01*
X3718400Y4580000D01*
X3560000D01*
X3436000Y4456000D01*
G01X4729000Y4992000D02*
X4581000Y5140000D01*
X4360000D01*
X4320000Y5100000D01*
Y4953100D01*
X4226900Y4860000D01*
X3814860D01*
X3789360Y4834500D01*
X3574500D01*
X3450000Y4710000D01*
X3436000D01*
G01X4983000Y1008000D02*
X4970740D01*
X4674740Y1304000D01*
X4505600D01*
X4440000Y1369600D01*
Y1829990D01*
X4140000Y2129990D01*
Y2470000D01*
X3900000Y2710000D01*
G01X5237000Y1008000D02*
X5031000Y1214000D01*
X4976310D01*
X4916310Y1274000D01*
X4747170D01*
X4664000Y1357170D01*
Y1866000D01*
X4318000Y2212000D01*
Y2612000D01*
X4220000Y2710000D01*
G01Y3890000D02*
X4365000Y3745000D01*
Y2464990D01*
X4605000Y2224990D01*
Y2070000D01*
X4694000Y1981000D01*
Y1369600D01*
X4759600Y1304000D01*
X4928740D01*
X4988740Y1244000D01*
X5157880D01*
X5217880Y1184000D01*
X5272570D01*
X5334500Y1122070D01*
Y596500D01*
X5238000Y500000D01*
X5237000D01*
G01X4500000Y2710000D02*
X4648000Y2562000D01*
Y2169570D01*
X4918000Y1899570D01*
Y1357170D01*
X5001170Y1274000D01*
X5170310D01*
X5230310Y1214000D01*
X5285000D01*
X5491000Y1008000D01*
G01X4220000Y2930000D02*
X4110000Y3040000D01*
Y3960000D01*
X4160000Y4010000D01*
X4530000D01*
X4820000Y4300000D01*
Y4750000D01*
X4920000Y4850000D01*
X5095000D01*
X5237000Y4992000D01*
G01X4500000Y2930000D02*
X4400000Y3030000D01*
Y3930000D01*
X4450000Y3980000D01*
X4560000D01*
X4850000Y4270000D01*
X5000000D01*
X5080000Y4350000D01*
Y4770000D01*
X5170000Y4860000D01*
X5359000D01*
X5491000Y4992000D01*
G01X4983000D02*
X4821000Y4830000D01*
X4610000D01*
X4564000Y4784000D01*
Y4324000D01*
X4450000Y4210000D01*
X4110000D01*
X3990000Y4090000D01*
Y3020000D01*
X3900000Y2930000D01*
G01X4500000Y3890000D02*
X4680000Y3710000D01*
Y2180000D01*
X4948000Y1912000D01*
Y1369600D01*
X5013600Y1304000D01*
X5182740D01*
X5242740Y1244000D01*
X5391140D01*
X5469640Y1165500D01*
X5577640D01*
X5588500Y1154640D01*
Y713600D01*
X5588000Y713090D01*
Y600000D01*
X5491000Y503000D01*
Y500000D01*
G01X5745000D02*
Y567000D01*
X5842500Y664500D01*
Y1048400D01*
X5785400Y1105500D01*
X5722500D01*
X5602500Y1225500D01*
X5494500D01*
X5416000Y1304000D01*
X5267600D01*
X5202000Y1369600D01*
Y1948000D01*
X4948000Y2202000D01*
Y3762000D01*
X4820000Y3890000D01*
G01X5745000Y1008000D02*
Y1060500D01*
X5730000Y1075500D01*
X5710070D01*
X5590070Y1195500D01*
X5482070D01*
X5403570Y1274000D01*
X5255170D01*
X5172000Y1357170D01*
Y1935570D01*
X4918000Y2189570D01*
Y2612000D01*
X4820000Y2710000D01*
G01X5999000Y500000D02*
Y569000D01*
X5872500Y695500D01*
Y1060830D01*
X5797830Y1135500D01*
X5734930D01*
X5614930Y1255500D01*
X5512070D01*
X5426000Y1341570D01*
Y1982000D01*
X4998000Y2410000D01*
Y3788000D01*
X5100000Y3890000D01*
G01Y2710000D02*
X5265000Y2545000D01*
Y2185430D01*
X5456000Y1994430D01*
Y1354000D01*
X5524500Y1285500D01*
X5627360D01*
X5747360Y1165500D01*
X5810260D01*
X5967760Y1008000D01*
X5999000D01*
G01Y4992000D02*
X5834000Y4827000D01*
Y4409600D01*
X5654400Y4230000D01*
X5310000D01*
X5230000Y4150000D01*
Y3060000D01*
X5100000Y2930000D01*
G01X5745000Y4992000D02*
Y4952570D01*
X5610000Y4817570D01*
Y4439600D01*
X5460400Y4290000D01*
X5080000D01*
X4970000Y4180000D01*
Y4080000D01*
X4900000Y4010000D01*
X4780000D01*
X4720000Y3950000D01*
Y3030000D01*
X4820000Y2930000D01*
G01X6507000Y5500000D02*
X6650000Y5357000D01*
Y4970000D01*
X6550000Y4870000D01*
X6455000D01*
X6375000Y4950000D01*
Y5050000D01*
X6325000Y5100000D01*
X5680000D01*
X5630000Y5050000D01*
Y4880000D01*
X5580000Y4830000D01*
Y4650000D01*
X5498000Y4568000D01*
X5328000D01*
X5216000Y4456000D01*
X5214000D01*
G01X6507000Y4992000D02*
X6359000Y5140000D01*
X5650000D01*
X5600000Y5090000D01*
Y4940000D01*
X5540000Y4880000D01*
X5450000D01*
X5280000Y4710000D01*
X5214000D01*
G01X4729000Y5500000D02*
X4730000D01*
X5030000Y5800000D01*
X13587280D01*
X13707280Y5680000D01*
X13777500D01*
X13810000Y5712500D01*
G01X6253000Y500000D02*
Y575000D01*
X6358000Y680000D01*
Y1040900D01*
X6138900Y1260000D01*
X5760420D01*
X5710000Y1310420D01*
Y1790430D01*
X5558000Y1942430D01*
Y3752000D01*
X5420000Y3890000D01*
G01X6253000Y1008000D02*
X6250000D01*
X6028000Y1230000D01*
X5747990D01*
X5680000Y1297990D01*
Y1778000D01*
X5528000Y1930000D01*
Y2602000D01*
X5420000Y2710000D01*
G01X5700000D02*
X5813410Y2596590D01*
Y2133420D01*
X6218000Y1728830D01*
Y1334430D01*
X6292430Y1260000D01*
X6382290D01*
X6462290Y1180000D01*
X6802430D01*
X6974430Y1008000D01*
X7015000D01*
G01X6020000Y2710000D02*
X5910000Y2600000D01*
Y2170000D01*
X6070000Y2010000D01*
X6150000D01*
X6350000Y1810000D01*
Y1808400D01*
X6442000Y1716400D01*
Y1248000D01*
X6480000Y1210000D01*
X6814860D01*
X6874860Y1150000D01*
X7127000D01*
X7269000Y1008000D01*
G01X5700000Y3890000D02*
X5600000Y3790000D01*
Y2425000D01*
X5777500Y2247500D01*
Y2126900D01*
X6188000Y1716400D01*
Y1322000D01*
X6280000Y1230000D01*
X6369860D01*
X6449860Y1150000D01*
X6552430D01*
X6650000Y1052430D01*
Y942000D01*
X6712000Y880000D01*
X6800000D01*
X6890000Y790000D01*
Y625000D01*
X7015000Y500000D01*
G01X7500000Y4710000D02*
X7358000Y4568000D01*
X7199600D01*
X7134000Y4502400D01*
Y4351290D01*
X7072710Y4290000D01*
X6010000D01*
X5920000Y4200000D01*
Y3030000D01*
X6020000Y2930000D01*
G01X6253000Y4992000D02*
X6131000Y4870000D01*
X5919430D01*
X5864000Y4814570D01*
Y4397170D01*
X5666830Y4200000D01*
X5380000D01*
X5285000Y4105000D01*
Y3065000D01*
X5420000Y2930000D01*
G01X7015000Y4992000D02*
X6883000Y4860000D01*
X6660000D01*
X6610000Y4810000D01*
Y4400000D01*
X6530000Y4320000D01*
X5930000D01*
X5820000Y4210000D01*
Y3050000D01*
X5700000Y2930000D01*
G01X6300000Y2710000D02*
X6200000Y2610000D01*
Y2110000D01*
X6260000Y2050000D01*
X6362400D01*
X6696000Y1716400D01*
Y1354000D01*
X6780000Y1270000D01*
X6839720D01*
X6899720Y1210000D01*
X7151860D01*
X7226360Y1135500D01*
X7395500D01*
X7523000Y1008000D01*
G01X6020000Y3890000D02*
X6140000Y3770000D01*
Y2062430D01*
X6380000Y1822430D01*
Y1820830D01*
X6472000Y1728830D01*
Y1260430D01*
X6492430Y1240000D01*
X6827290D01*
X6887290Y1180000D01*
X7139430D01*
X7213930Y1105500D01*
X7339500D01*
X7390000Y1055000D01*
Y620000D01*
X7270000Y500000D01*
X7269000D01*
G01X7523000D02*
Y503000D01*
X7645000Y625000D01*
Y1070000D01*
X7549500Y1165500D01*
X7238790D01*
X7164290Y1240000D01*
X6912150D01*
X6852150Y1300000D01*
X6830000D01*
X6826000Y1304000D01*
X6791600D01*
X6726000Y1369600D01*
Y1728830D01*
X6400000Y2055030D01*
Y3790000D01*
X6300000Y3890000D01*
G01X7754000Y4710000D02*
X7642000Y4598000D01*
X7430430D01*
X7358000Y4525570D01*
Y4409600D01*
X7288400Y4340000D01*
X7165140D01*
X7085140Y4260000D01*
X6559990D01*
X6220000Y3920010D01*
Y3010000D01*
X6300000Y2930000D01*
G01X6620000Y2710000D02*
X6730000Y2600000D01*
Y2040000D01*
X6950000Y1820000D01*
Y1320000D01*
X7000000Y1270000D01*
X7176720D01*
X7251220Y1195500D01*
X7589500D01*
X7777000Y1008000D01*
G01X8008000Y4710000D02*
X7866000Y4568000D01*
X7442860D01*
X7388000Y4513140D01*
Y4397170D01*
X7300830Y4310000D01*
X7177570D01*
X7077570Y4210000D01*
X6830000D01*
X6510000Y3890000D01*
Y3040000D01*
X6620000Y2930000D01*
G01X7777000Y500000D02*
X7884500Y607500D01*
Y1038400D01*
X7817400Y1105500D01*
X7754500D01*
X7634500Y1225500D01*
X7263650D01*
X7189150Y1300000D01*
X7040000D01*
X6980000Y1360000D01*
Y1832430D01*
X6760000Y2052430D01*
Y2612430D01*
X6720000Y2652430D01*
Y3790000D01*
X6620000Y3890000D01*
G01X6507000Y4992000D02*
X6512000D01*
X6620000Y5100000D01*
Y5310000D01*
X6560000Y5370000D01*
X6450000D01*
X6380000Y5440000D01*
Y5620000D01*
X6530000Y5770000D01*
X13574850D01*
X13704850Y5640000D01*
X14135000D01*
X14255000Y5520000D01*
Y5444990D01*
X14125000Y5314990D01*
Y4770000D01*
X14063780Y4708780D01*
Y4206210D01*
X13857570Y4000000D01*
X13685010D01*
X13635000Y3949990D01*
Y3854990D01*
X13565010Y3785000D01*
X13470010D01*
X13345000Y3659990D01*
Y3170010D01*
X13410010Y3105000D01*
X13555010D01*
X13595000Y3065010D01*
Y2092430D01*
X13610000Y2077430D01*
Y1860000D01*
X13550000Y1800000D01*
Y1550000D01*
X13789940Y1310060D01*
X13794890D01*
G01X6507000Y5500000D02*
Y5507000D01*
X6740000Y5740000D01*
X13562420D01*
X13697420Y5605000D01*
X14025000D01*
X14107500Y5522500D01*
X14113000D01*
G01X8031000Y500000D02*
X7914500Y616500D01*
Y1050830D01*
X7829830Y1135500D01*
X7766930D01*
X7646930Y1255500D01*
X7276080D01*
X7204000Y1327580D01*
Y1716400D01*
X7138400Y1782000D01*
X7138000D01*
X6790000Y2130000D01*
Y2624860D01*
X6750000Y2664860D01*
Y3740000D01*
X6900000Y3890000D01*
G01Y2710000D02*
X6990000Y2620000D01*
Y2010000D01*
X7234000Y1766000D01*
Y1340010D01*
X7288510Y1285500D01*
X7659360D01*
X7779360Y1165500D01*
X7842260D01*
X7999760Y1008000D01*
X8031000D01*
G01X7220000Y3890000D02*
X7060000Y3730000D01*
Y2500010D01*
X7330000Y2230010D01*
Y2100000D01*
X7712000Y1718000D01*
Y1348000D01*
X7895000Y1165000D01*
X8045000D01*
X8150000Y1060000D01*
Y620000D01*
X8270000Y500000D01*
X8285000D01*
G01X7220000Y2710000D02*
X7370000Y2560000D01*
Y2102430D01*
X7742000Y1730430D01*
Y1369600D01*
X7871600Y1240000D01*
X8050000D01*
X8282000Y1008000D01*
X8285000D01*
G01X6925000Y3140000D02*
X6820000D01*
X6790000Y3170000D01*
Y3700000D01*
X6880000Y3790000D01*
X6930000D01*
X6990000Y3850000D01*
Y4000000D01*
X6970000Y4020000D01*
G01X6900000Y2930000D02*
X6980000D01*
X7030000Y2980000D01*
Y3810000D01*
X7500000Y4280000D01*
X7736400D01*
X7866000Y4409600D01*
Y4525570D01*
X7938430Y4598000D01*
X8150000D01*
X8262000Y4710000D01*
G01X7220000Y2930000D02*
X7130000D01*
X7090000Y2970000D01*
Y3710000D01*
X7170000Y3790000D01*
X7250000D01*
X7310000Y3850000D01*
Y4030000D01*
X7530000Y4250000D01*
X7748830D01*
X7896000Y4397170D01*
Y4513140D01*
X7950860Y4568000D01*
X8374000D01*
X8516000Y4710000D01*
G01X7195000Y3140000D02*
X7330000D01*
X7370000Y3180000D01*
Y4000000D01*
G01X14187870Y5477870D02*
X14100000Y5390000D01*
X13803000D01*
X13760000Y5433000D01*
Y5499990D01*
X13549990Y5710000D01*
X7290000D01*
X7120000Y5540000D01*
Y4900000D01*
X7070000Y4850000D01*
X6930000D01*
X6870000Y4790000D01*
Y4578000D01*
X6992000Y4456000D01*
G01X13725000Y1290000D02*
Y1332560D01*
X13520000Y1537570D01*
Y1812430D01*
X13580000Y1872430D01*
Y2065000D01*
X13415000Y2230000D01*
Y3035000D01*
X13305000Y3145000D01*
Y3845000D01*
X13450000Y3990000D01*
X13550000D01*
X14020000Y4460000D01*
Y4709990D01*
X14095000Y4784990D01*
Y4982000D01*
X13962000Y5115000D01*
X11775000D01*
X11710000Y5050000D01*
Y4930000D01*
X11640000Y4860000D01*
X7140000D01*
X6992000Y4712000D01*
Y4710000D01*
G01X9047000Y500000D02*
X8902000Y645000D01*
Y810000D01*
X8832000Y880000D01*
X8744000D01*
X8682000Y942000D01*
Y1052430D01*
X8584430Y1150000D01*
X8481860D01*
X8401860Y1230000D01*
X8312000D01*
X8220000Y1322000D01*
Y1716400D01*
X8154400Y1782000D01*
X8008000D01*
X7410000Y2380000D01*
Y2980000D01*
X7590000Y3160000D01*
Y3800000D01*
X7500000Y3890000D01*
G01X7820000Y2710000D02*
X7720000Y2610000D01*
Y2380000D01*
X8280000Y1820000D01*
X8370400D01*
X8474000Y1716400D01*
Y1248000D01*
X8512000Y1210000D01*
X8846860D01*
X8906860Y1150000D01*
X9159000D01*
X9301000Y1008000D01*
G01X7500000Y2710000D02*
X7610000Y2600000D01*
Y2222430D01*
X7739930Y2092500D01*
X7886330D01*
X8250000Y1728830D01*
Y1334430D01*
X8324430Y1260000D01*
X8414290D01*
X8494290Y1180000D01*
X8834430D01*
X9006430Y1008000D01*
X9047000D01*
G01X7820000Y3890000D02*
X7940000Y3770000D01*
Y2202440D01*
X8165210Y1977220D01*
X8257210D01*
X8412000Y1822430D01*
Y1820830D01*
X8504000Y1728830D01*
Y1260430D01*
X8524430Y1240000D01*
X8859290D01*
X8919290Y1180000D01*
X9171430D01*
X9245930Y1105500D01*
X9369500D01*
X9420000Y1055000D01*
Y618000D01*
X9302000Y500000D01*
X9301000D01*
G01X9278000Y4710000D02*
X9136000Y4568000D01*
X8458860D01*
X8404000Y4513140D01*
Y4397170D01*
X8316830Y4310000D01*
X7893690D01*
X7730000Y4146310D01*
Y3020000D01*
X7820000Y2930000D01*
G01X9532000Y4710000D02*
X9420000Y4598000D01*
X9208430D01*
X9136000Y4525570D01*
Y4409600D01*
X9006400Y4280000D01*
X8120000D01*
X7990000Y4150000D01*
Y3040000D01*
X8100000Y2930000D01*
G01X7500000D02*
X7630000Y3060000D01*
Y4088740D01*
X7881260Y4340000D01*
X8304400D01*
X8374000Y4409600D01*
Y4525570D01*
X8446430Y4598000D01*
X8912000D01*
X9024000Y4710000D01*
G01X9555000Y1008000D02*
X9427500Y1135500D01*
X9258360D01*
X9183860Y1210000D01*
X8931720D01*
X8871720Y1270000D01*
X8812000D01*
X8728000Y1354000D01*
Y1716400D01*
X8634400Y1810000D01*
X8532000D01*
X8232000Y2110000D01*
Y2578000D01*
X8100000Y2710000D01*
G01X9555000Y500000D02*
Y503000D01*
X9680000Y628000D01*
Y1045000D01*
X9559500Y1165500D01*
X9270790D01*
X9196290Y1240000D01*
X8944150D01*
X8884150Y1300000D01*
X8862000D01*
X8858000Y1304000D01*
X8823600D01*
X8758000Y1369600D01*
Y1728830D01*
X8646830Y1840000D01*
X8569890D01*
X8300000Y2110060D01*
Y3690000D01*
X8100000Y3890000D01*
G01X10063000Y500000D02*
X9946500Y616500D01*
Y1050830D01*
X9861830Y1135500D01*
X9798930D01*
X9678930Y1255500D01*
X9308080D01*
X9236000Y1327580D01*
Y1716400D01*
X9170400Y1782000D01*
X9170000D01*
X8840000Y2112000D01*
Y2180000D01*
X8600000Y2420000D01*
Y3790000D01*
X8700000Y3890000D01*
G01X9809000Y1008000D02*
X9621500Y1195500D01*
X9283220D01*
X9208720Y1270000D01*
X9032000D01*
X8982000Y1320000D01*
Y1716400D01*
X8916400Y1782000D01*
X8838000D01*
X8515000Y2105000D01*
Y2615000D01*
X8420000Y2710000D01*
G01X9809000Y500000D02*
X9916500Y607500D01*
Y1038400D01*
X9849400Y1105500D01*
X9786500D01*
X9666500Y1225500D01*
X9295650D01*
X9221150Y1300000D01*
X9072000D01*
X9012000Y1360000D01*
Y1728830D01*
X8928830Y1812000D01*
X8868010D01*
X8560000Y2120010D01*
Y3750000D01*
X8420000Y3890000D01*
G01X9786000Y4710000D02*
X9644000Y4568000D01*
X9220860D01*
X9166000Y4513140D01*
Y4397170D01*
X9018830Y4250000D01*
X8440000D01*
X8340000Y4150000D01*
Y3010000D01*
X8420000Y2930000D01*
G01X8700000Y2710000D02*
X8880000Y2530000D01*
Y2152000D01*
X9266000Y1766000D01*
Y1340010D01*
X9320510Y1285500D01*
X9691360D01*
X9811360Y1165500D01*
X9874260D01*
X10031760Y1008000D01*
X10063000D01*
G01X10040000Y4710000D02*
X9898000Y4568000D01*
Y4409600D01*
X9828400Y4340000D01*
X9151260D01*
X9031260Y4220000D01*
X8950000D01*
X8840000Y4110000D01*
Y3070000D01*
X8700000Y2930000D01*
G01X10317000Y1008000D02*
X10145000Y1180000D01*
X10074430D01*
X10014430Y1240000D01*
X9903600D01*
X9774000Y1369600D01*
Y1596000D01*
X9744000Y1626000D01*
Y1716400D01*
X9678400Y1782000D01*
X9528000D01*
X9127500Y2182500D01*
Y2214540D01*
X9120000Y2222040D01*
Y2610000D01*
X9020000Y2710000D01*
G01Y3890000D02*
X8930000Y3800000D01*
Y2320010D01*
X9002510Y2247500D01*
X9052110D01*
X9097500Y2202110D01*
Y2152510D01*
X9520000Y1730010D01*
Y1623600D01*
X9585600Y1558000D01*
X9692010D01*
X9744000Y1506010D01*
Y1369600D01*
X9742000Y1367600D01*
Y1280000D01*
X9812000Y1210000D01*
X10002000D01*
X10182000Y1030000D01*
Y620000D01*
X10302000Y500000D01*
X10317000D01*
G01X9300000Y2710000D02*
X9188000Y2598000D01*
Y2422000D01*
X9377500Y2232500D01*
Y2182500D01*
X9778000Y1782000D01*
X9932400D01*
X9998000Y1716400D01*
Y1322000D01*
X10090000Y1230000D01*
X10179860D01*
X10259860Y1150000D01*
X10362430D01*
X10460000Y1052430D01*
Y942000D01*
X10522000Y880000D01*
X10610000D01*
X10680000Y810000D01*
Y645000D01*
X10825000Y500000D01*
G01X9300000Y2930000D02*
X9220000Y3010000D01*
Y4165000D01*
X9315000Y4260000D01*
X10320000D01*
X10420000Y4360000D01*
Y4530000D01*
X10470000Y4580000D01*
X10678000D01*
X10802000Y4456000D01*
G01X9020000Y2930000D02*
Y3180000D01*
X9140000Y3300000D01*
Y4220000D01*
X9220000Y4300000D01*
X9830830D01*
X9928000Y4397170D01*
Y4538000D01*
X9970000Y4580000D01*
X10164000D01*
X10294000Y4710000D01*
G01X9300000Y3890000D02*
X9432000Y3758000D01*
Y2178430D01*
X9770430Y1840000D01*
X9916830D01*
X10028000Y1728830D01*
Y1334430D01*
X10102430Y1260000D01*
X10192290D01*
X10272290Y1180000D01*
X10612430D01*
X10784430Y1008000D01*
X10825000D01*
G01X13450000Y5654630D02*
X13445370D01*
X13420000Y5680000D01*
X8980000D01*
X8930000Y5630000D01*
Y5130000D01*
X8793000Y4993000D01*
Y4992000D01*
G01X11333000Y500000D02*
Y503000D01*
X11455000Y625000D01*
Y1023900D01*
X11313400Y1165500D01*
X11048790D01*
X10974290Y1240000D01*
X10722150D01*
X10662150Y1300000D01*
X10640000D01*
X10636000Y1304000D01*
X10601600D01*
X10536000Y1369600D01*
Y1728830D01*
X10424830Y1840000D01*
X10347890D01*
X10078000Y2110060D01*
Y3722000D01*
X9910000Y3890000D01*
G01X11079000Y1008000D02*
X10937000Y1150000D01*
X10684860D01*
X10624860Y1210000D01*
X10290000D01*
X10252000Y1248000D01*
Y1716400D01*
X10148400Y1820000D01*
X9979260D01*
X9929260Y1870000D01*
X9800000D01*
X9498000Y2172000D01*
Y3768000D01*
X9620000Y3890000D01*
G01X11333000Y1008000D02*
X11205500Y1135500D01*
X11036360D01*
X10961860Y1210000D01*
X10709720D01*
X10649720Y1270000D01*
X10590000D01*
X10506000Y1354000D01*
Y1716400D01*
X10412400Y1810000D01*
X10310000D01*
X10010000Y2110000D01*
Y2610000D01*
X9910000Y2710000D01*
G01X11079000Y500000D02*
X11080000D01*
X11195000Y615000D01*
Y1060000D01*
X11149500Y1105500D01*
X11023930D01*
X10949430Y1180000D01*
X10697290D01*
X10637290Y1240000D01*
X10302430D01*
X10282000Y1260430D01*
Y1728830D01*
X10190000Y1820830D01*
Y1822430D01*
X10035210Y1977220D01*
X9962770D01*
X9718000Y2221990D01*
Y2612000D01*
X9620000Y2710000D01*
G01X9910000Y2930000D02*
X9810000Y3030000D01*
Y3970000D01*
X9860000Y4020000D01*
X10270010D01*
X10550010Y4300000D01*
X10942430D01*
X10986430Y4344000D01*
X11102400D01*
X11168000Y4409600D01*
Y4568000D01*
X11310000Y4710000D01*
G01X11056000Y4456000D02*
X10930000Y4330000D01*
X10432430D01*
X10332430Y4230000D01*
X9870000D01*
X9765000Y4125000D01*
Y3075000D01*
X9620000Y2930000D01*
G01X11587000Y500000D02*
X11684500Y597500D01*
Y1048400D01*
X11627400Y1105500D01*
X11564500D01*
X11444500Y1225500D01*
X11073650D01*
X10999150Y1300000D01*
X10850000D01*
X10790000Y1360000D01*
Y1728830D01*
X10706830Y1812000D01*
X10646010D01*
X10338000Y2120010D01*
Y3782000D01*
X10230000Y3890000D01*
G01X11587000Y1008000D02*
X11399500Y1195500D01*
X11061220D01*
X10986720Y1270000D01*
X10810000D01*
X10760000Y1320000D01*
Y1716400D01*
X10694400Y1782000D01*
X10616000D01*
X10478000Y1920000D01*
X10319990D01*
X10130000Y2109990D01*
Y2610000D01*
X10230000Y2710000D01*
G01X10510000D02*
X10610000Y2610000D01*
Y2350000D01*
X10658000Y2302000D01*
Y2152000D01*
X11044000Y1766000D01*
Y1340010D01*
X11098510Y1285500D01*
X11469360D01*
X11589360Y1165500D01*
X11652260D01*
X11809760Y1008000D01*
X11841000D01*
G01Y500000D02*
X11714500Y626500D01*
Y1060830D01*
X11639830Y1135500D01*
X11576930D01*
X11456930Y1255500D01*
X11086080D01*
X11014000Y1327580D01*
Y1716400D01*
X10948400Y1782000D01*
X10948000D01*
X10618000Y2112000D01*
Y2180000D01*
X10378000Y2420000D01*
Y3758000D01*
X10510000Y3890000D01*
G01X10830000D02*
X10680000Y3740000D01*
Y2470010D01*
X10907500Y2242510D01*
Y2120510D01*
X11298000Y1730010D01*
Y1623600D01*
X11363600Y1558000D01*
X11470010D01*
X11522000Y1506010D01*
Y1369600D01*
X11520000Y1367600D01*
Y1280000D01*
X11590000Y1210000D01*
X11780000D01*
X11960000Y1030000D01*
Y620000D01*
X12080000Y500000D01*
X12095000D01*
G01X10830000Y2930000D02*
X10760000D01*
X10710000Y2980000D01*
Y3720000D01*
X10760000Y3770000D01*
X10870010D01*
X11110010Y4010000D01*
X11160000D01*
X11270000Y4120000D01*
Y4200000D01*
X11320000Y4250000D01*
X11322430D01*
X11411210Y4338780D01*
X11638780D01*
X11690000Y4390000D01*
Y4520000D01*
X11760000Y4590000D01*
X11860000D01*
X11980000Y4710000D01*
X12072000D01*
G01X11818000D02*
X11688000Y4580000D01*
X11510000D01*
X11440000Y4510000D01*
Y4410000D01*
X11310000Y4280000D01*
X11150000D01*
X10870000Y4000000D01*
X10760000D01*
X10650000Y3890000D01*
Y2990000D01*
X10590000Y2930000D01*
X10510000D01*
G01X10230000D02*
X10140000Y3020000D01*
Y3950000D01*
X10180000Y3990000D01*
X10520000D01*
X10800000Y4270000D01*
X10954860D01*
X10998860Y4314000D01*
X11114830D01*
X11198000Y4397170D01*
Y4518000D01*
X11260000Y4580000D01*
X11434000D01*
X11564000Y4710000D01*
G01X10545000Y3140000D02*
X10458000D01*
X10408000Y3190000D01*
Y3738000D01*
X10460000Y3790000D01*
X10570000D01*
X10610000Y3830000D01*
Y3930000D01*
X10620000Y3940000D01*
Y3947500D01*
G01X10571000Y4992000D02*
X10572000D01*
X10700000Y5120000D01*
Y5600000D01*
X10750000Y5650000D01*
X13369990D01*
X13417860Y5602130D01*
X13482130D01*
X13530000Y5650000D01*
Y5652500D01*
G01X10830000Y2710000D02*
X10980010Y2559990D01*
Y2159990D01*
X11250000Y1890000D01*
X11392430D01*
X11552000Y1730430D01*
Y1369600D01*
X11681600Y1240000D01*
X11860000D01*
X12092000Y1008000D01*
X12095000D01*
G01X11195000Y3420000D02*
X11180000Y3435000D01*
X11025000D01*
X10970000Y3380000D01*
Y3170000D01*
X10940000Y3140000D01*
X10815000D01*
G01X12834000Y4710000D02*
X12722000Y4598000D01*
X12267170D01*
X12237170Y4568000D01*
X11990430D01*
X11960000Y4537570D01*
Y4347570D01*
X11852430Y4240000D01*
X11630000D01*
X11510000Y4120000D01*
Y3010000D01*
X11430000Y2930000D01*
G01X11110000D02*
X11120000D01*
X11250000Y3060000D01*
Y4040000D01*
X11320000Y4110000D01*
Y4180000D01*
X11410000Y4270000D01*
X11840000D01*
X11930000Y4360000D01*
Y4550000D01*
X11978000Y4598000D01*
X12158000D01*
X12200000Y4640000D01*
Y4780000D01*
X12250000Y4830000D01*
X12460000D01*
X12580000Y4710000D01*
G01X13111000Y1008000D02*
X12993000Y890000D01*
X12252430D01*
X12192500Y949930D01*
Y1048400D01*
X12135400Y1105500D01*
X12036930D01*
X11872430Y1270000D01*
X11815000D01*
X11776000Y1309000D01*
Y1724000D01*
X11570000Y1930000D01*
Y3750000D01*
X11710000Y3890000D01*
G01X12310000D02*
X12190000Y3770000D01*
X12000000D01*
X11880000Y3650000D01*
Y1880000D01*
X12040000Y1720000D01*
Y1345000D01*
X12245000Y1140000D01*
X13224990D01*
X13239990Y1125000D01*
X13505000D01*
X13619000Y1011000D01*
Y1008000D01*
G01X12030000Y3890000D02*
X11850000D01*
X11740000Y3780000D01*
X11660000D01*
X11600000Y3720000D01*
Y1942430D01*
X11806000Y1736430D01*
Y1321430D01*
X11827430Y1300000D01*
X11884860D01*
X12049360Y1135500D01*
X12147830D01*
X12173330Y1110000D01*
X13160000D01*
X13262000Y1008000D01*
X13365000D01*
G01X13587500Y1290000D02*
Y1287500D01*
X13570000Y1270000D01*
Y1247570D01*
X13487630Y1165200D01*
X13328390D01*
X13316090Y1177500D01*
X12892500D01*
X12830000Y1240000D01*
Y1795140D01*
X12190000Y2435140D01*
Y2500000D01*
X12090000Y2600000D01*
X11970000D01*
X11910000Y2660000D01*
Y3420000D01*
X12270000Y3780000D01*
X12350000D01*
X12400000Y3830000D01*
Y4382000D01*
X12326000Y4456000D01*
G01X12030000Y2930000D02*
X12140000Y3040000D01*
Y3390000D01*
X12445000Y3695000D01*
Y4115000D01*
X12660000Y4330000D01*
X13216000D01*
X13342000Y4456000D01*
G01X13088000D02*
X12976000Y4568000D01*
X12279600D01*
X12200000Y4488400D01*
Y3910000D01*
X12102500Y3812500D01*
X12000070D01*
X11850000Y3662430D01*
Y3070000D01*
X11710000Y2930000D01*
G01X12435000Y3527500D02*
Y2692570D01*
X12542570Y2585000D01*
X12687570D01*
X12730000Y2542570D01*
Y1937570D01*
X12860000Y1807570D01*
Y1259990D01*
X12912490Y1207500D01*
X13328520D01*
X13340820Y1195200D01*
X13475200D01*
X13532500Y1252500D01*
Y1350000D01*
G01X12500000Y3580000D02*
X12490000Y3570000D01*
Y2680000D01*
X12555000Y2615000D01*
X12700000D01*
X12760000Y2555000D01*
Y1950000D01*
X12890000Y1820000D01*
Y1280000D01*
X12932500Y1237500D01*
X13340950D01*
X13353250Y1225200D01*
X13425910D01*
X13480000Y1279290D01*
G01X12630000Y2930000D02*
X12750000Y3050000D01*
Y3850000D01*
X13100000Y4200000D01*
X13594000D01*
X13850000Y4456000D01*
G01X12310000Y2930000D02*
X12210000Y3030000D01*
Y3410010D01*
X12475000Y3675010D01*
Y4075010D01*
X12674990Y4275000D01*
X13415000D01*
X13596000Y4456000D01*
G01X14040000Y4880000D02*
X14030000Y4870000D01*
X12462440D01*
X12349000Y4983440D01*
Y4992000D01*
G01X12990000Y3540000D02*
X13030000Y3500000D01*
Y2240000D01*
X13130000Y2140000D01*
Y2016960D01*
X13220000Y1926950D01*
Y1690000D01*
X13130000Y1600000D01*
Y1475000D01*
X13070000Y1415000D01*
G01X13065000Y3985000D02*
X13090000Y3960000D01*
Y3270010D01*
X13335000Y3025010D01*
Y2219270D01*
X13371750Y2182500D01*
X13402500Y2151750D01*
Y2151730D01*
X13440000Y2114210D01*
Y1807580D01*
X13460000Y1787580D01*
Y1555750D01*
X13301750Y1397500D01*
X13142500D01*
X13070000Y1325000D01*
G01X13030000Y3670000D02*
X13060000Y3640000D01*
Y2267960D01*
X13170000Y2157960D01*
Y2027570D01*
X13250000Y1947570D01*
Y1677570D01*
X13215000Y1642570D01*
Y1495000D01*
X13260000Y1450000D01*
X13280000D01*
G01X13086100Y4057860D02*
Y4053900D01*
X13120000Y4020000D01*
Y3282440D01*
X13365000Y3037440D01*
Y3035000D01*
X13385000Y3015000D01*
Y2211730D01*
X13470000Y2126660D01*
Y1820010D01*
X13490000Y1800010D01*
Y1543320D01*
X13320000Y1373320D01*
Y1360000D01*
X13314170Y1354170D01*
Y1345830D01*
G01X14235000Y1900000D02*
X14175010D01*
X14127810Y1852800D01*
Y1772570D01*
G01X13705000Y1950000D02*
X13770000D01*
X13790000Y1930000D01*
Y1799170D01*
X13849500Y1739670D01*
G01X13654520Y1544520D02*
X13756540Y1442500D01*
X14532500D01*
X14730000Y1245000D01*
X14935000D01*
X15080000Y1390000D01*
G01Y1898000D02*
X14952000Y1770000D01*
X14725000D01*
X14457500Y1502500D01*
X13813240D01*
X13617870Y1697870D01*
G01X14030000Y1365000D02*
Y1300000D01*
X13990000Y1260000D01*
G01X13610000Y1777500D02*
X13612500D01*
X13857500Y1532500D01*
X14427500D01*
X14695000Y1800000D01*
Y1980000D01*
X14740000Y2025000D01*
X14953000D01*
X15080000Y2152000D01*
G01Y1644000D02*
X14951000Y1515000D01*
X14730000D01*
X14687500Y1472500D01*
X13800810D01*
X13653310Y1620000D01*
X13620000D01*
G01X14255000Y1716620D02*
X14254120Y1717500D01*
X14047500D01*
X14030000Y1700000D01*
Y1635000D01*
G01X13975000Y1950000D02*
X13882500D01*
X13825000Y2007500D01*
Y2140000D01*
G01X14505000Y1900000D02*
X14395000D01*
G01X14460000Y4030000D02*
Y4010000D01*
G54D26*
X14826000Y1644000D03*
Y1390000D03*
Y2406000D03*
Y2152000D03*
Y1898000D03*
Y2914000D03*
Y2660000D03*
X15080000Y1644000D03*
Y2406000D03*
Y2152000D03*
Y1898000D03*
Y2914000D03*
Y2660000D03*
G54D17*
X599800Y4513340D03*
X14700000Y5048000D03*
G54D36*
G01X0Y0D02*
Y6000000D01*
X15300000D01*
Y0D01*
X0D01*
G54D18*
X599800Y5021340D03*
X14700000Y4540000D03*
G54D27*
Y3180000D03*
G54D19*
X1681000Y500000D03*
X1427000D03*
X1681000Y754000D03*
X1427000D03*
X1681000Y1008000D03*
X1427000D03*
X1681000Y5246000D03*
Y4992000D03*
Y5500000D03*
X2443000Y500000D03*
X2189000D03*
X1935000D03*
X2443000Y754000D03*
X2189000D03*
X1935000D03*
X2443000Y1008000D03*
X2189000D03*
X1935000D03*
Y5246000D03*
X2189000D03*
X2443000D03*
X1935000Y4992000D03*
X2189000D03*
X2443000D03*
X1935000Y5500000D03*
X2189000D03*
X2443000D03*
X3205000Y500000D03*
X2951000D03*
X2697000D03*
X3205000Y754000D03*
X2951000D03*
X2697000D03*
X3205000Y1008000D03*
X2951000D03*
X2697000D03*
Y5246000D03*
X2951000D03*
X3205000D03*
X2697000Y4992000D03*
X2951000D03*
X3205000D03*
X2697000Y5500000D03*
X2951000D03*
X3205000D03*
X3713000Y500000D03*
X3459000D03*
X3713000Y754000D03*
X3459000D03*
X3713000Y1008000D03*
X3459000D03*
Y5246000D03*
X3713000D03*
X3459000Y4992000D03*
X3713000D03*
X3459000Y5500000D03*
X3713000D03*
X4475000Y500000D03*
X4221000D03*
X3967000D03*
X4475000Y754000D03*
X4221000D03*
X3967000D03*
X4475000Y1008000D03*
X4221000D03*
X3967000D03*
Y5246000D03*
X4221000D03*
X4475000D03*
X3967000Y4992000D03*
X4221000D03*
X4475000D03*
X3967000Y5500000D03*
X4221000D03*
X4475000D03*
X5237000Y500000D03*
X4983000D03*
X4729000D03*
X5237000Y754000D03*
X4983000D03*
X4729000D03*
X5237000Y1008000D03*
X4983000D03*
X4729000D03*
Y5246000D03*
X4983000D03*
X5237000D03*
X4729000Y4992000D03*
X4983000D03*
X5237000D03*
X4729000Y5500000D03*
X4983000D03*
X5237000D03*
X5999000Y500000D03*
X5745000D03*
X5491000D03*
X5999000Y754000D03*
X5745000D03*
X5491000D03*
X5999000Y1008000D03*
X5745000D03*
X5491000D03*
Y5246000D03*
X5745000D03*
X5999000D03*
X5491000Y4992000D03*
X5745000D03*
X5999000D03*
X5491000Y5500000D03*
X5745000D03*
X5999000D03*
X6507000Y500000D03*
X6253000D03*
X6507000Y754000D03*
X6253000D03*
X6507000Y1008000D03*
X6253000D03*
Y5246000D03*
X6507000D03*
X6253000Y4992000D03*
X6507000D03*
X6253000Y5500000D03*
X6507000D03*
X7269000Y500000D03*
X7015000D03*
X6761000D03*
X7269000Y754000D03*
X7015000D03*
X6761000D03*
X7269000Y1008000D03*
X7015000D03*
X6761000D03*
Y5246000D03*
X7015000D03*
X7269000D03*
X6761000Y4992000D03*
X7015000D03*
X7269000D03*
X6761000Y5500000D03*
X7015000D03*
X7269000D03*
X8031000Y500000D03*
X7777000D03*
X7523000D03*
X8031000Y754000D03*
X7777000D03*
X7523000D03*
X8031000Y1008000D03*
X7777000D03*
X7523000D03*
Y5246000D03*
X7777000D03*
X8031000D03*
X7523000Y4992000D03*
X7777000D03*
X8031000D03*
X7523000Y5500000D03*
X7777000D03*
X8031000D03*
X8793000Y500000D03*
X8539000D03*
X8285000D03*
X8793000Y754000D03*
X8539000D03*
X8285000D03*
X8793000Y1008000D03*
X8539000D03*
X8285000D03*
Y5246000D03*
X8539000D03*
X8793000D03*
X8285000Y4992000D03*
X8539000D03*
X8793000D03*
X8285000Y5500000D03*
X8539000D03*
X8793000D03*
X9301000Y500000D03*
X9047000D03*
X9301000Y754000D03*
X9047000D03*
X9301000Y1008000D03*
X9047000D03*
Y5246000D03*
X9301000D03*
X9047000Y4992000D03*
X9301000D03*
X9047000Y5500000D03*
X9301000D03*
X10063000Y500000D03*
X9809000D03*
X9555000D03*
X10063000Y754000D03*
X9809000D03*
X9555000D03*
X10063000Y1008000D03*
X9809000D03*
X9555000D03*
Y5246000D03*
X9809000D03*
X10063000D03*
X9555000Y4992000D03*
X9809000D03*
X10063000D03*
X9555000Y5500000D03*
X9809000D03*
X10063000D03*
X10825000Y500000D03*
X10571000D03*
X10317000D03*
X10825000Y754000D03*
X10571000D03*
X10317000D03*
X10825000Y1008000D03*
X10571000D03*
X10317000D03*
Y5246000D03*
X10571000D03*
X10825000D03*
X10317000Y4992000D03*
X10571000D03*
X10825000D03*
X10317000Y5500000D03*
X10571000D03*
X10825000D03*
X11333000Y500000D03*
X11079000D03*
X11333000Y754000D03*
X11079000D03*
X11333000Y1008000D03*
X11079000D03*
Y5246000D03*
X11333000D03*
X11079000Y4992000D03*
X11333000D03*
X11079000Y5500000D03*
X11333000D03*
X12095000Y500000D03*
X11841000D03*
X11587000D03*
X12095000Y754000D03*
X11841000D03*
X11587000D03*
X12095000Y1008000D03*
X11841000D03*
X11587000D03*
Y5246000D03*
X11841000D03*
X12095000D03*
X11587000Y4992000D03*
X11841000D03*
X12095000D03*
X11587000Y5500000D03*
X11841000D03*
X12095000D03*
X12857000Y500000D03*
X12603000D03*
X12349000D03*
X12857000Y754000D03*
X12603000D03*
X12349000D03*
X12857000Y1008000D03*
X12603000D03*
X12349000D03*
Y5246000D03*
X12603000D03*
X12857000D03*
X12349000Y4992000D03*
X12603000D03*
X12857000D03*
X12349000Y5500000D03*
X12603000D03*
X12857000D03*
X13619000Y500000D03*
X13365000D03*
X13111000D03*
X13619000Y754000D03*
X13365000D03*
X13111000D03*
X13619000Y1008000D03*
X13365000D03*
X13111000D03*
Y5246000D03*
X13365000D03*
X13619000D03*
X13111000Y4992000D03*
X13365000D03*
X13619000D03*
X13111000Y5500000D03*
X13365000D03*
X13619000D03*
X13873000Y5246000D03*
Y4992000D03*
Y5500000D03*
G54D28*
X14935000Y3266500D03*
X15125000D03*
X15030000Y3503500D03*
G54D29*
X14630000Y3929500D03*
Y4056500D03*
Y4183500D03*
Y4310500D03*
X15170000D03*
Y4183500D03*
Y4056500D03*
Y3929500D03*
M02*
