M48
METRIC,TZ
VER,1
FMAT,2
T01C0.3F42B423S6H2000
T02C0.6F42B423S6H2000
T03C0.65F42B423S6H2000
T04C0.7F42B423S6H2000
T05C0.9F42B423S6H2000
T06C1.F42B423S6H2000
T07C1.3F42B423S6H2000
T08C1.3F42B423S6H2000
T09C1.6F42B423S6H2000
T10C2.8F42B423S6H2000
T11C3.3F42B423S6H2000
DETECT,ON
ATC,ON
%
T01
X13932700Y1174200
X13140000Y1932700
X13267300Y2025000
X13725000Y1290000
X14203500Y1649200
X14254900Y1597800
X13450000Y5654600
X14255000Y1716600
X13730000Y5732500
X3770000Y4060000
X13530000Y5652500
X13825000Y2140000
X785000Y2995000
X13532500Y1350000
X12435000Y3527500
X13794900Y1310100
X13587500Y1290000
X13857500Y1365000
X13785000Y1390000
X14187900Y5477900
X13925000Y1775000
X13810000Y5712500
X13620000Y1620000
X517300Y2900000
X787300Y3090000
X14405000Y4510000
X15005000Y5250000
X15095000Y3597300
X15049500Y4310500
X15049800Y3929500
X14196500Y1300000
X3455000Y1845000
X3935000Y2035000
X14332700Y1805000
X90000Y3562300
X10912700Y3235000
X10445000Y3045000
X13860000Y1277700
X13060000Y1920000
X13375000Y1910000
X13525000Y1905000
X13275000Y1525000
X13683400Y1780800
X13862300Y1660000
X14403900Y2054400
X13950000Y2117700
X7295000Y3235000
X6835000Y3045000
X15197700Y5250000
X1230000Y5920000
X1730000
X2730000
X2230000
X3730000
X3230000
X4230000
X5230000
X4730000
X5730000
X6730000
X6230000
X7230000
X8230000
X7730000
X8730000
X9730000
X9230000
X10230000
X11230000
X10730000
X11730000
X12730000
X12230000
X13230000
X13730000
X1390000Y80000
X13890000
X1890000
X2390000
X2890000
X3390000
X4390000
X3890000
X4890000
X5890000
X5390000
X6390000
X7390000
X6890000
X7890000
X8890000
X8390000
X9390000
X10390000
X9890000
X10890000
X11890000
X11390000
X12390000
X13390000
X12890000
X14113000Y5522500
X7370000Y4000000
X13314200Y1345800
X13086100Y4057900
X10620000Y3947500
X13280000Y1450000
X13030000Y3670000
X13610000Y1777500
X13990000Y1260000
X13707500Y2880000
Y2952700
X517300Y2995000
X13480000Y1279300
X12500000Y3580000
X14410000Y4390000
X14612700Y4712500
X15195000Y4750000
Y4677300
X15045000Y4670000
X15195000Y4820000
Y4895000
X15200000Y4990000
X15125000
X15055000
X95000Y4047700
X13617900Y1697900
X14395000Y1900000
X6970000Y4020000
X13070000Y1325000
X13065000Y3985000
X14480000Y4285000
X14869500Y4973700
X3710000Y4010000
X13427500Y1342500
X14040000Y4880000
X13654500Y1544500
X200000Y3855000
X13895000Y2170000
X517300Y3090000
X444600
X13375000Y1277700
X13849500Y1739700
X11195000Y3420000
X13070000Y1415000
X12990000Y3540000
X14935000Y3785000
X15049800Y4183500
X14127800Y1772600
T02
X12630000Y2170000
Y2490000
Y2710000
Y2930000
X12310000
Y2710000
Y2490000
Y2170000
X12030000
Y2490000
Y2710000
Y2930000
X11710000
Y2710000
Y2490000
Y2170000
X11430000Y3350000
Y3670000
Y3890000
Y4110000
X11110000
Y3890000
Y3670000
Y3350000
X12630000
Y3670000
Y3890000
Y4110000
X12310000
Y3890000
Y3670000
Y3350000
X12030000
Y3670000
Y3890000
Y4110000
X11710000
Y3890000
Y3670000
Y3350000
X11430000Y2170000
Y2490000
Y2710000
Y2930000
X11110000
Y2710000
Y2490000
Y2170000
X10830000Y3350000
Y3670000
Y3890000
Y4110000
X10510000
Y3890000
Y3670000
Y3350000
X10230000
Y3670000
Y3890000
Y4110000
X9910000
Y3890000
Y3670000
Y3350000
X9620000Y2170000
Y2490000
Y2710000
Y2930000
X9300000
Y2710000
Y2490000
Y2170000
X10830000
Y2490000
Y2710000
Y2930000
X10510000
Y2710000
Y2490000
Y2170000
X10230000
Y2490000
Y2710000
Y2930000
X9910000
Y2710000
Y2490000
Y2170000
X9620000Y3350000
Y3670000
Y3890000
Y4110000
X9300000
Y3890000
Y3670000
Y3350000
X9020000
Y3670000
Y3890000
Y4110000
X8700000
Y3890000
Y3670000
Y3350000
X8420000
Y3670000
Y3890000
Y4110000
X8100000
Y3890000
Y3670000
Y3350000
X7820000
Y3670000
Y3890000
Y4110000
X7500000
Y3890000
Y3670000
Y3350000
X9020000Y2170000
Y2490000
Y2710000
Y2930000
X8700000
Y2710000
Y2490000
Y2170000
X8420000
Y2490000
Y2710000
Y2930000
X8100000
Y2710000
Y2490000
Y2170000
X7820000
Y2490000
Y2710000
Y2930000
X7500000
Y2710000
Y2490000
Y2170000
X7220000Y3350000
Y3670000
Y3890000
Y4110000
X6900000
Y3890000
Y3670000
Y3350000
X6620000
Y3670000
Y3890000
Y4110000
X6300000
Y3890000
Y3670000
Y3350000
X6020000
Y3670000
Y3890000
Y4110000
X5700000
Y3890000
Y3670000
Y3350000
X7220000Y2170000
Y2490000
Y2710000
Y2930000
X6900000
Y2710000
Y2490000
Y2170000
X6620000
Y2490000
Y2710000
Y2930000
X6300000
Y2710000
Y2490000
Y2170000
X6020000
Y2490000
Y2710000
Y2930000
X5700000
Y2710000
Y2490000
Y2170000
X5420000Y3350000
Y3670000
Y3890000
Y4110000
X5100000
Y3890000
Y3670000
Y3350000
X4820000
Y3670000
Y3890000
Y4110000
X4500000
Y3890000
Y3670000
Y3350000
X4220000
Y3670000
Y3890000
Y4110000
X3900000
Y3890000
Y3670000
Y3350000
X5420000Y2170000
Y2490000
Y2710000
Y2930000
X5100000
Y2710000
Y2490000
Y2170000
X4820000
Y2490000
Y2710000
Y2930000
X4500000
Y2710000
Y2490000
Y2170000
X4220000
Y2490000
Y2710000
Y2930000
X3900000
Y2710000
Y2490000
Y2170000
X3620000Y3350000
Y3670000
Y3890000
Y4110000
X3300000
Y3890000
Y3670000
Y3350000
X3020000
Y3670000
Y3890000
Y4110000
X2700000
Y3890000
Y3670000
Y3350000
X2420000
Y3670000
Y3890000
Y4110000
X2100000
Y3890000
Y3670000
Y3350000
X3620000Y2170000
Y2490000
Y2710000
Y2930000
X3300000
Y2710000
Y2490000
Y2170000
X3020000
Y2490000
Y2710000
Y2930000
X2700000
Y2710000
Y2490000
Y2170000
X2420000
Y2490000
Y2710000
Y2930000
X2100000
Y2710000
Y2490000
Y2170000
X1820000Y3350000
Y3670000
Y3890000
Y4110000
X1500000
Y3890000
Y3670000
Y3350000
X1210000Y3190000
Y3510000
Y3730000
Y3950000
X890000
Y3730000
Y3510000
Y3190000
X600000
Y3510000
Y3730000
Y3950000
X280000
Y3730000
Y3510000
Y3190000
X1820000Y2170000
Y2490000
Y2710000
Y2930000
X1500000
Y2710000
Y2490000
Y2170000
X1210000Y2040000
Y2360000
Y2580000
Y2800000
X890000
Y2580000
Y2360000
Y2040000
X600000
Y2360000
Y2580000
Y2800000
X280000
Y2580000
Y2360000
Y2040000
X1020000Y1110000
X700000
X480000
X260000
Y790000
X480000
X700000
X1020000
X13830000Y2260000
Y2580000
Y2800000
Y3020000
X13510000
Y2800000
Y2580000
Y2260000
X13220000
Y2580000
Y2800000
Y3020000
X12900000
Y2800000
Y2580000
Y2260000
X14490000Y2160000
Y2480000
Y2700000
Y2920000
X14170000
Y2700000
Y2480000
Y2160000
X14140000Y4010000
Y3690000
Y3470000
Y3250000
X14460000
Y3470000
Y3690000
Y4010000
X13830000Y3350000
Y3670000
Y3890000
Y4110000
X13510000
Y3890000
Y3670000
Y3350000
X13220000
Y3670000
Y3890000
Y4110000
X12900000
Y3890000
Y3670000
Y3350000
T03
X12970000Y1310000
Y1437000
Y1564000
Y1691000
Y1818000
T04
X14700000Y3180000
T05
X14654000Y1154000
Y646000
X14146000
Y900000
Y1154000
T06
X1427000Y1008000
X1681000
X1935000
X2189000
X2443000
X2697000
X2951000
X3205000
X3459000
X3713000
X3967000
X4221000
X4475000
X4729000
X4983000
X5237000
X5491000
X5745000
X5999000
X6253000
X6507000
X6761000
X7015000
X7269000
X7523000
X7777000
X8031000
X8285000
X8539000
X8793000
X9047000
X9301000
X9555000
X9809000
X10063000
X10317000
X10571000
X10825000
X11079000
X11333000
X11587000
X11841000
X12095000
X12349000
X12603000
X12857000
X13111000
X13365000
X13619000
X13873000
X1427000Y754000
X1681000
X1935000
X2189000
X2443000
X2697000
X2951000
X3205000
X3459000
X3713000
X3967000
X4221000
X4475000
X4729000
X4983000
X5237000
X5491000
X5745000
X5999000
X6253000
X6507000
X6761000
X7015000
X7269000
X7523000
X7777000
X8031000
X8285000
X8539000
X8793000
X9047000
X9301000
X9555000
X9809000
X10063000
X10317000
X10571000
X10825000
X11079000
X11333000
X11587000
X11841000
X12095000
X12349000
X12603000
X12857000
X13111000
X13365000
X13619000
X13873000
X1427000Y500000
X1681000
X1935000
X2189000
X2443000
X2697000
X2951000
X3205000
X3459000
X3713000
X3967000
X4221000
X4475000
X4729000
X4983000
X5237000
X5491000
X5745000
X5999000
X6253000
X6507000
X6761000
X7015000
X7269000
X7523000
X7777000
X8031000
X8285000
X8539000
X8793000
X9047000
X9301000
X9555000
X9809000
X10063000
X10317000
X10571000
X10825000
X11079000
X11333000
X11587000
X11841000
X12095000
X12349000
X12603000
X12857000
X13111000
X13365000
X13619000
X13873000
Y4992000
X13619000
X13365000
X13111000
X12857000
X12603000
X12349000
X12095000
X11841000
X11587000
X11333000
X11079000
X10825000
X10571000
X10317000
X10063000
X9809000
X9555000
X9301000
X9047000
X8793000
X8539000
X8285000
X8031000
X7777000
X7523000
X7269000
X7015000
X6761000
X6507000
X6253000
X5999000
X5745000
X5491000
X5237000
X4983000
X4729000
X4475000
X4221000
X3967000
X3713000
X3459000
X3205000
X2951000
X2697000
X2443000
X2189000
X1935000
X1681000
X1427000
X13873000Y5246000
X13619000
X13365000
X13111000
X12857000
X12603000
X12349000
X12095000
X11841000
X11587000
X11333000
X11079000
X10825000
X10571000
X10317000
X10063000
X9809000
X9555000
X9301000
X9047000
X8793000
X8539000
X8285000
X8031000
X7777000
X7523000
X7269000
X7015000
X6761000
X6507000
X6253000
X5999000
X5745000
X5491000
X5237000
X4983000
X4729000
X4475000
X4221000
X3967000
X3713000
X3459000
X3205000
X2951000
X2697000
X2443000
X2189000
X1935000
X1681000
X1427000
X13873000Y5500000
X13619000
X13365000
X13111000
X12857000
X12603000
X12349000
X12095000
X11841000
X11587000
X11333000
X11079000
X10825000
X10571000
X10317000
X10063000
X9809000
X9555000
X9301000
X9047000
X8793000
X8539000
X8285000
X8031000
X7777000
X7523000
X7269000
X7015000
X6761000
X6507000
X6253000
X5999000
X5745000
X5491000
X5237000
X4983000
X4729000
X4475000
X4221000
X3967000
X3713000
X3459000
X3205000
X2951000
X2697000
X2443000
X2189000
X1935000
X1681000
X1427000
T07
X12680000Y1670000
Y1416000
X12426000Y1670000
Y1416000
X12172000Y1670000
Y1416000
X11918000Y1670000
Y1416000
X11664000Y1670000
Y1416000
X11410000Y1670000
Y1416000
X11156000Y1670000
Y1416000
X10902000Y1670000
Y1416000
X10648000Y1670000
Y1416000
X10394000Y1670000
Y1416000
X10140000Y1670000
Y1416000
X9886000Y1670000
Y1416000
X9632000Y1670000
Y1416000
X9378000Y1670000
Y1416000
X9124000Y1670000
Y1416000
X8870000Y1670000
Y1416000
X8616000Y1670000
Y1416000
X8362000Y1670000
Y1416000
X8108000Y1670000
Y1416000
X7854000Y1670000
Y1416000
X7600000Y1670000
Y1416000
X7346000Y1670000
Y1416000
X7092000Y1670000
Y1416000
X6838000Y1670000
Y1416000
X6584000Y1670000
Y1416000
X6330000Y1670000
Y1416000
X6076000Y1670000
Y1416000
X5822000Y1670000
Y1416000
X5568000Y1670000
Y1416000
X5314000Y1670000
Y1416000
X5060000Y1670000
Y1416000
X4806000Y1670000
Y1416000
X4552000Y1670000
Y1416000
X4298000Y1670000
Y1416000
X4044000Y1670000
Y1416000
X3790000Y1670000
Y1416000
X3536000Y1670000
Y1416000
X3282000Y1670000
Y1416000
X3028000Y1670000
Y1416000
X2774000Y1670000
Y1416000
X2520000Y1670000
Y1416000
X2266000Y1670000
Y1416000
X2012000Y1670000
Y1416000
X1758000Y1670000
Y1416000
X1504000Y1670000
Y1416000
X1250000Y1670000
Y1416000
X996000Y1670000
Y1416000
X742000Y1670000
Y1416000
X488000Y1670000
Y1416000
X234000Y1670000
Y1416000
X13850000Y4710000
Y4456000
X13596000Y4710000
Y4456000
X13342000Y4710000
Y4456000
X13088000Y4710000
Y4456000
X12834000Y4710000
Y4456000
X12580000Y4710000
Y4456000
X12326000Y4710000
Y4456000
X12072000Y4710000
Y4456000
X11818000Y4710000
Y4456000
X11564000Y4710000
Y4456000
X11310000Y4710000
Y4456000
X11056000Y4710000
Y4456000
X10802000Y4710000
Y4456000
X10548000Y4710000
Y4456000
X10294000Y4710000
Y4456000
X10040000Y4710000
Y4456000
X9786000Y4710000
Y4456000
X9532000Y4710000
Y4456000
X9278000Y4710000
Y4456000
X9024000Y4710000
Y4456000
X8770000Y4710000
Y4456000
X8516000Y4710000
Y4456000
X8262000Y4710000
Y4456000
X8008000Y4710000
Y4456000
X7754000Y4710000
Y4456000
X7500000Y4710000
Y4456000
X7246000Y4710000
Y4456000
X6992000Y4710000
Y4456000
X6738000Y4710000
Y4456000
X6484000Y4710000
Y4456000
X6230000Y4710000
Y4456000
X5976000Y4710000
Y4456000
X5722000Y4710000
Y4456000
X5468000Y4710000
Y4456000
X5214000Y4710000
Y4456000
X4960000Y4710000
Y4456000
X4706000Y4710000
Y4456000
X4452000Y4710000
Y4456000
X4198000Y4710000
Y4456000
X3944000Y4710000
Y4456000
X3690000Y4710000
Y4456000
X3436000Y4710000
Y4456000
X3182000Y4710000
Y4456000
X2928000Y4710000
Y4456000
X2674000Y4710000
Y4456000
X2420000Y4710000
Y4456000
X2166000Y4710000
Y4456000
X1912000Y4710000
Y4456000
X1658000Y4710000
Y4456000
X1404000Y4710000
Y4456000
T08
X15080000Y1390000
X14826000
X15080000Y1644000
X14826000
X15080000Y1898000
X14826000
X15080000Y2152000
X14826000
X15080000Y2406000
X14826000
X15080000Y2660000
X14826000
X15080000Y2914000
X14826000
T09
X599800Y5021300
Y4513300
X14700000Y4540000
Y5048000
T10
X14381000Y246000
X919000
Y5754000
X14381000
T11
X300000Y300000
Y5700000
X15000000
Y300000
M30
