G04 ================== begin FILE IDENTIFICATION RECORD ==================*
G04 Layout Name:  C:/NOW_WORK/VoloKh/CPI2/MAIN/BRD/CPI2_MAIN.brd*
G04 Film Name:    PASTE_TOP*
G04 File Format:  Gerber RS274X*
G04 File Origin:  Cadence Allegro 17.2-S074*
G04 Origin Date:  Tue Mar 30 10:27:56 2021*
G04 *
G04 Layer:  PIN/PASTEMASK_TOP*
G04 Layer:  PACKAGE GEOMETRY/PASTEMASK_TOP*
G04 *
G04 Offset:    (0.0000 0.0000)*
G04 Mirror:    No*
G04 Mode:      Positive*
G04 Rotation:  0*
G04 FullContactRelief:  No*
G04 UndefLineWidth:     0.1000*
G04 ================== end FILE IDENTIFICATION RECORD ====================*
%FSLAX25Y25*MOMM*%
%IR0*IPPOS*OFA0.00000B0.00000*MIA0B0*SFA1.00000B1.00000*%
%ADD12R,.3X1.2*%
%ADD11R,1.2X.3*%
%ADD13C,.5*%
%ADD14R,.9X.9*%
%ADD15R,1.05X1.4*%
%ADD10R,.8X.8*%
%ADD16R,.8X.8*%
%LPD*%
G75*
G54D10*
X95000Y3815000D03*
Y3965000D03*
G54D11*
X13175000Y1775000D03*
Y1725000D03*
Y1675000D03*
Y1625000D03*
Y1575000D03*
Y1525000D03*
Y1475000D03*
Y1425000D03*
Y1375000D03*
Y1325000D03*
Y1875000D03*
Y1825000D03*
X14025000Y1325000D03*
Y1375000D03*
Y1425000D03*
Y1475000D03*
Y1525000D03*
Y1575000D03*
Y1625000D03*
Y1675000D03*
Y1725000D03*
Y1775000D03*
Y1825000D03*
Y1875000D03*
G54D12*
X13325000Y1175000D03*
X13375000D03*
X13425000D03*
X13475000D03*
X13525000D03*
X13575000D03*
Y2025000D03*
X13525000D03*
X13475000D03*
X13425000D03*
X13375000D03*
X13325000D03*
X13625000Y1175000D03*
X13675000D03*
X13725000D03*
X13775000D03*
X13825000D03*
X13875000D03*
Y2025000D03*
X13825000D03*
X13775000D03*
X13725000D03*
X13675000D03*
X13625000D03*
G54D13*
X12970000Y1990000D03*
X13070000D03*
G54D14*
X14310000Y4390000D03*
Y4550000D03*
X15180000Y3190000D03*
Y3350000D03*
G54D15*
X14840000Y3180000D03*
X15020000D03*
G54D16*
X14995000Y3400000D03*
X14845000D03*
M02*
