G04 ================== begin FILE IDENTIFICATION RECORD ==================*
G04 Layout Name:  C:/NOW_WORK/VoloKh/CPI2/MAIN/BRD/CPI2_MAIN.brd*
G04 Film Name:    SILKSCREEN_TOP*
G04 File Format:  Gerber RS274X*
G04 File Origin:  Cadence Allegro 17.2-S074*
G04 Origin Date:  Tue Mar 30 10:27:56 2021*
G04 *
G04 Layer:  REF DES/SILKSCREEN_TOP*
G04 Layer:  PACKAGE GEOMETRY/SILKSCREEN_TOP*
G04 Layer:  BOARD GEOMETRY/SILKSCREEN_TOP*
G04 *
G04 Offset:    (0.0000 0.0000)*
G04 Mirror:    No*
G04 Mode:      Positive*
G04 Rotation:  0*
G04 FullContactRelief:  No*
G04 UndefLineWidth:     0.1000*
G04 ================== end FILE IDENTIFICATION RECORD ====================*
%FSLAX25Y25*MOMM*%
%IR0*IPPOS*OFA0.00000B0.00000*MIA0B0*SFA1.00000B1.00000*%
%ADD10C,.12*%
%ADD11C,.4*%
%ADD12C,.5*%
%ADD13C,.15*%
%ADD14C,.125*%
G75*
%LPD*%
G75*
G36*
G01X13290000Y1910000D02*
X13180000D01*
Y2020000D01*
X13290000D01*
Y1910000D01*
G37*
G54D10*
G01X645830Y548330D02*
Y638330D01*
X599170D01*
G01X574000Y626330D02*
X564670Y633830D01*
X554170Y638330D01*
X544830D01*
X535500Y633830D01*
X528500Y626330D01*
X525000Y615830D01*
X527330Y605330D01*
X533170Y596330D01*
X543670Y590330D01*
X557670Y587330D01*
X565830Y581330D01*
X569330Y570830D01*
X567000Y560330D01*
X561170Y552830D01*
X553000Y548330D01*
X544830D01*
X536670Y551330D01*
X529670Y558830D01*
G01X462500Y638330D02*
Y548330D01*
X505670Y612830D01*
X447330D01*
G01X429170Y620330D02*
X422170Y630830D01*
X412830Y636830D01*
X402330Y638330D01*
X393000Y636830D01*
X383670Y629330D01*
X377830Y620330D01*
X376670Y611330D01*
X379000Y600830D01*
X387170Y593330D01*
X395330Y590330D01*
X405830D01*
G01X395330D02*
X388330Y585830D01*
X382500Y578330D01*
X380170Y569330D01*
X382500Y560330D01*
X388330Y552830D01*
X398830Y548330D01*
X409330Y549830D01*
X419830Y555830D01*
G01X160000Y1060000D02*
Y1150000D01*
X146000Y1132000D01*
G01Y1060000D02*
X174000D01*
G01X233000Y1150000D02*
X223670Y1147000D01*
X216670Y1139500D01*
X212000Y1130500D01*
X208500Y1118500D01*
X207330Y1105000D01*
X208500Y1091500D01*
X212000Y1079500D01*
X216670Y1070500D01*
X223670Y1063000D01*
X233000Y1060000D01*
X242330Y1063000D01*
X249330Y1070500D01*
X254000Y1079500D01*
X257500Y1091500D01*
X258670Y1105000D01*
X257500Y1118500D01*
X254000Y1130500D01*
X249330Y1139500D01*
X242330Y1147000D01*
X233000Y1150000D01*
G01X306000D02*
X296670Y1147000D01*
X289670Y1139500D01*
X285000Y1130500D01*
X281500Y1118500D01*
X280330Y1105000D01*
X281500Y1091500D01*
X285000Y1079500D01*
X289670Y1070500D01*
X296670Y1063000D01*
X306000Y1060000D01*
X315330Y1063000D01*
X322330Y1070500D01*
X327000Y1079500D01*
X330500Y1091500D01*
X331670Y1105000D01*
X330500Y1118500D01*
X327000Y1130500D01*
X322330Y1139500D01*
X315330Y1147000D01*
X306000Y1150000D01*
G01X325000Y2267500D02*
Y2177500D01*
X371660D01*
G01X396830Y2189500D02*
X406160Y2182000D01*
X416660Y2177500D01*
X426000D01*
X435330Y2182000D01*
X442330Y2189500D01*
X445830Y2200000D01*
X443500Y2210500D01*
X437660Y2219500D01*
X427160Y2225500D01*
X413160Y2228500D01*
X405000Y2234500D01*
X401500Y2245000D01*
X403830Y2255500D01*
X409660Y2263000D01*
X417830Y2267500D01*
X426000D01*
X434160Y2264500D01*
X441160Y2257000D01*
G01X508330Y2177500D02*
Y2267500D01*
X465160Y2203000D01*
X523500D01*
G01X545160Y2252500D02*
X552160Y2261500D01*
X560330Y2266000D01*
X569660Y2267500D01*
X581330Y2264500D01*
X589500Y2257000D01*
X591830Y2248000D01*
X590660Y2239000D01*
X586000Y2231500D01*
X562660Y2216500D01*
X552160Y2206000D01*
X545160Y2191000D01*
X542830Y2177500D01*
X591830D01*
G01X5170Y1935500D02*
X13330Y1928000D01*
X22670Y1925000D01*
X32000Y1928000D01*
X40170Y1937000D01*
X46000Y1950500D01*
X48330Y1964000D01*
Y1980500D01*
X46000Y1994000D01*
X40170Y2006000D01*
X33170Y2012000D01*
X25000Y2015000D01*
X15670Y2012000D01*
X8670Y2006000D01*
X4000Y1997000D01*
X1670Y1985000D01*
X4000Y1974500D01*
X9830Y1964000D01*
X16830Y1958000D01*
X25000Y1956500D01*
X34330Y1959500D01*
X41330Y1967000D01*
X48330Y1980500D01*
G01X78170Y1935500D02*
X86330Y1928000D01*
X95670Y1925000D01*
X105000Y1928000D01*
X113170Y1937000D01*
X119000Y1950500D01*
X121330Y1964000D01*
Y1980500D01*
X119000Y1994000D01*
X113170Y2006000D01*
X106170Y2012000D01*
X98000Y2015000D01*
X88670Y2012000D01*
X81670Y2006000D01*
X77000Y1997000D01*
X74670Y1985000D01*
X77000Y1974500D01*
X82830Y1964000D01*
X89830Y1958000D01*
X98000Y1956500D01*
X107330Y1959500D01*
X114330Y1967000D01*
X121330Y1980500D01*
G01X326670Y3395000D02*
Y3305000D01*
X373330D01*
G01X398500Y3317000D02*
X407830Y3309500D01*
X418330Y3305000D01*
X427670D01*
X437000Y3309500D01*
X444000Y3317000D01*
X447500Y3327500D01*
X445170Y3338000D01*
X439330Y3347000D01*
X428830Y3353000D01*
X414830Y3356000D01*
X406670Y3362000D01*
X403170Y3372500D01*
X405500Y3383000D01*
X411330Y3390500D01*
X419500Y3395000D01*
X427670D01*
X435830Y3392000D01*
X442830Y3384500D01*
G01X470330Y3323000D02*
X477330Y3312500D01*
X486670Y3306500D01*
X497170Y3305000D01*
X506500Y3306500D01*
X515830Y3314000D01*
X521670Y3323000D01*
X522830Y3332000D01*
X520500Y3342500D01*
X512330Y3350000D01*
X504170Y3353000D01*
X493670D01*
G01X504170D02*
X511170Y3357500D01*
X517000Y3365000D01*
X519330Y3374000D01*
X517000Y3383000D01*
X511170Y3390500D01*
X500670Y3395000D01*
X490170Y3393500D01*
X479670Y3387500D01*
G01X549170Y3315500D02*
X557330Y3308000D01*
X566670Y3305000D01*
X576000Y3308000D01*
X584170Y3317000D01*
X590000Y3330500D01*
X592330Y3344000D01*
Y3360500D01*
X590000Y3374000D01*
X584170Y3386000D01*
X577170Y3392000D01*
X569000Y3395000D01*
X559670Y3392000D01*
X552670Y3386000D01*
X548000Y3377000D01*
X545670Y3365000D01*
X548000Y3354500D01*
X553830Y3344000D01*
X560830Y3338000D01*
X569000Y3336500D01*
X578330Y3339500D01*
X585330Y3347000D01*
X592330Y3360500D01*
G01X135000Y3429330D02*
X45000D01*
Y3452670D01*
X49500Y3462000D01*
X55500Y3469000D01*
X64500Y3474830D01*
X75000Y3479500D01*
X90000Y3480670D01*
X105000Y3479500D01*
X115500Y3474830D01*
X124500Y3469000D01*
X130500Y3462000D01*
X135000Y3452670D01*
Y3429330D01*
G01X117000Y3502330D02*
X127500Y3509330D01*
X133500Y3518670D01*
X135000Y3529170D01*
X133500Y3538500D01*
X126000Y3547830D01*
X117000Y3553670D01*
X108000Y3554830D01*
X97500Y3552500D01*
X90000Y3544330D01*
X87000Y3536170D01*
Y3525670D01*
G01Y3536170D02*
X82500Y3543170D01*
X75000Y3549000D01*
X66000Y3551330D01*
X57000Y3549000D01*
X49500Y3543170D01*
X45000Y3532670D01*
X46500Y3522170D01*
X52500Y3511670D01*
G01X935000Y2267500D02*
Y2177500D01*
X981660D01*
G01X1006830Y2189500D02*
X1016160Y2182000D01*
X1026660Y2177500D01*
X1036000D01*
X1045330Y2182000D01*
X1052330Y2189500D01*
X1055830Y2200000D01*
X1053500Y2210500D01*
X1047660Y2219500D01*
X1037160Y2225500D01*
X1023160Y2228500D01*
X1015000Y2234500D01*
X1011500Y2245000D01*
X1013830Y2255500D01*
X1019660Y2263000D01*
X1027830Y2267500D01*
X1036000D01*
X1044160Y2264500D01*
X1051160Y2257000D01*
G01X1118330Y2177500D02*
Y2267500D01*
X1075160Y2203000D01*
X1133500D01*
G01X1177330Y2177500D02*
Y2267500D01*
X1163330Y2249500D01*
G01Y2177500D02*
X1191330D01*
G01X931670Y3395000D02*
Y3305000D01*
X978330D01*
G01X1003500Y3317000D02*
X1012830Y3309500D01*
X1023330Y3305000D01*
X1032670D01*
X1042000Y3309500D01*
X1049000Y3317000D01*
X1052500Y3327500D01*
X1050170Y3338000D01*
X1044330Y3347000D01*
X1033830Y3353000D01*
X1019830Y3356000D01*
X1011670Y3362000D01*
X1008170Y3372500D01*
X1010500Y3383000D01*
X1016330Y3390500D01*
X1024500Y3395000D01*
X1032670D01*
X1040830Y3392000D01*
X1047830Y3384500D01*
G01X1075330Y3323000D02*
X1082330Y3312500D01*
X1091670Y3306500D01*
X1102170Y3305000D01*
X1111500Y3306500D01*
X1120830Y3314000D01*
X1126670Y3323000D01*
X1127830Y3332000D01*
X1125500Y3342500D01*
X1117330Y3350000D01*
X1109170Y3353000D01*
X1098670D01*
G01X1109170D02*
X1116170Y3357500D01*
X1122000Y3365000D01*
X1124330Y3374000D01*
X1122000Y3383000D01*
X1116170Y3390500D01*
X1105670Y3395000D01*
X1095170Y3393500D01*
X1084670Y3387500D01*
G01X1174000Y3305000D02*
X1182170Y3306500D01*
X1191500Y3311000D01*
X1197330Y3318500D01*
X1199670Y3329000D01*
X1197330Y3339500D01*
X1190330Y3348500D01*
X1179830Y3353000D01*
X1168170D01*
X1161170Y3356000D01*
X1155330Y3363500D01*
X1153000Y3374000D01*
X1156500Y3384500D01*
X1164670Y3392000D01*
X1174000Y3395000D01*
X1183330Y3392000D01*
X1191500Y3384500D01*
X1195000Y3374000D01*
X1192670Y3363500D01*
X1186830Y3356000D01*
X1179830Y3353000D01*
X1168170D01*
X1157670Y3348500D01*
X1150670Y3339500D01*
X1148330Y3329000D01*
X1150670Y3318500D01*
X1156500Y3311000D01*
X1165830Y3306500D01*
X1174000Y3305000D01*
G01X604800Y4104510D02*
X613800Y4097510D01*
X618300Y4089340D01*
X619800Y4080010D01*
X616800Y4068340D01*
X609300Y4060170D01*
X600300Y4057840D01*
X591300Y4059010D01*
X583800Y4063670D01*
X568800Y4087010D01*
X558300Y4097510D01*
X543300Y4104510D01*
X529800Y4106840D01*
Y4057840D01*
G01X887800Y4885670D02*
X878800Y4879840D01*
X872800Y4872840D01*
X869800Y4864670D01*
X872800Y4855340D01*
X878800Y4848340D01*
X887800Y4841340D01*
X899800Y4839010D01*
X959800D01*
G01X869800Y4789340D02*
X959800D01*
X941800Y4803340D01*
G01X869800D02*
Y4775340D01*
G01X539800Y5472340D02*
X629800D01*
X611800Y5486340D01*
G01X539800D02*
Y5458340D01*
G01X1229330Y1093500D02*
X1236330Y1086000D01*
X1244500Y1081500D01*
X1255000Y1080000D01*
X1265500Y1083000D01*
X1273670Y1089000D01*
X1279500Y1099500D01*
X1280670Y1111500D01*
X1278330Y1123500D01*
X1272500Y1131000D01*
X1264330Y1137000D01*
X1256170Y1138500D01*
X1248000Y1137000D01*
X1237500Y1131000D01*
X1241000Y1170000D01*
X1272500D01*
G01X1328000D02*
X1318670Y1167000D01*
X1311670Y1159500D01*
X1307000Y1150500D01*
X1303500Y1138500D01*
X1302330Y1125000D01*
X1303500Y1111500D01*
X1307000Y1099500D01*
X1311670Y1090500D01*
X1318670Y1083000D01*
X1328000Y1080000D01*
X1337330Y1083000D01*
X1344330Y1090500D01*
X1349000Y1099500D01*
X1352500Y1111500D01*
X1353670Y1125000D01*
X1352500Y1138500D01*
X1349000Y1150500D01*
X1344330Y1159500D01*
X1337330Y1167000D01*
X1328000Y1170000D01*
G01X1540000Y2382500D02*
Y2292500D01*
X1586660D01*
G01X1611830Y2304500D02*
X1621160Y2297000D01*
X1631660Y2292500D01*
X1641000D01*
X1650330Y2297000D01*
X1657330Y2304500D01*
X1660830Y2315000D01*
X1658500Y2325500D01*
X1652660Y2334500D01*
X1642160Y2340500D01*
X1628160Y2343500D01*
X1620000Y2349500D01*
X1616500Y2360000D01*
X1618830Y2370500D01*
X1624660Y2378000D01*
X1632830Y2382500D01*
X1641000D01*
X1649160Y2379500D01*
X1656160Y2372000D01*
G01X1723330Y2292500D02*
Y2382500D01*
X1680160Y2318000D01*
X1738500D01*
G01X1782330Y2382500D02*
X1773000Y2379500D01*
X1766000Y2372000D01*
X1761330Y2363000D01*
X1757830Y2351000D01*
X1756660Y2337500D01*
X1757830Y2324000D01*
X1761330Y2312000D01*
X1766000Y2303000D01*
X1773000Y2295500D01*
X1782330Y2292500D01*
X1791660Y2295500D01*
X1798660Y2303000D01*
X1803330Y2312000D01*
X1806830Y2324000D01*
X1808000Y2337500D01*
X1806830Y2351000D01*
X1803330Y2363000D01*
X1798660Y2372000D01*
X1791660Y2379500D01*
X1782330Y2382500D01*
G01X1540000Y3547500D02*
Y3457500D01*
X1586660D01*
G01X1611830Y3469500D02*
X1621160Y3462000D01*
X1631660Y3457500D01*
X1641000D01*
X1650330Y3462000D01*
X1657330Y3469500D01*
X1660830Y3480000D01*
X1658500Y3490500D01*
X1652660Y3499500D01*
X1642160Y3505500D01*
X1628160Y3508500D01*
X1620000Y3514500D01*
X1616500Y3525000D01*
X1618830Y3535500D01*
X1624660Y3543000D01*
X1632830Y3547500D01*
X1641000D01*
X1649160Y3544500D01*
X1656160Y3537000D01*
G01X1683660Y3475500D02*
X1690660Y3465000D01*
X1700000Y3459000D01*
X1710500Y3457500D01*
X1719830Y3459000D01*
X1729160Y3466500D01*
X1735000Y3475500D01*
X1736160Y3484500D01*
X1733830Y3495000D01*
X1725660Y3502500D01*
X1717500Y3505500D01*
X1707000D01*
G01X1717500D02*
X1724500Y3510000D01*
X1730330Y3517500D01*
X1732660Y3526500D01*
X1730330Y3535500D01*
X1724500Y3543000D01*
X1714000Y3547500D01*
X1703500Y3546000D01*
X1693000Y3540000D01*
G01X1780000Y3457500D02*
X1782330Y3477000D01*
X1785830Y3493500D01*
X1790500Y3508500D01*
X1796330Y3525000D01*
X1805660Y3547500D01*
X1759000D01*
G01X1470600Y4202000D02*
Y4112000D01*
X1484600Y4130000D01*
G01Y4202000D02*
X1456600D01*
G01X1397600Y4112000D02*
X1406930Y4115000D01*
X1413930Y4122500D01*
X1418600Y4131500D01*
X1422100Y4143500D01*
X1423270Y4157000D01*
X1422100Y4170500D01*
X1418600Y4182500D01*
X1413930Y4191500D01*
X1406930Y4199000D01*
X1397600Y4202000D01*
X1388270Y4199000D01*
X1381270Y4191500D01*
X1376600Y4182500D01*
X1373100Y4170500D01*
X1371930Y4157000D01*
X1373100Y4143500D01*
X1376600Y4131500D01*
X1381270Y4122500D01*
X1388270Y4115000D01*
X1397600Y4112000D01*
G01X1324600D02*
X1333930Y4115000D01*
X1340930Y4122500D01*
X1345600Y4131500D01*
X1349100Y4143500D01*
X1350270Y4157000D01*
X1349100Y4170500D01*
X1345600Y4182500D01*
X1340930Y4191500D01*
X1333930Y4199000D01*
X1324600Y4202000D01*
X1315270Y4199000D01*
X1308270Y4191500D01*
X1303600Y4182500D01*
X1300100Y4170500D01*
X1298930Y4157000D01*
X1300100Y4143500D01*
X1303600Y4131500D01*
X1308270Y4122500D01*
X1315270Y4115000D01*
X1324600Y4112000D01*
G01X1289330Y5233670D02*
X1294000Y5238170D01*
X1297500Y5245670D01*
X1299830Y5256170D01*
X1297500Y5265170D01*
X1292830Y5271170D01*
X1284670Y5275670D01*
X1253170D01*
Y5185670D01*
X1291670D01*
X1299830Y5191670D01*
X1304500Y5200670D01*
X1306830Y5211170D01*
X1304500Y5221670D01*
X1297500Y5230670D01*
X1289330Y5233670D01*
X1253170D01*
G01X1315670Y5078170D02*
X1308670Y5082670D01*
X1300500Y5085670D01*
X1291170D01*
X1280670Y5081170D01*
X1272500Y5073670D01*
X1266670Y5064670D01*
X1262000Y5049670D01*
X1260830Y5036170D01*
X1263170Y5022670D01*
X1266670Y5013670D01*
X1273670Y5004670D01*
X1281830Y4998670D01*
X1290000Y4995670D01*
X1298170D01*
X1306330Y4998670D01*
X1313330Y5003170D01*
X1319170Y5009170D01*
G01X1435000Y4870670D02*
Y4780670D01*
X1449000Y4798670D01*
G01Y4870670D02*
X1421000D01*
G01X1490430Y5105900D02*
X1482270Y5113400D01*
X1472930Y5116400D01*
X1463600Y5113400D01*
X1455430Y5104400D01*
X1449600Y5090900D01*
X1447270Y5077400D01*
Y5060900D01*
X1449600Y5047400D01*
X1455430Y5035400D01*
X1462430Y5029400D01*
X1470600Y5026400D01*
X1479930Y5029400D01*
X1486930Y5035400D01*
X1491600Y5044400D01*
X1493930Y5056400D01*
X1491600Y5066900D01*
X1485770Y5077400D01*
X1478770Y5083400D01*
X1470600Y5084900D01*
X1461270Y5081900D01*
X1454270Y5074400D01*
X1447270Y5060900D01*
G01X1417430Y5105900D02*
X1409270Y5113400D01*
X1399930Y5116400D01*
X1390600Y5113400D01*
X1382430Y5104400D01*
X1376600Y5090900D01*
X1374270Y5077400D01*
Y5060900D01*
X1376600Y5047400D01*
X1382430Y5035400D01*
X1389430Y5029400D01*
X1397600Y5026400D01*
X1406930Y5029400D01*
X1413930Y5035400D01*
X1418600Y5044400D01*
X1420930Y5056400D01*
X1418600Y5066900D01*
X1412770Y5077400D01*
X1405770Y5083400D01*
X1397600Y5084900D01*
X1388270Y5081900D01*
X1381270Y5074400D01*
X1374270Y5060900D01*
G01X1255830Y5375670D02*
X1285000Y5465670D01*
X1314170Y5375670D01*
G01X1303670Y5407170D02*
X1266330D01*
G01X2140000Y2382500D02*
Y2292500D01*
X2186660D01*
G01X2211830Y2304500D02*
X2221160Y2297000D01*
X2231660Y2292500D01*
X2241000D01*
X2250330Y2297000D01*
X2257330Y2304500D01*
X2260830Y2315000D01*
X2258500Y2325500D01*
X2252660Y2334500D01*
X2242160Y2340500D01*
X2228160Y2343500D01*
X2220000Y2349500D01*
X2216500Y2360000D01*
X2218830Y2370500D01*
X2224660Y2378000D01*
X2232830Y2382500D01*
X2241000D01*
X2249160Y2379500D01*
X2256160Y2372000D01*
G01X2283660Y2310500D02*
X2290660Y2300000D01*
X2300000Y2294000D01*
X2310500Y2292500D01*
X2319830Y2294000D01*
X2329160Y2301500D01*
X2335000Y2310500D01*
X2336160Y2319500D01*
X2333830Y2330000D01*
X2325660Y2337500D01*
X2317500Y2340500D01*
X2307000D01*
G01X2317500D02*
X2324500Y2345000D01*
X2330330Y2352500D01*
X2332660Y2361500D01*
X2330330Y2370500D01*
X2324500Y2378000D01*
X2314000Y2382500D01*
X2303500Y2381000D01*
X2293000Y2375000D01*
G01X2360160Y2330000D02*
X2368330Y2340500D01*
X2375330Y2346500D01*
X2384660Y2349500D01*
X2392830Y2346500D01*
X2398660Y2340500D01*
X2403330Y2331500D01*
X2404500Y2321000D01*
X2403330Y2312000D01*
X2398660Y2303000D01*
X2391660Y2295500D01*
X2383500Y2292500D01*
X2374160Y2295500D01*
X2366000Y2304500D01*
X2361330Y2318000D01*
X2360160Y2333000D01*
X2362500Y2352500D01*
X2366000Y2363000D01*
X2371830Y2373500D01*
X2380000Y2381000D01*
X2388160Y2382500D01*
X2396330Y2379500D01*
X2402160Y2372000D01*
G01X2140000Y3547500D02*
Y3457500D01*
X2186660D01*
G01X2211830Y3469500D02*
X2221160Y3462000D01*
X2231660Y3457500D01*
X2241000D01*
X2250330Y3462000D01*
X2257330Y3469500D01*
X2260830Y3480000D01*
X2258500Y3490500D01*
X2252660Y3499500D01*
X2242160Y3505500D01*
X2228160Y3508500D01*
X2220000Y3514500D01*
X2216500Y3525000D01*
X2218830Y3535500D01*
X2224660Y3543000D01*
X2232830Y3547500D01*
X2241000D01*
X2249160Y3544500D01*
X2256160Y3537000D01*
G01X2283660Y3475500D02*
X2290660Y3465000D01*
X2300000Y3459000D01*
X2310500Y3457500D01*
X2319830Y3459000D01*
X2329160Y3466500D01*
X2335000Y3475500D01*
X2336160Y3484500D01*
X2333830Y3495000D01*
X2325660Y3502500D01*
X2317500Y3505500D01*
X2307000D01*
G01X2317500D02*
X2324500Y3510000D01*
X2330330Y3517500D01*
X2332660Y3526500D01*
X2330330Y3535500D01*
X2324500Y3543000D01*
X2314000Y3547500D01*
X2303500Y3546000D01*
X2293000Y3540000D01*
G01X2356660Y3475500D02*
X2363660Y3465000D01*
X2373000Y3459000D01*
X2383500Y3457500D01*
X2392830Y3459000D01*
X2402160Y3466500D01*
X2408000Y3475500D01*
X2409160Y3484500D01*
X2406830Y3495000D01*
X2398660Y3502500D01*
X2390500Y3505500D01*
X2380000D01*
G01X2390500D02*
X2397500Y3510000D01*
X2403330Y3517500D01*
X2405660Y3526500D01*
X2403330Y3535500D01*
X2397500Y3543000D01*
X2387000Y3547500D01*
X2376500Y3546000D01*
X2366000Y3540000D01*
G01X2740000Y2382500D02*
Y2292500D01*
X2786660D01*
G01X2811830Y2304500D02*
X2821160Y2297000D01*
X2831660Y2292500D01*
X2841000D01*
X2850330Y2297000D01*
X2857330Y2304500D01*
X2860830Y2315000D01*
X2858500Y2325500D01*
X2852660Y2334500D01*
X2842160Y2340500D01*
X2828160Y2343500D01*
X2820000Y2349500D01*
X2816500Y2360000D01*
X2818830Y2370500D01*
X2824660Y2378000D01*
X2832830Y2382500D01*
X2841000D01*
X2849160Y2379500D01*
X2856160Y2372000D01*
G01X2883660Y2310500D02*
X2890660Y2300000D01*
X2900000Y2294000D01*
X2910500Y2292500D01*
X2919830Y2294000D01*
X2929160Y2301500D01*
X2935000Y2310500D01*
X2936160Y2319500D01*
X2933830Y2330000D01*
X2925660Y2337500D01*
X2917500Y2340500D01*
X2907000D01*
G01X2917500D02*
X2924500Y2345000D01*
X2930330Y2352500D01*
X2932660Y2361500D01*
X2930330Y2370500D01*
X2924500Y2378000D01*
X2914000Y2382500D01*
X2903500Y2381000D01*
X2893000Y2375000D01*
G01X2956660Y2306000D02*
X2963660Y2298500D01*
X2971830Y2294000D01*
X2982330Y2292500D01*
X2992830Y2295500D01*
X3001000Y2301500D01*
X3006830Y2312000D01*
X3008000Y2324000D01*
X3005660Y2336000D01*
X2999830Y2343500D01*
X2991660Y2349500D01*
X2983500Y2351000D01*
X2975330Y2349500D01*
X2964830Y2343500D01*
X2968330Y2382500D01*
X2999830D01*
G01X2740000Y3547500D02*
Y3457500D01*
X2786660D01*
G01X2811830Y3469500D02*
X2821160Y3462000D01*
X2831660Y3457500D01*
X2841000D01*
X2850330Y3462000D01*
X2857330Y3469500D01*
X2860830Y3480000D01*
X2858500Y3490500D01*
X2852660Y3499500D01*
X2842160Y3505500D01*
X2828160Y3508500D01*
X2820000Y3514500D01*
X2816500Y3525000D01*
X2818830Y3535500D01*
X2824660Y3543000D01*
X2832830Y3547500D01*
X2841000D01*
X2849160Y3544500D01*
X2856160Y3537000D01*
G01X2883660Y3475500D02*
X2890660Y3465000D01*
X2900000Y3459000D01*
X2910500Y3457500D01*
X2919830Y3459000D01*
X2929160Y3466500D01*
X2935000Y3475500D01*
X2936160Y3484500D01*
X2933830Y3495000D01*
X2925660Y3502500D01*
X2917500Y3505500D01*
X2907000D01*
G01X2917500D02*
X2924500Y3510000D01*
X2930330Y3517500D01*
X2932660Y3526500D01*
X2930330Y3535500D01*
X2924500Y3543000D01*
X2914000Y3547500D01*
X2903500Y3546000D01*
X2893000Y3540000D01*
G01X2960160Y3532500D02*
X2967160Y3541500D01*
X2975330Y3546000D01*
X2984660Y3547500D01*
X2996330Y3544500D01*
X3004500Y3537000D01*
X3006830Y3528000D01*
X3005660Y3519000D01*
X3001000Y3511500D01*
X2977660Y3496500D01*
X2967160Y3486000D01*
X2960160Y3471000D01*
X2957830Y3457500D01*
X3006830D01*
G01X3340000Y2382500D02*
Y2292500D01*
X3386660D01*
G01X3411830Y2304500D02*
X3421160Y2297000D01*
X3431660Y2292500D01*
X3441000D01*
X3450330Y2297000D01*
X3457330Y2304500D01*
X3460830Y2315000D01*
X3458500Y2325500D01*
X3452660Y2334500D01*
X3442160Y2340500D01*
X3428160Y2343500D01*
X3420000Y2349500D01*
X3416500Y2360000D01*
X3418830Y2370500D01*
X3424660Y2378000D01*
X3432830Y2382500D01*
X3441000D01*
X3449160Y2379500D01*
X3456160Y2372000D01*
G01X3483660Y2310500D02*
X3490660Y2300000D01*
X3500000Y2294000D01*
X3510500Y2292500D01*
X3519830Y2294000D01*
X3529160Y2301500D01*
X3535000Y2310500D01*
X3536160Y2319500D01*
X3533830Y2330000D01*
X3525660Y2337500D01*
X3517500Y2340500D01*
X3507000D01*
G01X3517500D02*
X3524500Y2345000D01*
X3530330Y2352500D01*
X3532660Y2361500D01*
X3530330Y2370500D01*
X3524500Y2378000D01*
X3514000Y2382500D01*
X3503500Y2381000D01*
X3493000Y2375000D01*
G01X3596330Y2292500D02*
Y2382500D01*
X3553160Y2318000D01*
X3611500D01*
G01X3340000Y3547500D02*
Y3457500D01*
X3386660D01*
G01X3411830Y3469500D02*
X3421160Y3462000D01*
X3431660Y3457500D01*
X3441000D01*
X3450330Y3462000D01*
X3457330Y3469500D01*
X3460830Y3480000D01*
X3458500Y3490500D01*
X3452660Y3499500D01*
X3442160Y3505500D01*
X3428160Y3508500D01*
X3420000Y3514500D01*
X3416500Y3525000D01*
X3418830Y3535500D01*
X3424660Y3543000D01*
X3432830Y3547500D01*
X3441000D01*
X3449160Y3544500D01*
X3456160Y3537000D01*
G01X3483660Y3475500D02*
X3490660Y3465000D01*
X3500000Y3459000D01*
X3510500Y3457500D01*
X3519830Y3459000D01*
X3529160Y3466500D01*
X3535000Y3475500D01*
X3536160Y3484500D01*
X3533830Y3495000D01*
X3525660Y3502500D01*
X3517500Y3505500D01*
X3507000D01*
G01X3517500D02*
X3524500Y3510000D01*
X3530330Y3517500D01*
X3532660Y3526500D01*
X3530330Y3535500D01*
X3524500Y3543000D01*
X3514000Y3547500D01*
X3503500Y3546000D01*
X3493000Y3540000D01*
G01X3582330Y3457500D02*
Y3547500D01*
X3568330Y3529500D01*
G01Y3457500D02*
X3596330D01*
G01X4540000Y2382500D02*
Y2292500D01*
X4586660D01*
G01X4611830Y2304500D02*
X4621160Y2297000D01*
X4631660Y2292500D01*
X4641000D01*
X4650330Y2297000D01*
X4657330Y2304500D01*
X4660830Y2315000D01*
X4658500Y2325500D01*
X4652660Y2334500D01*
X4642160Y2340500D01*
X4628160Y2343500D01*
X4620000Y2349500D01*
X4616500Y2360000D01*
X4618830Y2370500D01*
X4624660Y2378000D01*
X4632830Y2382500D01*
X4641000D01*
X4649160Y2379500D01*
X4656160Y2372000D01*
G01X4687160Y2367500D02*
X4694160Y2376500D01*
X4702330Y2381000D01*
X4711660Y2382500D01*
X4723330Y2379500D01*
X4731500Y2372000D01*
X4733830Y2363000D01*
X4732660Y2354000D01*
X4728000Y2346500D01*
X4704660Y2331500D01*
X4694160Y2321000D01*
X4687160Y2306000D01*
X4684830Y2292500D01*
X4733830D01*
G01X4762500Y2303000D02*
X4770660Y2295500D01*
X4780000Y2292500D01*
X4789330Y2295500D01*
X4797500Y2304500D01*
X4803330Y2318000D01*
X4805660Y2331500D01*
Y2348000D01*
X4803330Y2361500D01*
X4797500Y2373500D01*
X4790500Y2379500D01*
X4782330Y2382500D01*
X4773000Y2379500D01*
X4766000Y2373500D01*
X4761330Y2364500D01*
X4759000Y2352500D01*
X4761330Y2342000D01*
X4767160Y2331500D01*
X4774160Y2325500D01*
X4782330Y2324000D01*
X4791660Y2327000D01*
X4798660Y2334500D01*
X4805660Y2348000D01*
G01X3940000Y2382500D02*
Y2292500D01*
X3986660D01*
G01X4011830Y2304500D02*
X4021160Y2297000D01*
X4031660Y2292500D01*
X4041000D01*
X4050330Y2297000D01*
X4057330Y2304500D01*
X4060830Y2315000D01*
X4058500Y2325500D01*
X4052660Y2334500D01*
X4042160Y2340500D01*
X4028160Y2343500D01*
X4020000Y2349500D01*
X4016500Y2360000D01*
X4018830Y2370500D01*
X4024660Y2378000D01*
X4032830Y2382500D01*
X4041000D01*
X4049160Y2379500D01*
X4056160Y2372000D01*
G01X4083660Y2310500D02*
X4090660Y2300000D01*
X4100000Y2294000D01*
X4110500Y2292500D01*
X4119830Y2294000D01*
X4129160Y2301500D01*
X4135000Y2310500D01*
X4136160Y2319500D01*
X4133830Y2330000D01*
X4125660Y2337500D01*
X4117500Y2340500D01*
X4107000D01*
G01X4117500D02*
X4124500Y2345000D01*
X4130330Y2352500D01*
X4132660Y2361500D01*
X4130330Y2370500D01*
X4124500Y2378000D01*
X4114000Y2382500D01*
X4103500Y2381000D01*
X4093000Y2375000D01*
G01X4182330Y2382500D02*
X4173000Y2379500D01*
X4166000Y2372000D01*
X4161330Y2363000D01*
X4157830Y2351000D01*
X4156660Y2337500D01*
X4157830Y2324000D01*
X4161330Y2312000D01*
X4166000Y2303000D01*
X4173000Y2295500D01*
X4182330Y2292500D01*
X4191660Y2295500D01*
X4198660Y2303000D01*
X4203330Y2312000D01*
X4206830Y2324000D01*
X4208000Y2337500D01*
X4206830Y2351000D01*
X4203330Y2363000D01*
X4198660Y2372000D01*
X4191660Y2379500D01*
X4182330Y2382500D01*
G01X4540000Y3547500D02*
Y3457500D01*
X4586660D01*
G01X4611830Y3469500D02*
X4621160Y3462000D01*
X4631660Y3457500D01*
X4641000D01*
X4650330Y3462000D01*
X4657330Y3469500D01*
X4660830Y3480000D01*
X4658500Y3490500D01*
X4652660Y3499500D01*
X4642160Y3505500D01*
X4628160Y3508500D01*
X4620000Y3514500D01*
X4616500Y3525000D01*
X4618830Y3535500D01*
X4624660Y3543000D01*
X4632830Y3547500D01*
X4641000D01*
X4649160Y3544500D01*
X4656160Y3537000D01*
G01X4687160Y3532500D02*
X4694160Y3541500D01*
X4702330Y3546000D01*
X4711660Y3547500D01*
X4723330Y3544500D01*
X4731500Y3537000D01*
X4733830Y3528000D01*
X4732660Y3519000D01*
X4728000Y3511500D01*
X4704660Y3496500D01*
X4694160Y3486000D01*
X4687160Y3471000D01*
X4684830Y3457500D01*
X4733830D01*
G01X4760160Y3495000D02*
X4768330Y3505500D01*
X4775330Y3511500D01*
X4784660Y3514500D01*
X4792830Y3511500D01*
X4798660Y3505500D01*
X4803330Y3496500D01*
X4804500Y3486000D01*
X4803330Y3477000D01*
X4798660Y3468000D01*
X4791660Y3460500D01*
X4783500Y3457500D01*
X4774160Y3460500D01*
X4766000Y3469500D01*
X4761330Y3483000D01*
X4760160Y3498000D01*
X4762500Y3517500D01*
X4766000Y3528000D01*
X4771830Y3538500D01*
X4780000Y3546000D01*
X4788160Y3547500D01*
X4796330Y3544500D01*
X4802160Y3537000D01*
G01X3940000Y3547500D02*
Y3457500D01*
X3986660D01*
G01X4011830Y3469500D02*
X4021160Y3462000D01*
X4031660Y3457500D01*
X4041000D01*
X4050330Y3462000D01*
X4057330Y3469500D01*
X4060830Y3480000D01*
X4058500Y3490500D01*
X4052660Y3499500D01*
X4042160Y3505500D01*
X4028160Y3508500D01*
X4020000Y3514500D01*
X4016500Y3525000D01*
X4018830Y3535500D01*
X4024660Y3543000D01*
X4032830Y3547500D01*
X4041000D01*
X4049160Y3544500D01*
X4056160Y3537000D01*
G01X4087160Y3532500D02*
X4094160Y3541500D01*
X4102330Y3546000D01*
X4111660Y3547500D01*
X4123330Y3544500D01*
X4131500Y3537000D01*
X4133830Y3528000D01*
X4132660Y3519000D01*
X4128000Y3511500D01*
X4104660Y3496500D01*
X4094160Y3486000D01*
X4087160Y3471000D01*
X4084830Y3457500D01*
X4133830D01*
G01X4180000D02*
X4182330Y3477000D01*
X4185830Y3493500D01*
X4190500Y3508500D01*
X4196330Y3525000D01*
X4205660Y3547500D01*
X4159000D01*
G01X5140000Y2382500D02*
Y2292500D01*
X5186660D01*
G01X5211830Y2304500D02*
X5221160Y2297000D01*
X5231660Y2292500D01*
X5241000D01*
X5250330Y2297000D01*
X5257330Y2304500D01*
X5260830Y2315000D01*
X5258500Y2325500D01*
X5252660Y2334500D01*
X5242160Y2340500D01*
X5228160Y2343500D01*
X5220000Y2349500D01*
X5216500Y2360000D01*
X5218830Y2370500D01*
X5224660Y2378000D01*
X5232830Y2382500D01*
X5241000D01*
X5249160Y2379500D01*
X5256160Y2372000D01*
G01X5287160Y2367500D02*
X5294160Y2376500D01*
X5302330Y2381000D01*
X5311660Y2382500D01*
X5323330Y2379500D01*
X5331500Y2372000D01*
X5333830Y2363000D01*
X5332660Y2354000D01*
X5328000Y2346500D01*
X5304660Y2331500D01*
X5294160Y2321000D01*
X5287160Y2306000D01*
X5284830Y2292500D01*
X5333830D01*
G01X5382330D02*
X5390500Y2294000D01*
X5399830Y2298500D01*
X5405660Y2306000D01*
X5408000Y2316500D01*
X5405660Y2327000D01*
X5398660Y2336000D01*
X5388160Y2340500D01*
X5376500D01*
X5369500Y2343500D01*
X5363660Y2351000D01*
X5361330Y2361500D01*
X5364830Y2372000D01*
X5373000Y2379500D01*
X5382330Y2382500D01*
X5391660Y2379500D01*
X5399830Y2372000D01*
X5403330Y2361500D01*
X5401000Y2351000D01*
X5395160Y2343500D01*
X5388160Y2340500D01*
X5376500D01*
X5366000Y2336000D01*
X5359000Y2327000D01*
X5356660Y2316500D01*
X5359000Y2306000D01*
X5364830Y2298500D01*
X5374160Y2294000D01*
X5382330Y2292500D01*
G01X5140000Y3547500D02*
Y3457500D01*
X5186660D01*
G01X5211830Y3469500D02*
X5221160Y3462000D01*
X5231660Y3457500D01*
X5241000D01*
X5250330Y3462000D01*
X5257330Y3469500D01*
X5260830Y3480000D01*
X5258500Y3490500D01*
X5252660Y3499500D01*
X5242160Y3505500D01*
X5228160Y3508500D01*
X5220000Y3514500D01*
X5216500Y3525000D01*
X5218830Y3535500D01*
X5224660Y3543000D01*
X5232830Y3547500D01*
X5241000D01*
X5249160Y3544500D01*
X5256160Y3537000D01*
G01X5287160Y3532500D02*
X5294160Y3541500D01*
X5302330Y3546000D01*
X5311660Y3547500D01*
X5323330Y3544500D01*
X5331500Y3537000D01*
X5333830Y3528000D01*
X5332660Y3519000D01*
X5328000Y3511500D01*
X5304660Y3496500D01*
X5294160Y3486000D01*
X5287160Y3471000D01*
X5284830Y3457500D01*
X5333830D01*
G01X5356660Y3471000D02*
X5363660Y3463500D01*
X5371830Y3459000D01*
X5382330Y3457500D01*
X5392830Y3460500D01*
X5401000Y3466500D01*
X5406830Y3477000D01*
X5408000Y3489000D01*
X5405660Y3501000D01*
X5399830Y3508500D01*
X5391660Y3514500D01*
X5383500Y3516000D01*
X5375330Y3514500D01*
X5364830Y3508500D01*
X5368330Y3547500D01*
X5399830D01*
G01X5740000Y2382500D02*
Y2292500D01*
X5786660D01*
G01X5811830Y2304500D02*
X5821160Y2297000D01*
X5831660Y2292500D01*
X5841000D01*
X5850330Y2297000D01*
X5857330Y2304500D01*
X5860830Y2315000D01*
X5858500Y2325500D01*
X5852660Y2334500D01*
X5842160Y2340500D01*
X5828160Y2343500D01*
X5820000Y2349500D01*
X5816500Y2360000D01*
X5818830Y2370500D01*
X5824660Y2378000D01*
X5832830Y2382500D01*
X5841000D01*
X5849160Y2379500D01*
X5856160Y2372000D01*
G01X5887160Y2367500D02*
X5894160Y2376500D01*
X5902330Y2381000D01*
X5911660Y2382500D01*
X5923330Y2379500D01*
X5931500Y2372000D01*
X5933830Y2363000D01*
X5932660Y2354000D01*
X5928000Y2346500D01*
X5904660Y2331500D01*
X5894160Y2321000D01*
X5887160Y2306000D01*
X5884830Y2292500D01*
X5933830D01*
G01X5996330D02*
Y2382500D01*
X5953160Y2318000D01*
X6011500D01*
G01X5740000Y3547500D02*
Y3457500D01*
X5786660D01*
G01X5811830Y3469500D02*
X5821160Y3462000D01*
X5831660Y3457500D01*
X5841000D01*
X5850330Y3462000D01*
X5857330Y3469500D01*
X5860830Y3480000D01*
X5858500Y3490500D01*
X5852660Y3499500D01*
X5842160Y3505500D01*
X5828160Y3508500D01*
X5820000Y3514500D01*
X5816500Y3525000D01*
X5818830Y3535500D01*
X5824660Y3543000D01*
X5832830Y3547500D01*
X5841000D01*
X5849160Y3544500D01*
X5856160Y3537000D01*
G01X5887160Y3532500D02*
X5894160Y3541500D01*
X5902330Y3546000D01*
X5911660Y3547500D01*
X5923330Y3544500D01*
X5931500Y3537000D01*
X5933830Y3528000D01*
X5932660Y3519000D01*
X5928000Y3511500D01*
X5904660Y3496500D01*
X5894160Y3486000D01*
X5887160Y3471000D01*
X5884830Y3457500D01*
X5933830D01*
G01X5982330D02*
Y3547500D01*
X5968330Y3529500D01*
G01Y3457500D02*
X5996330D01*
G01X6340000Y2382500D02*
Y2292500D01*
X6386660D01*
G01X6411830Y2304500D02*
X6421160Y2297000D01*
X6431660Y2292500D01*
X6441000D01*
X6450330Y2297000D01*
X6457330Y2304500D01*
X6460830Y2315000D01*
X6458500Y2325500D01*
X6452660Y2334500D01*
X6442160Y2340500D01*
X6428160Y2343500D01*
X6420000Y2349500D01*
X6416500Y2360000D01*
X6418830Y2370500D01*
X6424660Y2378000D01*
X6432830Y2382500D01*
X6441000D01*
X6449160Y2379500D01*
X6456160Y2372000D01*
G01X6487160Y2367500D02*
X6494160Y2376500D01*
X6502330Y2381000D01*
X6511660Y2382500D01*
X6523330Y2379500D01*
X6531500Y2372000D01*
X6533830Y2363000D01*
X6532660Y2354000D01*
X6528000Y2346500D01*
X6504660Y2331500D01*
X6494160Y2321000D01*
X6487160Y2306000D01*
X6484830Y2292500D01*
X6533830D01*
G01X6556660Y2310500D02*
X6563660Y2300000D01*
X6573000Y2294000D01*
X6583500Y2292500D01*
X6592830Y2294000D01*
X6602160Y2301500D01*
X6608000Y2310500D01*
X6609160Y2319500D01*
X6606830Y2330000D01*
X6598660Y2337500D01*
X6590500Y2340500D01*
X6580000D01*
G01X6590500D02*
X6597500Y2345000D01*
X6603330Y2352500D01*
X6605660Y2361500D01*
X6603330Y2370500D01*
X6597500Y2378000D01*
X6587000Y2382500D01*
X6576500Y2381000D01*
X6566000Y2375000D01*
G01X6340000Y3547500D02*
Y3457500D01*
X6386660D01*
G01X6411830Y3469500D02*
X6421160Y3462000D01*
X6431660Y3457500D01*
X6441000D01*
X6450330Y3462000D01*
X6457330Y3469500D01*
X6460830Y3480000D01*
X6458500Y3490500D01*
X6452660Y3499500D01*
X6442160Y3505500D01*
X6428160Y3508500D01*
X6420000Y3514500D01*
X6416500Y3525000D01*
X6418830Y3535500D01*
X6424660Y3543000D01*
X6432830Y3547500D01*
X6441000D01*
X6449160Y3544500D01*
X6456160Y3537000D01*
G01X6487160Y3532500D02*
X6494160Y3541500D01*
X6502330Y3546000D01*
X6511660Y3547500D01*
X6523330Y3544500D01*
X6531500Y3537000D01*
X6533830Y3528000D01*
X6532660Y3519000D01*
X6528000Y3511500D01*
X6504660Y3496500D01*
X6494160Y3486000D01*
X6487160Y3471000D01*
X6484830Y3457500D01*
X6533830D01*
G01X6582330Y3547500D02*
X6573000Y3544500D01*
X6566000Y3537000D01*
X6561330Y3528000D01*
X6557830Y3516000D01*
X6556660Y3502500D01*
X6557830Y3489000D01*
X6561330Y3477000D01*
X6566000Y3468000D01*
X6573000Y3460500D01*
X6582330Y3457500D01*
X6591660Y3460500D01*
X6598660Y3468000D01*
X6603330Y3477000D01*
X6606830Y3489000D01*
X6608000Y3502500D01*
X6606830Y3516000D01*
X6603330Y3528000D01*
X6598660Y3537000D01*
X6591660Y3544500D01*
X6582330Y3547500D01*
G01X7076670Y1093000D02*
X7082500Y1084000D01*
X7089500Y1078000D01*
X7097670Y1075000D01*
X7107000Y1078000D01*
X7114000Y1084000D01*
X7121000Y1093000D01*
X7123330Y1105000D01*
Y1165000D01*
G01X7147330Y1093000D02*
X7154330Y1082500D01*
X7163670Y1076500D01*
X7174170Y1075000D01*
X7183500Y1076500D01*
X7192830Y1084000D01*
X7198670Y1093000D01*
X7199830Y1102000D01*
X7197500Y1112500D01*
X7189330Y1120000D01*
X7181170Y1123000D01*
X7170670D01*
G01X7181170D02*
X7188170Y1127500D01*
X7194000Y1135000D01*
X7196330Y1144000D01*
X7194000Y1153000D01*
X7188170Y1160500D01*
X7177670Y1165000D01*
X7167170Y1163500D01*
X7156670Y1157500D01*
G01X6940000Y2382500D02*
Y2292500D01*
X6986660D01*
G01X7011830Y2304500D02*
X7021160Y2297000D01*
X7031660Y2292500D01*
X7041000D01*
X7050330Y2297000D01*
X7057330Y2304500D01*
X7060830Y2315000D01*
X7058500Y2325500D01*
X7052660Y2334500D01*
X7042160Y2340500D01*
X7028160Y2343500D01*
X7020000Y2349500D01*
X7016500Y2360000D01*
X7018830Y2370500D01*
X7024660Y2378000D01*
X7032830Y2382500D01*
X7041000D01*
X7049160Y2379500D01*
X7056160Y2372000D01*
G01X7087160Y2367500D02*
X7094160Y2376500D01*
X7102330Y2381000D01*
X7111660Y2382500D01*
X7123330Y2379500D01*
X7131500Y2372000D01*
X7133830Y2363000D01*
X7132660Y2354000D01*
X7128000Y2346500D01*
X7104660Y2331500D01*
X7094160Y2321000D01*
X7087160Y2306000D01*
X7084830Y2292500D01*
X7133830D01*
G01X7160160Y2367500D02*
X7167160Y2376500D01*
X7175330Y2381000D01*
X7184660Y2382500D01*
X7196330Y2379500D01*
X7204500Y2372000D01*
X7206830Y2363000D01*
X7205660Y2354000D01*
X7201000Y2346500D01*
X7177660Y2331500D01*
X7167160Y2321000D01*
X7160160Y2306000D01*
X7157830Y2292500D01*
X7206830D01*
G01X6940000Y3547500D02*
Y3457500D01*
X6986660D01*
G01X7011830Y3469500D02*
X7021160Y3462000D01*
X7031660Y3457500D01*
X7041000D01*
X7050330Y3462000D01*
X7057330Y3469500D01*
X7060830Y3480000D01*
X7058500Y3490500D01*
X7052660Y3499500D01*
X7042160Y3505500D01*
X7028160Y3508500D01*
X7020000Y3514500D01*
X7016500Y3525000D01*
X7018830Y3535500D01*
X7024660Y3543000D01*
X7032830Y3547500D01*
X7041000D01*
X7049160Y3544500D01*
X7056160Y3537000D01*
G01X7109330Y3457500D02*
Y3547500D01*
X7095330Y3529500D01*
G01Y3457500D02*
X7123330D01*
G01X7162500Y3468000D02*
X7170660Y3460500D01*
X7180000Y3457500D01*
X7189330Y3460500D01*
X7197500Y3469500D01*
X7203330Y3483000D01*
X7205660Y3496500D01*
Y3513000D01*
X7203330Y3526500D01*
X7197500Y3538500D01*
X7190500Y3544500D01*
X7182330Y3547500D01*
X7173000Y3544500D01*
X7166000Y3538500D01*
X7161330Y3529500D01*
X7159000Y3517500D01*
X7161330Y3507000D01*
X7167160Y3496500D01*
X7174160Y3490500D01*
X7182330Y3489000D01*
X7191660Y3492000D01*
X7198660Y3499500D01*
X7205660Y3513000D01*
G01X7511380Y-968450D02*
X7517210Y-977450D01*
X7524210Y-983450D01*
X7532380Y-986450D01*
X7541710Y-983450D01*
X7548710Y-977450D01*
X7555710Y-968450D01*
X7558040Y-956450D01*
Y-896450D01*
G01X7582040Y-972950D02*
X7589040Y-980450D01*
X7597210Y-984950D01*
X7607710Y-986450D01*
X7618210Y-983450D01*
X7626380Y-977450D01*
X7632210Y-966950D01*
X7633380Y-954950D01*
X7631040Y-942950D01*
X7625210Y-935450D01*
X7617040Y-929450D01*
X7608880Y-927950D01*
X7600710Y-929450D01*
X7590210Y-935450D01*
X7593710Y-896450D01*
X7625210D01*
G01X7540000Y2382500D02*
Y2292500D01*
X7586660D01*
G01X7611830Y2304500D02*
X7621160Y2297000D01*
X7631660Y2292500D01*
X7641000D01*
X7650330Y2297000D01*
X7657330Y2304500D01*
X7660830Y2315000D01*
X7658500Y2325500D01*
X7652660Y2334500D01*
X7642160Y2340500D01*
X7628160Y2343500D01*
X7620000Y2349500D01*
X7616500Y2360000D01*
X7618830Y2370500D01*
X7624660Y2378000D01*
X7632830Y2382500D01*
X7641000D01*
X7649160Y2379500D01*
X7656160Y2372000D01*
G01X7709330Y2292500D02*
Y2382500D01*
X7695330Y2364500D01*
G01Y2292500D02*
X7723330D01*
G01X7782330D02*
X7790500Y2294000D01*
X7799830Y2298500D01*
X7805660Y2306000D01*
X7808000Y2316500D01*
X7805660Y2327000D01*
X7798660Y2336000D01*
X7788160Y2340500D01*
X7776500D01*
X7769500Y2343500D01*
X7763660Y2351000D01*
X7761330Y2361500D01*
X7764830Y2372000D01*
X7773000Y2379500D01*
X7782330Y2382500D01*
X7791660Y2379500D01*
X7799830Y2372000D01*
X7803330Y2361500D01*
X7801000Y2351000D01*
X7795160Y2343500D01*
X7788160Y2340500D01*
X7776500D01*
X7766000Y2336000D01*
X7759000Y2327000D01*
X7756660Y2316500D01*
X7759000Y2306000D01*
X7764830Y2298500D01*
X7774160Y2294000D01*
X7782330Y2292500D01*
G01X7540000Y3547500D02*
Y3457500D01*
X7586660D01*
G01X7611830Y3469500D02*
X7621160Y3462000D01*
X7631660Y3457500D01*
X7641000D01*
X7650330Y3462000D01*
X7657330Y3469500D01*
X7660830Y3480000D01*
X7658500Y3490500D01*
X7652660Y3499500D01*
X7642160Y3505500D01*
X7628160Y3508500D01*
X7620000Y3514500D01*
X7616500Y3525000D01*
X7618830Y3535500D01*
X7624660Y3543000D01*
X7632830Y3547500D01*
X7641000D01*
X7649160Y3544500D01*
X7656160Y3537000D01*
G01X7709330Y3457500D02*
Y3547500D01*
X7695330Y3529500D01*
G01Y3457500D02*
X7723330D01*
G01X7756660Y3471000D02*
X7763660Y3463500D01*
X7771830Y3459000D01*
X7782330Y3457500D01*
X7792830Y3460500D01*
X7801000Y3466500D01*
X7806830Y3477000D01*
X7808000Y3489000D01*
X7805660Y3501000D01*
X7799830Y3508500D01*
X7791660Y3514500D01*
X7783500Y3516000D01*
X7775330Y3514500D01*
X7764830Y3508500D01*
X7768330Y3547500D01*
X7799830D01*
G01X7706670Y5658000D02*
X7712500Y5649000D01*
X7719500Y5643000D01*
X7727670Y5640000D01*
X7737000Y5643000D01*
X7744000Y5649000D01*
X7751000Y5658000D01*
X7753330Y5670000D01*
Y5730000D01*
G01X7780830Y5677500D02*
X7789000Y5688000D01*
X7796000Y5694000D01*
X7805330Y5697000D01*
X7813500Y5694000D01*
X7819330Y5688000D01*
X7824000Y5679000D01*
X7825170Y5668500D01*
X7824000Y5659500D01*
X7819330Y5650500D01*
X7812330Y5643000D01*
X7804170Y5640000D01*
X7794830Y5643000D01*
X7786670Y5652000D01*
X7782000Y5665500D01*
X7780830Y5680500D01*
X7783170Y5700000D01*
X7786670Y5710500D01*
X7792500Y5721000D01*
X7800670Y5728500D01*
X7808830Y5730000D01*
X7817000Y5727000D01*
X7822830Y5719500D01*
G01X8140000Y2382500D02*
Y2292500D01*
X8186660D01*
G01X8211830Y2304500D02*
X8221160Y2297000D01*
X8231660Y2292500D01*
X8241000D01*
X8250330Y2297000D01*
X8257330Y2304500D01*
X8260830Y2315000D01*
X8258500Y2325500D01*
X8252660Y2334500D01*
X8242160Y2340500D01*
X8228160Y2343500D01*
X8220000Y2349500D01*
X8216500Y2360000D01*
X8218830Y2370500D01*
X8224660Y2378000D01*
X8232830Y2382500D01*
X8241000D01*
X8249160Y2379500D01*
X8256160Y2372000D01*
G01X8309330Y2292500D02*
Y2382500D01*
X8295330Y2364500D01*
G01Y2292500D02*
X8323330D01*
G01X8380000D02*
X8382330Y2312000D01*
X8385830Y2328500D01*
X8390500Y2343500D01*
X8396330Y2360000D01*
X8405660Y2382500D01*
X8359000D01*
G01X8140000Y3547500D02*
Y3457500D01*
X8186660D01*
G01X8211830Y3469500D02*
X8221160Y3462000D01*
X8231660Y3457500D01*
X8241000D01*
X8250330Y3462000D01*
X8257330Y3469500D01*
X8260830Y3480000D01*
X8258500Y3490500D01*
X8252660Y3499500D01*
X8242160Y3505500D01*
X8228160Y3508500D01*
X8220000Y3514500D01*
X8216500Y3525000D01*
X8218830Y3535500D01*
X8224660Y3543000D01*
X8232830Y3547500D01*
X8241000D01*
X8249160Y3544500D01*
X8256160Y3537000D01*
G01X8309330Y3457500D02*
Y3547500D01*
X8295330Y3529500D01*
G01Y3457500D02*
X8323330D01*
G01X8396330D02*
Y3547500D01*
X8353160Y3483000D01*
X8411500D01*
G01X8740000Y2382500D02*
Y2292500D01*
X8786660D01*
G01X8811830Y2304500D02*
X8821160Y2297000D01*
X8831660Y2292500D01*
X8841000D01*
X8850330Y2297000D01*
X8857330Y2304500D01*
X8860830Y2315000D01*
X8858500Y2325500D01*
X8852660Y2334500D01*
X8842160Y2340500D01*
X8828160Y2343500D01*
X8820000Y2349500D01*
X8816500Y2360000D01*
X8818830Y2370500D01*
X8824660Y2378000D01*
X8832830Y2382500D01*
X8841000D01*
X8849160Y2379500D01*
X8856160Y2372000D01*
G01X8909330Y2292500D02*
Y2382500D01*
X8895330Y2364500D01*
G01Y2292500D02*
X8923330D01*
G01X8960160Y2330000D02*
X8968330Y2340500D01*
X8975330Y2346500D01*
X8984660Y2349500D01*
X8992830Y2346500D01*
X8998660Y2340500D01*
X9003330Y2331500D01*
X9004500Y2321000D01*
X9003330Y2312000D01*
X8998660Y2303000D01*
X8991660Y2295500D01*
X8983500Y2292500D01*
X8974160Y2295500D01*
X8966000Y2304500D01*
X8961330Y2318000D01*
X8960160Y2333000D01*
X8962500Y2352500D01*
X8966000Y2363000D01*
X8971830Y2373500D01*
X8980000Y2381000D01*
X8988160Y2382500D01*
X8996330Y2379500D01*
X9002160Y2372000D01*
G01X9340000Y2382500D02*
Y2292500D01*
X9386660D01*
G01X9411830Y2304500D02*
X9421160Y2297000D01*
X9431660Y2292500D01*
X9441000D01*
X9450330Y2297000D01*
X9457330Y2304500D01*
X9460830Y2315000D01*
X9458500Y2325500D01*
X9452660Y2334500D01*
X9442160Y2340500D01*
X9428160Y2343500D01*
X9420000Y2349500D01*
X9416500Y2360000D01*
X9418830Y2370500D01*
X9424660Y2378000D01*
X9432830Y2382500D01*
X9441000D01*
X9449160Y2379500D01*
X9456160Y2372000D01*
G01X9489500Y2303000D02*
X9497660Y2295500D01*
X9507000Y2292500D01*
X9516330Y2295500D01*
X9524500Y2304500D01*
X9530330Y2318000D01*
X9532660Y2331500D01*
Y2348000D01*
X9530330Y2361500D01*
X9524500Y2373500D01*
X9517500Y2379500D01*
X9509330Y2382500D01*
X9500000Y2379500D01*
X9493000Y2373500D01*
X9488330Y2364500D01*
X9486000Y2352500D01*
X9488330Y2342000D01*
X9494160Y2331500D01*
X9501160Y2325500D01*
X9509330Y2324000D01*
X9518660Y2327000D01*
X9525660Y2334500D01*
X9532660Y2348000D01*
G01X9340000Y3547500D02*
Y3457500D01*
X9386660D01*
G01X9411830Y3469500D02*
X9421160Y3462000D01*
X9431660Y3457500D01*
X9441000D01*
X9450330Y3462000D01*
X9457330Y3469500D01*
X9460830Y3480000D01*
X9458500Y3490500D01*
X9452660Y3499500D01*
X9442160Y3505500D01*
X9428160Y3508500D01*
X9420000Y3514500D01*
X9416500Y3525000D01*
X9418830Y3535500D01*
X9424660Y3543000D01*
X9432830Y3547500D01*
X9441000D01*
X9449160Y3544500D01*
X9456160Y3537000D01*
G01X9509330Y3457500D02*
Y3547500D01*
X9495330Y3529500D01*
G01Y3457500D02*
X9523330D01*
G01X9560160Y3532500D02*
X9567160Y3541500D01*
X9575330Y3546000D01*
X9584660Y3547500D01*
X9596330Y3544500D01*
X9604500Y3537000D01*
X9606830Y3528000D01*
X9605660Y3519000D01*
X9601000Y3511500D01*
X9577660Y3496500D01*
X9567160Y3486000D01*
X9560160Y3471000D01*
X9557830Y3457500D01*
X9606830D01*
G01X8740000Y3547500D02*
Y3457500D01*
X8786660D01*
G01X8811830Y3469500D02*
X8821160Y3462000D01*
X8831660Y3457500D01*
X8841000D01*
X8850330Y3462000D01*
X8857330Y3469500D01*
X8860830Y3480000D01*
X8858500Y3490500D01*
X8852660Y3499500D01*
X8842160Y3505500D01*
X8828160Y3508500D01*
X8820000Y3514500D01*
X8816500Y3525000D01*
X8818830Y3535500D01*
X8824660Y3543000D01*
X8832830Y3547500D01*
X8841000D01*
X8849160Y3544500D01*
X8856160Y3537000D01*
G01X8909330Y3457500D02*
Y3547500D01*
X8895330Y3529500D01*
G01Y3457500D02*
X8923330D01*
G01X8956660Y3475500D02*
X8963660Y3465000D01*
X8973000Y3459000D01*
X8983500Y3457500D01*
X8992830Y3459000D01*
X9002160Y3466500D01*
X9008000Y3475500D01*
X9009160Y3484500D01*
X9006830Y3495000D01*
X8998660Y3502500D01*
X8990500Y3505500D01*
X8980000D01*
G01X8990500D02*
X8997500Y3510000D01*
X9003330Y3517500D01*
X9005660Y3526500D01*
X9003330Y3535500D01*
X8997500Y3543000D01*
X8987000Y3547500D01*
X8976500Y3546000D01*
X8966000Y3540000D01*
G01X9950000Y2382500D02*
Y2292500D01*
X9996660D01*
G01X10021830Y2304500D02*
X10031160Y2297000D01*
X10041660Y2292500D01*
X10051000D01*
X10060330Y2297000D01*
X10067330Y2304500D01*
X10070830Y2315000D01*
X10068500Y2325500D01*
X10062660Y2334500D01*
X10052160Y2340500D01*
X10038160Y2343500D01*
X10030000Y2349500D01*
X10026500Y2360000D01*
X10028830Y2370500D01*
X10034660Y2378000D01*
X10042830Y2382500D01*
X10051000D01*
X10059160Y2379500D01*
X10066160Y2372000D01*
G01X10119330Y2292500D02*
Y2382500D01*
X10105330Y2364500D01*
G01Y2292500D02*
X10133330D01*
G01X10192330D02*
Y2382500D01*
X10178330Y2364500D01*
G01Y2292500D02*
X10206330D01*
G01X9950000Y3547500D02*
Y3457500D01*
X9996660D01*
G01X10021830Y3469500D02*
X10031160Y3462000D01*
X10041660Y3457500D01*
X10051000D01*
X10060330Y3462000D01*
X10067330Y3469500D01*
X10070830Y3480000D01*
X10068500Y3490500D01*
X10062660Y3499500D01*
X10052160Y3505500D01*
X10038160Y3508500D01*
X10030000Y3514500D01*
X10026500Y3525000D01*
X10028830Y3535500D01*
X10034660Y3543000D01*
X10042830Y3547500D01*
X10051000D01*
X10059160Y3544500D01*
X10066160Y3537000D01*
G01X10119330Y3457500D02*
X10127500Y3459000D01*
X10136830Y3463500D01*
X10142660Y3471000D01*
X10145000Y3481500D01*
X10142660Y3492000D01*
X10135660Y3501000D01*
X10125160Y3505500D01*
X10113500D01*
X10106500Y3508500D01*
X10100660Y3516000D01*
X10098330Y3526500D01*
X10101830Y3537000D01*
X10110000Y3544500D01*
X10119330Y3547500D01*
X10128660Y3544500D01*
X10136830Y3537000D01*
X10140330Y3526500D01*
X10138000Y3516000D01*
X10132160Y3508500D01*
X10125160Y3505500D01*
X10113500D01*
X10103000Y3501000D01*
X10096000Y3492000D01*
X10093660Y3481500D01*
X10096000Y3471000D01*
X10101830Y3463500D01*
X10111160Y3459000D01*
X10119330Y3457500D01*
G01X10550000Y2382500D02*
Y2292500D01*
X10596660D01*
G01X10621830Y2304500D02*
X10631160Y2297000D01*
X10641660Y2292500D01*
X10651000D01*
X10660330Y2297000D01*
X10667330Y2304500D01*
X10670830Y2315000D01*
X10668500Y2325500D01*
X10662660Y2334500D01*
X10652160Y2340500D01*
X10638160Y2343500D01*
X10630000Y2349500D01*
X10626500Y2360000D01*
X10628830Y2370500D01*
X10634660Y2378000D01*
X10642830Y2382500D01*
X10651000D01*
X10659160Y2379500D01*
X10666160Y2372000D01*
G01X10719330Y2292500D02*
Y2382500D01*
X10705330Y2364500D01*
G01Y2292500D02*
X10733330D01*
G01X10792330Y2382500D02*
X10783000Y2379500D01*
X10776000Y2372000D01*
X10771330Y2363000D01*
X10767830Y2351000D01*
X10766660Y2337500D01*
X10767830Y2324000D01*
X10771330Y2312000D01*
X10776000Y2303000D01*
X10783000Y2295500D01*
X10792330Y2292500D01*
X10801660Y2295500D01*
X10808660Y2303000D01*
X10813330Y2312000D01*
X10816830Y2324000D01*
X10818000Y2337500D01*
X10816830Y2351000D01*
X10813330Y2363000D01*
X10808660Y2372000D01*
X10801660Y2379500D01*
X10792330Y2382500D01*
G01X10550000Y3547500D02*
Y3457500D01*
X10596660D01*
G01X10621830Y3469500D02*
X10631160Y3462000D01*
X10641660Y3457500D01*
X10651000D01*
X10660330Y3462000D01*
X10667330Y3469500D01*
X10670830Y3480000D01*
X10668500Y3490500D01*
X10662660Y3499500D01*
X10652160Y3505500D01*
X10638160Y3508500D01*
X10630000Y3514500D01*
X10626500Y3525000D01*
X10628830Y3535500D01*
X10634660Y3543000D01*
X10642830Y3547500D01*
X10651000D01*
X10659160Y3544500D01*
X10666160Y3537000D01*
G01X10717000Y3457500D02*
X10719330Y3477000D01*
X10722830Y3493500D01*
X10727500Y3508500D01*
X10733330Y3525000D01*
X10742660Y3547500D01*
X10696000D01*
G01X11150000Y2382500D02*
Y2292500D01*
X11196660D01*
G01X11221830Y2304500D02*
X11231160Y2297000D01*
X11241660Y2292500D01*
X11251000D01*
X11260330Y2297000D01*
X11267330Y2304500D01*
X11270830Y2315000D01*
X11268500Y2325500D01*
X11262660Y2334500D01*
X11252160Y2340500D01*
X11238160Y2343500D01*
X11230000Y2349500D01*
X11226500Y2360000D01*
X11228830Y2370500D01*
X11234660Y2378000D01*
X11242830Y2382500D01*
X11251000D01*
X11259160Y2379500D01*
X11266160Y2372000D01*
G01X11297160Y2330000D02*
X11305330Y2340500D01*
X11312330Y2346500D01*
X11321660Y2349500D01*
X11329830Y2346500D01*
X11335660Y2340500D01*
X11340330Y2331500D01*
X11341500Y2321000D01*
X11340330Y2312000D01*
X11335660Y2303000D01*
X11328660Y2295500D01*
X11320500Y2292500D01*
X11311160Y2295500D01*
X11303000Y2304500D01*
X11298330Y2318000D01*
X11297160Y2333000D01*
X11299500Y2352500D01*
X11303000Y2363000D01*
X11308830Y2373500D01*
X11317000Y2381000D01*
X11325160Y2382500D01*
X11333330Y2379500D01*
X11339160Y2372000D01*
G01X11150000Y3547500D02*
Y3457500D01*
X11196660D01*
G01X11221830Y3469500D02*
X11231160Y3462000D01*
X11241660Y3457500D01*
X11251000D01*
X11260330Y3462000D01*
X11267330Y3469500D01*
X11270830Y3480000D01*
X11268500Y3490500D01*
X11262660Y3499500D01*
X11252160Y3505500D01*
X11238160Y3508500D01*
X11230000Y3514500D01*
X11226500Y3525000D01*
X11228830Y3535500D01*
X11234660Y3543000D01*
X11242830Y3547500D01*
X11251000D01*
X11259160Y3544500D01*
X11266160Y3537000D01*
G01X11293660Y3475500D02*
X11300660Y3465000D01*
X11310000Y3459000D01*
X11320500Y3457500D01*
X11329830Y3459000D01*
X11339160Y3466500D01*
X11345000Y3475500D01*
X11346160Y3484500D01*
X11343830Y3495000D01*
X11335660Y3502500D01*
X11327500Y3505500D01*
X11317000D01*
G01X11327500D02*
X11334500Y3510000D01*
X11340330Y3517500D01*
X11342660Y3526500D01*
X11340330Y3535500D01*
X11334500Y3543000D01*
X11324000Y3547500D01*
X11313500Y3546000D01*
X11303000Y3540000D01*
G01X11750000Y2382500D02*
Y2292500D01*
X11796660D01*
G01X11821830Y2304500D02*
X11831160Y2297000D01*
X11841660Y2292500D01*
X11851000D01*
X11860330Y2297000D01*
X11867330Y2304500D01*
X11870830Y2315000D01*
X11868500Y2325500D01*
X11862660Y2334500D01*
X11852160Y2340500D01*
X11838160Y2343500D01*
X11830000Y2349500D01*
X11826500Y2360000D01*
X11828830Y2370500D01*
X11834660Y2378000D01*
X11842830Y2382500D01*
X11851000D01*
X11859160Y2379500D01*
X11866160Y2372000D01*
G01X11897160Y2367500D02*
X11904160Y2376500D01*
X11912330Y2381000D01*
X11921660Y2382500D01*
X11933330Y2379500D01*
X11941500Y2372000D01*
X11943830Y2363000D01*
X11942660Y2354000D01*
X11938000Y2346500D01*
X11914660Y2331500D01*
X11904160Y2321000D01*
X11897160Y2306000D01*
X11894830Y2292500D01*
X11943830D01*
G01X11750000Y3547500D02*
Y3457500D01*
X11796660D01*
G01X11821830Y3469500D02*
X11831160Y3462000D01*
X11841660Y3457500D01*
X11851000D01*
X11860330Y3462000D01*
X11867330Y3469500D01*
X11870830Y3480000D01*
X11868500Y3490500D01*
X11862660Y3499500D01*
X11852160Y3505500D01*
X11838160Y3508500D01*
X11830000Y3514500D01*
X11826500Y3525000D01*
X11828830Y3535500D01*
X11834660Y3543000D01*
X11842830Y3547500D01*
X11851000D01*
X11859160Y3544500D01*
X11866160Y3537000D01*
G01X11893660Y3471000D02*
X11900660Y3463500D01*
X11908830Y3459000D01*
X11919330Y3457500D01*
X11929830Y3460500D01*
X11938000Y3466500D01*
X11943830Y3477000D01*
X11945000Y3489000D01*
X11942660Y3501000D01*
X11936830Y3508500D01*
X11928660Y3514500D01*
X11920500Y3516000D01*
X11912330Y3514500D01*
X11901830Y3508500D01*
X11905330Y3547500D01*
X11936830D01*
G01X12350000Y2382500D02*
Y2292500D01*
X12396660D01*
G01X12421830Y2304500D02*
X12431160Y2297000D01*
X12441660Y2292500D01*
X12451000D01*
X12460330Y2297000D01*
X12467330Y2304500D01*
X12470830Y2315000D01*
X12468500Y2325500D01*
X12462660Y2334500D01*
X12452160Y2340500D01*
X12438160Y2343500D01*
X12430000Y2349500D01*
X12426500Y2360000D01*
X12428830Y2370500D01*
X12434660Y2378000D01*
X12442830Y2382500D01*
X12451000D01*
X12459160Y2379500D01*
X12466160Y2372000D01*
G01X12519330Y2292500D02*
Y2382500D01*
X12505330Y2364500D01*
G01Y2292500D02*
X12533330D01*
G01X12770670Y1982500D02*
X12763670Y1987000D01*
X12755500Y1990000D01*
X12746170D01*
X12735670Y1985500D01*
X12727500Y1978000D01*
X12721670Y1969000D01*
X12717000Y1954000D01*
X12715830Y1940500D01*
X12718170Y1927000D01*
X12721670Y1918000D01*
X12728670Y1909000D01*
X12736830Y1903000D01*
X12745000Y1900000D01*
X12753170D01*
X12761330Y1903000D01*
X12768330Y1907500D01*
X12774170Y1913500D01*
G01X12795830Y1975000D02*
X12802830Y1984000D01*
X12811000Y1988500D01*
X12820330Y1990000D01*
X12832000Y1987000D01*
X12840170Y1979500D01*
X12842500Y1970500D01*
X12841330Y1961500D01*
X12836670Y1954000D01*
X12813330Y1939000D01*
X12802830Y1928500D01*
X12795830Y1913500D01*
X12793500Y1900000D01*
X12842500D01*
G01X12891000Y1990000D02*
X12881670Y1987000D01*
X12874670Y1979500D01*
X12870000Y1970500D01*
X12866500Y1958500D01*
X12865330Y1945000D01*
X12866500Y1931500D01*
X12870000Y1919500D01*
X12874670Y1910500D01*
X12881670Y1903000D01*
X12891000Y1900000D01*
X12900330Y1903000D01*
X12907330Y1910500D01*
X12912000Y1919500D01*
X12915500Y1931500D01*
X12916670Y1945000D01*
X12915500Y1958500D01*
X12912000Y1970500D01*
X12907330Y1979500D01*
X12900330Y1987000D01*
X12891000Y1990000D01*
G01X12695800Y2051000D02*
Y1961000D01*
X12709800Y1979000D01*
G01Y2051000D02*
X12681800D01*
G01X12350000Y3547500D02*
Y3457500D01*
X12396660D01*
G01X12421830Y3469500D02*
X12431160Y3462000D01*
X12441660Y3457500D01*
X12451000D01*
X12460330Y3462000D01*
X12467330Y3469500D01*
X12470830Y3480000D01*
X12468500Y3490500D01*
X12462660Y3499500D01*
X12452160Y3505500D01*
X12438160Y3508500D01*
X12430000Y3514500D01*
X12426500Y3525000D01*
X12428830Y3535500D01*
X12434660Y3543000D01*
X12442830Y3547500D01*
X12451000D01*
X12459160Y3544500D01*
X12466160Y3537000D01*
G01X12533330Y3457500D02*
Y3547500D01*
X12490160Y3483000D01*
X12548500D01*
G01X12966670Y1163000D02*
X12972500Y1154000D01*
X12979500Y1148000D01*
X12987670Y1145000D01*
X12997000Y1148000D01*
X13004000Y1154000D01*
X13011000Y1163000D01*
X13013330Y1175000D01*
Y1235000D01*
G01X13063000Y1145000D02*
X13071170Y1146500D01*
X13080500Y1151000D01*
X13086330Y1158500D01*
X13088670Y1169000D01*
X13086330Y1179500D01*
X13079330Y1188500D01*
X13068830Y1193000D01*
X13057170D01*
X13050170Y1196000D01*
X13044330Y1203500D01*
X13042000Y1214000D01*
X13045500Y1224500D01*
X13053670Y1232000D01*
X13063000Y1235000D01*
X13072330Y1232000D01*
X13080500Y1224500D01*
X13084000Y1214000D01*
X13081670Y1203500D01*
X13075830Y1196000D01*
X13068830Y1193000D01*
X13057170D01*
X13046670Y1188500D01*
X13039670Y1179500D01*
X13037330Y1169000D01*
X13039670Y1158500D01*
X13045500Y1151000D01*
X13054830Y1146500D01*
X13063000Y1145000D01*
G01X13540000Y2452500D02*
Y2362500D01*
X13586660D01*
G01X13611830Y2374500D02*
X13621160Y2367000D01*
X13631660Y2362500D01*
X13641000D01*
X13650330Y2367000D01*
X13657330Y2374500D01*
X13660830Y2385000D01*
X13658500Y2395500D01*
X13652660Y2404500D01*
X13642160Y2410500D01*
X13628160Y2413500D01*
X13620000Y2419500D01*
X13616500Y2430000D01*
X13618830Y2440500D01*
X13624660Y2448000D01*
X13632830Y2452500D01*
X13641000D01*
X13649160Y2449500D01*
X13656160Y2442000D01*
G01X13723330Y2362500D02*
Y2452500D01*
X13680160Y2388000D01*
X13738500D01*
G01X13796330Y2362500D02*
Y2452500D01*
X13753160Y2388000D01*
X13811500D01*
G01X12930000Y2452500D02*
Y2362500D01*
X12976660D01*
G01X13001830Y2374500D02*
X13011160Y2367000D01*
X13021660Y2362500D01*
X13031000D01*
X13040330Y2367000D01*
X13047330Y2374500D01*
X13050830Y2385000D01*
X13048500Y2395500D01*
X13042660Y2404500D01*
X13032160Y2410500D01*
X13018160Y2413500D01*
X13010000Y2419500D01*
X13006500Y2430000D01*
X13008830Y2440500D01*
X13014660Y2448000D01*
X13022830Y2452500D01*
X13031000D01*
X13039160Y2449500D01*
X13046160Y2442000D01*
G01X13113330Y2362500D02*
Y2452500D01*
X13070160Y2388000D01*
X13128500D01*
G01X13146660Y2376000D02*
X13153660Y2368500D01*
X13161830Y2364000D01*
X13172330Y2362500D01*
X13182830Y2365500D01*
X13191000Y2371500D01*
X13196830Y2382000D01*
X13198000Y2394000D01*
X13195660Y2406000D01*
X13189830Y2413500D01*
X13181660Y2419500D01*
X13173500Y2421000D01*
X13165330Y2419500D01*
X13154830Y2413500D01*
X13158330Y2452500D01*
X13189830D01*
G01X13540000Y3542500D02*
Y3452500D01*
X13586660D01*
G01X13611830Y3464500D02*
X13621160Y3457000D01*
X13631660Y3452500D01*
X13641000D01*
X13650330Y3457000D01*
X13657330Y3464500D01*
X13660830Y3475000D01*
X13658500Y3485500D01*
X13652660Y3494500D01*
X13642160Y3500500D01*
X13628160Y3503500D01*
X13620000Y3509500D01*
X13616500Y3520000D01*
X13618830Y3530500D01*
X13624660Y3538000D01*
X13632830Y3542500D01*
X13641000D01*
X13649160Y3539500D01*
X13656160Y3532000D01*
G01X13723330Y3452500D02*
Y3542500D01*
X13680160Y3478000D01*
X13738500D01*
G01X13782330Y3452500D02*
X13790500Y3454000D01*
X13799830Y3458500D01*
X13805660Y3466000D01*
X13808000Y3476500D01*
X13805660Y3487000D01*
X13798660Y3496000D01*
X13788160Y3500500D01*
X13776500D01*
X13769500Y3503500D01*
X13763660Y3511000D01*
X13761330Y3521500D01*
X13764830Y3532000D01*
X13773000Y3539500D01*
X13782330Y3542500D01*
X13791660Y3539500D01*
X13799830Y3532000D01*
X13803330Y3521500D01*
X13801000Y3511000D01*
X13795160Y3503500D01*
X13788160Y3500500D01*
X13776500D01*
X13766000Y3496000D01*
X13759000Y3487000D01*
X13756660Y3476500D01*
X13759000Y3466000D01*
X13764830Y3458500D01*
X13774160Y3454000D01*
X13782330Y3452500D01*
G01X13208330Y3465000D02*
Y3555000D01*
X13161670D01*
G01X13136500Y3543000D02*
X13127170Y3550500D01*
X13116670Y3555000D01*
X13107330D01*
X13098000Y3550500D01*
X13091000Y3543000D01*
X13087500Y3532500D01*
X13089830Y3522000D01*
X13095670Y3513000D01*
X13106170Y3507000D01*
X13120170Y3504000D01*
X13128330Y3498000D01*
X13131830Y3487500D01*
X13129500Y3477000D01*
X13123670Y3469500D01*
X13115500Y3465000D01*
X13107330D01*
X13099170Y3468000D01*
X13092170Y3475500D01*
G01X13025000Y3555000D02*
Y3465000D01*
X13068170Y3529500D01*
X13009830D01*
G01X12985830Y3544500D02*
X12977670Y3552000D01*
X12968330Y3555000D01*
X12959000Y3552000D01*
X12950830Y3543000D01*
X12945000Y3529500D01*
X12942670Y3516000D01*
Y3499500D01*
X12945000Y3486000D01*
X12950830Y3474000D01*
X12957830Y3468000D01*
X12966000Y3465000D01*
X12975330Y3468000D01*
X12982330Y3474000D01*
X12987000Y3483000D01*
X12989330Y3495000D01*
X12987000Y3505500D01*
X12981170Y3516000D01*
X12974170Y3522000D01*
X12966000Y3523500D01*
X12956670Y3520500D01*
X12949670Y3513000D01*
X12942670Y3499500D01*
G01X13995830Y470000D02*
X14025000Y560000D01*
X14054170Y470000D01*
G01X14043670Y501500D02*
X14006330D01*
G01X14029330Y763000D02*
X14034000Y767500D01*
X14037500Y775000D01*
X14039830Y785500D01*
X14037500Y794500D01*
X14032830Y800500D01*
X14024670Y805000D01*
X13993170D01*
Y715000D01*
X14031670D01*
X14039830Y721000D01*
X14044500Y730000D01*
X14046830Y740500D01*
X14044500Y751000D01*
X14037500Y760000D01*
X14029330Y763000D01*
X13993170D01*
G01X14030670Y1047500D02*
X14023670Y1052000D01*
X14015500Y1055000D01*
X14006170D01*
X13995670Y1050500D01*
X13987500Y1043000D01*
X13981670Y1034000D01*
X13977000Y1019000D01*
X13975830Y1005500D01*
X13978170Y992000D01*
X13981670Y983000D01*
X13988670Y974000D01*
X13996830Y968000D01*
X14005000Y965000D01*
X14013170D01*
X14021330Y968000D01*
X14028330Y972500D01*
X14034170Y978500D01*
G01X13905000Y1072170D02*
X13914000Y1065170D01*
X13918500Y1057000D01*
X13920000Y1047670D01*
X13917000Y1036000D01*
X13909500Y1027830D01*
X13900500Y1025500D01*
X13891500Y1026670D01*
X13884000Y1031330D01*
X13869000Y1054670D01*
X13858500Y1065170D01*
X13843500Y1072170D01*
X13830000Y1074500D01*
Y1025500D01*
G01Y963000D02*
X13920000D01*
X13855500Y1006170D01*
Y947830D01*
G01X13865000Y1129330D02*
Y1219330D01*
X13851000Y1201330D01*
G01Y1129330D02*
X13879000D01*
G01X14114330Y2000000D02*
Y1935500D01*
X14119000Y1922000D01*
X14128330Y1913000D01*
X14140000Y1910000D01*
X14151670Y1913000D01*
X14161000Y1922000D01*
X14165670Y1935500D01*
Y2000000D01*
G01X14190830Y1985000D02*
X14197830Y1994000D01*
X14206000Y1998500D01*
X14215330Y2000000D01*
X14227000Y1997000D01*
X14235170Y1989500D01*
X14237500Y1980500D01*
X14236330Y1971500D01*
X14231670Y1964000D01*
X14208330Y1949000D01*
X14197830Y1938500D01*
X14190830Y1923500D01*
X14188500Y1910000D01*
X14237500D01*
G01X14210000Y2357500D02*
Y2267500D01*
X14256660D01*
G01X14281830Y2279500D02*
X14291160Y2272000D01*
X14301660Y2267500D01*
X14311000D01*
X14320330Y2272000D01*
X14327330Y2279500D01*
X14330830Y2290000D01*
X14328500Y2300500D01*
X14322660Y2309500D01*
X14312160Y2315500D01*
X14298160Y2318500D01*
X14290000Y2324500D01*
X14286500Y2335000D01*
X14288830Y2345500D01*
X14294660Y2353000D01*
X14302830Y2357500D01*
X14311000D01*
X14319160Y2354500D01*
X14326160Y2347000D01*
G01X14393330Y2267500D02*
Y2357500D01*
X14350160Y2293000D01*
X14408500D01*
G01X14430160Y2305000D02*
X14438330Y2315500D01*
X14445330Y2321500D01*
X14454660Y2324500D01*
X14462830Y2321500D01*
X14468660Y2315500D01*
X14473330Y2306500D01*
X14474500Y2296000D01*
X14473330Y2287000D01*
X14468660Y2278000D01*
X14461660Y2270500D01*
X14453500Y2267500D01*
X14444160Y2270500D01*
X14436000Y2279500D01*
X14431330Y2293000D01*
X14430160Y2308000D01*
X14432500Y2327500D01*
X14436000Y2338000D01*
X14441830Y2348500D01*
X14450000Y2356000D01*
X14458160Y2357500D01*
X14466330Y2354500D01*
X14472160Y2347000D01*
G01X14420000Y3812500D02*
Y3902500D01*
X14373340D01*
G01X14348170Y3890500D02*
X14338840Y3898000D01*
X14328340Y3902500D01*
X14319000D01*
X14309670Y3898000D01*
X14302670Y3890500D01*
X14299170Y3880000D01*
X14301500Y3869500D01*
X14307340Y3860500D01*
X14317840Y3854500D01*
X14331840Y3851500D01*
X14340000Y3845500D01*
X14343500Y3835000D01*
X14341170Y3824500D01*
X14335340Y3817000D01*
X14327170Y3812500D01*
X14319000D01*
X14310840Y3815500D01*
X14303840Y3823000D01*
G01X14236670Y3902500D02*
Y3812500D01*
X14279840Y3877000D01*
X14221500D01*
G01X14180000Y3902500D02*
X14177670Y3883000D01*
X14174170Y3866500D01*
X14169500Y3851500D01*
X14163670Y3835000D01*
X14154340Y3812500D01*
X14201000D01*
G01X14201670Y4386670D02*
X14111670D01*
Y4415830D01*
X14116170Y4425170D01*
X14122170Y4431000D01*
X14134170Y4433330D01*
X14146170Y4431000D01*
X14153670Y4424000D01*
X14158170Y4415830D01*
Y4386670D01*
G01Y4415830D02*
X14201670Y4433330D01*
G01X14126670Y4460830D02*
X14117670Y4467830D01*
X14113170Y4476000D01*
X14111670Y4485330D01*
X14114670Y4497000D01*
X14122170Y4505170D01*
X14131170Y4507500D01*
X14140170Y4506330D01*
X14147670Y4501670D01*
X14162670Y4478330D01*
X14173170Y4467830D01*
X14188170Y4460830D01*
X14201670Y4458500D01*
Y4507500D01*
G01X14166670Y4408000D02*
X14172500Y4399000D01*
X14179500Y4393000D01*
X14187670Y4390000D01*
X14197000Y4393000D01*
X14204000Y4399000D01*
X14211000Y4408000D01*
X14213330Y4420000D01*
Y4480000D01*
G01X14277000Y4390000D02*
Y4480000D01*
X14233830Y4415500D01*
X14292170D01*
G01X13914330Y5093500D02*
X13921330Y5086000D01*
X13929500Y5081500D01*
X13940000Y5080000D01*
X13950500Y5083000D01*
X13958670Y5089000D01*
X13964500Y5099500D01*
X13965670Y5111500D01*
X13963330Y5123500D01*
X13957500Y5131000D01*
X13949330Y5137000D01*
X13941170Y5138500D01*
X13933000Y5137000D01*
X13922500Y5131000D01*
X13926000Y5170000D01*
X13957500D01*
G01X14013000D02*
X14003670Y5167000D01*
X13996670Y5159500D01*
X13992000Y5150500D01*
X13988500Y5138500D01*
X13987330Y5125000D01*
X13988500Y5111500D01*
X13992000Y5099500D01*
X13996670Y5090500D01*
X14003670Y5083000D01*
X14013000Y5080000D01*
X14022330Y5083000D01*
X14029330Y5090500D01*
X14034000Y5099500D01*
X14037500Y5111500D01*
X14038670Y5125000D01*
X14037500Y5138500D01*
X14034000Y5150500D01*
X14029330Y5159500D01*
X14022330Y5167000D01*
X14013000Y5170000D01*
G01X14000000Y4755000D02*
Y4845000D01*
X13986000Y4827000D01*
G01Y4755000D02*
X14014000D01*
G01X14471600Y1377430D02*
X14462600Y1384430D01*
X14458100Y1392600D01*
X14456600Y1401930D01*
X14459600Y1413600D01*
X14467100Y1421770D01*
X14476100Y1424100D01*
X14485100Y1422930D01*
X14492600Y1418270D01*
X14507600Y1394930D01*
X14518100Y1384430D01*
X14533100Y1377430D01*
X14546600Y1375100D01*
Y1424100D01*
G01X14580000Y2865000D02*
X14490000D01*
X14508000Y2851000D01*
G01X14580000D02*
Y2879000D01*
G01Y2952000D02*
X14490000D01*
X14554500Y2908830D01*
Y2967170D01*
G01X15055670Y3281670D02*
Y3191670D01*
X15032330D01*
X15023000Y3196170D01*
X15016000Y3202170D01*
X15010170Y3211170D01*
X15005500Y3221670D01*
X15004330Y3236670D01*
X15005500Y3251670D01*
X15010170Y3262170D01*
X15016000Y3271170D01*
X15023000Y3277170D01*
X15032330Y3281670D01*
X15055670D01*
G01X14979170Y3206670D02*
X14972170Y3197670D01*
X14964000Y3193170D01*
X14954670Y3191670D01*
X14943000Y3194670D01*
X14934830Y3202170D01*
X14932500Y3211170D01*
X14933670Y3220170D01*
X14938330Y3227670D01*
X14961670Y3242670D01*
X14972170Y3253170D01*
X14979170Y3268170D01*
X14981500Y3281670D01*
X14932500D01*
G01X14900670Y3397500D02*
X14893670Y3402000D01*
X14885500Y3405000D01*
X14876170D01*
X14865670Y3400500D01*
X14857500Y3393000D01*
X14851670Y3384000D01*
X14847000Y3369000D01*
X14845830Y3355500D01*
X14848170Y3342000D01*
X14851670Y3333000D01*
X14858670Y3324000D01*
X14866830Y3318000D01*
X14875000Y3315000D01*
X14883170D01*
X14891330Y3318000D01*
X14898330Y3322500D01*
X14904170Y3328500D01*
G01X14948000Y3315000D02*
Y3405000D01*
X14934000Y3387000D01*
G01Y3315000D02*
X14962000D01*
G01X14635000Y3375000D02*
Y3285000D01*
G01X14608170Y3375000D02*
X14661830D01*
G01X14684670Y3285000D02*
Y3375000D01*
X14712670D01*
X14722000Y3370500D01*
X14729000Y3360000D01*
X14731330Y3348000D01*
X14729000Y3336000D01*
X14723170Y3327000D01*
X14712670Y3322500D01*
X14684670D01*
G01X14781000Y3285000D02*
Y3375000D01*
X14767000Y3357000D01*
G01Y3285000D02*
X14795000D01*
G01X14735000Y4345000D02*
X14645000D01*
X14663000Y4331000D01*
G01X14735000D02*
Y4359000D01*
G01X14412000Y4675670D02*
X14421000Y4681500D01*
X14427000Y4688500D01*
X14430000Y4696670D01*
X14427000Y4706000D01*
X14421000Y4713000D01*
X14412000Y4720000D01*
X14400000Y4722330D01*
X14340000D01*
G01X14355000Y4749830D02*
X14346000Y4756830D01*
X14341500Y4765000D01*
X14340000Y4774330D01*
X14343000Y4786000D01*
X14350500Y4794170D01*
X14359500Y4796500D01*
X14368500Y4795330D01*
X14376000Y4790670D01*
X14391000Y4767330D01*
X14401500Y4756830D01*
X14416500Y4749830D01*
X14430000Y4747500D01*
Y4796500D01*
G01X14695000Y5456830D02*
X14686000Y5463830D01*
X14681500Y5472000D01*
X14680000Y5481330D01*
X14683000Y5493000D01*
X14690500Y5501170D01*
X14699500Y5503500D01*
X14708500Y5502330D01*
X14716000Y5497670D01*
X14731000Y5474330D01*
X14741500Y5463830D01*
X14756500Y5456830D01*
X14770000Y5454500D01*
Y5503500D01*
G01X15332000Y981670D02*
X15341000Y987500D01*
X15347000Y994500D01*
X15350000Y1002670D01*
X15347000Y1012000D01*
X15341000Y1019000D01*
X15332000Y1026000D01*
X15320000Y1028330D01*
X15260000D01*
G01X15350000Y1075670D02*
X15330500Y1078000D01*
X15314000Y1081500D01*
X15299000Y1086170D01*
X15282500Y1092000D01*
X15260000Y1101330D01*
Y1054670D01*
G01X15461000Y1374200D02*
X15371000D01*
X15389000Y1360200D01*
G01X15461000D02*
Y1388200D01*
G01X15420000Y2870000D02*
X15330000D01*
X15348000Y2856000D01*
G01X15420000D02*
Y2884000D01*
G01X15402000Y2917330D02*
X15412500Y2924330D01*
X15418500Y2933670D01*
X15420000Y2944170D01*
X15418500Y2953500D01*
X15411000Y2962830D01*
X15402000Y2968670D01*
X15393000Y2969830D01*
X15382500Y2967500D01*
X15375000Y2959330D01*
X15372000Y2951170D01*
Y2940670D01*
G01Y2951170D02*
X15367500Y2958170D01*
X15360000Y2964000D01*
X15351000Y2966330D01*
X15342000Y2964000D01*
X15334500Y2958170D01*
X15330000Y2947670D01*
X15331500Y2937170D01*
X15337500Y2926670D01*
G01X15159330Y3370840D02*
X15166330Y3366340D01*
X15174500Y3363340D01*
X15183830D01*
X15194330Y3367840D01*
X15202500Y3375340D01*
X15208330Y3384340D01*
X15213000Y3399340D01*
X15214170Y3412840D01*
X15211830Y3426340D01*
X15208330Y3435340D01*
X15201330Y3444340D01*
X15193170Y3450340D01*
X15185000Y3453340D01*
X15176830D01*
X15168670Y3450340D01*
X15161670Y3445840D01*
X15155830Y3439840D01*
G01X15380000Y3231670D02*
X15290000D01*
Y3260830D01*
X15294500Y3270170D01*
X15300500Y3276000D01*
X15312500Y3278330D01*
X15324500Y3276000D01*
X15332000Y3269000D01*
X15336500Y3260830D01*
Y3231670D01*
G01Y3260830D02*
X15380000Y3278330D01*
G01Y3328000D02*
X15378500Y3336170D01*
X15374000Y3345500D01*
X15366500Y3351330D01*
X15356000Y3353670D01*
X15345500Y3351330D01*
X15336500Y3344330D01*
X15332000Y3333830D01*
Y3322170D01*
X15329000Y3315170D01*
X15321500Y3309330D01*
X15311000Y3307000D01*
X15300500Y3310500D01*
X15293000Y3318670D01*
X15290000Y3328000D01*
X15293000Y3337330D01*
X15300500Y3345500D01*
X15311000Y3349000D01*
X15321500Y3346670D01*
X15329000Y3340830D01*
X15332000Y3333830D01*
Y3322170D01*
X15336500Y3311670D01*
X15345500Y3304670D01*
X15356000Y3302330D01*
X15366500Y3304670D01*
X15374000Y3310500D01*
X15378500Y3319830D01*
X15380000Y3328000D01*
G01X16294170Y3245000D02*
X16265000Y3155000D01*
X16235830Y3245000D01*
G01X16246330Y3213500D02*
X16283670D01*
G54D11*
G01X940000Y1270000D02*
X1200000D01*
Y1040000D01*
G01X760000Y2120000D02*
Y1860000D01*
X530000D01*
G01X760000Y3270000D02*
Y3010000D01*
X530000D01*
G01X1980000Y2250000D02*
Y1990000D01*
X1750000D01*
G01X1370000Y2120000D02*
Y1860000D01*
X1140000D01*
G01X1980000Y3430000D02*
Y3170000D01*
X1750000D01*
G01X1370000Y3270000D02*
Y3010000D01*
X1140000D01*
G01X14078600Y4583000D02*
X14077000D01*
Y4933000D01*
G01X2580000Y2250000D02*
Y1990000D01*
X2350000D01*
G01X2580000Y3430000D02*
Y3170000D01*
X2350000D01*
G01X3180000Y2250000D02*
Y1990000D01*
X2950000D01*
G01X3180000Y3430000D02*
Y3170000D01*
X2950000D01*
G01X3780000Y2250000D02*
Y1990000D01*
X3550000D01*
G01X3780000Y3430000D02*
Y3170000D01*
X3550000D01*
G01X4380000Y2250000D02*
Y1990000D01*
X4150000D01*
G01X4380000Y3430000D02*
Y3170000D01*
X4150000D01*
G01X4980000Y2250000D02*
Y1990000D01*
X4750000D01*
G01X4980000Y3430000D02*
Y3170000D01*
X4750000D01*
G01X6180000Y2250000D02*
Y1990000D01*
X5950000D01*
G01X5580000Y2250000D02*
Y1990000D01*
X5350000D01*
G01X6180000Y3430000D02*
Y3170000D01*
X5950000D01*
G01X5580000Y3430000D02*
Y3170000D01*
X5350000D01*
G01X6780000Y2250000D02*
Y1990000D01*
X6550000D01*
G01X6780000Y3430000D02*
Y3170000D01*
X6550000D01*
G01X7380000Y2250000D02*
Y1990000D01*
X7150000D01*
G01X7380000Y3430000D02*
Y3170000D01*
X7150000D01*
G01X7980000Y2250000D02*
Y1990000D01*
X7750000D01*
G01X7980000Y3430000D02*
Y3170000D01*
X7750000D01*
G01X8580000Y2250000D02*
Y1990000D01*
X8350000D01*
G01X8580000Y3430000D02*
Y3170000D01*
X8350000D01*
G01X9180000Y2250000D02*
Y1990000D01*
X8950000D01*
G01X9180000Y3430000D02*
Y3170000D01*
X8950000D01*
G01X9780000Y2250000D02*
Y1990000D01*
X9550000D01*
G01X9780000Y3430000D02*
Y3170000D01*
X9550000D01*
G01X10990000Y2250000D02*
Y1990000D01*
X10760000D01*
G01X10390000Y2250000D02*
Y1990000D01*
X10160000D01*
G01X10990000Y3430000D02*
Y3170000D01*
X10760000D01*
G01X10390000Y3430000D02*
Y3170000D01*
X10160000D01*
G01X11590000Y2250000D02*
Y1990000D01*
X11360000D01*
G01X11590000Y3430000D02*
Y3170000D01*
X11360000D01*
G01X12190000Y2250000D02*
Y1990000D01*
X11960000D01*
G01X12190000Y3430000D02*
Y3170000D01*
X11960000D01*
G01X12790000Y2250000D02*
Y1990000D01*
X12560000D01*
G01X12790000Y3430000D02*
Y3170000D01*
X12560000D01*
G01X13380000Y2340000D02*
Y2080000D01*
X13150000D01*
G01X13380000Y3430000D02*
Y3170000D01*
X13150000D01*
G01X13990000Y2340000D02*
Y2080000D01*
X13760000D01*
G01X13990000Y3430000D02*
Y3170000D01*
X13760000D01*
G01X13980000Y3930000D02*
Y4190000D01*
X14210000D01*
G01X14953000Y1161400D02*
Y1163000D01*
X15303000D01*
G01X14650000Y2240000D02*
Y1980000D01*
X14420000D01*
G54D12*
G01X50000Y3710000D02*
X140000D01*
G01X719800Y5395340D02*
X479800D01*
G01X14580000Y4166000D02*
X14820000D01*
G01X15100000Y3355000D02*
Y3445000D01*
G54D13*
G01X819800Y4139340D02*
X-420200D01*
G01D02*
Y5395340D01*
G01D02*
X819800D01*
G01X1180000Y1250000D02*
X100000D01*
Y650000D01*
X1180000D01*
Y1250000D01*
G01X12907000Y1893000D02*
X7000D01*
Y1193000D01*
X12907000D01*
Y1893000D01*
G01X740000Y1880000D02*
Y2960000D01*
X140000D01*
Y1880000D01*
X740000D01*
G01Y3030000D02*
Y4110000D01*
X140000D01*
Y3030000D01*
X740000D01*
G01X35000Y3755000D02*
Y4025000D01*
X155000D01*
Y3755000D01*
X35000D01*
G01X1172210Y-784000D02*
X1099490Y-711280D01*
G01D02*
Y-134000D01*
G01D02*
X644990D01*
G01D02*
Y526000D01*
G01D02*
X1203990D01*
G01X1350000Y1880000D02*
Y2960000D01*
X750000D01*
Y1880000D01*
X1350000D01*
G01Y3030000D02*
Y4110000D01*
X750000D01*
Y3030000D01*
X1350000D01*
G01X819800Y5395340D02*
Y4139340D01*
G01X1204010Y5474000D02*
X645010D01*
G01D02*
Y6134000D01*
G01D02*
X1099510D01*
G01D02*
Y6711280D01*
G01D02*
X1172230Y6784000D01*
G01X14127770Y-784000D02*
X1172210D01*
G01X1203990Y526000D02*
Y896000D01*
G01D02*
X1235490D01*
G01D02*
Y1016000D01*
G01X1960000Y2010000D02*
Y3090000D01*
X1360000D01*
Y2010000D01*
X1960000D01*
G01Y3190000D02*
Y4270000D01*
X1360000D01*
Y3190000D01*
X1960000D01*
G01X14077000Y4933000D02*
X1177000D01*
Y4233000D01*
X14077000D01*
Y4933000D01*
G01X1235510Y4984000D02*
Y5104000D01*
G01D02*
X1204010D01*
G01D02*
Y5474000D01*
G01X1172230Y6784000D02*
X14127790D01*
G01X2560000Y2010000D02*
Y3090000D01*
X1960000D01*
Y2010000D01*
X2560000D01*
G01Y3190000D02*
Y4270000D01*
X1960000D01*
Y3190000D01*
X2560000D01*
G01X3760000Y2010000D02*
Y3090000D01*
X3160000D01*
Y2010000D01*
X3760000D01*
G01X3160000D02*
Y3090000D01*
X2560000D01*
Y2010000D01*
X3160000D01*
G01X3760000Y3190000D02*
Y4270000D01*
X3160000D01*
Y3190000D01*
X3760000D01*
G01X3160000D02*
Y4270000D01*
X2560000D01*
Y3190000D01*
X3160000D01*
G01X4360000Y2010000D02*
Y3090000D01*
X3760000D01*
Y2010000D01*
X4360000D01*
G01Y3190000D02*
Y4270000D01*
X3760000D01*
Y3190000D01*
X4360000D01*
G01X4960000Y2010000D02*
Y3090000D01*
X4360000D01*
Y2010000D01*
X4960000D01*
G01Y3190000D02*
Y4270000D01*
X4360000D01*
Y3190000D01*
X4960000D01*
G01X5560000Y2010000D02*
Y3090000D01*
X4960000D01*
Y2010000D01*
X5560000D01*
G01Y3190000D02*
Y4270000D01*
X4960000D01*
Y3190000D01*
X5560000D01*
G01X6160000Y2010000D02*
Y3090000D01*
X5560000D01*
Y2010000D01*
X6160000D01*
G01Y3190000D02*
Y4270000D01*
X5560000D01*
Y3190000D01*
X6160000D01*
G01X6760000Y2010000D02*
Y3090000D01*
X6160000D01*
Y2010000D01*
X6760000D01*
G01Y3190000D02*
Y4270000D01*
X6160000D01*
Y3190000D01*
X6760000D01*
G01X7360000Y2010000D02*
Y3090000D01*
X6760000D01*
Y2010000D01*
X7360000D01*
G01Y3190000D02*
Y4270000D01*
X6760000D01*
Y3190000D01*
X7360000D01*
G01X8560000Y2010000D02*
Y3090000D01*
X7960000D01*
Y2010000D01*
X8560000D01*
G01X7960000D02*
Y3090000D01*
X7360000D01*
Y2010000D01*
X7960000D01*
G01X8560000Y3190000D02*
Y4270000D01*
X7960000D01*
Y3190000D01*
X8560000D01*
G01X7960000D02*
Y4270000D01*
X7360000D01*
Y3190000D01*
X7960000D01*
G01X9160000Y2010000D02*
Y3090000D01*
X8560000D01*
Y2010000D01*
X9160000D01*
G01Y3190000D02*
Y4270000D01*
X8560000D01*
Y3190000D01*
X9160000D01*
G01X9760000Y2010000D02*
Y3090000D01*
X9160000D01*
Y2010000D01*
X9760000D01*
G01Y3190000D02*
Y4270000D01*
X9160000D01*
Y3190000D01*
X9760000D01*
G01X10370000Y2010000D02*
Y3090000D01*
X9770000D01*
Y2010000D01*
X10370000D01*
G01Y3190000D02*
Y4270000D01*
X9770000D01*
Y3190000D01*
X10370000D01*
G01X10970000Y2010000D02*
Y3090000D01*
X10370000D01*
Y2010000D01*
X10970000D01*
G01Y3190000D02*
Y4270000D01*
X10370000D01*
Y3190000D01*
X10970000D01*
G01X11570000Y2010000D02*
Y3090000D01*
X10970000D01*
Y2010000D01*
X11570000D01*
G01Y3190000D02*
Y4270000D01*
X10970000D01*
Y3190000D01*
X11570000D01*
G01X12770000Y2010000D02*
Y3090000D01*
X12170000D01*
Y2010000D01*
X12770000D01*
G01X12170000D02*
Y3090000D01*
X11570000D01*
Y2010000D01*
X12170000D01*
G01X12770000Y3190000D02*
Y4270000D01*
X12170000D01*
Y3190000D01*
X12770000D01*
G01X12170000D02*
Y4270000D01*
X11570000D01*
Y3190000D01*
X12170000D01*
G01X13360000Y2100000D02*
Y3180000D01*
X12760000D01*
Y2100000D01*
X13360000D01*
G01Y3190000D02*
Y4270000D01*
X12760000D01*
Y3190000D01*
X13360000D01*
G01X13280000Y1220000D02*
X13220000Y1280000D01*
G01X13970000Y2100000D02*
Y3180000D01*
X13370000D01*
Y2100000D01*
X13970000D01*
G01X12930000Y1945000D02*
Y2035000D01*
G01D02*
X13110000D01*
G01D02*
Y1945000D01*
G01D02*
X12930000D01*
G01X13970000Y3190000D02*
Y4270000D01*
X13370000D01*
Y3190000D01*
X13970000D01*
G01X14200490Y-134000D02*
Y-711280D01*
G01D02*
X14127770Y-784000D01*
G01X14654990Y-134000D02*
X14200490D01*
G01X14064490Y1016000D02*
Y896000D01*
G01D02*
X14095990D01*
G01D02*
Y526000D01*
G01D02*
X14654990D01*
G01X14170000Y820000D02*
Y730000D01*
G01Y1070000D02*
Y980000D01*
G01X14200000Y570000D02*
X14590000D01*
G01X13980000Y1280000D02*
X13920000Y1220000D01*
G01X14580000D02*
X14230000D01*
G01X13920000Y1980000D02*
X13980000Y1920000D01*
G01X14630000Y2000000D02*
Y3080000D01*
X14030000D01*
Y2000000D01*
X14630000D01*
G01X14000000Y4170000D02*
Y3090000D01*
X14600000D01*
Y4170000D01*
X14000000D01*
G01X14245000Y4325000D02*
Y4615000D01*
X14375000D01*
Y4325000D01*
X14245000D01*
G01X14096010Y5474000D02*
Y5104000D01*
G01D02*
X14064510D01*
G01D02*
Y4984000D01*
G01X14655010Y5474000D02*
X14096010D01*
G01X14200510Y6711280D02*
Y6134000D01*
G01D02*
X14655010D01*
G01X14127790Y6784000D02*
X14200510Y6711280D01*
G01X14654990Y526000D02*
Y-134000D01*
G01X14720000Y570000D02*
X14910000D01*
Y1220000D01*
X14730000D01*
G01X15303000Y1163000D02*
Y3141000D01*
X14603000D01*
Y1163000D01*
X15303000D01*
G01X14770000Y3095000D02*
Y3265000D01*
G01X15090000Y3095000D02*
X14770000D01*
G01X14780000Y3180000D02*
G03I-80000J0D01*
G01X15055000Y3340000D02*
X14785000D01*
Y3460000D01*
X15055000D01*
Y3340000D01*
G01X14770000Y3265000D02*
X15090000D01*
G01X15720000Y4166000D02*
X14480000D01*
G01D02*
Y5422000D01*
G01X14655010Y6134000D02*
Y5474000D01*
G01X14480000Y5422000D02*
X15720000D01*
G01X15245000Y3415000D02*
Y3125000D01*
X15115000D01*
Y3415000D01*
X15245000D01*
G01X15090000Y3265000D02*
Y3095000D01*
G01X15720000Y5422000D02*
Y4166000D01*
G54D14*
G01X14515000Y900000D02*
X14528330Y887500D01*
X14543330Y880000D01*
X14556670D01*
X14570000Y887500D01*
X14580000Y900000D01*
X14585000Y917500D01*
X14581670Y935000D01*
X14573330Y950000D01*
X14558330Y960000D01*
X14538330Y965000D01*
X14526670Y975000D01*
X14521670Y992500D01*
X14525000Y1010000D01*
X14533330Y1022500D01*
X14545000Y1030000D01*
X14556670D01*
X14568330Y1025000D01*
X14578330Y1012500D01*
G01X14610000Y1030000D02*
X14633330Y880000D01*
X14660000Y1030000D01*
X14686670Y880000D01*
X14710000Y1030000D01*
G01X14770000Y880000D02*
Y1030000D01*
X14750000Y1000000D01*
G01Y880000D02*
X14790000D01*
M02*
