M48
METRIC
T01C.3
T02C.6
T03C.65
T04C.7
T05C.9
T06C1.
T07C1.3
T08C1.3
T09C1.6
T10C2.8
T11C3.3
;LEADER: 12 
;HEADER: 
;CODE  : ASCII 
;FILE  : CPI2_MAIN-1-6.drl for  ... layers TOP and BOTTOM
;DESIGN: CPI2_MAIN.brd
;T01 Holesize 1. = 0.300000 Tolerance = +0.000000/-0.000000 PLATED MM Quantity = 149
;T02 Holesize 2. = 0.600000 Tolerance = +0.000000/-0.000000 PLATED MM Quantity = 392
;T03 Holesize 3. = 0.650000 Tolerance = +0.100000/-0.100000 PLATED MM Quantity = 5
;T04 Holesize 4. = 0.700000 Tolerance = +0.000000/-0.000000 PLATED MM Quantity = 1
;T05 Holesize 5. = 0.900000 Tolerance = +0.000000/-0.000000 PLATED MM Quantity = 5
;T06 Holesize 6. = 1.000000 Tolerance = +0.000000/-0.000000 PLATED MM Quantity = 300
;T07 Holesize 7. = 1.300000 Tolerance = +0.000000/-0.000000 PLATED MM Quantity = 200
;T08 Holesize 8. = 1.300000 Tolerance = +0.100000/-0.100000 PLATED MM Quantity = 14
;T09 Holesize 9. = 1.600000 Tolerance = +0.000000/-0.000000 PLATED MM Quantity = 4
;T10 Holesize 10. = 2.800000 Tolerance = +0.000000/-0.000000 PLATED MM Quantity = 4
;T11 Holesize 11. = 3.300000 Tolerance = +0.000000/-0.000000 NON_PLATED MM Quantity = 4
%
G90
T01
X139327Y011742
X131400Y019327
X132673Y020250
X137250Y012900
X142035Y016492
X142549Y015978
X134500Y056546
X142550Y017166
X137300Y057325
X037700Y040600
X135300Y056525
X138250Y021400
X007850Y029950
X135325Y013500
X124350Y035275
X137949Y013101
X135875Y012900
X138575Y013650
X137850Y013900
X141879Y054779
X139250Y017750
X138100Y057125
X136200Y016200
X005173Y029000
X007873Y030900
X144050Y045100
X150050Y052500
X150950Y035973
X150495Y043105
X150498Y039295
X141965Y013000
X034550Y018450
X039350Y020350
X143327Y018050
X000900Y035623
X109127Y032350
X104450Y030450
X138600Y012777
X130600Y019200
X133750Y019100
X135250Y019050
X132750Y015250
X136834Y017808
X138623Y016600
X144039Y020544
X139500Y021177
X072950Y032350
X068350Y030450
X151977Y052500
X012300Y059200
X017300Y059200
X027300Y059200
X022300Y059200
X037300Y059200
X032300Y059200
X042300Y059200
X052300Y059200
X047300Y059200
R02X010000
X062300Y059200
R02X010000
X077300Y059200
R02X010000
X092300Y059200
R02X010000
X107300Y059200
R02X010000
X122300Y059200
X132300Y059200
X137300Y059200
X013900Y000800
X138900Y000800
X018900Y000800
R03X005000
X043900Y000800
X038900Y000800
X048900Y000800
X058900Y000800
X053900Y000800
R02X010000
X068900Y000800
R02X010000
X083900Y000800
R02X010000
X098900Y000800
R02X010000
X113900Y000800
R02X010000
X128900Y000800
X141130Y055225
X073700Y040000
X133142Y013458
X130861Y040579
X106200Y039475
X132800Y014500
X130300Y036700
X136100Y017775
X139900Y012600
X137075Y028800
X137075Y029527
X005173Y029950
X134800Y012793
X125000Y035800
X144100Y043900
X146127Y047125
X151950Y047500
X151950Y046773
X150450Y046700
X151950Y048200
X151950Y048950
X152000Y049900
X151250Y049900
X150550Y049900
X000950Y040477
X136179Y016979
X143950Y019000
X069700Y040200
X130700Y013250
X130650Y039850
X144800Y042850
X148695Y049737
X037100Y040100
X134275Y013425
X140400Y048800
X136545Y015445
X002000Y038550
X138950Y021700
X005173Y030900
X004446Y030900
X133750Y012777
X138495Y017397
X111950Y034200
X130700Y014150
X129900Y035400
X149350Y037850
X150498Y041835
X141278Y017726
T02
X126300Y021700
X126300Y024900
X126300Y027100
X126300Y029300
X123100Y029300
R02Y-002200
X123100Y021700
X120300Y021700
X120300Y024900
R02Y002200
X117100Y029300
R02Y-002200
X117100Y021700
X114300Y033500
X114300Y036700
X114300Y038900
X114300Y041100
X111100Y041100
R02Y-002200
X111100Y033500
X126300Y033500
X126300Y036700
R02Y002200
X123100Y041100
R02Y-002200
X123100Y033500
X120300Y033500
X120300Y036700
R02Y002200
X117100Y041100
R02Y-002200
X117100Y033500
X114300Y021700
X114300Y024900
X114300Y027100
X114300Y029300
X111100Y029300
R02Y-002200
X111100Y021700
X108300Y033500
X108300Y036700
X108300Y038900
X108300Y041100
X105100Y041100
R02Y-002200
X105100Y033500
X102300Y033500
X102300Y036700
R02Y002200
X099100Y041100
R02Y-002200
X099100Y033500
X096200Y021700
X096200Y024900
X096200Y027100
X096200Y029300
X093000Y029300
R02Y-002200
X093000Y021700
X108300Y021700
X108300Y024900
R02Y002200
X105100Y029300
R02Y-002200
X105100Y021700
X102300Y021700
X102300Y024900
R02Y002200
X099100Y029300
R02Y-002200
X099100Y021700
X096200Y033500
X096200Y036700
X096200Y038900
X096200Y041100
X093000Y041100
R02Y-002200
X093000Y033500
X090200Y033500
X090200Y036700
R02Y002200
X087000Y041100
R02Y-002200
X087000Y033500
X084200Y033500
X084200Y036700
R02Y002200
X081000Y041100
R02Y-002200
X081000Y033500
X078200Y033500
X078200Y036700
R02Y002200
X075000Y041100
R02Y-002200
X075000Y033500
X090200Y021700
X090200Y024900
X090200Y027100
X090200Y029300
X087000Y029300
R02Y-002200
X087000Y021700
X084200Y021700
X084200Y024900
R02Y002200
X081000Y029300
R02Y-002200
X081000Y021700
X078200Y021700
X078200Y024900
R02Y002200
X075000Y029300
R02Y-002200
X075000Y021700
X072200Y033500
X072200Y036700
X072200Y038900
X072200Y041100
X069000Y041100
R02Y-002200
X069000Y033500
X066200Y033500
X066200Y036700
R02Y002200
X063000Y041100
R02Y-002200
X063000Y033500
X060200Y033500
X060200Y036700
R02Y002200
X057000Y041100
R02Y-002200
X057000Y033500
X072200Y021700
X072200Y024900
X072200Y027100
X072200Y029300
X069000Y029300
R02Y-002200
X069000Y021700
X066200Y021700
X066200Y024900
R02Y002200
X063000Y029300
R02Y-002200
X063000Y021700
X060200Y021700
X060200Y024900
R02Y002200
X057000Y029300
R02Y-002200
X057000Y021700
X054200Y033500
X054200Y036700
X054200Y038900
X054200Y041100
X051000Y041100
R02Y-002200
X051000Y033500
X048200Y033500
X048200Y036700
R02Y002200
X045000Y041100
R02Y-002200
X045000Y033500
X042200Y033500
X042200Y036700
R02Y002200
X039000Y041100
R02Y-002200
X039000Y033500
X054200Y021700
X054200Y024900
X054200Y027100
X054200Y029300
X051000Y029300
R02Y-002200
X051000Y021700
X048200Y021700
X048200Y024900
R02Y002200
X045000Y029300
R02Y-002200
X045000Y021700
X042200Y021700
X042200Y024900
R02Y002200
X039000Y029300
R02Y-002200
X039000Y021700
X036200Y033500
X036200Y036700
X036200Y038900
X036200Y041100
X033000Y041100
R02Y-002200
X033000Y033500
X030200Y033500
X030200Y036700
R02Y002200
X027000Y041100
R02Y-002200
X027000Y033500
X024200Y033500
X024200Y036700
R02Y002200
X021000Y041100
R02Y-002200
X021000Y033500
X036200Y021700
X036200Y024900
X036200Y027100
X036200Y029300
X033000Y029300
R02Y-002200
X033000Y021700
X030200Y021700
X030200Y024900
R02Y002200
X027000Y029300
R02Y-002200
X027000Y021700
X024200Y021700
X024200Y024900
R02Y002200
X021000Y029300
R02Y-002200
X021000Y021700
X018200Y033500
X018200Y036700
X018200Y038900
X018200Y041100
X015000Y041100
R02Y-002200
X015000Y033500
X012100Y031900
X012100Y035100
X012100Y037300
X012100Y039500
X008900Y039500
R02Y-002200
X008900Y031900
X006000Y031900
X006000Y035100
R02Y002200
X002800Y039500
R02Y-002200
X002800Y031900
X018200Y021700
X018200Y024900
X018200Y027100
X018200Y029300
X015000Y029300
R02Y-002200
X015000Y021700
X012100Y020400
X012100Y023600
X012100Y025800
X012100Y028000
X008900Y028000
R02Y-002200
X008900Y020400
X006000Y020400
X006000Y023600
R02Y002200
X002800Y028000
R02Y-002200
X002800Y020400
X010200Y011100
X007000Y011100
X004800Y011100
X002600Y011100
X002600Y007900
R02X002200
X010200Y007900
X138300Y022600
X138300Y025800
X138300Y028000
X138300Y030200
X135100Y030200
R02Y-002200
X135100Y022600
X132200Y022600
X132200Y025800
R02Y002200
X129000Y030200
R02Y-002200
X129000Y022600
X144900Y021600
X144900Y024800
X144900Y027000
X144900Y029200
X141700Y029200
R02Y-002200
X141700Y021600
X141400Y040100
X141400Y036900
X141400Y034700
X141400Y032500
X144600Y032500
R02Y002200
X144600Y040100
X138300Y033500
X138300Y036700
X138300Y038900
X138300Y041100
X135100Y041100
R02Y-002200
X135100Y033500
X132200Y033500
X132200Y036700
R02Y002200
X129000Y041100
R02Y-002200
X129000Y033500
T03
X129700Y013100
R04Y001270
T04
X147000Y031800
T05
X146540Y011540
X146540Y006460
X141460Y006460
R02Y002540
T06
X014270Y010080
R49X002540
X014270Y007540
R49X002540
X014270Y005000
R49X002540
X138730Y049920
R49X-002540
X138730Y052460
R49X-002540
X138730Y055000
R49X-002540
T07
X126800Y016700
X126800Y014160
X124260Y016700
X124260Y014160
X121720Y016700
X121720Y014160
X119180Y016700
X119180Y014160
X116640Y016700
X116640Y014160
X114100Y016700
X114100Y014160
X111560Y016700
X111560Y014160
X109020Y016700
X109020Y014160
X106480Y016700
X106480Y014160
X103940Y016700
X103940Y014160
X101400Y016700
X101400Y014160
X098860Y016700
X098860Y014160
X096320Y016700
X096320Y014160
X093780Y016700
X093780Y014160
X091240Y016700
X091240Y014160
X088700Y016700
X088700Y014160
X086160Y016700
X086160Y014160
X083620Y016700
X083620Y014160
X081080Y016700
X081080Y014160
X078540Y016700
X078540Y014160
X076000Y016700
X076000Y014160
X073460Y016700
X073460Y014160
X070920Y016700
X070920Y014160
X068380Y016700
X068380Y014160
X065840Y016700
X065840Y014160
X063300Y016700
X063300Y014160
X060760Y016700
X060760Y014160
X058220Y016700
X058220Y014160
X055680Y016700
X055680Y014160
X053140Y016700
X053140Y014160
X050600Y016700
X050600Y014160
X048060Y016700
X048060Y014160
X045520Y016700
X045520Y014160
X042980Y016700
X042980Y014160
X040440Y016700
X040440Y014160
X037900Y016700
X037900Y014160
X035360Y016700
X035360Y014160
X032820Y016700
X032820Y014160
X030280Y016700
X030280Y014160
X027740Y016700
X027740Y014160
X025200Y016700
X025200Y014160
X022660Y016700
X022660Y014160
X020120Y016700
X020120Y014160
X017580Y016700
X017580Y014160
X015040Y016700
X015040Y014160
X012500Y016700
X012500Y014160
X009960Y016700
X009960Y014160
X007420Y016700
X007420Y014160
X004880Y016700
X004880Y014160
X002340Y016700
X002340Y014160
X138500Y047100
X138500Y044560
X135960Y047100
X135960Y044560
X133420Y047100
X133420Y044560
X130880Y047100
X130880Y044560
X128340Y047100
X128340Y044560
X125800Y047100
X125800Y044560
X123260Y047100
X123260Y044560
X120720Y047100
X120720Y044560
X118180Y047100
X118180Y044560
X115640Y047100
X115640Y044560
X113100Y047100
X113100Y044560
X110560Y047100
X110560Y044560
X108020Y047100
X108020Y044560
X105480Y047100
X105480Y044560
X102940Y047100
X102940Y044560
X100400Y047100
X100400Y044560
X097860Y047100
X097860Y044560
X095320Y047100
X095320Y044560
X092780Y047100
X092780Y044560
X090240Y047100
X090240Y044560
X087700Y047100
X087700Y044560
X085160Y047100
X085160Y044560
X082620Y047100
X082620Y044560
X080080Y047100
X080080Y044560
X077540Y047100
X077540Y044560
X075000Y047100
X075000Y044560
X072460Y047100
X072460Y044560
X069920Y047100
X069920Y044560
X067380Y047100
X067380Y044560
X064840Y047100
X064840Y044560
X062300Y047100
X062300Y044560
X059760Y047100
X059760Y044560
X057220Y047100
X057220Y044560
X054680Y047100
X054680Y044560
X052140Y047100
X052140Y044560
X049600Y047100
X049600Y044560
X047060Y047100
X047060Y044560
X044520Y047100
X044520Y044560
X041980Y047100
X041980Y044560
X039440Y047100
X039440Y044560
X036900Y047100
X036900Y044560
X034360Y047100
X034360Y044560
X031820Y047100
X031820Y044560
X029280Y047100
X029280Y044560
X026740Y047100
X026740Y044560
X024200Y047100
X024200Y044560
X021660Y047100
X021660Y044560
X019120Y047100
X019120Y044560
X016580Y047100
X016580Y044560
X014040Y047100
X014040Y044560
T08
X150800Y013900
X148260Y013900
X150800Y016440
X148260Y016440
X150800Y018980
X148260Y018980
X150800Y021520
X148260Y021520
X150800Y024060
X148260Y024060
X150800Y026600
X148260Y026600
X150800Y029140
X148260Y029140
T09
X005998Y050213
X005998Y045133
X147000Y045400
X147000Y050480
T10
X143810Y002460
X009190Y002460
X009190Y057540
X143810Y057540
T11
X003000Y003000
X003000Y057000
X150000Y057000
X150000Y003000
M30
