G04 ================== begin FILE IDENTIFICATION RECORD ==================*
G04 Layout Name:  C:/NOW_WORK/VoloKh/CPI2/MAIN/BRD/CPI2_MAIN.brd*
G04 Film Name:    L4-PWR*
G04 File Format:  Gerber RS274X*
G04 File Origin:  Cadence Allegro 17.2-S074*
G04 Origin Date:  Tue Mar 30 10:27:56 2021*
G04 *
G04 Layer:  BOARD GEOMETRY/OUTLINE*
G04 Layer:  VIA CLASS/L4-PWR*
G04 Layer:  PIN/L4-PWR*
G04 Layer:  ETCH/L4-PWR*
G04 *
G04 Offset:    (0.0000 0.0000)*
G04 Mirror:    No*
G04 Mode:      Positive*
G04 Rotation:  0*
G04 FullContactRelief:  No*
G04 UndefLineWidth:     0.1000*
G04 ================== end FILE IDENTIFICATION RECORD ====================*
%FSLAX25Y25*MOMM*%
%IR0*IPPOS*OFA0.00000B0.00000*MIA0B0*SFA1.00000B1.00000*%
%ADD13C,.6*%
%ADD18C,1.*%
%ADD11C,1.1*%
%ADD21C,1.2*%
%ADD15C,2.1*%
%ADD19C,1.4*%
%ADD10C,3.2*%
%ADD16C,1.5*%
%ADD14C,3.3*%
%ADD17R,2.X2.*%
%ADD20C,1.9*%
%ADD12C,1.75*%
%ADD22C,.4*%
%ADD23C,.15*%
%ADD24C,.1*%
%ADD29C,.9004*%
%ADD30R,2.3004X2.3004*%
%ADD31C,2.2004*%
%ADD25C,1.4004*%
%ADD32C,1.5004*%
%ADD28C,2.4004*%
%ADD27C,2.0504*%
%ADD26C,1.8004*%
G75*
%LPD*%
G75*
G36*
G01X13459940Y144940D02*
X1330270Y149730D01*
X1050000Y430000D01*
X570000D01*
X355000Y645000D01*
Y1155000D01*
X405000Y1205000D01*
X545000D01*
X605000Y1145000D01*
Y870000D01*
X643560Y831440D01*
G03X741440Y733560I56440J-41440D01*
G01X785000Y690000D01*
X1363690D01*
G03X1490310I63310J64000D01*
G01X1617690D01*
G03X1744310I63310J64000D01*
G01X1871690D01*
G03X1998310I63310J64000D01*
G01X2125690D01*
G03X2252310I63310J64000D01*
G01X2379690D01*
G03X2506310I63310J64000D01*
G01X2633690D01*
G03X2760310I63310J64000D01*
G01X2887690D01*
G03X3014310I63310J64000D01*
G01X3094980D01*
Y663780D01*
X3163830Y594920D01*
G02X3161550Y578840I-7182J-7183D01*
G03X3280350Y549260I43452J-78840D01*
G02X3288850Y564980I8501J5561D01*
G01X3375150D01*
G02X3383650Y549260I-1J-10159D01*
G03X3534350I75350J-49260D01*
G02X3542850Y564980I8501J5561D01*
G01X3629150D01*
G02X3637650Y549260I-1J-10159D01*
G03X3788350I75350J-49260D01*
G02X3796850Y564980I8501J5561D01*
G01X3883150D01*
G02X3891650Y549260I-1J-10159D01*
G03X4042350I75350J-49260D01*
G02X4050850Y564980I8501J5561D01*
G01X4137150D01*
G02X4145650Y549260I-1J-10159D01*
G03X4296350I75350J-49260D01*
G02X4304850Y564980I8501J5561D01*
G01X4391150D01*
G02X4399650Y549260I-1J-10159D01*
G03X4555710Y460130I75354J-49250D01*
G02X4574980Y455630I9111J-4496D01*
G01Y364980D01*
X4875020D01*
Y564980D01*
X4899150D01*
G02X4907650Y549260I-1J-10159D01*
G03X5058350I75350J-49260D01*
G02X5066850Y564980I8501J5561D01*
G01X5153150D01*
G02X5161650Y549260I-1J-10159D01*
G03X5312350I75350J-49260D01*
G02X5320850Y564980I8501J5561D01*
G01X5407150D01*
G02X5415650Y549260I-1J-10159D01*
G03X5566350I75350J-49260D01*
G02X5574850Y564980I8501J5561D01*
G01X5661150D01*
G02X5669650Y549260I-1J-10159D01*
G03X5820350I75350J-49260D01*
G02X5828850Y564980I8501J5561D01*
G01X5915150D01*
G02X5923650Y549260I-1J-10159D01*
G03X6074350I75350J-49260D01*
G02X6082850Y564980I8501J5561D01*
G01X6169150D01*
G02X6177650Y549260I-1J-10159D01*
G03X6321570Y441670I75350J-49260D01*
G02X6336490Y442270I7737J-6584D01*
G01X6413780Y364980D01*
X6596220D01*
X6646310Y415070D01*
G02X6654980Y411470I3590J-3595D01*
G01Y403780D01*
X6693780Y364980D01*
X6866220D01*
X6937280Y436040D01*
G02X6951620Y436070I7185J-7182D01*
G03X7090350Y549260I63386J63923D01*
G02X7098850Y564980I8501J5561D01*
G01X7185150D01*
G02X7193650Y549260I-1J-10159D01*
G03X7344350I75350J-49260D01*
G02X7352850Y564980I8501J5561D01*
G01X7439150D01*
G02X7447650Y549260I-1J-10159D01*
G03X7598350I75350J-49260D01*
G02X7606850Y564980I8501J5561D01*
G01X7693150D01*
G02X7701650Y549260I-1J-10159D01*
G03X7852350I75350J-49260D01*
G02X7860850Y564980I8501J5561D01*
G01X7947150D01*
G02X7955650Y549260I-1J-10159D01*
G03X8106350I75350J-49260D01*
G02X8114850Y564980I8501J5561D01*
G01X8201150D01*
G02X8209650Y549260I-1J-10159D01*
G03X8348930Y563380I75349J-49259D01*
G02X8348960Y577720I7212J7155D01*
G01X8392640Y621390D01*
G02X8409980Y614210I7182J-7183D01*
G01Y408780D01*
X8463780Y354980D01*
X8636220D01*
X8716300Y435050D01*
G02X8730530Y435180I7181J-7183D01*
G03X8873510Y540270I62470J64817D01*
G02X8882590Y554980I9084J4550D01*
G01X8957410D01*
G02X8966490Y540270I-4J-10160D01*
G03X9127510I80510J-40270D01*
G02X9136590Y554980I9084J4550D01*
G01X9211410D01*
G02X9220490Y540270I-4J-10160D01*
G03X9381510I80510J-40270D01*
G02X9390590Y554980I9084J4550D01*
G01X9465410D01*
G02X9474490Y540270I-4J-10160D01*
G03X9635510I80510J-40270D01*
G02X9644590Y554980I9084J4550D01*
G01X9719410D01*
G02X9728490Y540270I-4J-10160D01*
G03X9889510I80510J-40270D01*
G02X9898590Y554980I9084J4550D01*
G01X9973410D01*
G02X9982490Y540270I-4J-10160D01*
G03X10143510I80510J-40270D01*
G02X10152590Y554980I9084J4550D01*
G01X10227410D01*
G02X10236490Y540270I-4J-10160D01*
G03X10370310Y572530I80507J-40272D01*
G02X10369150Y587900I6021J8183D01*
G01X10427640Y646390D01*
G02X10444980Y639210I7182J-7183D01*
G01Y383780D01*
X10483780Y344980D01*
X10656220D01*
X10747280Y436040D01*
G02X10761620Y436070I7185J-7182D01*
G03X10909410Y531290I63382J63927D01*
G02X10918930Y544980I9525J3531D01*
G01X10985070D01*
G02X10994590Y531290I-5J-10159D01*
G03X11163410I84410J-31290D01*
G02X11172930Y544980I9525J3531D01*
G01X11239070D01*
G02X11248590Y531290I-5J-10159D01*
G03X11417410I84410J-31290D01*
G02X11426930Y544980I9525J3531D01*
G01X11493070D01*
G02X11502590Y531290I-5J-10159D01*
G03X11671410I84410J-31290D01*
G02X11680930Y544980I9525J3531D01*
G01X11747070D01*
G02X11756590Y531290I-5J-10159D01*
G03X11925410I84410J-31290D01*
G02X11934930Y544980I9525J3531D01*
G01X12001070D01*
G02X12010590Y531290I-5J-10159D01*
G03X12160250Y562010I84406J-31291D01*
G01X12156840Y565600D01*
X12225020Y633780D01*
Y836220D01*
X12143620Y917620D01*
G02X12145150Y933240I7186J7181D01*
G03X12018510Y960540I-50147J74759D01*
G02X12009880Y945020I-8632J-5360D01*
G01X11926120D01*
G02X11917490Y960540I2J10160D01*
G03X11764510I-76490J47460D01*
G02X11755880Y945020I-8632J-5360D01*
G01X11672120D01*
G02X11663490Y960540I2J10160D01*
G03X11510510I-76490J47460D01*
G02X11501880Y945020I-8632J-5360D01*
G01X11418120D01*
G02X11409490Y960540I2J10160D01*
G03X11256510I-76490J47460D01*
G02X11247880Y945020I-8632J-5360D01*
G01X11164120D01*
G02X11155490Y960540I2J10160D01*
G03X11039610Y1088940I-76492J47457D01*
G02X11025000Y1098080I-4449J9135D01*
G01Y1735000D01*
X11090000Y1800000D01*
X12260000D01*
X12337730Y1722270D01*
X12335920Y1718940D01*
G03X12474940Y1579920I90080J-48940D01*
G01X12478270Y1581730D01*
X12591730Y1468270D01*
X12589920Y1464940D01*
G03X12728940Y1325920I90080J-48940D01*
G01X12732270Y1327730D01*
X12950000Y1110000D01*
X13750000D01*
X13799650Y1060350D01*
X13797420Y1056900D01*
G03X13921900Y932420I75580J-48900D01*
G01X13925350Y934650D01*
X13970000Y890000D01*
Y803950D01*
G02X13951030Y798880I-10161J-6D01*
G03Y709120I-78030J-44880D01*
G02X13970000Y704050I8809J-5064D01*
G01Y655000D01*
X13900700Y585700D01*
X13897830Y586530D01*
G03X13786470Y475170I-24830J-86530D01*
G01X13787300Y472300D01*
X13459940Y144940D01*
G37*
G36*
G01X338490Y1975000D02*
G02X331080Y1992110I1J10160D01*
G03X232130Y2091100I-51086J47884D01*
G02X215020Y2098510I-6950J7411D01*
G01Y2301490D01*
G02X232130Y2308900I10160J-1D01*
G03Y2411100I47870J51100D01*
G02X215020Y2418510I-6950J7411D01*
G01Y2521490D01*
G02X232130Y2528900I10160J-1D01*
G03Y2631100I47870J51100D01*
G02X215020Y2638510I-6950J7411D01*
G01Y2741490D01*
G02X232130Y2748900I10160J-1D01*
G03X224150Y2842230I47870J51099D01*
G01X222630Y2840220D01*
X215020D01*
Y2859280D01*
X245720Y2889980D01*
X315720D01*
X465720Y3039980D01*
X474490D01*
G02X482380Y3023410I6J-10161D01*
G03X494390Y2956250I34922J-28409D01*
G02Y2938750I-5171J-8750D01*
G03X540210I22910J-38750D01*
G02Y2956250I5171J8750D01*
G03X543960Y3031280I-22910J38754D01*
G02X544460Y3048000I6016J8188D01*
G03X562870Y3110630I-27159J42004D01*
G02X575650Y3124350I9253J4193D01*
G03X540090Y3153760I24353J65648D01*
G02X529010Y3138630I-8697J-5253D01*
G03X517300Y3140020I-11710J-48630D01*
G01X444600D01*
G03X405830Y3121610I0J-50028D01*
G01X405670Y3121410D01*
X274280Y2990020D01*
X210000D01*
Y3136630D01*
G02X227740Y3143400I10160J5D01*
G03Y3236600I52260J46600D01*
G02X210000Y3243370I-7580J6765D01*
G01Y3270000D01*
X345000Y3405000D01*
X1433530D01*
G02X1441950Y3389160I-1J-10158D01*
G03X1556620Y3308810I58042J-39166D01*
G02X1575000Y3302840I8219J-5973D01*
G01Y2977160D01*
G02X1556620Y2971190I-10161J3D01*
G03Y2888810I-56620J-41190D01*
G02X1575000Y2882840I8219J-5973D01*
G01Y2757160D01*
G02X1556620Y2751190I-10161J3D01*
G03Y2668810I-56620J-41190D01*
G02X1575000Y2662840I8219J-5973D01*
G01Y2537160D01*
G02X1556620Y2531190I-10161J3D01*
G03Y2448810I-56620J-41190D01*
G02X1575000Y2442840I8219J-5973D01*
G01Y2217160D01*
G02X1556620Y2211190I-10161J3D01*
G03Y2128810I-56620J-41190D01*
G02X1575000Y2122840I8219J-5973D01*
G01Y2100000D01*
X1450000Y1975000D01*
X1268490D01*
G02X1261080Y1992110I1J10160D01*
G03X1158920I-51080J47890D01*
G02X1151510Y1975000I-7411J-6950D01*
G01X948490D01*
G02X941080Y1992110I1J10160D01*
G03X838920I-51080J47890D01*
G02X831510Y1975000I-7411J-6950D01*
G01X658490D01*
G02X651080Y1992110I1J10160D01*
G03X548920I-51080J47890D01*
G02X541510Y1975000I-7411J-6950D01*
G01X338490D01*
G37*
G36*
G01X805000Y740000D02*
X768710Y776290D01*
X769130Y778850D01*
G03X688850Y859130I-69130J11150D01*
G01X686290Y858710D01*
X620020Y924980D01*
Y1070580D01*
G02X639030Y1075580I10161J4D01*
G03Y1144420I60970J34420D01*
G02X620020Y1149420I-8849J4996D01*
G01Y1151220D01*
X609790Y1161450D01*
X610000Y1180000D01*
X605000Y1185000D01*
Y1840000D01*
X885000D01*
X925000Y1800000D01*
Y1743960D01*
G03Y1596040I71000J-73960D01*
G01Y1489960D01*
G03Y1342040I71000J-73960D01*
G01Y1035000D01*
X1080000Y880000D01*
Y852810D01*
G02X1063520Y844850I-10160J-4D01*
G03X959240Y755210I-43515J-54854D01*
G02X950420Y740000I-8818J-5049D01*
G01X805000D01*
G37*
G36*
G01X13874900Y5410000D02*
X14390000D01*
X14635890Y5164110D01*
G02X14634270Y5148420I-7181J-7187D01*
G03X14800420Y4982270I65730J-100420D01*
G02X14816110Y4983890I8503J-5561D01*
G01X14824470Y4975530D01*
X14824480Y4973440D01*
G03X14869240Y4928680I45020J260D01*
G01X14871330Y4928670D01*
X14875000Y4925000D01*
Y4475000D01*
X14800000Y4400000D01*
X14454050D01*
X14452930Y4403550D01*
G03X14367070I-42930J-13550D01*
G01X14365950Y4400000D01*
X13952930D01*
G02X13943650Y4414290I3J10160D01*
G03X13756350I-93650J41710D01*
G02X13747070Y4400000I-9283J-4130D01*
G01X13698930D01*
G02X13689650Y4414290I3J10160D01*
G03X13502350I-93650J41710D01*
G02X13493070Y4400000I-9283J-4130D01*
G01X13444930D01*
G02X13435650Y4414290I3J10160D01*
G03X13248350I-93650J41710D01*
G02X13239070Y4400000I-9283J-4130D01*
G01X13190930D01*
G02X13181650Y4414290I3J10160D01*
G03X12994350I-93650J41710D01*
G02X12985070Y4400000I-9283J-4130D01*
G01X12936930D01*
G02X12927650Y4414290I3J10160D01*
G03X12740350I-93650J41710D01*
G02X12731070Y4400000I-9283J-4130D01*
G01X12682930D01*
G02X12673650Y4414290I3J10160D01*
G03X12486350I-93650J41710D01*
G02X12477070Y4400000I-9283J-4130D01*
G01X12428930D01*
G02X12419650Y4414290I3J10160D01*
G03X12232350I-93650J41710D01*
G02X12223070Y4400000I-9283J-4130D01*
G01X12174930D01*
G02X12165650Y4414290I3J10160D01*
G03X11978350I-93650J41710D01*
G02X11969070Y4400000I-9283J-4130D01*
G01X11920930D01*
G02X11911650Y4414290I3J10160D01*
G03X11724350I-93650J41710D01*
G02X11715070Y4400000I-9283J-4130D01*
G01X11666930D01*
G02X11657650Y4414290I3J10160D01*
G03X11470350I-93650J41710D01*
G02X11461070Y4400000I-9283J-4130D01*
G01X11412930D01*
G02X11403650Y4414290I3J10160D01*
G03X11216350I-93650J41710D01*
G02X11207070Y4400000I-9283J-4130D01*
G01X11158930D01*
G02X11149650Y4414290I3J10160D01*
G03X10962350I-93650J41710D01*
G02X10953070Y4400000I-9283J-4130D01*
G01X10904930D01*
G02X10895650Y4414290I3J10160D01*
G03X10708350I-93650J41710D01*
G02X10699070Y4400000I-9283J-4130D01*
G01X10650930D01*
G02X10641650Y4414290I3J10160D01*
G03X10454350I-93650J41710D01*
G02X10445070Y4400000I-9283J-4130D01*
G01X10396930D01*
G02X10387650Y4414290I3J10160D01*
G03X10200350I-93650J41710D01*
G02X10191070Y4400000I-9283J-4130D01*
G01X10142930D01*
G02X10133650Y4414290I3J10160D01*
G03X9946350I-93650J41710D01*
G02X9937070Y4400000I-9283J-4130D01*
G01X9888930D01*
G02X9879650Y4414290I3J10160D01*
G03X9692350I-93650J41710D01*
G02X9683070Y4400000I-9283J-4130D01*
G01X9634930D01*
G02X9625650Y4414290I3J10160D01*
G03X9438350I-93650J41710D01*
G02X9429070Y4400000I-9283J-4130D01*
G01X9380930D01*
G02X9371650Y4414290I3J10160D01*
G03X9184350I-93650J41710D01*
G02X9175070Y4400000I-9283J-4130D01*
G01X9126930D01*
G02X9117650Y4414290I3J10160D01*
G03X8930350I-93650J41710D01*
G02X8921070Y4400000I-9283J-4130D01*
G01X8872930D01*
G02X8863650Y4414290I3J10160D01*
G03X8676350I-93650J41710D01*
G02X8667070Y4400000I-9283J-4130D01*
G01X8618930D01*
G02X8609650Y4414290I3J10160D01*
G03X8422350I-93650J41710D01*
G02X8413070Y4400000I-9283J-4130D01*
G01X8364930D01*
G02X8355650Y4414290I3J10160D01*
G03X8168350I-93650J41710D01*
G02X8159070Y4400000I-9283J-4130D01*
G01X8110930D01*
G02X8101650Y4414290I3J10160D01*
G03X7914350I-93650J41710D01*
G02X7905070Y4400000I-9283J-4130D01*
G01X7856930D01*
G02X7847650Y4414290I3J10160D01*
G03X7660350I-93650J41710D01*
G02X7651070Y4400000I-9283J-4130D01*
G01X7602930D01*
G02X7593650Y4414290I3J10160D01*
G03X7406350I-93650J41710D01*
G02X7397070Y4400000I-9283J-4130D01*
G01X7348930D01*
G02X7339650Y4414290I3J10160D01*
G03X7152350I-93650J41710D01*
G02X7143070Y4400000I-9283J-4130D01*
G01X7094930D01*
G02X7085650Y4414290I3J10160D01*
G03X6898350I-93650J41710D01*
G02X6889070Y4400000I-9283J-4130D01*
G01X6840930D01*
G02X6831650Y4414290I3J10160D01*
G03X6644350I-93650J41710D01*
G02X6635070Y4400000I-9283J-4130D01*
G01X6586930D01*
G02X6577650Y4414290I3J10160D01*
G03X6390350I-93650J41710D01*
G02X6381070Y4400000I-9283J-4130D01*
G01X6332930D01*
G02X6323650Y4414290I3J10160D01*
G03X6136350I-93650J41710D01*
G02X6127070Y4400000I-9283J-4130D01*
G01X6078930D01*
G02X6069650Y4414290I3J10160D01*
G03X5882350I-93650J41710D01*
G02X5873070Y4400000I-9283J-4130D01*
G01X5824930D01*
G02X5815650Y4414290I3J10160D01*
G03X5628350I-93650J41710D01*
G02X5619070Y4400000I-9283J-4130D01*
G01X5570930D01*
G02X5561650Y4414290I3J10160D01*
G03X5374350I-93650J41710D01*
G02X5365070Y4400000I-9283J-4130D01*
G01X5316930D01*
G02X5307650Y4414290I3J10160D01*
G03X5120350I-93650J41710D01*
G02X5111070Y4400000I-9283J-4130D01*
G01X5062930D01*
G02X5053650Y4414290I3J10160D01*
G03X4866350I-93650J41710D01*
G02X4857070Y4400000I-9283J-4130D01*
G01X4808930D01*
G02X4799650Y4414290I3J10160D01*
G03X4612350I-93650J41710D01*
G02X4603070Y4400000I-9283J-4130D01*
G01X4554930D01*
G02X4545650Y4414290I3J10160D01*
G03X4358350I-93650J41710D01*
G02X4349070Y4400000I-9283J-4130D01*
G01X4300930D01*
G02X4291650Y4414290I3J10160D01*
G03X4104350I-93650J41710D01*
G02X4095070Y4400000I-9283J-4130D01*
G01X4046930D01*
G02X4037650Y4414290I3J10160D01*
G03X3850350I-93650J41710D01*
G02X3841070Y4400000I-9283J-4130D01*
G01X3792930D01*
G02X3783650Y4414290I3J10160D01*
G03X3596350I-93650J41710D01*
G02X3587070Y4400000I-9283J-4130D01*
G01X3538930D01*
G02X3529650Y4414290I3J10160D01*
G03X3342350I-93650J41710D01*
G02X3333070Y4400000I-9283J-4130D01*
G01X3284930D01*
G02X3275650Y4414290I3J10160D01*
G03X3088350I-93650J41710D01*
G02X3079070Y4400000I-9283J-4130D01*
G01X3030930D01*
G02X3021650Y4414290I3J10160D01*
G03X2834350I-93650J41710D01*
G02X2825070Y4400000I-9283J-4130D01*
G01X2776930D01*
G02X2767650Y4414290I3J10160D01*
G03X2580350I-93650J41710D01*
G02X2571070Y4400000I-9283J-4130D01*
G01X2522930D01*
G02X2513650Y4414290I3J10160D01*
G03X2326350I-93650J41710D01*
G02X2317070Y4400000I-9283J-4130D01*
G01X2268930D01*
G02X2259650Y4414290I3J10160D01*
G03X2072350I-93650J41710D01*
G02X2063070Y4400000I-9283J-4130D01*
G01X2014930D01*
G02X2005650Y4414290I3J10160D01*
G03X1818350I-93650J41710D01*
G02X1809070Y4400000I-9283J-4130D01*
G01X1760930D01*
G02X1751650Y4414290I3J10160D01*
G03X1564350I-93650J41710D01*
G02X1555070Y4400000I-9283J-4130D01*
G01X1506930D01*
G02X1497650Y4414290I3J10160D01*
G03X1310350I-93650J41710D01*
G02X1301070Y4400000I-9283J-4130D01*
G01X885000D01*
X430000Y4855000D01*
Y5245000D01*
X595000Y5410000D01*
X1425150D01*
G03X1428850I1850J90000D01*
G01X1679150D01*
G03X1682850I1850J90000D01*
G01X1933150D01*
G03X1936850I1850J90000D01*
G01X2187150D01*
G03X2190850I1850J90000D01*
G01X2441150D01*
G03X2444850I1850J90000D01*
G01X2695150D01*
G03X2698850I1850J90000D01*
G01X2949150D01*
G03X2952850I1850J90000D01*
G01X3203150D01*
G03X3206850I1850J90000D01*
G01X3457150D01*
G03X3460850I1850J90000D01*
G01X3711150D01*
G03X3714850I1850J90000D01*
G01X3965150D01*
G03X3968850I1850J90000D01*
G01X4219150D01*
G03X4222850I1850J90000D01*
G01X4473150D01*
G03X4476850I1850J90000D01*
G01X4727150D01*
G03X4730850I1850J90000D01*
G01X4981150D01*
G03X4984850I1850J90000D01*
G01X5235150D01*
G03X5238850I1850J90000D01*
G01X5489150D01*
G03X5492850I1850J90000D01*
G01X5743150D01*
G03X5746850I1850J90000D01*
G01X5997150D01*
G03X6000850I1850J90000D01*
G01X6251150D01*
G03X6254850I1850J90000D01*
G01X6505150D01*
G03X6508850I1850J90000D01*
G01X6759150D01*
G03X6762850I1850J90000D01*
G01X7013150D01*
G03X7016850I1850J90000D01*
G01X7267150D01*
G03X7270850I1850J90000D01*
G01X7521150D01*
G03X7524850I1850J90000D01*
G01X7775150D01*
G03X7778850I1850J90000D01*
G01X8029150D01*
G03X8032850I1850J90000D01*
G01X8283150D01*
G03X8286850I1850J90000D01*
G01X8537150D01*
G03X8540850I1850J90000D01*
G01X8791150D01*
G03X8794850I1850J90000D01*
G01X9045150D01*
G03X9048850I1850J90000D01*
G01X9299150D01*
G03X9302850I1850J90000D01*
G01X9553150D01*
G03X9556850I1850J90000D01*
G01X9807150D01*
G03X9810850I1850J90000D01*
G01X10061150D01*
G03X10064850I1850J90000D01*
G01X10315150D01*
G03X10318850I1850J90000D01*
G01X10569150D01*
G03X10572850I1850J90000D01*
G01X10823150D01*
G03X10826850I1850J90000D01*
G01X11077150D01*
G03X11080850I1850J90000D01*
G01X11331150D01*
G03X11334850I1850J90000D01*
G01X11585150D01*
G03X11588850I1850J90000D01*
G01X11839150D01*
G03X11842850I1850J90000D01*
G01X12093150D01*
G03X12096850I1850J90000D01*
G01X12347150D01*
G03X12350850I1850J90000D01*
G01X12601150D01*
G03X12604850I1850J90000D01*
G01X12855150D01*
G03X12858850I1850J90000D01*
G01X13109150D01*
G03X13112850I1850J90000D01*
G01X13363150D01*
G03X13366850I1850J90000D01*
G01X13617150D01*
G03X13620850I1850J90000D01*
G01X13871150D01*
G03X13874850I1850J90000D01*
G01X13874900D01*
G37*
G36*
G01X1275000Y714500D02*
Y1316500D01*
X1278660Y1317570D01*
G03X1315530Y1494840I-28662J98431D01*
G02X1314840Y1509840I6494J7815D01*
G01X1410160Y1605160D01*
G02X1425160Y1604470I7185J-7184D01*
G03X1569530Y1748840I78840J65530D01*
G02X1568840Y1763840I6494J7815D01*
G01X2175000Y2370000D01*
X3050000D01*
X3324340Y2644340D01*
X3325330Y2644720D01*
G03X3365650Y2685650I-25331J65278D01*
G01X3558350Y2878350D01*
G02X3572430Y2878620I7180J-7188D01*
G03X3671380Y2977570I47570J51380D01*
G02X3671650Y2991650I7458J6900D01*
G01X4040000Y3360000D01*
X4139820D01*
G02X4149980Y3349860I0J-10160D01*
G03X4290020I70020J140D01*
G02X4300180Y3360000I10160J-20D01*
G01X4419820D01*
G02X4429980Y3349860I0J-10160D01*
G03X4570020I70020J140D01*
G02X4580180Y3360000I10160J-20D01*
G01X4739820D01*
G02X4749980Y3349860I0J-10160D01*
G03X4890020I70020J140D01*
G02X4900180Y3360000I10160J-20D01*
G01X5019820D01*
G02X5029980Y3349860I0J-10160D01*
G03X5170020I70020J140D01*
G02X5180180Y3360000I10160J-20D01*
G01X5339820D01*
G02X5349980Y3349860I0J-10160D01*
G03X5490020I70020J140D01*
G02X5500180Y3360000I10160J-20D01*
G01X5619820D01*
G02X5629980Y3349860I0J-10160D01*
G03X5770020I70020J140D01*
G02X5780180Y3360000I10160J-20D01*
G01X5939820D01*
G02X5949980Y3349860I0J-10160D01*
G03X6086350Y3372360I70019J136D01*
G01X6085350Y3375350D01*
X6310800Y3600800D01*
X6312370Y3601080D01*
G03X6368920Y3657630I-12370J68920D01*
G01X6369200Y3659200D01*
X6553370Y3843370D01*
G02X6568090Y3843010I7189J-7179D01*
G03X6666990Y3941910I51910J46990D01*
G02X6666630Y3956630I6819J7531D01*
G01X6813770Y4103770D01*
G02X6830970Y4098280I7182J-7187D01*
G03X6913990Y4041390I69032J11719D01*
G02X6925960Y4029330I2031J-9955D01*
G03X6971800Y4064980I44040J-9332D01*
G02X6963050Y4079550I402J10154D01*
G03X6911720Y4179030I-63051J30449D01*
G02X6906230Y4196230I1697J10018D01*
G01X6965000Y4255000D01*
X13265000D01*
X13305000Y4215000D01*
Y3896240D01*
X13295020Y3886260D01*
X13290040Y3891250D01*
X13289950Y3893210D01*
G03X13150110Y3885790I-69946J-3217D01*
G02X13139970Y3875020I-10143J-609D01*
G01X12980030D01*
G02X12969890Y3885790I3J10161D01*
G03X12830110I-69890J4210D01*
G02X12819970Y3875020I-10143J-609D01*
G01X12710030D01*
G02X12699890Y3885790I3J10161D01*
G03X12560110I-69890J4210D01*
G02X12549970Y3875020I-10143J-609D01*
G01X12390030D01*
G02X12379890Y3885790I3J10161D01*
G03X12240110I-69890J4210D01*
G02X12229970Y3875020I-10143J-609D01*
G01X12110030D01*
G02X12099890Y3885790I3J10161D01*
G03X11960110I-69890J4210D01*
G02X11949970Y3875020I-10143J-609D01*
G01X11790030D01*
G02X11779890Y3885790I3J10161D01*
G03X11640110I-69890J4210D01*
G02X11629970Y3875020I-10143J-609D01*
G01X11510030D01*
G02X11499890Y3885790I3J10161D01*
G03X11360110I-69890J4210D01*
G02X11349970Y3875020I-10143J-609D01*
G01X11190030D01*
G02X11179890Y3885790I3J10161D01*
G03X11040110I-69890J4210D01*
G02X11029970Y3875020I-10143J-609D01*
G01X10910030D01*
G02X10899890Y3885790I3J10161D01*
G03X10760110I-69890J4210D01*
G02X10749970Y3875020I-10143J-609D01*
G01X10590030D01*
G02X10579890Y3885790I3J10161D01*
G03X10579280Y3900150I-69891J4224D01*
G02X10594980Y3910070I10051J1476D01*
G03X10574990Y3948320I25022J37426D01*
G02X10557880Y3941090I-10159J181D01*
G03X10440110Y3885790I-47878J-51091D01*
G02X10429970Y3875020I-10143J-609D01*
G01X10310030D01*
G02X10299890Y3885790I3J10161D01*
G03X10160110I-69890J4210D01*
G02X10149970Y3875020I-10143J-609D01*
G01X9990030D01*
G02X9979890Y3885790I3J10161D01*
G03X9840110I-69890J4210D01*
G02X9829970Y3875020I-10143J-609D01*
G01X9700030D01*
G02X9689890Y3885790I3J10161D01*
G03X9550110I-69890J4210D01*
G02X9539970Y3875020I-10143J-609D01*
G01X9380030D01*
G02X9369890Y3885790I3J10161D01*
G03X9230110I-69890J4210D01*
G02X9219970Y3875020I-10143J-609D01*
G01X9100030D01*
G02X9089890Y3885790I3J10161D01*
G03X8950110I-69890J4210D01*
G02X8939970Y3875020I-10143J-609D01*
G01X8780030D01*
G02X8769890Y3885790I3J10161D01*
G03X8630110I-69890J4210D01*
G02X8619970Y3875020I-10143J-609D01*
G01X8500030D01*
G02X8489890Y3885790I3J10161D01*
G03X8350110I-69890J4210D01*
G02X8339970Y3875020I-10143J-609D01*
G01X8180030D01*
G02X8169890Y3885790I3J10161D01*
G03X8030110I-69890J4210D01*
G02X8019970Y3875020I-10143J-609D01*
G01X7900030D01*
G02X7889890Y3885790I3J10161D01*
G03X7750110I-69890J4210D01*
G02X7739970Y3875020I-10143J-609D01*
G01X7580030D01*
G02X7569890Y3885790I3J10161D01*
G03X7430110I-69890J4210D01*
G02X7419970Y3875020I-10143J-609D01*
G01X7403780D01*
X7403760Y3875000D01*
X7340000D01*
X7202920Y3737920D01*
X7201610Y3737560D01*
G03X7152440Y3688390I18390J-67560D01*
G01X7152080Y3687080D01*
X6882920Y3417920D01*
X6881610Y3417560D01*
G03X6832440Y3368390I18390J-67560D01*
G01X6832080Y3367080D01*
X6430000Y2965000D01*
X6360640D01*
G03X6239360I-60640J-35000D01*
G01X6080640D01*
G03X5959360I-60640J-35000D01*
G01X5760640D01*
G03X5639360I-60640J-35000D01*
G01X5480640D01*
G03X5359360I-60640J-35000D01*
G01X5160640D01*
G03X5040790Y2967370I-60641J-35002D01*
G01X5039290Y2965000D01*
X5035000D01*
X4845350Y2775350D01*
X4842360Y2776350D01*
G03X4753650Y2687640I-22360J-66350D01*
G01X4754650Y2684650D01*
X4581900Y2511900D01*
G02X4565250Y2515400I-7182J7186D01*
G03X4474600Y2424750I-65250J-25400D01*
G02X4478100Y2408100I-3686J-9468D01*
G01X4410000Y2340000D01*
X3695000D01*
X3586480Y2231480D01*
X3585860Y2231130D01*
G03X3558870Y2204140I34140J-61130D01*
G01X3558520Y2203520D01*
X3195000Y1840000D01*
X2175000D01*
X2080910Y1745910D01*
G03X2028230Y1568770I-68908J-75911D01*
G02X2040000Y1558740I1611J-10030D01*
G01Y1527260D01*
G02X2028230Y1517230I-10159J0D01*
G03Y1314770I-16230J-101230D01*
G02X2040000Y1304740I1611J-10030D01*
G01Y1275000D01*
X2175000Y1140000D01*
X3030000D01*
X3080000Y1090000D01*
Y760000D01*
X3057970Y737970D01*
G02X3040670Y746050I-7180J7187D01*
G03X2864810Y728030I-89668J7951D01*
G02X2855080Y714940I-9729J-2930D01*
G01X2792920Y714920D01*
G02X2783190Y728010I-2J10159D01*
G03X2610830Y727970I-86186J25991D01*
G02X2601100Y714870I-9726J-2939D01*
G01X2538900Y714850D01*
G02X2529170Y727950I-5J10160D01*
G03X2356850Y727900I-86168J26051D01*
G02X2347130Y714800I-9726J-2940D01*
G01X2284880Y714780D01*
G02X2275150Y727890I-7J10160D01*
G03X2102860Y727840I-86153J26107D01*
G02X2093150Y714730I-9719J-2953D01*
G01X2030850Y714710D01*
G02X2021130Y727820I2J10160D01*
G03X1848880Y727780I-86131J26178D01*
G02X1839170Y714660I-9716J-2962D01*
G01X1776830Y714640D01*
G02X1767110Y727760I-1J10160D01*
G03X1594900Y727710I-86113J26238D01*
G02X1585190Y714590I-9715J-2963D01*
G01X1522810Y714570D01*
G02X1513090Y727700I-4J10160D01*
G03X1340920Y727650I-86093J26300D01*
G02X1331210Y714520I-9713J-2973D01*
G01X1275000Y714500D01*
G37*
G36*
G01X4725000Y1850000D02*
X3935000D01*
X3842850Y1757850D01*
G03X3789850Y1567480I-52848J-87849D01*
G02X3800000Y1557320I-10J-10160D01*
G01Y1528680D01*
G02X3789850Y1518520I-10160J0D01*
G03X3818690Y1317580I146J-102519D01*
G01X3821580Y1318420D01*
X4000000Y1140000D01*
X4860000D01*
Y380000D01*
X4590000D01*
Y580000D01*
X4516270D01*
G03X4433730I-41270J-80000D01*
G01X4262270D01*
G03X4179730I-41270J-80000D01*
G01X4008270D01*
G03X3925730I-41270J-80000D01*
G01X3754270D01*
G03X3671730I-41270J-80000D01*
G01X3500270D01*
G03X3417730I-41270J-80000D01*
G01X3246270D01*
G03X3193510Y589280I-41268J-80001D01*
G01X3191030Y588970D01*
X3110000Y670000D01*
Y700730D01*
G02X3128760Y706130I10159J-6D01*
G03Y801870I76240J47870D01*
G02X3110000Y807270I-8601J5406D01*
G01Y954730D01*
G02X3128760Y960130I10159J-6D01*
G03Y1055870I76240J47870D01*
G02X3110000Y1061270I-8601J5406D01*
G01Y1090000D01*
X3030000Y1170000D01*
X2190000D01*
X2090000Y1270000D01*
Y1349470D01*
G03Y1482530I-78000J66530D01*
G01Y1603470D01*
G03X2097130Y1727130I-77999J66533D01*
G01X2180000Y1810000D01*
X3245000D01*
X3555810Y2120810D01*
G02X3570210Y2120770I7180J-7188D01*
G03X3669230Y2219790I49790J49230D01*
G02X3669190Y2234190I7148J7220D01*
G01X3735000Y2300000D01*
X4440000D01*
X4787820Y2647820D01*
G03X4882180Y2742180I32180J62180D01*
G01X5028850Y2888850D01*
G02X5044140Y2887790I7183J-7187D01*
G03X5170020Y2929860I55862J42214D01*
G02X5180180Y2940000I10160J-20D01*
G01X5339820D01*
G02X5349980Y2929860I0J-10160D01*
G03X5490020I70020J140D01*
G02X5500180Y2940000I10160J-20D01*
G01X5619820D01*
G02X5629980Y2929860I0J-10160D01*
G03X5770020I70020J140D01*
G02X5780180Y2940000I10160J-20D01*
G01X5939820D01*
G02X5949980Y2929860I0J-10160D01*
G03X6090020I70020J140D01*
G02X6100180Y2940000I10160J-20D01*
G01X6219820D01*
G02X6229980Y2929860I0J-10160D01*
G03X6370020I70020J140D01*
G02X6380180Y2940000I10160J-20D01*
G01X6490000D01*
X6850370Y3300370D01*
X6853950Y3297250D01*
G03X6952750Y3396050I46050J52750D01*
G01X6949630Y3399630D01*
X7170370Y3620370D01*
X7173950Y3617250D01*
G03X7272750Y3716050I46050J52750D01*
G01X7269630Y3719630D01*
X7410000Y3860000D01*
X7436730D01*
G03X7563270I63270J30000D01*
G01X7756730D01*
G03X7883270I63270J30000D01*
G01X8036730D01*
G03X8163270I63270J30000D01*
G01X8356730D01*
G03X8483270I63270J30000D01*
G01X8636730D01*
G03X8763270I63270J30000D01*
G01X8956730D01*
G03X9083270I63270J30000D01*
G01X9236730D01*
G03X9363270I63270J30000D01*
G01X9556730D01*
G03X9683270I63270J30000D01*
G01X9846730D01*
G03X9973270I63270J30000D01*
G01X10166730D01*
G03X10293270I63270J30000D01*
G01X10446730D01*
G03X10573270I63270J30000D01*
G01X10766730D01*
G03X10893270I63270J30000D01*
G01X11046730D01*
G03X11173270I63270J30000D01*
G01X11366730D01*
G03X11493270I63270J30000D01*
G01X11646730D01*
G03X11773270I63270J30000D01*
G01X11966730D01*
G03X12093270I63270J30000D01*
G01X12246730D01*
G03X12373270I63270J30000D01*
G01X12566730D01*
G03X12693270I63270J30000D01*
G01X12836730D01*
G03X12963270I63270J30000D01*
G01X13156730D01*
G03X13283270I63270J30000D01*
G01X13290000D01*
X13477750Y4047750D01*
X13480960Y4046290D01*
G03X13553330Y4055000I29041J63711D01*
G01X13786670D01*
G03X13872010Y4053980I43333J55000D01*
G01X13873370Y4055000D01*
X13890000D01*
X13935000Y4010000D01*
Y3770000D01*
X13885590Y3720590D01*
G02X13878480Y3720520I-3591J3593D01*
G03X13762530Y3688720I-48480J-50521D01*
G01X13761500Y3685000D01*
X13578500D01*
X13577470Y3688720D01*
G03X13442530I-67470J-18720D01*
G01X13441500Y3685000D01*
X13288500D01*
X13287470Y3688720D01*
G03X13152530I-67470J-18720D01*
G01X13151500Y3685000D01*
X13072580D01*
X13071250Y3688040D01*
G03X12988750I-41250J-18040D01*
G01X12987420Y3685000D01*
X12968500D01*
X12967470Y3688720D01*
G03X12832530I-67470J-18720D01*
G01X12831500Y3685000D01*
X12698500D01*
X12697470Y3688720D01*
G03X12562530I-67470J-18720D01*
G01X12561500Y3685000D01*
X12378500D01*
X12377470Y3688720D01*
G03X12242530I-67470J-18720D01*
G01X12241500Y3685000D01*
X12098500D01*
X12097470Y3688720D01*
G03X11962530I-67470J-18720D01*
G01X11961500Y3685000D01*
X11778500D01*
X11777470Y3688720D01*
G03X11681520Y3606030I-67471J-18722D01*
G02X11684570Y3589570I-4135J-9279D01*
G01X11490000Y3395000D01*
X11483690D01*
X11482180Y3396690D01*
G03X11376350Y3395000I-52183J-46689D01*
G01X11248150D01*
G02X11238360Y3407890I-4J10160D01*
G03X11150120Y3423560I-43361J12110D01*
G02X11136190Y3414940I-10128J802D01*
G03X11056350Y3395000I-26191J-64941D01*
G01X10883650D01*
G03X10776350I-53650J-45000D01*
G01X10563650D01*
G03X10456350I-53650J-45000D01*
G01X10283650D01*
G03X10176350I-53650J-45000D01*
G01X9963650D01*
G03X9856350I-53650J-45000D01*
G01X9673650D01*
G03X9566350I-53650J-45000D01*
G01X9353650D01*
G03X9246350I-53650J-45000D01*
G01X9073650D01*
G03X8966350I-53650J-45000D01*
G01X8753650D01*
G03X8646350I-53650J-45000D01*
G01X8473650D01*
G03X8366350I-53650J-45000D01*
G01X8153650D01*
G03X8046350I-53650J-45000D01*
G01X7873650D01*
G03X7766350I-53650J-45000D01*
G01X7655000D01*
X7585460Y3325460D01*
G02X7568360Y3334850I-7182J7187D01*
G03X7515150Y3281640I-68360J15150D01*
G02X7524540Y3264540I2203J-9918D01*
G01X7252250Y2992250D01*
X7249040Y2993710D01*
G03X7156290Y2900960I-29040J-63710D01*
G01X7157750Y2897750D01*
X6984400Y2724400D01*
G02X6967430Y2728850I-7184J7186D01*
G03X6881150Y2642570I-67430J-18850D01*
G02X6885600Y2625600I-2736J-9786D01*
G01X6800000Y2540000D01*
X6669020D01*
G03X6570980I-49020J-50000D01*
G01X6349020D01*
G03X6250980I-49020J-50000D01*
G01X6069020D01*
G03X5970980I-49020J-50000D01*
G01X5749020D01*
G03X5650980I-49020J-50000D01*
G01X5469020D01*
G03X5350870Y2478850I-49022J-49998D01*
G01X5351280Y2476280D01*
X5113720Y2238720D01*
X5111150Y2239130D01*
G03X5030870Y2158850I-11150J-69130D01*
G01X5031280Y2156280D01*
X4725000Y1850000D01*
G37*
G36*
G01X5786270Y580000D02*
G03X5703730I-41270J-80000D01*
G01X5532270D01*
G03X5449730I-41270J-80000D01*
G01X5278270D01*
G03X5195730I-41270J-80000D01*
G01X5024270D01*
G03X4942750Y580540I-41292J-79997D01*
G01X4941680Y580000D01*
X4890000D01*
Y697670D01*
G02X4908560Y703380I10160J-4D01*
G03Y804620I74440J50620D01*
G02X4890000Y810330I-8400J5714D01*
G01Y951670D01*
G02X4908560Y957380I10160J-4D01*
G03Y1058620I74440J50620D01*
G02X4890000Y1064330I-8400J5714D01*
G01Y1170000D01*
X4040000D01*
X3870000Y1340000D01*
Y1351870D01*
X3871060Y1353240D01*
G03X3870000Y1480110I-81061J62762D01*
G01Y1605890D01*
G03X3872290Y1731150I-80000J64113D01*
G01X3869670Y1734670D01*
X3945000Y1810000D01*
X4735000D01*
X5047930Y2122930D01*
X5051520Y2119480D01*
G03X5150520Y2218480I48480J50520D01*
G01X5147070Y2222070D01*
X5367930Y2442930D01*
X5371520Y2439480D01*
G03X5486580Y2511680I48481J50521D01*
G02X5496240Y2524980I9662J3141D01*
G01X5623760D01*
G02X5633420Y2511680I-2J-10159D01*
G03X5766580I66580J-21680D01*
G02X5776240Y2524980I9662J3141D01*
G01X5943760D01*
G02X5953420Y2511680I-2J-10159D01*
G03X6086580I66580J-21680D01*
G02X6096240Y2524980I9662J3141D01*
G01X6223760D01*
G02X6233420Y2511680I-2J-10159D01*
G03X6366580I66580J-21680D01*
G02X6376240Y2524980I9662J3141D01*
G01X6543760D01*
G02X6553420Y2511680I-2J-10159D01*
G03X6686580I66580J-21680D01*
G02X6696240Y2524980I9662J3141D01*
G01X6806220D01*
X6806240Y2525000D01*
X6823770D01*
G02X6833430Y2511690I-1J-10162D01*
G03X6911720Y2559030I66573J-21690D01*
G02X6906230Y2576230I1697J10018D01*
G01X7194650Y2864650D01*
X7197640Y2863650D01*
G03X7286600Y2951600I22359J66350D01*
G01X7286400Y2952220D01*
X7285350Y2955350D01*
X7675000Y3345000D01*
X7750010D01*
X7750610Y3340600D01*
G03X7889390I69390J9400D01*
G01X7889990Y3345000D01*
X8030010D01*
X8030610Y3340600D01*
G03X8169390I69390J9400D01*
G01X8169990Y3345000D01*
X8350010D01*
X8350610Y3340600D01*
G03X8489390I69390J9400D01*
G01X8489990Y3345000D01*
X8630010D01*
X8630610Y3340600D01*
G03X8769390I69390J9400D01*
G01X8769990Y3345000D01*
X8950010D01*
X8950610Y3340600D01*
G03X9089390I69390J9400D01*
G01X9089990Y3345000D01*
X9230010D01*
X9230610Y3340600D01*
G03X9369390I69390J9400D01*
G01X9369990Y3345000D01*
X9550010D01*
X9550610Y3340600D01*
G03X9689390I69390J9400D01*
G01X9689990Y3345000D01*
X9840010D01*
X9840610Y3340600D01*
G03X9979390I69390J9400D01*
G01X9979990Y3345000D01*
X10160010D01*
X10160610Y3340600D01*
G03X10299390I69390J9400D01*
G01X10299990Y3345000D01*
X10440010D01*
X10440610Y3340600D01*
G03X10579390I69390J9400D01*
G01X10579990Y3345000D01*
X10760010D01*
X10760610Y3340600D01*
G03X10899390I69390J9400D01*
G01X10899990Y3345000D01*
X11040010D01*
X11040610Y3340600D01*
G03X11179390I69390J9400D01*
G01X11179990Y3345000D01*
X11360010D01*
X11360610Y3340600D01*
G03X11497450Y3368800I69386J9411D01*
G01X11496650Y3371650D01*
X11727080Y3602080D01*
X11728390Y3602440D01*
G03X11777560Y3651610I-18390J67560D01*
G01X11777920Y3652920D01*
X11790000Y3665000D01*
X11960010D01*
X11960610Y3660600D01*
G03X12099390I69390J9400D01*
G01X12099990Y3665000D01*
X12240010D01*
X12240610Y3660600D01*
G03X12379390I69390J9400D01*
G01X12379990Y3665000D01*
X12560010D01*
X12560610Y3660600D01*
G03X12699390I69390J9400D01*
G01X12699990Y3665000D01*
X12830010D01*
X12830610Y3660600D01*
G03X12969390I69390J9400D01*
G01X12969990Y3665000D01*
X12985070D01*
X12985900Y3660940D01*
G03X13074100I44100J9060D01*
G01X13074930Y3665000D01*
X13150010D01*
X13150610Y3660600D01*
G03X13289390I69390J9400D01*
G01X13289990Y3665000D01*
X13440010D01*
X13440610Y3660600D01*
G03X13579390I69390J9400D01*
G01X13579990Y3665000D01*
X13760010D01*
X13760610Y3660600D01*
G03X13899390I69390J9400D01*
G01X13899990Y3665000D01*
X14074600D01*
G03X14205400I65400J25000D01*
G01X14394600D01*
G03X14503520Y3635150I65402J25001D01*
G02X14520000Y3627200I6320J-7956D01*
G01Y3532800D01*
G02X14503520Y3524850I-10160J6D01*
G03Y3415150I-43520J-54850D01*
G02X14520000Y3407200I6320J-7956D01*
G01Y3340000D01*
X14315000D01*
X14280000Y3375000D01*
X13895400D01*
G03X13764600I-65400J-25000D01*
G01X13575400D01*
G03X13444600I-65400J-25000D01*
G01X13285400D01*
G03X13154600I-65400J-25000D01*
G01X12965400D01*
G03X12834600I-65400J-25000D01*
G01X12695400D01*
G03X12564600I-65400J-25000D01*
G01X12375400D01*
G03X12244600I-65400J-25000D01*
G01X12120000D01*
X12113230Y3368230D01*
G02X12096410Y3372190I-7185J7183D01*
G03X12007810Y3283590I-66410J-22190D01*
G02X12011770Y3266770I-3223J-9635D01*
G01X11738880Y2993880D01*
X11735770Y2995100D01*
G03X11639980Y2930070I-25772J-65103D01*
G01X11639970Y2925000D01*
X11500030D01*
X11500020Y2930070D01*
G03X11359980I-70020J-70D01*
G01X11359970Y2925000D01*
X11180030D01*
X11180020Y2930070D01*
G03X11039980I-70020J-70D01*
G01X11039970Y2925000D01*
X10900030D01*
X10900020Y2930070D01*
G03X10759980I-70020J-70D01*
G01X10759970Y2925000D01*
X10580030D01*
X10580020Y2930070D01*
G03X10439980I-70020J-70D01*
G01X10439970Y2925000D01*
X10300030D01*
X10300020Y2930070D01*
G03X10159980I-70020J-70D01*
G01X10159970Y2925000D01*
X9980030D01*
X9980020Y2930070D01*
G03X9839980I-70020J-70D01*
G01X9839970Y2925000D01*
X9690030D01*
X9690020Y2930070D01*
G03X9549980I-70020J-70D01*
G01X9549970Y2925000D01*
X9370030D01*
X9370020Y2930070D01*
G03X9229980I-70020J-70D01*
G01X9229970Y2925000D01*
X9090030D01*
X9090020Y2930070D01*
G03X8949980I-70020J-70D01*
G01X8949970Y2925000D01*
X8770030D01*
X8770020Y2930070D01*
G03X8629980I-70020J-70D01*
G01X8629970Y2925000D01*
X8490030D01*
X8490020Y2930070D01*
G03X8349980I-70020J-70D01*
G01X8349970Y2925000D01*
X8170030D01*
X8170020Y2930070D01*
G03X8029980I-70020J-70D01*
G01X8029970Y2925000D01*
X7945000D01*
X7795670Y2775670D01*
X7794670Y2775280D01*
G03X7754720Y2735330I25330J-65280D01*
G01X7754330Y2734330D01*
X7561650Y2541650D01*
G02X7547570Y2541380I-7180J7188D01*
G03X7448620Y2442430I-47570J-51380D01*
G02X7448350Y2428350I-7458J-6900D01*
G01X7252250Y2232250D01*
X7249040Y2233710D01*
G03X7156290Y2140960I-29040J-63710D01*
G01X7157750Y2137750D01*
X6855000Y1835000D01*
X5720000D01*
X5633700Y1748700D01*
G03X5596970Y1571660I-65701J-78699D01*
G02X5610000Y1561920I2870J-9747D01*
G01Y1524080D01*
G02X5596970Y1514340I-10160J7D01*
G03Y1317660I-28970J-98340D01*
G02X5610000Y1307920I2870J-9747D01*
G01Y1270000D01*
X5740000Y1140000D01*
X6580000D01*
X6640000Y1080000D01*
Y430000D01*
X6590000Y380000D01*
X6420000D01*
X6335700Y464300D01*
X6336900Y467390D01*
G03X6211730Y580000I-83904J32609D01*
G01X6040270D01*
G03X5957730I-41270J-80000D01*
G01X5786270D01*
G37*
G36*
G01X6670000Y948830D02*
G02X6688360Y954830I10160J2D01*
G03Y1061170I72640J53170D01*
G02X6670000Y1067170I-8200J5998D01*
G01Y1090000D01*
X6590000Y1170000D01*
X5750000D01*
X5650000Y1270000D01*
Y1354470D01*
G03Y1477530I-82000J61530D01*
G01Y1608470D01*
G03X5656720Y1721380I-81999J61535D01*
G01X5654760Y1724760D01*
X5740000Y1810000D01*
X6870000D01*
X7175650Y2115650D01*
X7179150Y2113130D01*
G03X7276870Y2210850I40850J56870D01*
G01X7274350Y2214350D01*
X7482220Y2422220D01*
X7484940Y2421620D01*
G03X7568380Y2505060I15060J68380D01*
G01X7567780Y2507780D01*
X7741180Y2681180D01*
G02X7757440Y2678550I7180J-7188D01*
G03X7851450Y2772560I62560J31450D01*
G02X7848820Y2788820I4558J9080D01*
G01X7960000Y2900000D01*
X8036730D01*
G03X8163270I63270J30000D01*
G01X8356730D01*
G03X8483270I63270J30000D01*
G01X8636730D01*
G03X8763270I63270J30000D01*
G01X8956730D01*
G03X9083270I63270J30000D01*
G01X9236730D01*
G03X9363270I63270J30000D01*
G01X9556730D01*
G03X9683270I63270J30000D01*
G01X9846730D01*
G03X9973270I63270J30000D01*
G01X10166730D01*
G03X10293270I63270J30000D01*
G01X10446730D01*
G03X10573270I63270J30000D01*
G01X10766730D01*
G03X10893270I63270J30000D01*
G01X11046730D01*
G03X11173270I63270J30000D01*
G01X11366730D01*
G03X11493270I63270J30000D01*
G01X11646730D01*
G03X11759780Y2979240I63268J30000D01*
G02X11759820Y2993570I7221J7145D01*
G01X12048770Y3282530D01*
X12050000Y3282900D01*
G03X12097100Y3330000I-20000J67100D01*
G01X12097470Y3331230D01*
X12116240Y3350000D01*
X12239820D01*
X12240140Y3345260D01*
G03X12379860I69860J4740D01*
G01X12380180Y3350000D01*
X12559820D01*
X12560140Y3345260D01*
G03X12699860I69860J4740D01*
G01X12700180Y3350000D01*
X12829820D01*
X12830140Y3345260D01*
G03X12969860I69860J4740D01*
G01X12970180Y3350000D01*
X13149820D01*
X13150140Y3345260D01*
G03X13289860I69860J4740D01*
G01X13290180Y3350000D01*
X13439820D01*
X13440140Y3345260D01*
G03X13579860I69860J4740D01*
G01X13580180Y3350000D01*
X13759820D01*
X13760140Y3345260D01*
G03X13899860I69860J4740D01*
G01X13900180Y3350000D01*
X14270000D01*
X14394340Y3225660D01*
X14394720Y3224670D01*
G03X14434670Y3184720I65280J25330D01*
G01X14435660Y3184340D01*
X14530000Y3090000D01*
Y2994420D01*
G02X14516060Y2984990I-10160J0D01*
G03Y2855010I-26060J-64990D01*
G02X14530000Y2845580I3780J-9430D01*
G01Y2774420D01*
G02X14516060Y2764990I-10160J0D01*
G03X14522560Y2638010I-26060J-64990D01*
G01X14524920Y2638590D01*
G02X14530000Y2633510I1J-5079D01*
G01Y2625000D01*
X14485000Y2580000D01*
X14035000D01*
X13985000Y2630000D01*
Y2850000D01*
X13920000Y2915000D01*
X13833220D01*
G03X13826780I-3220J-39900D01*
G01X13757520D01*
Y2952700D01*
G03X13657480I-50020J0D01*
G01Y2915000D01*
X13513220D01*
G03X13506780I-3220J-39900D01*
G01X13395000D01*
X13290050Y3019950D01*
X13289990Y3021970D01*
G03X13154000Y3043380I-69991J-1973D01*
G01X13152800Y3040000D01*
X12967200D01*
X12966000Y3043380D01*
G03X12834000I-66000J-23380D01*
G01X12832800Y3040000D01*
X12805000D01*
X12713760Y2946880D01*
G02X12696810Y2950950I-7256J7112D01*
G03X12610420Y2862770I-66812J-20952D01*
G02X12614830Y2845910I-2847J-9751D01*
G01X12331480Y2556710D01*
X12328590Y2557510D01*
G03X12266670Y2545000I-18585J-67509D01*
G01X12073330D01*
G03X11986670I-43330J-55000D01*
G01X11753330D01*
G03X11666670I-43330J-55000D01*
G01X11473330D01*
G03X11386670I-43330J-55000D01*
G01X11153330D01*
G03X11066670I-43330J-55000D01*
G01X10873330D01*
G03X10786670I-43330J-55000D01*
G01X10553330D01*
G03X10466670I-43330J-55000D01*
G01X10273330D01*
G03X10186670I-43330J-55000D01*
G01X9953330D01*
G03X9866670I-43330J-55000D01*
G01X9663330D01*
G03X9576670I-43330J-55000D01*
G01X9343330D01*
G03X9256670I-43330J-55000D01*
G01X9063330D01*
G03X8976670I-43330J-55000D01*
G01X8743330D01*
G03X8656670I-43330J-55000D01*
G01X8463330D01*
G03X8376670I-43330J-55000D01*
G01X8180000D01*
X8168950Y2533950D01*
G02X8153940Y2534650I-7186J7180D01*
G03X8055350Y2436060I-53940J-44650D01*
G02X8056050Y2421050I-6480J-7824D01*
G01X7861440Y2226440D01*
G03X7761240Y2131920I-41440J-56440D01*
G01X7763470Y2128470D01*
X7395080Y1760080D01*
X7391810Y1761720D01*
G03X7372240Y1570890I-45806J-91721D01*
G02X7385000Y1561070I2602J-9819D01*
G01Y1524930D01*
G02X7372240Y1515110I-10158J-1D01*
G03Y1316890I-26240J-99110D01*
G02X7385000Y1307070I2602J-9819D01*
G01Y1245000D01*
X7500000Y1130000D01*
X8165000D01*
X8222260Y1072740D01*
X8218940Y1069150D01*
G03X8346150Y941940I66060J-61150D01*
G01X8349740Y945260D01*
X8405000Y890000D01*
Y763440D01*
G03Y744560I38900J-9440D01*
G01Y655000D01*
X8330000Y580000D01*
X8326290D01*
X8325220Y580540D01*
G03X8243730Y580000I-40213J-80540D01*
G01X8072270D01*
G03X7989730I-41270J-80000D01*
G01X7818270D01*
G03X7735730I-41270J-80000D01*
G01X7564270D01*
G03X7481730I-41270J-80000D01*
G01X7310270D01*
G03X7227730I-41270J-80000D01*
G01X7060000D01*
X7058760Y578760D01*
X7055480Y580410D01*
G03X6934590Y459520I-40480J-80410D01*
G01X6936240Y456240D01*
X6860000Y380000D01*
X6700000D01*
X6670000Y410000D01*
Y440830D01*
G02X6688360Y446830I10160J2D01*
G03Y553170I72640J53170D01*
G02X6670000Y559170I-8200J5998D01*
G01Y694830D01*
G02X6688360Y700830I10160J2D01*
G03Y807170I72640J53170D01*
G02X6670000Y813170I-8200J5998D01*
G01Y948830D01*
G37*
G36*
G01X8849600Y570000D02*
G03X8713240Y458270I-56597J-70001D01*
G01X8714970Y454970D01*
X8630000Y370000D01*
X8470000D01*
X8425000Y415000D01*
Y915000D01*
X8367700Y972300D01*
X8368900Y975390D01*
G03X8252390Y1091900I-83900J32610D01*
G01X8249300Y1090700D01*
X8180000Y1160000D01*
X7520000D01*
X7420000Y1260000D01*
Y1345050D01*
G03Y1486950I-74000J70950D01*
G01Y1599050D01*
G03X7435410Y1720170I-73999J70955D01*
G01X7433520Y1723520D01*
X7810580Y2100580D01*
X7812970Y2100330D01*
G03X7889670Y2177030I7030J69670D01*
G01X7889420Y2179420D01*
X8220000Y2510000D01*
X8340430D01*
G02X8350510Y2498590I-3J-10160D01*
G03X8489490I69490J-8590D01*
G02X8499570Y2510000I10083J1250D01*
G01X8620430D01*
G02X8630510Y2498590I-3J-10160D01*
G03X8769490I69490J-8590D01*
G02X8779570Y2510000I10083J1250D01*
G01X8940430D01*
G02X8950510Y2498590I-3J-10160D01*
G03X9089490I69490J-8590D01*
G02X9099570Y2510000I10083J1250D01*
G01X9220430D01*
G02X9230510Y2498590I-3J-10160D01*
G03X9369490I69490J-8590D01*
G02X9379570Y2510000I10083J1250D01*
G01X9540430D01*
G02X9550510Y2498590I-3J-10160D01*
G03X9689490I69490J-8590D01*
G02X9699570Y2510000I10083J1250D01*
G01X9830430D01*
G02X9840510Y2498590I-3J-10160D01*
G03X9979490I69490J-8590D01*
G02X9989570Y2510000I10083J1250D01*
G01X10150430D01*
G02X10160510Y2498590I-3J-10160D01*
G03X10299490I69490J-8590D01*
G02X10309570Y2510000I10083J1250D01*
G01X10430430D01*
G02X10440510Y2498590I-3J-10160D01*
G03X10579490I69490J-8590D01*
G02X10589570Y2510000I10083J1250D01*
G01X10750430D01*
G02X10760510Y2498590I-3J-10160D01*
G03X10899490I69490J-8590D01*
G02X10909570Y2510000I10083J1250D01*
G01X11030430D01*
G02X11040510Y2498590I-3J-10160D01*
G03X11179490I69490J-8590D01*
G02X11189570Y2510000I10083J1250D01*
G01X11350430D01*
G02X11360510Y2498590I-3J-10160D01*
G03X11499490I69490J-8590D01*
G02X11509570Y2510000I10083J1250D01*
G01X11630430D01*
G02X11640510Y2498590I-3J-10160D01*
G03X11779490I69490J-8590D01*
G02X11789570Y2510000I10083J1250D01*
G01X11950430D01*
G02X11960510Y2498590I-3J-10160D01*
G03X12099490I69490J-8590D01*
G02X12109570Y2510000I10083J1250D01*
G01X12230430D01*
G02X12240510Y2498590I-3J-10160D01*
G03X12356990Y2541910I69490J-8591D01*
G02X12356630Y2556630I6819J7531D01*
G01X12810000Y3010000D01*
X12830570D01*
X12831410Y3005940D01*
G03X12968590I68590J14060D01*
G01X12969430Y3010000D01*
X13150570D01*
X13151410Y3005940D01*
G03X13269510Y2970490I68591J14062D01*
G01X13380000Y2860000D01*
Y2665000D01*
X13315000Y2600000D01*
X13287200D01*
X13286000Y2603380D01*
G03X13154000I-66000J-23380D01*
G01X13152800Y2600000D01*
X13075000D01*
X12694190Y2219190D01*
G02X12679790Y2219230I-7180J7188D01*
G03X12561410Y2184060I-49788J-49231D01*
G01X12560570Y2180000D01*
X12379430D01*
X12378590Y2184060D01*
G03X12241410I-68590J-14060D01*
G01X12240570Y2180000D01*
X12099430D01*
X12098590Y2184060D01*
G03X11961410I-68590J-14060D01*
G01X11960570Y2180000D01*
X11779430D01*
X11778590Y2184060D01*
G03X11641410I-68590J-14060D01*
G01X11640570Y2180000D01*
X11499430D01*
X11498590Y2184060D01*
G03X11361410I-68590J-14060D01*
G01X11360570Y2180000D01*
X11179430D01*
X11178590Y2184060D01*
G03X11041410I-68590J-14060D01*
G01X11040570Y2180000D01*
X10899430D01*
X10898590Y2184060D01*
G03X10761410I-68590J-14060D01*
G01X10760570Y2180000D01*
X10579430D01*
X10578590Y2184060D01*
G03X10441410I-68590J-14060D01*
G01X10440570Y2180000D01*
X10299430D01*
X10298590Y2184060D01*
G03X10161410I-68590J-14060D01*
G01X10160570Y2180000D01*
X9979430D01*
X9978590Y2184060D01*
G03X9841410I-68590J-14060D01*
G01X9840570Y2180000D01*
X9689430D01*
X9688590Y2184060D01*
G03X9552550Y2151200I-68595J-14048D01*
G01X9553350Y2148350D01*
X9167770Y1762770D01*
X9164600Y1764140D01*
G03X9138410Y1568500I-40600J-94138D01*
G02X9150000Y1558440I1430J-10059D01*
G01Y1527560D01*
G02X9138410Y1517500I-10160J-1D01*
G03X9157040Y1318950I-14411J-101501D01*
G01X9160030Y1319970D01*
X9465210Y1014790D01*
X9465090Y1012540D01*
G03X9613990Y940000I89907J-4541D01*
G01X9750010D01*
G03X9867990I58990J68000D01*
G01X10004010D01*
G03X10121990I58990J68000D01*
G01X10258010D01*
G03X10357480Y927590I58993J67999D01*
G01X10360760Y929240D01*
X10420000Y870000D01*
Y660000D01*
X10345460Y585460D01*
X10342560Y586320D01*
G03X10260400Y570000I-25555J-86318D01*
G01X10119600D01*
G03X10006400I-56600J-70000D01*
G01X9865600D01*
G03X9752400I-56600J-70000D01*
G01X9611600D01*
G03X9498400I-56600J-70000D01*
G01X9357600D01*
G03X9244400I-56600J-70000D01*
G01X9103600D01*
G03X8990400I-56600J-70000D01*
G01X8849600D01*
G37*
G36*
G01X10892110Y560000D02*
G03X10744590Y459520I-67115J-59995D01*
G01X10746240Y456240D01*
X10650000Y360000D01*
X10490000D01*
X10460000Y390000D01*
Y915000D01*
X10400580Y974420D01*
X10401680Y977450D01*
G03X10227230Y1014700I-84679J30547D01*
G01X10226880Y1010000D01*
X10153120D01*
X10152770Y1014700D01*
G03X9973230I-89770J-6700D01*
G01X9972880Y1010000D01*
X9899120D01*
X9898770Y1014700D01*
G03X9719230I-89770J-6700D01*
G01X9718880Y1010000D01*
X9645120D01*
X9644770Y1014700D01*
G03X9493360Y1073600I-89769J-6702D01*
G01X9489770Y1070230D01*
X9250000Y1310000D01*
Y1730000D01*
X9619950Y2099950D01*
X9621970Y2100010D01*
G03X9687470Y2151280I-1970J69991D01*
G01X9688500Y2155000D01*
X9841500D01*
X9842530Y2151280D01*
G03X9977470I67470J18720D01*
G01X9978500Y2155000D01*
X10161500D01*
X10162530Y2151280D01*
G03X10297470I67470J18720D01*
G01X10298500Y2155000D01*
X10441500D01*
X10442530Y2151280D01*
G03X10577470I67470J18720D01*
G01X10578500Y2155000D01*
X10761500D01*
X10762530Y2151280D01*
G03X10897470I67470J18720D01*
G01X10898500Y2155000D01*
X11041500D01*
X11042530Y2151280D01*
G03X11177470I67470J18720D01*
G01X11178500Y2155000D01*
X11361500D01*
X11362530Y2151280D01*
G03X11497470I67470J18720D01*
G01X11498500Y2155000D01*
X11641500D01*
X11642530Y2151280D01*
G03X11777470I67470J18720D01*
G01X11778500Y2155000D01*
X11961500D01*
X11962530Y2151280D01*
G03X12097470I67470J18720D01*
G01X12098500Y2155000D01*
X12241500D01*
X12242530Y2151280D01*
G03X12377470I67470J18720D01*
G01X12378500Y2155000D01*
X12561500D01*
X12562530Y2151280D01*
G03X12698380Y2185060I67470J18720D01*
G01X12697780Y2187780D01*
X13085000Y2575000D01*
X13150020D01*
X13150610Y2570600D01*
G03X13289390I69390J9400D01*
G01X13289980Y2575000D01*
X13325000D01*
X13405000Y2655000D01*
Y2850000D01*
X13445000Y2890000D01*
X13657480D01*
Y2880000D01*
G03X13757520I50020J0D01*
G01Y2890000D01*
X13905000D01*
X13940000Y2855000D01*
Y2395000D01*
X13865480Y2320480D01*
X13862180Y2322190D01*
G03X13767810Y2227820I-32180J-62190D01*
G01X13769520Y2224520D01*
X13625020Y2080020D01*
X13043780D01*
X13043760Y2080000D01*
X13030000D01*
X12795000Y1845000D01*
X11005000D01*
X10928950Y1768950D01*
X10926180Y1769630D01*
G03X10873110Y1571630I-24180J-99631D01*
G01X10876740Y1570570D01*
X10877140Y1515540D01*
X10873450Y1514460D01*
G03X10874910Y1317120I28550J-98464D01*
G01X10878620Y1316110D01*
X10880000Y1130000D01*
X10989780Y1020220D01*
X10989510Y1017800D01*
G03X11123940Y930000I89487J-9800D01*
G01X11288060D01*
G03X11377940I44940J78000D01*
G01X11542060D01*
G03X11631940I44940J78000D01*
G01X11796060D01*
G03X11885940I44940J78000D01*
G01X12050060D01*
G03X12116080Y920480I44944J77999D01*
G01X12118850Y921150D01*
X12210000Y830000D01*
Y640000D01*
X12144980Y574980D01*
X12141570Y577040D01*
G03X12027890Y560000I-46569J-77039D01*
G01X11908110D01*
G03X11773890I-67110J-60000D01*
G01X11654110D01*
G03X11519890I-67110J-60000D01*
G01X11400110D01*
G03X11265890I-67110J-60000D01*
G01X11146110D01*
G03X11011890I-67110J-60000D01*
G01X10892110D01*
G37*
G36*
G01X15250000Y2065000D02*
Y1810000D01*
X15159850Y1719850D01*
X15156260Y1723300D01*
G03X15000700Y1567740I-76260J-79300D01*
G01X15004150Y1564150D01*
X14905850Y1465850D01*
X14902260Y1469300D01*
G03X14746700Y1313740I-76260J-79300D01*
G01X14750150Y1310150D01*
X14676140Y1236140D01*
X14673380Y1236780D01*
G03X14569350Y1146100I-19379J-82781D01*
G02X14559230Y1135000I-10117J-940D01*
G01X14240770D01*
G02X14230650Y1146100I-3J10160D01*
G03X14061350I-84650J7900D01*
G02X14051230Y1135000I-10117J-940D01*
G01X12955000D01*
X12830000Y1260000D01*
Y1845000D01*
X13050000Y2065000D01*
X13655000D01*
X13791430Y2201430D01*
X13794810Y2199470D01*
G03X13800670Y2196420I35220J60515D01*
G02X13801670Y2178510I-4262J-9221D01*
G03X13866390Y2122290I23330J-38506D01*
G02X13879280Y2127810I9339J-3998D01*
G03X13894910Y2124980I15710J42191D01*
G02X13905040Y2115350I-15J-10159D01*
G03X13950090Y2162720I44959J2350D01*
G02X13939960Y2172350I15J10159D01*
G03X13900720Y2214660I-44961J-2347D01*
G02X13892880Y2229200I1286J10077D01*
G03X13890530Y2295190I-62881J30798D01*
G01X13888570Y2298570D01*
X14082840Y2492840D01*
G02X14100150Y2484940I7177J-7189D01*
G03X14234990Y2506060I69847J-4937D01*
G02X14244420Y2520000I9430J3780D01*
G01X14415580D01*
G02X14425010Y2506060I0J-10160D01*
G03X14554990I64990J-26060D01*
G02X14564420Y2520000I9430J3780D01*
G01X14765500D01*
G02X14770610Y2501060I-1J-10160D01*
G03X14838590Y2515300I55394J-95059D01*
G02X14832570Y2532570I1168J10091D01*
G01X14853450Y2553450D01*
X14854760Y2553800D01*
G03X14921720Y2714240I-28760J106196D01*
G01X14921050Y2715420D01*
X14921300Y2750050D01*
X14996240Y2825000D01*
X15015300D01*
X15016620Y2824070D01*
G03X15144680Y2825000I63380J89930D01*
G01X15249990D01*
Y2406000D01*
X15250000Y2285260D01*
Y2065000D01*
G37*
G36*
G01X15149450Y2999450D02*
X15145920Y3002080D01*
G03X14991920Y2848080I-65920J-88080D01*
G01X14994550Y2844550D01*
X14906240Y2756240D01*
G02X14890240Y2749320I-10071J1329D01*
G03X14748080Y2582330I-64240J-89318D01*
G02X14740880Y2565000I-7199J-7170D01*
G01X14635000D01*
X14550000Y2650000D01*
Y2663880D01*
X14550680Y2665060D01*
G03X14550000Y2736090I-60680J34937D01*
G01Y2883910D01*
G03Y2956090I-60000J36090D01*
G01Y4380000D01*
X14840000D01*
X14920000Y4460000D01*
Y4995000D01*
X14950000Y5025000D01*
X15215000D01*
X15240000Y5000000D01*
Y3090000D01*
X15149450Y2999450D01*
G37*
%LPC*%
G75*
G36*
G01X808820Y3033200D02*
G02X763050Y3034310I-23825J-38200D01*
G03X763480Y3051800I-4950J8872D01*
G02X809250Y3050690I23825J38200D01*
G03X808820Y3033200I4950J-8872D01*
G37*
G36*
G01X13108900Y4019040D02*
G03X13105020Y4005630I5149J-8756D01*
G02X13042200Y4023820I-40017J-20630D01*
G03X13046080Y4037230I-5149J8756D01*
G02X13108900Y4019040I40017J20630D01*
G37*
G36*
G01X12491960Y3535700D02*
G03X12480000Y3526040I-1808J-9995D01*
G02X12443040Y3571800I-45000J1460D01*
G03X12455000Y3581460I1808J9995D01*
G02X12491960Y3535700I45000J-1460D01*
G37*
G36*
G01X13885050Y1712040D02*
G03X13887400Y1697370I8018J-6239D01*
G02X13826750Y1687630I-25106J-37371D01*
G03X13824400Y1702300I-8018J6239D01*
G02X13867790Y1780810I25102J37372D01*
G03X13881700Y1787310I4137J9280D01*
G02X13906710Y1733860I43302J-12314D01*
G03X13892800Y1727360I-4137J-9280D01*
G02X13885050Y1712040I-43310J12289D01*
G37*
G36*
G01X14248400Y1652200D02*
G03X14257870Y1642730I10139J669D01*
G02X14209970Y1594830I-2980J-44920D01*
G03X14200500Y1604300I-10139J-669D01*
G02X14201620Y1694200I2989J44920D01*
G03X14211110Y1706610I-417J10153D01*
G02X14256860Y1671640I43891J10010D01*
G03X14247370Y1659230I417J-10153D01*
G02X14248400Y1652200I-43889J-10021D01*
G37*
G36*
G01X13661070Y1601550D02*
G03X13667420Y1587650I9265J-4168D01*
G02X13613450Y1562970I-12904J-43132D01*
G03X13607100Y1576870I-9265J4168D01*
G02X13587250Y1650890I12901J43131D01*
G03X13586860Y1665230I-7387J6974D01*
G02X13583810Y1727300I31011J32634D01*
G03X13582360Y1741970I-7689J6647D01*
G02X13638420Y1812420I27643J35533D01*
G03X13651930Y1813040I6408J7881D01*
G02X13654990Y1745930I31478J-32189D01*
G03X13641480Y1745310I-6408J-7881D01*
G02X13640500Y1744390I-31300J32360D01*
G03X13641300Y1736310I3441J-3739D01*
G02X13650620Y1666980I-23431J-38441D01*
G03X13651010Y1652640I7387J-6974D01*
G02X13661070Y1601550I-31009J-32641D01*
G37*
G36*
G01X13309930Y1496600D02*
G03X13310850Y1482790I7882J-6411D01*
G02X13245070Y1478400I-30848J-32790D01*
G03X13244150Y1492210I-7882J6411D01*
G02X13309930Y1496600I30848J32790D01*
G37*
G36*
G01X13044490Y1287910D02*
G03X13029440Y1283650I-5758J-8373D01*
G02X12935190Y1364920I-59441J26352D01*
G03Y1382080I-5436J8580D01*
G02Y1491920I34810J54920D01*
G03Y1509080I-5436J8580D01*
G02Y1618920I34810J54920D01*
G03Y1636080I-5436J8580D01*
G02Y1745920I34810J54920D01*
G03Y1763080I-5436J8580D01*
G02X13004810I34810J54920D01*
G03Y1745920I5436J-8580D01*
G02Y1636080I-34810J-54920D01*
G03Y1618920I5436J-8580D01*
G02Y1509080I-34810J-54920D01*
G03Y1491920I5436J-8580D01*
G02X13031350Y1458540I-34811J-54918D01*
G03X13046290Y1453270I9586J3364D01*
G02X13096050Y1378290I23708J-38268D01*
G03Y1361710I5884J-8290D01*
G02X13044490Y1287910I-26051J-36711D01*
G37*
G36*
G01X13886030Y1330170D02*
G03X13886490Y1314100I6440J-7857D01*
G02X13818370Y1260570I-26487J-36402D01*
G03X13806380Y1266530I-9397J-3864D01*
G02X13775720Y1269320I-11496J43530D01*
G03X13762850Y1265630I-4329J-9191D01*
G02X13744170Y1330740I-37851J24375D01*
G03X13757040Y1334430I4329J9191D01*
G02X13760310Y1338890I37873J-24339D01*
G03X13758490Y1353610I-7800J6508D01*
G02X13825130Y1410410I26512J36388D01*
G03X13838480Y1405800I9059J4600D01*
G02X13886030Y1330170I19021J-40804D01*
G37*
G36*
G01X13417980Y1291110D02*
G02X13331340Y1288660I-42975J-13411D01*
G03X13320140Y1301210I-9856J2477D01*
G02X13357830Y1334870I-5973J44619D01*
G03X13369030Y1322320I9856J-2477D01*
G02X13373510Y1322700I6040J-44614D01*
G03X13383170Y1334630I-340J10151D01*
G02X13472040Y1335920I44330J7863D01*
G03X13481700Y1324280I10048J-1490D01*
G02X13486350Y1323860I-1719J-44988D01*
G03X13491670Y1331030I714J5029D01*
G02X13577350Y1346070I40830J18968D01*
G03X13587470Y1335020I10120J-891D01*
G02X13542650Y1293930I29J-45021D01*
G03X13532530Y1304980I-10120J891D01*
G02X13526150Y1305430I-30J45020D01*
G03X13520830Y1298260I-714J-5029D01*
G02X13435460Y1285870I-40831J-18967D01*
G03X13425800Y1297510I-10048J1490D01*
G02X13423300Y1297680I1803J44983D01*
G03X13417980Y1291110I-470J-5058D01*
G37*
G54D29*
X14405000Y4510000D03*
X14040000Y4880000D03*
X14612700Y4712500D03*
X7370000Y4000000D03*
X7295000Y3235000D03*
X6835000Y3045000D03*
X3935000Y2035000D03*
X3455000Y1845000D03*
X10445000Y3045000D03*
X10912700Y3235000D03*
X12990000Y3540000D03*
X13375000Y1910000D03*
X13525000Y1905000D03*
X13060000Y1920000D03*
X13990000Y1260000D03*
X14196520Y1300000D03*
X14403900Y2054350D03*
X14127810Y1772570D03*
X14395000Y1900000D03*
X14332700Y1805000D03*
X15095000Y3597300D03*
X15049800Y4183500D03*
X15049500Y4310500D03*
X14935000Y3785000D03*
X15049800Y3929500D03*
G54D30*
X13850000Y4710000D03*
G54D31*
X14826000Y2152000D03*
X15080000D03*
X14826000Y1898000D03*
X15080000D03*
X14826000Y1644000D03*
X15080000Y2660000D03*
Y2406000D03*
X14826000Y2914000D03*
G54D25*
X480000Y790000D03*
Y1110000D03*
X600000Y2360000D03*
Y2580000D03*
Y2800000D03*
X1210000Y2360000D03*
Y2580000D03*
Y2800000D03*
X890000Y2360000D03*
Y2800000D03*
Y2580000D03*
Y3190000D03*
X1210000D03*
X2100000Y2170000D03*
X2700000D03*
X2420000D03*
X3300000D03*
X3020000D03*
X3300000Y2490000D03*
X3620000Y2710000D03*
Y2490000D03*
X4500000Y2710000D03*
Y2930000D03*
X3900000Y2710000D03*
Y2930000D03*
Y2490000D03*
X4220000Y2930000D03*
Y2710000D03*
Y2490000D03*
X4820000Y2930000D03*
X6300000Y3350000D03*
X6620000Y3670000D03*
Y3350000D03*
X6900000Y3670000D03*
X7500000Y4110000D03*
X6900000Y3890000D03*
X7220000Y4110000D03*
Y3890000D03*
X8100000Y4110000D03*
X7820000D03*
X8700000D03*
X9020000D03*
X8420000D03*
X9300000D03*
X9620000D03*
X10510000D03*
X9910000D03*
X10230000D03*
X11110000D03*
X10830000D03*
X11430000D03*
X11710000D03*
X12030000D03*
X12900000D03*
X12310000D03*
X12630000D03*
X13220000D03*
X13830000Y3890000D03*
X13510000D03*
X11430000Y3670000D03*
X10830000D03*
X11110000D03*
X10230000D03*
X9910000D03*
X10510000D03*
X9620000D03*
X9300000D03*
X8420000D03*
X9020000D03*
X8700000D03*
X7820000D03*
X8100000D03*
X7220000Y3350000D03*
X7500000Y3670000D03*
X6900000Y2930000D03*
X6620000Y2710000D03*
Y2930000D03*
X6300000Y2710000D03*
X5420000D03*
X6020000D03*
X5700000D03*
X4820000Y2490000D03*
X5100000D03*
Y2710000D03*
X4820000Y2170000D03*
X4220000D03*
X3900000D03*
X4500000D03*
X5700000D03*
X6020000D03*
X5420000D03*
X6300000D03*
X6620000D03*
X6900000D03*
X7500000Y2710000D03*
Y2930000D03*
X7220000Y2710000D03*
Y2490000D03*
X7820000Y2930000D03*
X11710000Y3350000D03*
X14140000Y3470000D03*
X7500000Y2170000D03*
X8100000Y2710000D03*
X7820000Y2490000D03*
X8700000Y2710000D03*
X9020000D03*
X8420000D03*
X9300000D03*
X9620000D03*
X10510000D03*
X9910000D03*
X10230000D03*
X10830000D03*
X11110000D03*
X11710000D03*
X12030000Y2930000D03*
Y2710000D03*
X11430000D03*
X12310000D03*
Y2930000D03*
X13510000Y3020000D03*
X14170000Y2700000D03*
Y2920000D03*
X13830000Y3020000D03*
X14140000Y3250000D03*
X8100000Y2170000D03*
X8700000D03*
X9020000D03*
X8420000D03*
X9300000D03*
X12900000Y2800000D03*
Y2580000D03*
X12630000Y2710000D03*
Y2490000D03*
X13220000Y2800000D03*
X12900000Y2260000D03*
X13220000D03*
X13510000Y2800000D03*
Y2580000D03*
Y2260000D03*
X13830000Y2800000D03*
Y2580000D03*
X14170000Y2160000D03*
X14490000D03*
G54D32*
X14700000Y3180000D03*
G54D28*
X599800Y5021340D03*
X14700000Y4540000D03*
G54D27*
X11156000Y1416000D03*
X11410000D03*
X11156000Y1670000D03*
X11410000D03*
X11664000Y1416000D03*
X11918000D03*
X12172000D03*
X11664000Y1670000D03*
X11918000D03*
X12172000D03*
X12426000Y1416000D03*
X742000D03*
Y1670000D03*
X1404000Y4710000D03*
X1658000D03*
X1912000D03*
X2166000D03*
X2420000D03*
X2674000D03*
X2928000D03*
X3182000D03*
X3436000D03*
X3690000D03*
X3944000D03*
X4198000D03*
X4452000D03*
X4706000D03*
X4960000D03*
X5214000D03*
X5468000D03*
X5722000D03*
X5976000D03*
X6230000D03*
X6484000D03*
X6738000D03*
X6992000D03*
X7246000D03*
X7500000D03*
X7754000D03*
X8008000D03*
X8262000D03*
X8516000D03*
X8770000D03*
X9024000D03*
X9278000D03*
X9532000D03*
X9786000D03*
X10040000D03*
X10294000D03*
X10548000D03*
X10802000D03*
X11056000D03*
X11310000D03*
X11564000D03*
X11818000D03*
X12072000D03*
X12326000D03*
X12580000D03*
X12834000D03*
X13088000D03*
X13342000D03*
X13596000D03*
X1504000Y1416000D03*
X1758000D03*
Y1670000D03*
X3536000D03*
X3282000D03*
X3536000Y1416000D03*
X3282000D03*
X3028000Y1670000D03*
X2774000D03*
X2520000D03*
X3028000Y1416000D03*
X2774000D03*
X2520000D03*
X2266000Y1670000D03*
Y1416000D03*
X4044000D03*
X4298000D03*
X4552000D03*
X4044000Y1670000D03*
X4298000D03*
X4552000D03*
X4806000Y1416000D03*
X5060000D03*
X5314000D03*
X4806000Y1670000D03*
X5060000D03*
X5314000D03*
X5822000Y1416000D03*
X6076000D03*
X5822000Y1670000D03*
X6076000D03*
X6330000Y1416000D03*
X6584000D03*
X6838000D03*
X6330000Y1670000D03*
X6584000D03*
X6838000D03*
X7092000Y1416000D03*
Y1670000D03*
X7600000Y1416000D03*
Y1670000D03*
X7854000Y1416000D03*
X8108000D03*
X8362000D03*
X7854000Y1670000D03*
X8108000D03*
X8362000D03*
X8616000Y1416000D03*
X8870000D03*
X8616000Y1670000D03*
X8870000D03*
X9378000Y1416000D03*
X9632000D03*
X9886000D03*
X9378000Y1670000D03*
X9632000D03*
X9886000D03*
X10140000Y1416000D03*
X10394000D03*
X10648000D03*
X10140000Y1670000D03*
X10394000D03*
X10648000D03*
G54D26*
X1427000Y500000D03*
X2189000D03*
X1935000D03*
X1681000D03*
X2951000D03*
X2697000D03*
X2443000D03*
X12857000D03*
X12603000D03*
X12349000D03*
X12857000Y754000D03*
X12603000D03*
X12349000D03*
X12857000Y1008000D03*
X12603000D03*
X12349000D03*
X13619000Y500000D03*
X13365000D03*
X13111000D03*
X13619000Y754000D03*
X13365000D03*
X13111000D03*
X13619000Y1008000D03*
X13365000D03*
X13111000D03*
X1427000Y5246000D03*
Y4992000D03*
X1681000Y5246000D03*
X1935000D03*
X2189000D03*
X1681000Y4992000D03*
X1935000D03*
X2189000D03*
X2443000Y5246000D03*
X2697000D03*
X2951000D03*
X2443000Y4992000D03*
X2697000D03*
X2951000D03*
X3205000Y5246000D03*
X3459000D03*
X3713000D03*
X3205000Y4992000D03*
X3459000D03*
X3713000D03*
X3967000Y5246000D03*
X4221000D03*
X4475000D03*
X3967000Y4992000D03*
X4221000D03*
X4475000D03*
X4729000Y5246000D03*
X4983000D03*
X5237000D03*
X4729000Y4992000D03*
X4983000D03*
X5237000D03*
X5491000Y5246000D03*
X5745000D03*
X5999000D03*
X5491000Y4992000D03*
X5745000D03*
X5999000D03*
X6253000Y5246000D03*
X6507000D03*
X6761000D03*
X6253000Y4992000D03*
X6507000D03*
X6761000D03*
X7015000Y5246000D03*
X7269000D03*
X7523000D03*
X7015000Y4992000D03*
X7269000D03*
X7523000D03*
X7777000Y5246000D03*
X8031000D03*
X8285000D03*
X7777000Y4992000D03*
X8031000D03*
X8285000D03*
X8539000Y5246000D03*
X8793000D03*
X9047000D03*
X8539000Y4992000D03*
X8793000D03*
X9047000D03*
X9301000Y5246000D03*
X9555000D03*
X9809000D03*
X9301000Y4992000D03*
X9555000D03*
X9809000D03*
X10063000Y5246000D03*
X10317000D03*
X10571000D03*
X10063000Y4992000D03*
X10317000D03*
X10571000D03*
X10825000Y5246000D03*
X11079000D03*
X11333000D03*
X10825000Y4992000D03*
X11079000D03*
X11333000D03*
X11587000Y5246000D03*
X11841000D03*
X12095000D03*
X11587000Y4992000D03*
X11841000D03*
X12095000D03*
X12349000Y5246000D03*
X12603000D03*
X12857000D03*
X12349000Y4992000D03*
X12603000D03*
X12857000D03*
X13111000Y5246000D03*
X13365000D03*
X13619000D03*
X13111000Y4992000D03*
X13365000D03*
X13619000D03*
X13873000Y5246000D03*
Y4992000D03*
X1427000Y1008000D03*
X2189000D03*
X1935000D03*
X1681000D03*
X2951000D03*
X2697000D03*
X2443000D03*
X4729000D03*
Y754000D03*
Y500000D03*
X3967000Y1008000D03*
X4221000D03*
X4475000D03*
X3967000Y754000D03*
X4221000D03*
X4475000D03*
X3459000Y1008000D03*
X3713000D03*
X3459000Y754000D03*
X3713000D03*
X5237000D03*
Y1008000D03*
X5999000Y754000D03*
X5745000D03*
X5491000D03*
X5999000Y1008000D03*
X5745000D03*
X5491000D03*
X6507000Y500000D03*
Y754000D03*
X6253000D03*
X6507000Y1008000D03*
X6253000D03*
X7523000Y754000D03*
X7269000D03*
X7015000D03*
X7523000Y1008000D03*
X7269000D03*
X7015000D03*
X8285000Y754000D03*
X8031000D03*
X7777000D03*
X8031000Y1008000D03*
X7777000D03*
X8539000Y500000D03*
X9047000Y754000D03*
X8793000D03*
X8539000D03*
X9047000Y1008000D03*
X8793000D03*
X8539000D03*
X9809000Y754000D03*
X9555000D03*
X9301000D03*
Y1008000D03*
X10317000Y754000D03*
X10063000D03*
X10571000Y500000D03*
Y754000D03*
Y1008000D03*
X11333000Y754000D03*
X11079000D03*
X10825000D03*
Y1008000D03*
X12095000Y754000D03*
X11841000D03*
X11587000D03*
%LPD*%
G75*
G54D10*
X300000Y300000D03*
Y5700000D03*
X15000000Y300000D03*
Y5700000D03*
G54D20*
X14826000Y1644000D03*
Y1390000D03*
Y2406000D03*
Y2152000D03*
Y1898000D03*
Y2914000D03*
Y2660000D03*
X15080000Y1644000D03*
Y1390000D03*
Y2406000D03*
Y2152000D03*
Y1898000D03*
Y2914000D03*
Y2660000D03*
G54D11*
X260000Y790000D03*
Y1110000D03*
X280000Y2360000D03*
Y2040000D03*
Y3190000D03*
Y2580000D03*
Y2800000D03*
Y3730000D03*
Y3510000D03*
Y3950000D03*
X480000Y790000D03*
X700000D03*
X1020000D03*
X480000Y1110000D03*
X700000D03*
X1020000D03*
X890000Y2360000D03*
Y2040000D03*
X600000Y2360000D03*
Y2040000D03*
X890000Y3190000D03*
X600000D03*
X890000Y2580000D03*
Y2800000D03*
X600000D03*
Y2580000D03*
X890000Y3730000D03*
Y3510000D03*
X600000Y3730000D03*
Y3510000D03*
X890000Y3950000D03*
X600000D03*
X1500000Y2490000D03*
Y2170000D03*
X1820000Y2490000D03*
Y2170000D03*
X1210000Y2360000D03*
Y2040000D03*
Y3190000D03*
X1500000Y2710000D03*
Y2930000D03*
X1820000D03*
Y2710000D03*
X1210000Y2800000D03*
Y2580000D03*
X1500000Y3890000D03*
Y3670000D03*
Y3350000D03*
X1820000Y3890000D03*
Y3670000D03*
Y3350000D03*
X1210000Y3730000D03*
Y3510000D03*
X1500000Y4110000D03*
X1820000D03*
X1210000Y3950000D03*
X2100000Y2490000D03*
Y2170000D03*
X2420000Y2490000D03*
Y2170000D03*
X2100000Y2710000D03*
Y2930000D03*
X2420000D03*
Y2710000D03*
X2100000Y3890000D03*
Y3670000D03*
Y3350000D03*
X2420000Y3890000D03*
Y3670000D03*
Y3350000D03*
X2100000Y4110000D03*
X2420000D03*
X2700000Y2490000D03*
Y2170000D03*
X3020000Y2490000D03*
Y2170000D03*
X2700000Y2710000D03*
Y2930000D03*
X3020000D03*
Y2710000D03*
X2700000Y3890000D03*
Y3670000D03*
Y3350000D03*
X3020000Y3890000D03*
Y3670000D03*
Y3350000D03*
X2700000Y4110000D03*
X3020000D03*
X3900000Y2490000D03*
Y2170000D03*
X3300000Y2490000D03*
Y2170000D03*
X3620000Y2490000D03*
Y2170000D03*
X3900000Y2710000D03*
Y2930000D03*
X3300000Y2710000D03*
Y2930000D03*
X3620000D03*
Y2710000D03*
X3900000Y3890000D03*
Y3670000D03*
Y3350000D03*
X3300000Y3890000D03*
Y3670000D03*
Y3350000D03*
X3620000Y3890000D03*
Y3670000D03*
Y3350000D03*
X3900000Y4110000D03*
X3300000D03*
X3620000D03*
X4500000Y2490000D03*
Y2170000D03*
X4220000Y2490000D03*
Y2170000D03*
X4500000Y2710000D03*
Y2930000D03*
X4220000D03*
Y2710000D03*
X4500000Y3890000D03*
Y3670000D03*
Y3350000D03*
X4220000Y3890000D03*
Y3670000D03*
Y3350000D03*
X4500000Y4110000D03*
X4220000D03*
X5100000Y2490000D03*
Y2170000D03*
X4820000Y2490000D03*
Y2170000D03*
X5100000Y2710000D03*
Y2930000D03*
X4820000D03*
Y2710000D03*
X5100000Y3890000D03*
Y3670000D03*
Y3350000D03*
X4820000Y3890000D03*
Y3670000D03*
Y3350000D03*
X5100000Y4110000D03*
X4820000D03*
X5700000Y2490000D03*
Y2170000D03*
X5420000Y2490000D03*
Y2170000D03*
X5700000Y2710000D03*
Y2930000D03*
X5420000D03*
Y2710000D03*
X5700000Y3890000D03*
Y3670000D03*
Y3350000D03*
X5420000Y3890000D03*
Y3670000D03*
Y3350000D03*
X5700000Y4110000D03*
X5420000D03*
X6300000Y2490000D03*
Y2170000D03*
X6620000Y2490000D03*
Y2170000D03*
X6020000Y2490000D03*
Y2170000D03*
X6300000Y2710000D03*
Y2930000D03*
X6620000D03*
Y2710000D03*
X6020000Y2930000D03*
Y2710000D03*
X6300000Y3890000D03*
Y3670000D03*
Y3350000D03*
X6620000Y3890000D03*
Y3670000D03*
Y3350000D03*
X6020000Y3890000D03*
Y3670000D03*
Y3350000D03*
X6300000Y4110000D03*
X6620000D03*
X6020000D03*
X6900000Y2490000D03*
Y2170000D03*
X7220000Y2490000D03*
Y2170000D03*
X6900000Y2710000D03*
Y2930000D03*
X7220000D03*
Y2710000D03*
X6900000Y3890000D03*
Y3670000D03*
Y3350000D03*
X7220000Y3890000D03*
Y3670000D03*
Y3350000D03*
X6900000Y4110000D03*
X7220000D03*
X7500000Y2490000D03*
Y2170000D03*
X7820000Y2490000D03*
Y2170000D03*
X7500000Y2710000D03*
Y2930000D03*
X7820000D03*
Y2710000D03*
X7500000Y3890000D03*
Y3670000D03*
Y3350000D03*
X7820000Y3890000D03*
Y3670000D03*
Y3350000D03*
X7500000Y4110000D03*
X7820000D03*
X8700000Y2490000D03*
Y2170000D03*
X8100000Y2490000D03*
Y2170000D03*
X8420000Y2490000D03*
Y2170000D03*
X8700000Y2710000D03*
Y2930000D03*
X8100000Y2710000D03*
Y2930000D03*
X8420000D03*
Y2710000D03*
X8700000Y3890000D03*
Y3670000D03*
Y3350000D03*
X8100000Y3890000D03*
Y3670000D03*
Y3350000D03*
X8420000Y3890000D03*
Y3670000D03*
Y3350000D03*
X8700000Y4110000D03*
X8100000D03*
X8420000D03*
X9020000Y2490000D03*
Y2170000D03*
X9300000Y2490000D03*
Y2170000D03*
X9020000Y2930000D03*
Y2710000D03*
X9300000D03*
Y2930000D03*
Y3890000D03*
Y3670000D03*
Y3350000D03*
X9020000Y3890000D03*
Y3670000D03*
Y3350000D03*
X9300000Y4110000D03*
X9020000D03*
X9910000Y2490000D03*
Y2170000D03*
X9620000Y2490000D03*
Y2170000D03*
X9910000Y2710000D03*
Y2930000D03*
X9620000D03*
Y2710000D03*
Y3890000D03*
Y3670000D03*
Y3350000D03*
X9910000Y3890000D03*
Y3670000D03*
Y3350000D03*
X9620000Y4110000D03*
X9910000D03*
X10510000Y2490000D03*
Y2170000D03*
X10830000Y2490000D03*
Y2170000D03*
X10230000Y2490000D03*
Y2170000D03*
X10510000Y2710000D03*
Y2930000D03*
X10830000D03*
Y2710000D03*
X10230000Y2930000D03*
Y2710000D03*
X10510000Y3890000D03*
Y3670000D03*
Y3350000D03*
X10830000Y3890000D03*
Y3670000D03*
Y3350000D03*
X10230000Y3890000D03*
Y3670000D03*
Y3350000D03*
X10510000Y4110000D03*
X10830000D03*
X10230000D03*
X11110000Y2490000D03*
Y2170000D03*
X11430000Y2490000D03*
Y2170000D03*
X11110000Y2710000D03*
Y2930000D03*
X11430000D03*
Y2710000D03*
X11110000Y3890000D03*
Y3670000D03*
Y3350000D03*
X11430000Y3890000D03*
Y3670000D03*
Y3350000D03*
X11110000Y4110000D03*
X11430000D03*
X11710000Y2490000D03*
Y2170000D03*
X12030000Y2490000D03*
Y2170000D03*
X11710000Y2710000D03*
Y2930000D03*
X12030000D03*
Y2710000D03*
X11710000Y3890000D03*
Y3670000D03*
Y3350000D03*
X12030000Y3890000D03*
Y3670000D03*
Y3350000D03*
X11710000Y4110000D03*
X12030000D03*
X12310000Y2490000D03*
Y2170000D03*
X12630000Y2490000D03*
Y2170000D03*
X12900000Y2260000D03*
X12310000Y2710000D03*
Y2930000D03*
X12630000D03*
Y2710000D03*
X12900000Y2800000D03*
Y3020000D03*
Y2580000D03*
X12310000Y3890000D03*
Y3670000D03*
Y3350000D03*
X12630000Y3890000D03*
Y3670000D03*
Y3350000D03*
X12900000Y3890000D03*
Y3670000D03*
Y3350000D03*
X12310000Y4110000D03*
X12630000D03*
X12900000D03*
X13510000Y2260000D03*
X13220000D03*
X13510000Y2800000D03*
Y3020000D03*
Y2580000D03*
X13220000Y3020000D03*
Y2800000D03*
Y2580000D03*
X13510000Y3890000D03*
Y3670000D03*
Y3350000D03*
X13220000Y3890000D03*
Y3670000D03*
Y3350000D03*
X13510000Y4110000D03*
X13220000D03*
X13830000Y2260000D03*
X14170000Y2480000D03*
Y2160000D03*
X13830000Y3020000D03*
Y2800000D03*
Y2580000D03*
X14170000Y2700000D03*
Y2920000D03*
X14140000Y3250000D03*
Y3470000D03*
Y3690000D03*
X13830000Y3890000D03*
Y3670000D03*
Y3350000D03*
X14140000Y4010000D03*
X13830000Y4110000D03*
X14490000Y2480000D03*
Y2160000D03*
Y2920000D03*
Y2700000D03*
X14460000Y3470000D03*
Y3250000D03*
Y3690000D03*
Y4010000D03*
G54D12*
X234000Y1416000D03*
X488000D03*
X234000Y1670000D03*
X488000D03*
X742000Y1416000D03*
X996000D03*
X742000Y1670000D03*
X996000D03*
X1250000Y1416000D03*
X1504000D03*
X1758000D03*
X1250000Y1670000D03*
X1504000D03*
X1758000D03*
X1404000Y4456000D03*
X1658000D03*
X1404000Y4710000D03*
X1658000D03*
X2012000Y1416000D03*
X2266000D03*
X2520000D03*
X2012000Y1670000D03*
X2266000D03*
X2520000D03*
X1912000Y4456000D03*
X2166000D03*
X2420000D03*
X1912000Y4710000D03*
X2166000D03*
X2420000D03*
X2774000Y1416000D03*
X3028000D03*
X2774000Y1670000D03*
X3028000D03*
X2674000Y4456000D03*
X2928000D03*
X3182000D03*
X2674000Y4710000D03*
X2928000D03*
X3182000D03*
X3282000Y1416000D03*
X3536000D03*
X3790000D03*
X3282000Y1670000D03*
X3536000D03*
X3790000D03*
X3436000Y4456000D03*
X3690000D03*
X3944000D03*
X3436000Y4710000D03*
X3690000D03*
X3944000D03*
X4044000Y1416000D03*
X4298000D03*
X4552000D03*
X4044000Y1670000D03*
X4298000D03*
X4552000D03*
X4198000Y4456000D03*
X4452000D03*
X4198000Y4710000D03*
X4452000D03*
X4806000Y1416000D03*
X5060000D03*
X5314000D03*
X4806000Y1670000D03*
X5060000D03*
X5314000D03*
X4706000Y4456000D03*
X4960000D03*
X5214000D03*
X4706000Y4710000D03*
X4960000D03*
X5214000D03*
X5568000Y1416000D03*
X5822000D03*
X5568000Y1670000D03*
X5822000D03*
X5468000Y4456000D03*
X5722000D03*
X5976000D03*
X5468000Y4710000D03*
X5722000D03*
X5976000D03*
X6076000Y1416000D03*
X6330000D03*
X6584000D03*
X6076000Y1670000D03*
X6330000D03*
X6584000D03*
X6230000Y4456000D03*
X6484000D03*
X6230000Y4710000D03*
X6484000D03*
X6838000Y1416000D03*
X7092000D03*
X7346000D03*
X6838000Y1670000D03*
X7092000D03*
X7346000D03*
X6738000Y4456000D03*
X6992000D03*
X7246000D03*
X6738000Y4710000D03*
X6992000D03*
X7246000D03*
X7600000Y1416000D03*
Y1670000D03*
X7854000Y1416000D03*
Y1670000D03*
X8108000Y1416000D03*
Y1670000D03*
X7500000Y4456000D03*
X7754000D03*
X8008000D03*
X7500000Y4710000D03*
X7754000D03*
X8008000D03*
X8362000Y1416000D03*
Y1670000D03*
X8616000Y1416000D03*
Y1670000D03*
X8262000Y4456000D03*
X8516000D03*
X8770000D03*
X8262000Y4710000D03*
X8516000D03*
X8770000D03*
X8870000Y1416000D03*
Y1670000D03*
X9124000Y1416000D03*
Y1670000D03*
X9378000Y1416000D03*
Y1670000D03*
X9024000Y4456000D03*
X9278000D03*
X9024000Y4710000D03*
X9278000D03*
X9632000Y1416000D03*
Y1670000D03*
X9886000Y1416000D03*
Y1670000D03*
X10140000Y1416000D03*
Y1670000D03*
X9532000Y4456000D03*
X9786000D03*
X10040000D03*
X9532000Y4710000D03*
X9786000D03*
X10040000D03*
X10394000Y1416000D03*
Y1670000D03*
X10648000Y1416000D03*
Y1670000D03*
X10294000Y4456000D03*
X10548000D03*
X10802000D03*
X10294000Y4710000D03*
X10548000D03*
X10802000D03*
X10902000Y1416000D03*
Y1670000D03*
X11156000Y1416000D03*
Y1670000D03*
X11410000Y1416000D03*
Y1670000D03*
X11056000Y4456000D03*
X11310000D03*
X11564000D03*
X11056000Y4710000D03*
X11310000D03*
X11564000D03*
X11664000Y1416000D03*
Y1670000D03*
X11918000Y1416000D03*
Y1670000D03*
X12172000Y1416000D03*
Y1670000D03*
X11818000Y4456000D03*
X12072000D03*
X11818000Y4710000D03*
X12072000D03*
X12426000Y1416000D03*
Y1670000D03*
X12680000Y1416000D03*
X12326000Y4456000D03*
X12580000D03*
X12834000D03*
X12326000Y4710000D03*
X12580000D03*
X12834000D03*
X13088000Y4456000D03*
X13342000D03*
X13596000D03*
X13088000Y4710000D03*
X13342000D03*
X13596000D03*
X13850000Y4456000D03*
G54D21*
X14700000Y3180000D03*
G54D22*
G01X404900Y1110000D02*
X480000D01*
G01X404900Y790000D02*
X480000D01*
G01X280000Y2040000D02*
Y2115100D01*
G01Y2040000D02*
X355100D01*
G01X280000Y3114900D02*
Y3190000D01*
G01D02*
Y3265100D01*
G01Y3190000D02*
X355100D01*
G01X1020000Y790000D02*
Y865100D01*
G01X944900Y790000D02*
X1020000D01*
G01X480000Y1034900D02*
Y1110000D01*
G01D02*
Y1185100D01*
G01Y1110000D02*
X555100D01*
G01X480000Y714900D02*
Y790000D01*
G01D02*
Y865100D01*
G01Y790000D02*
X555100D01*
G01X890000Y2040000D02*
Y2115100D01*
G01X814900Y2040000D02*
X890000D01*
G01D02*
X965100D01*
G01X890000Y3114900D02*
Y3190000D01*
G01D02*
Y3265100D01*
G01X814900Y3190000D02*
X890000D01*
G01D02*
X965100D01*
G01X599800Y4896240D02*
Y5021340D01*
G01D02*
Y5146440D01*
G01X474700Y5021340D02*
X599800D01*
G01D02*
X724900D01*
G01X1681000Y754000D02*
X1753330Y826330D01*
G01X1608670D02*
X1681000Y754000D01*
G01X1427000D02*
X1499330Y826330D01*
G01X1354670D02*
X1427000Y754000D01*
G01X1500000Y2094900D02*
Y2170000D01*
G01D02*
Y2245100D01*
G01X1424900Y2170000D02*
X1500000D01*
G01Y3274900D02*
Y3350000D01*
G01X1424900D02*
X1500000D01*
G01X2443000Y754000D02*
X2515330Y826330D01*
G01X2370670D02*
X2443000Y754000D01*
G01X1935000D02*
X2007330Y826330D01*
G01X1862670D02*
X1935000Y754000D01*
G01X2189000D02*
X2261330Y826330D01*
G01X2116670D02*
X2189000Y754000D01*
G01X2266000Y1562400D02*
Y1670000D01*
G01D02*
Y1777600D01*
G01X2158400Y1670000D02*
X2266000D01*
G01D02*
X2373600D01*
G01X2266000Y1308400D02*
Y1416000D01*
G01D02*
Y1523600D01*
G01X2158400Y1416000D02*
X2266000D01*
G01D02*
X2373600D01*
G01X2878670Y935670D02*
X2951000Y1008000D01*
G01D02*
X3023330Y1080330D01*
G01X2878670D02*
X2951000Y1008000D01*
G01D02*
X3023330Y935670D01*
G01X2697000Y754000D02*
X2769330Y826330D01*
G01X2624670D02*
X2697000Y754000D01*
G01X2951000D02*
X3023330Y826330D01*
G01X2878670D02*
X2951000Y754000D01*
G01X3871900D02*
X3967000D01*
G01X3205000Y658900D02*
Y754000D01*
G01D02*
Y849100D01*
G01Y754000D02*
X3300100D01*
G01X3459000Y658900D02*
Y754000D01*
G01D02*
Y849100D01*
G01X3363900Y754000D02*
X3459000D01*
G01D02*
X3554100D01*
G01X3713000Y658900D02*
Y754000D01*
G01D02*
Y849100D01*
G01X3617900Y754000D02*
X3713000D01*
G01D02*
X3808100D01*
G01X3967000Y658900D02*
Y754000D01*
G01D02*
Y849100D01*
G01Y754000D02*
X4062100D01*
G01X4221000Y658900D02*
Y754000D01*
G01D02*
Y849100D01*
G01X4125900Y754000D02*
X4221000D01*
G01D02*
X4316100D01*
G01X4475000Y658900D02*
Y754000D01*
G01D02*
Y849100D01*
G01X4379900Y754000D02*
X4475000D01*
G01D02*
X4570100D01*
G01X4044000Y1562400D02*
Y1670000D01*
G01D02*
Y1777600D01*
G01X3936400Y1670000D02*
X4044000D01*
G01D02*
X4151600D01*
G01X4044000Y1308400D02*
Y1416000D01*
G01D02*
Y1523600D01*
G01X3936400Y1416000D02*
X4044000D01*
G01D02*
X4151600D01*
G01X4729000Y912900D02*
Y1008000D01*
G01D02*
Y1103100D01*
G01X4633900Y1008000D02*
X4729000D01*
G01D02*
X4824100D01*
G01X4729000Y658900D02*
Y754000D01*
G01D02*
Y849100D01*
G01X4633900Y754000D02*
X4729000D01*
G01D02*
X4824100D01*
G01X4729000Y500000D02*
Y595100D01*
G01X4633900Y500000D02*
X4729000D01*
G01D02*
X4824100D01*
G01X4983000Y658900D02*
Y754000D01*
G01D02*
Y849100D01*
G01Y754000D02*
X5078100D01*
G01X5237000Y658900D02*
Y754000D01*
G01D02*
Y849100D01*
G01X5141900Y754000D02*
X5237000D01*
G01D02*
X5332100D01*
G01X5491000Y658900D02*
Y754000D01*
G01D02*
Y849100D01*
G01X5395900Y754000D02*
X5491000D01*
G01D02*
X5586100D01*
G01X5745000Y658900D02*
Y754000D01*
G01D02*
Y849100D01*
G01X5649900Y754000D02*
X5745000D01*
G01D02*
X5840100D01*
G01X5903900D02*
X5999000D01*
G01X5822000Y1562400D02*
Y1670000D01*
G01D02*
Y1777600D01*
G01X5714400Y1670000D02*
X5822000D01*
G01D02*
X5929600D01*
G01X5822000Y1308400D02*
Y1416000D01*
G01D02*
Y1523600D01*
G01X5714400Y1416000D02*
X5822000D01*
G01D02*
X5929600D01*
G01X6507000Y912900D02*
Y1008000D01*
G01D02*
Y1103100D01*
G01X6411900Y1008000D02*
X6507000D01*
G01D02*
X6602100D01*
G01X6253000Y658900D02*
Y754000D01*
G01D02*
Y849100D01*
G01X6157900Y754000D02*
X6253000D01*
G01D02*
X6348100D01*
G01X6507000Y658900D02*
Y754000D01*
G01D02*
Y849100D01*
G01X6411900Y754000D02*
X6507000D01*
G01D02*
X6602100D01*
G01X6507000Y500000D02*
Y595100D01*
G01X6411900Y500000D02*
X6507000D01*
G01D02*
X6602100D01*
G01X5999000Y658900D02*
Y754000D01*
G01D02*
Y849100D01*
G01Y754000D02*
X6094100D01*
G01X7015000Y658900D02*
Y754000D01*
G01D02*
Y849100D01*
G01X6919900Y754000D02*
X7015000D01*
G01D02*
X7110100D01*
G01X7269000Y658900D02*
Y754000D01*
G01D02*
Y849100D01*
G01X7173900Y754000D02*
X7269000D01*
G01D02*
X7364100D01*
G01X6761000Y912900D02*
Y1008000D01*
G01D02*
Y1103100D01*
G01Y1008000D02*
X6856100D01*
G01X6761000Y658900D02*
Y754000D01*
G01D02*
Y849100D01*
G01Y754000D02*
X6856100D01*
G01X6761000Y500000D02*
Y595100D01*
G01Y500000D02*
X6856100D01*
G01X7777000Y658900D02*
Y754000D01*
G01D02*
Y849100D01*
G01X7681900Y754000D02*
X7777000D01*
G01D02*
X7872100D01*
G01X8031000Y658900D02*
Y754000D01*
G01D02*
Y849100D01*
G01X7935900Y754000D02*
X8031000D01*
G01D02*
X8126100D01*
G01X7523000Y658900D02*
Y754000D01*
G01D02*
Y849100D01*
G01X7427900Y754000D02*
X7523000D01*
G01D02*
X7618100D01*
G01X7600000Y1562400D02*
Y1670000D01*
G01D02*
Y1777600D01*
G01X7492400Y1670000D02*
X7600000D01*
G01D02*
X7707600D01*
G01X7600000Y1308400D02*
Y1416000D01*
G01D02*
Y1523600D01*
G01X7492400Y1416000D02*
X7600000D01*
G01D02*
X7707600D01*
G01X8539000Y404900D02*
Y500000D01*
G01Y912900D02*
Y1008000D01*
G01D02*
Y1103100D01*
G01X8443900Y1008000D02*
X8539000D01*
G01D02*
X8634100D01*
G01X8697900D02*
X8793000D01*
G01X8539000Y658900D02*
Y754000D01*
G01D02*
Y849100D01*
G01X8443900Y754000D02*
X8539000D01*
G01D02*
X8634100D01*
G01X8697900D02*
X8793000D01*
G01X8539000Y500000D02*
Y595100D01*
G01Y500000D02*
X8634100D01*
G01X8697900D02*
X8793000D01*
G01X8285000Y658900D02*
Y754000D01*
G01D02*
Y849100D01*
G01X8189900Y754000D02*
X8285000D01*
G01D02*
X8380100D01*
G01X9301000Y658900D02*
Y754000D01*
G01D02*
Y849100D01*
G01X9205900Y754000D02*
X9301000D01*
G01D02*
X9396100D01*
G01X8793000Y912900D02*
Y1008000D01*
G01D02*
Y1103100D01*
G01Y1008000D02*
X8888100D01*
G01X8793000Y658900D02*
Y754000D01*
G01D02*
Y849100D01*
G01Y754000D02*
X8888100D01*
G01X9047000Y658900D02*
Y754000D01*
G01D02*
Y849100D01*
G01X8951900Y754000D02*
X9047000D01*
G01D02*
X9142100D01*
G01X8793000Y500000D02*
Y595100D01*
G01X9378000Y1562400D02*
Y1670000D01*
G01D02*
Y1777600D01*
G01X9270400Y1670000D02*
X9378000D01*
G01D02*
X9485600D01*
G01X9378000Y1308400D02*
Y1416000D01*
G01D02*
Y1523600D01*
G01X9270400Y1416000D02*
X9378000D01*
G01D02*
X9485600D01*
G01X10063000Y658900D02*
Y754000D01*
G01D02*
Y849100D01*
G01X9967900Y754000D02*
X10063000D01*
G01D02*
X10158100D01*
G01X9555000Y658900D02*
Y754000D01*
G01D02*
Y849100D01*
G01X9459900Y754000D02*
X9555000D01*
G01D02*
X9650100D01*
G01X9809000Y658900D02*
Y754000D01*
G01D02*
Y849100D01*
G01X9713900Y754000D02*
X9809000D01*
G01D02*
X9904100D01*
G01X10571000Y404900D02*
Y500000D01*
G01X10317000Y658900D02*
Y754000D01*
G01D02*
Y849100D01*
G01X10221900Y754000D02*
X10317000D01*
G01D02*
X10412100D01*
G01X10729900D02*
X10825000D01*
G01X10571000Y912900D02*
Y1008000D01*
G01D02*
Y1103100D01*
G01X10475900Y1008000D02*
X10571000D01*
G01D02*
X10666100D01*
G01X10571000Y658900D02*
Y754000D01*
G01D02*
Y849100D01*
G01X10475900Y754000D02*
X10571000D01*
G01D02*
X10666100D01*
G01X10571000Y500000D02*
Y595100D01*
G01Y500000D02*
X10666100D01*
G01X11491900Y754000D02*
X11587000D01*
G01X10825000Y658900D02*
Y754000D01*
G01D02*
Y849100D01*
G01Y754000D02*
X10920100D01*
G01X11079000Y658900D02*
Y754000D01*
G01D02*
Y849100D01*
G01X10983900Y754000D02*
X11079000D01*
G01D02*
X11174100D01*
G01X11333000Y658900D02*
Y754000D01*
G01D02*
Y849100D01*
G01X11237900Y754000D02*
X11333000D01*
G01D02*
X11428100D01*
G01X11156000Y1562400D02*
Y1670000D01*
G01D02*
Y1777600D01*
G01X11048400Y1670000D02*
X11156000D01*
G01D02*
X11263600D01*
G01X11156000Y1308400D02*
Y1416000D01*
G01D02*
Y1523600D01*
G01X11048400Y1416000D02*
X11156000D01*
G01D02*
X11263600D01*
G01X11587000Y658900D02*
Y754000D01*
G01D02*
Y849100D01*
G01Y754000D02*
X11682100D01*
G01X11841000Y658900D02*
Y754000D01*
G01D02*
Y849100D01*
G01X11745900Y754000D02*
X11841000D01*
G01D02*
X11936100D01*
G01X12095000Y658900D02*
Y754000D01*
G01D02*
Y849100D01*
G01X11999900Y754000D02*
X12095000D01*
G01X12349000Y404900D02*
Y500000D01*
G01Y912900D02*
Y1008000D01*
G01D02*
Y1103100D01*
G01X12253900Y1008000D02*
X12349000D01*
G01D02*
X12444100D01*
G01X12349000Y658900D02*
Y754000D01*
G01D02*
Y849100D01*
G01X12253900Y754000D02*
X12349000D01*
G01D02*
X12444100D01*
G01X12603000Y658900D02*
Y754000D01*
G01D02*
Y849100D01*
G01X12507900Y754000D02*
X12603000D01*
G01D02*
X12698100D01*
G01X12857000Y658900D02*
Y754000D01*
G01D02*
Y849100D01*
G01X12761900Y754000D02*
X12857000D01*
G01D02*
X12952100D01*
G01X12349000Y500000D02*
Y595100D01*
G01X12253900Y500000D02*
X12349000D01*
G01D02*
X12444100D01*
G01X12824900Y2800000D02*
X12900000D01*
G01Y3890000D02*
X12958180Y3948180D01*
G01X12841820D02*
X12900000Y3890000D01*
G01X13111000Y658900D02*
Y754000D01*
G01D02*
Y849100D01*
G01X13015900Y754000D02*
X13111000D01*
G01D02*
X13206100D01*
G01X13365000Y658900D02*
Y754000D01*
G01D02*
Y849100D01*
G01X13269900Y754000D02*
X13365000D01*
G01D02*
X13460100D01*
G01X13523900D02*
X13619000D01*
G01X13220000Y2724900D02*
Y2800000D01*
G01D02*
Y2875100D01*
G01X13144900Y2800000D02*
X13220000D01*
G01D02*
X13295100D01*
G01X12900000Y2724900D02*
Y2800000D01*
G01D02*
Y2875100D01*
G01Y2800000D02*
X12975100D01*
G01X13510000Y2724900D02*
Y2800000D01*
G01D02*
Y2875100D01*
G01X13434900Y2800000D02*
X13510000D01*
G01D02*
X13585100D01*
G01X13510000Y3814900D02*
Y3890000D01*
G01X13220000D02*
X13278180Y3948180D01*
G01X13161820D02*
X13220000Y3890000D01*
G01X13510000D02*
Y3965100D01*
G01X13434900Y3890000D02*
X13510000D01*
G01D02*
X13585100D01*
G01X13873000Y658900D02*
Y754000D01*
G01D02*
Y849100D01*
G01X13777900Y754000D02*
X13873000D01*
G01X13619000Y658900D02*
Y754000D01*
G01D02*
Y849100D01*
G01Y754000D02*
X13714100D01*
G01X13830000Y2724900D02*
Y2800000D01*
G01D02*
Y2875100D01*
G01X13754900Y2800000D02*
X13830000D01*
G01D02*
X13905100D01*
G01X14170000Y2624900D02*
Y2700000D01*
G01D02*
Y2775100D01*
G01X14094900Y2700000D02*
X14170000D01*
G01D02*
X14245100D01*
G01X13830000Y3814900D02*
Y3890000D01*
G01X14140000Y3394900D02*
Y3470000D01*
G01D02*
Y3545100D01*
G01X14064900Y3470000D02*
X14140000D01*
G01D02*
X14215100D01*
G01X13830000Y3890000D02*
Y3965100D01*
G01X13754900Y3890000D02*
X13830000D01*
G01D02*
X13905100D01*
G01X14700000Y3099900D02*
Y3180000D01*
G01D02*
Y3260100D01*
G01X14619900Y3180000D02*
X14700000D01*
G01D02*
X14780100D01*
G01X14826000Y2660000D02*
Y2775100D01*
G01X14710900Y2660000D02*
X14826000D01*
G01X14490000Y2624900D02*
Y2700000D01*
G01D02*
Y2775100D01*
G01X14414900Y2700000D02*
X14490000D01*
G01X14964900Y2660000D02*
X15080000D01*
G01X14460000Y3394900D02*
Y3470000D01*
G01D02*
Y3545100D01*
G01X14384900Y3470000D02*
X14460000D01*
G01X14700000Y4540000D02*
Y4665100D01*
G01X14574900Y4540000D02*
X14700000D01*
G01D02*
X14825100D01*
G01X15080000Y2544900D02*
Y2660000D01*
G01D02*
Y2775100D01*
G01Y2660000D02*
X15195100D01*
G54D13*
G01X635000Y1775000D02*
X507470Y1902530D01*
X212470D01*
X165000Y1950000D01*
Y2880000D01*
X225000Y2940000D01*
X295000D01*
X444600Y3089600D01*
Y3090000D01*
G01X14605000Y4195000D02*
X13975000D01*
X13850000Y4320000D01*
X367300D01*
X95000Y4047700D01*
G01X517300Y3090000D02*
X444600D01*
G01X13707500Y2952700D02*
Y2880000D01*
X200000Y3855000D03*
X90000Y3562300D03*
X95000Y4047700D03*
X444600Y3090000D03*
X517300D03*
Y2995000D03*
X787300Y3090000D03*
X517300Y2900000D03*
X785000Y2995000D03*
X1390000Y80000D03*
X1730000Y5920000D03*
X1230000D03*
X2390000Y80000D03*
X1890000D03*
X2230000Y5920000D03*
X2890000Y80000D03*
X2730000Y5920000D03*
X3890000Y80000D03*
X3390000D03*
X3455000Y1845000D03*
X3710000Y4010000D03*
X3770000Y4060000D03*
X3230000Y5920000D03*
X3730000D03*
X4390000Y80000D03*
X3935000Y2035000D03*
X4230000Y5920000D03*
X4890000Y80000D03*
X4730000Y5920000D03*
X5230000D03*
X5390000Y80000D03*
X5890000D03*
X5730000Y5920000D03*
X6390000Y80000D03*
X6230000Y5920000D03*
X6890000Y80000D03*
X6835000Y3045000D03*
X7295000Y3235000D03*
X6970000Y4020000D03*
X7230000Y5920000D03*
X6730000D03*
X7890000Y80000D03*
X7390000D03*
X7370000Y4000000D03*
X7730000Y5920000D03*
X8390000Y80000D03*
X8730000Y5920000D03*
X8230000D03*
X9390000Y80000D03*
X8890000D03*
X9230000Y5920000D03*
X9890000Y80000D03*
X9730000Y5920000D03*
X10390000Y80000D03*
X10445000Y3045000D03*
X10620000Y3947500D03*
X10730000Y5920000D03*
X10230000D03*
X11390000Y80000D03*
X10890000D03*
X11195000Y3420000D03*
X10912700Y3235000D03*
X11230000Y5920000D03*
X11890000Y80000D03*
X11730000Y5920000D03*
X12890000Y80000D03*
X12390000D03*
X12500000Y3580000D03*
X12435000Y3527500D03*
X12230000Y5920000D03*
X12730000D03*
X13390000Y80000D03*
X13070000Y1415000D03*
X13375000Y1277700D03*
X13427500Y1342500D03*
X13070000Y1325000D03*
X13480000Y1279290D03*
X13280000Y1450000D03*
X13314170Y1345830D03*
X13275000Y1525000D03*
X13587500Y1290000D03*
X13532500Y1350000D03*
X13525000Y1905000D03*
X13375000Y1910000D03*
X13060000Y1920000D03*
X13267300Y2025000D03*
X13140000Y1932700D03*
X12990000Y3540000D03*
X13030000Y3670000D03*
X13065000Y3985000D03*
X13086100Y4057860D03*
X13230000Y5920000D03*
X13530000Y5652500D03*
X13450000Y5654630D03*
X13890000Y80000D03*
X14127810Y1772570D03*
X13849500Y1739670D03*
X13654520Y1544520D03*
X13617870Y1697870D03*
X13990000Y1260000D03*
X13610000Y1777500D03*
X13862300Y1660000D03*
X13683410Y1780850D03*
X13860000Y1277700D03*
X14196520Y1300000D03*
X13620000Y1620000D03*
X13925000Y1775000D03*
X13785000Y1390000D03*
X13857500Y1365000D03*
X13794890Y1310060D03*
X14255000Y1716620D03*
X14254890Y1597810D03*
X14203480Y1649220D03*
X13725000Y1290000D03*
X13932700Y1174170D03*
X13895000Y2170000D03*
X13950000Y2117700D03*
X13825000Y2140000D03*
X13707500Y2952700D03*
Y2880000D03*
X14040000Y4880000D03*
X14113000Y5522500D03*
X13730000Y5920000D03*
X13810000Y5712500D03*
X14187870Y5477870D03*
X13730000Y5732500D03*
X14332700Y1805000D03*
X14395000Y1900000D03*
X14403900Y2054350D03*
X14935000Y3785000D03*
X14480000Y4285000D03*
X14410000Y4390000D03*
X14405000Y4510000D03*
X14869500Y4973700D03*
X14612700Y4712500D03*
X15095000Y3597300D03*
X15049800Y4183500D03*
Y3929500D03*
X15049500Y4310500D03*
X15055000Y4990000D03*
X15125000D03*
X15200000D03*
X15195000Y4895000D03*
Y4820000D03*
X15045000Y4670000D03*
X15195000Y4677300D03*
Y4750000D03*
X15197700Y5250000D03*
X15005000D03*
G54D23*
G01X12967000Y1440000D02*
X12880000D01*
G01X13033000Y1500000D02*
X12970000Y1437000D01*
G01X12900000Y1367000D02*
X12970000Y1437000D01*
G01D02*
X12967000Y1440000D01*
G01X12897000Y1510000D02*
X12967000Y1440000D01*
G54D14*
X919000Y246000D03*
Y5754000D03*
X14381000Y246000D03*
Y5754000D03*
G54D24*
G01X0Y0D02*
Y6000000D01*
X15300000D01*
Y0D01*
X0D01*
G54D15*
X599800Y4513340D03*
Y5021340D03*
X14700000Y4540000D03*
Y5048000D03*
G54D16*
X1681000Y500000D03*
X1427000D03*
X1681000Y754000D03*
X1427000D03*
X1681000Y1008000D03*
X1427000D03*
Y5246000D03*
X1681000D03*
X1427000Y4992000D03*
X1681000D03*
X1427000Y5500000D03*
X1681000D03*
X2443000Y500000D03*
X2189000D03*
X1935000D03*
X2443000Y754000D03*
X2189000D03*
X1935000D03*
X2443000Y1008000D03*
X2189000D03*
X1935000D03*
Y5246000D03*
X2189000D03*
X2443000D03*
X1935000Y4992000D03*
X2189000D03*
X2443000D03*
X1935000Y5500000D03*
X2189000D03*
X2443000D03*
X3205000Y500000D03*
X2951000D03*
X2697000D03*
X3205000Y754000D03*
X2951000D03*
X2697000D03*
X3205000Y1008000D03*
X2951000D03*
X2697000D03*
Y5246000D03*
X2951000D03*
X3205000D03*
X2697000Y4992000D03*
X2951000D03*
X3205000D03*
X2697000Y5500000D03*
X2951000D03*
X3205000D03*
X3713000Y500000D03*
X3459000D03*
X3713000Y754000D03*
X3459000D03*
X3713000Y1008000D03*
X3459000D03*
Y5246000D03*
X3713000D03*
X3459000Y4992000D03*
X3713000D03*
X3459000Y5500000D03*
X3713000D03*
X4475000Y500000D03*
X4221000D03*
X3967000D03*
X4475000Y754000D03*
X4221000D03*
X3967000D03*
X4475000Y1008000D03*
X4221000D03*
X3967000D03*
Y5246000D03*
X4221000D03*
X4475000D03*
X3967000Y4992000D03*
X4221000D03*
X4475000D03*
X3967000Y5500000D03*
X4221000D03*
X4475000D03*
X5237000Y500000D03*
X4983000D03*
X4729000D03*
X5237000Y754000D03*
X4983000D03*
X4729000D03*
X5237000Y1008000D03*
X4983000D03*
X4729000D03*
Y5246000D03*
X4983000D03*
X5237000D03*
X4729000Y4992000D03*
X4983000D03*
X5237000D03*
X4729000Y5500000D03*
X4983000D03*
X5237000D03*
X5999000Y500000D03*
X5745000D03*
X5491000D03*
X5999000Y754000D03*
X5745000D03*
X5491000D03*
X5999000Y1008000D03*
X5745000D03*
X5491000D03*
Y5246000D03*
X5745000D03*
X5999000D03*
X5491000Y4992000D03*
X5745000D03*
X5999000D03*
X5491000Y5500000D03*
X5745000D03*
X5999000D03*
X6507000Y500000D03*
X6253000D03*
X6507000Y754000D03*
X6253000D03*
X6507000Y1008000D03*
X6253000D03*
Y5246000D03*
X6507000D03*
X6253000Y4992000D03*
X6507000D03*
X6253000Y5500000D03*
X6507000D03*
X7269000Y500000D03*
X7015000D03*
X6761000D03*
X7269000Y754000D03*
X7015000D03*
X6761000D03*
X7269000Y1008000D03*
X7015000D03*
X6761000D03*
Y5246000D03*
X7015000D03*
X7269000D03*
X6761000Y4992000D03*
X7015000D03*
X7269000D03*
X6761000Y5500000D03*
X7015000D03*
X7269000D03*
X8031000Y500000D03*
X7777000D03*
X7523000D03*
X8031000Y754000D03*
X7777000D03*
X7523000D03*
X8031000Y1008000D03*
X7777000D03*
X7523000D03*
Y5246000D03*
X7777000D03*
X8031000D03*
X7523000Y4992000D03*
X7777000D03*
X8031000D03*
X7523000Y5500000D03*
X7777000D03*
X8031000D03*
X8793000Y500000D03*
X8539000D03*
X8285000D03*
X8793000Y754000D03*
X8539000D03*
X8285000D03*
X8793000Y1008000D03*
X8539000D03*
X8285000D03*
Y5246000D03*
X8539000D03*
X8793000D03*
X8285000Y4992000D03*
X8539000D03*
X8793000D03*
X8285000Y5500000D03*
X8539000D03*
X8793000D03*
X9301000Y500000D03*
X9047000D03*
X9301000Y754000D03*
X9047000D03*
X9301000Y1008000D03*
X9047000D03*
Y5246000D03*
X9301000D03*
X9047000Y4992000D03*
X9301000D03*
X9047000Y5500000D03*
X9301000D03*
X10063000Y500000D03*
X9809000D03*
X9555000D03*
X10063000Y754000D03*
X9809000D03*
X9555000D03*
X10063000Y1008000D03*
X9809000D03*
X9555000D03*
Y5246000D03*
X9809000D03*
X10063000D03*
X9555000Y4992000D03*
X9809000D03*
X10063000D03*
X9555000Y5500000D03*
X9809000D03*
X10063000D03*
X10825000Y500000D03*
X10571000D03*
X10317000D03*
X10825000Y754000D03*
X10571000D03*
X10317000D03*
X10825000Y1008000D03*
X10571000D03*
X10317000D03*
Y5246000D03*
X10571000D03*
X10825000D03*
X10317000Y4992000D03*
X10571000D03*
X10825000D03*
X10317000Y5500000D03*
X10571000D03*
X10825000D03*
X11333000Y500000D03*
X11079000D03*
X11333000Y754000D03*
X11079000D03*
X11333000Y1008000D03*
X11079000D03*
Y5246000D03*
X11333000D03*
X11079000Y4992000D03*
X11333000D03*
X11079000Y5500000D03*
X11333000D03*
X12095000Y500000D03*
X11841000D03*
X11587000D03*
X12095000Y754000D03*
X11841000D03*
X11587000D03*
X12095000Y1008000D03*
X11841000D03*
X11587000D03*
Y5246000D03*
X11841000D03*
X12095000D03*
X11587000Y4992000D03*
X11841000D03*
X12095000D03*
X11587000Y5500000D03*
X11841000D03*
X12095000D03*
X12857000Y500000D03*
X12603000D03*
X12349000D03*
X12857000Y754000D03*
X12603000D03*
X12349000D03*
X12857000Y1008000D03*
X12603000D03*
X12349000D03*
Y5246000D03*
X12603000D03*
X12857000D03*
X12349000Y4992000D03*
X12603000D03*
X12857000D03*
X12349000Y5500000D03*
X12603000D03*
X12857000D03*
X13619000Y500000D03*
X13365000D03*
X13111000D03*
X13619000Y754000D03*
X13365000D03*
X13111000D03*
X13619000Y1008000D03*
X13365000D03*
X13111000D03*
Y5246000D03*
X13365000D03*
X13619000D03*
X13111000Y4992000D03*
X13365000D03*
X13619000D03*
X13111000Y5500000D03*
X13365000D03*
X13619000D03*
X13873000Y500000D03*
Y754000D03*
Y1008000D03*
Y5246000D03*
Y4992000D03*
Y5500000D03*
G54D17*
X12680000Y1670000D03*
X13850000Y4710000D03*
G54D18*
X12970000Y1310000D03*
Y1437000D03*
Y1564000D03*
Y1691000D03*
Y1818000D03*
G54D19*
X14146000Y1154000D03*
Y900000D03*
Y646000D03*
X14654000D03*
Y1154000D03*
M02*
