G04 ================== begin FILE IDENTIFICATION RECORD ==================*
G04 Layout Name:  C:/NOW_WORK/VoloKh/CPI2/MAIN/BRD/CPI2_MAIN.brd*
G04 Film Name:    MASK_TOP*
G04 File Format:  Gerber RS274X*
G04 File Origin:  Cadence Allegro 17.2-S074*
G04 Origin Date:  Tue Mar 30 10:27:56 2021*
G04 *
G04 Layer:  PIN/SOLDERMASK_TOP*
G04 Layer:  PACKAGE GEOMETRY/SOLDERMASK_TOP*
G04 Layer:  BOARD GEOMETRY/SOLDERMASK_TOP*
G04 *
G04 Offset:    (0.0000 0.0000)*
G04 Mirror:    No*
G04 Mode:      Positive*
G04 Rotation:  0*
G04 FullContactRelief:  No*
G04 UndefLineWidth:     0.1000*
G04 ================== end FILE IDENTIFICATION RECORD ====================*
%FSLAX25Y25*MOMM*%
%IR0*IPPOS*OFA0.00000B0.00000*MIA0B0*SFA1.00000B1.00000*%
%ADD21R,.4X1.3*%
%ADD20R,1.3X.4*%
%ADD23C,.65*%
%ADD27R,1.15X1.5*%
%ADD22C,1.1*%
%ADD26C,2.1*%
%ADD11C,1.2*%
%ADD25R,1.X1.*%
%ADD28C,1.35*%
%ADD15C,2.25*%
%ADD13R,.9X.9*%
%ADD29R,.9X.9*%
%ADD19R,2.1X2.1*%
%ADD24C,1.55*%
%ADD10C,3.35*%
%ADD17C,1.65*%
%ADD14C,3.45*%
%ADD16R,2.25X2.25*%
%ADD12C,1.89*%
%ADD18R,1.65X1.65*%
%LPD*%
G75*
G54D10*
X300000Y300000D03*
Y5700000D03*
X15000000Y300000D03*
Y5700000D03*
G54D11*
X260000Y790000D03*
Y1110000D03*
X280000Y2360000D03*
Y2040000D03*
Y3190000D03*
Y2580000D03*
Y2800000D03*
Y3730000D03*
Y3510000D03*
Y3950000D03*
X480000Y790000D03*
X700000D03*
X1020000D03*
X480000Y1110000D03*
X700000D03*
X1020000D03*
X890000Y2360000D03*
Y2040000D03*
X600000Y2360000D03*
Y2040000D03*
X890000Y3190000D03*
X600000D03*
X890000Y2580000D03*
Y2800000D03*
X600000D03*
Y2580000D03*
X890000Y3730000D03*
Y3510000D03*
X600000Y3730000D03*
Y3510000D03*
X890000Y3950000D03*
X600000D03*
X1500000Y2490000D03*
Y2170000D03*
X1820000Y2490000D03*
Y2170000D03*
X1210000Y2360000D03*
Y2040000D03*
Y3190000D03*
X1500000Y2710000D03*
Y2930000D03*
X1820000D03*
Y2710000D03*
X1210000Y2800000D03*
Y2580000D03*
X1500000Y3890000D03*
Y3670000D03*
Y3350000D03*
X1820000Y3890000D03*
Y3670000D03*
Y3350000D03*
X1210000Y3730000D03*
Y3510000D03*
X1500000Y4110000D03*
X1820000D03*
X1210000Y3950000D03*
X2100000Y2490000D03*
Y2170000D03*
X2420000Y2490000D03*
Y2170000D03*
X2100000Y2710000D03*
Y2930000D03*
X2420000D03*
Y2710000D03*
X2100000Y3890000D03*
Y3670000D03*
Y3350000D03*
X2420000Y3890000D03*
Y3670000D03*
Y3350000D03*
X2100000Y4110000D03*
X2420000D03*
X2700000Y2490000D03*
Y2170000D03*
X3020000Y2490000D03*
Y2170000D03*
X2700000Y2710000D03*
Y2930000D03*
X3020000D03*
Y2710000D03*
X2700000Y3890000D03*
Y3670000D03*
Y3350000D03*
X3020000Y3890000D03*
Y3670000D03*
Y3350000D03*
X2700000Y4110000D03*
X3020000D03*
X3900000Y2490000D03*
Y2170000D03*
X3300000Y2490000D03*
Y2170000D03*
X3620000Y2490000D03*
Y2170000D03*
X3900000Y2710000D03*
Y2930000D03*
X3300000Y2710000D03*
Y2930000D03*
X3620000D03*
Y2710000D03*
X3900000Y3890000D03*
Y3670000D03*
Y3350000D03*
X3300000Y3890000D03*
Y3670000D03*
Y3350000D03*
X3620000Y3890000D03*
Y3670000D03*
Y3350000D03*
X3900000Y4110000D03*
X3300000D03*
X3620000D03*
X4500000Y2490000D03*
Y2170000D03*
X4220000Y2490000D03*
Y2170000D03*
X4500000Y2710000D03*
Y2930000D03*
X4220000D03*
Y2710000D03*
X4500000Y3890000D03*
Y3670000D03*
Y3350000D03*
X4220000Y3890000D03*
Y3670000D03*
Y3350000D03*
X4500000Y4110000D03*
X4220000D03*
X5100000Y2490000D03*
Y2170000D03*
X4820000Y2490000D03*
Y2170000D03*
X5100000Y2710000D03*
Y2930000D03*
X4820000D03*
Y2710000D03*
X5100000Y3890000D03*
Y3670000D03*
Y3350000D03*
X4820000Y3890000D03*
Y3670000D03*
Y3350000D03*
X5100000Y4110000D03*
X4820000D03*
X5700000Y2490000D03*
Y2170000D03*
X5420000Y2490000D03*
Y2170000D03*
X5700000Y2710000D03*
Y2930000D03*
X5420000D03*
Y2710000D03*
X5700000Y3890000D03*
Y3670000D03*
Y3350000D03*
X5420000Y3890000D03*
Y3670000D03*
Y3350000D03*
X5700000Y4110000D03*
X5420000D03*
X6300000Y2490000D03*
Y2170000D03*
X6620000Y2490000D03*
Y2170000D03*
X6020000Y2490000D03*
Y2170000D03*
X6300000Y2710000D03*
Y2930000D03*
X6620000D03*
Y2710000D03*
X6020000Y2930000D03*
Y2710000D03*
X6300000Y3890000D03*
Y3670000D03*
Y3350000D03*
X6620000Y3890000D03*
Y3670000D03*
Y3350000D03*
X6020000Y3890000D03*
Y3670000D03*
Y3350000D03*
X6300000Y4110000D03*
X6620000D03*
X6020000D03*
X6900000Y2490000D03*
Y2170000D03*
X7220000Y2490000D03*
Y2170000D03*
X6900000Y2710000D03*
Y2930000D03*
X7220000D03*
Y2710000D03*
X6900000Y3890000D03*
Y3670000D03*
Y3350000D03*
X7220000Y3890000D03*
Y3670000D03*
Y3350000D03*
X6900000Y4110000D03*
X7220000D03*
X7500000Y2490000D03*
Y2170000D03*
X7820000Y2490000D03*
Y2170000D03*
X7500000Y2710000D03*
Y2930000D03*
X7820000D03*
Y2710000D03*
X7500000Y3890000D03*
Y3670000D03*
Y3350000D03*
X7820000Y3890000D03*
Y3670000D03*
Y3350000D03*
X7500000Y4110000D03*
X7820000D03*
X8700000Y2490000D03*
Y2170000D03*
X8100000Y2490000D03*
Y2170000D03*
X8420000Y2490000D03*
Y2170000D03*
X8700000Y2710000D03*
Y2930000D03*
X8100000Y2710000D03*
Y2930000D03*
X8420000D03*
Y2710000D03*
X8700000Y3890000D03*
Y3670000D03*
Y3350000D03*
X8100000Y3890000D03*
Y3670000D03*
Y3350000D03*
X8420000Y3890000D03*
Y3670000D03*
Y3350000D03*
X8700000Y4110000D03*
X8100000D03*
X8420000D03*
X9020000Y2490000D03*
Y2170000D03*
X9300000Y2490000D03*
Y2170000D03*
X9020000Y2930000D03*
Y2710000D03*
X9300000D03*
Y2930000D03*
Y3890000D03*
Y3670000D03*
Y3350000D03*
X9020000Y3890000D03*
Y3670000D03*
Y3350000D03*
X9300000Y4110000D03*
X9020000D03*
X9910000Y2490000D03*
Y2170000D03*
X9620000Y2490000D03*
Y2170000D03*
X9910000Y2710000D03*
Y2930000D03*
X9620000D03*
Y2710000D03*
Y3890000D03*
Y3670000D03*
Y3350000D03*
X9910000Y3890000D03*
Y3670000D03*
Y3350000D03*
X9620000Y4110000D03*
X9910000D03*
X10510000Y2490000D03*
Y2170000D03*
X10830000Y2490000D03*
Y2170000D03*
X10230000Y2490000D03*
Y2170000D03*
X10510000Y2710000D03*
Y2930000D03*
X10830000D03*
Y2710000D03*
X10230000Y2930000D03*
Y2710000D03*
X10510000Y3890000D03*
Y3670000D03*
Y3350000D03*
X10830000Y3890000D03*
Y3670000D03*
Y3350000D03*
X10230000Y3890000D03*
Y3670000D03*
Y3350000D03*
X10510000Y4110000D03*
X10830000D03*
X10230000D03*
X11110000Y2490000D03*
Y2170000D03*
X11430000Y2490000D03*
Y2170000D03*
X11110000Y2710000D03*
Y2930000D03*
X11430000D03*
Y2710000D03*
X11110000Y3890000D03*
Y3670000D03*
Y3350000D03*
X11430000Y3890000D03*
Y3670000D03*
Y3350000D03*
X11110000Y4110000D03*
X11430000D03*
X11710000Y2490000D03*
Y2170000D03*
X12030000Y2490000D03*
Y2170000D03*
X11710000Y2710000D03*
Y2930000D03*
X12030000D03*
Y2710000D03*
X11710000Y3890000D03*
Y3670000D03*
Y3350000D03*
X12030000Y3890000D03*
Y3670000D03*
Y3350000D03*
X11710000Y4110000D03*
X12030000D03*
X12310000Y2490000D03*
Y2170000D03*
X12630000Y2490000D03*
Y2170000D03*
X12900000Y2260000D03*
X12310000Y2710000D03*
Y2930000D03*
X12630000D03*
Y2710000D03*
X12900000Y2800000D03*
Y3020000D03*
Y2580000D03*
X12310000Y3890000D03*
Y3670000D03*
Y3350000D03*
X12630000Y3890000D03*
Y3670000D03*
Y3350000D03*
X12900000Y3890000D03*
Y3670000D03*
Y3350000D03*
X12310000Y4110000D03*
X12630000D03*
X12900000D03*
X13510000Y2260000D03*
X13220000D03*
X13510000Y2800000D03*
Y3020000D03*
Y2580000D03*
X13220000Y3020000D03*
Y2800000D03*
Y2580000D03*
X13510000Y3890000D03*
Y3670000D03*
Y3350000D03*
X13220000Y3890000D03*
Y3670000D03*
Y3350000D03*
X13510000Y4110000D03*
X13220000D03*
X13830000Y2260000D03*
X14170000Y2480000D03*
Y2160000D03*
X13830000Y3020000D03*
Y2800000D03*
Y2580000D03*
X14170000Y2700000D03*
Y2920000D03*
X14140000Y3250000D03*
Y3470000D03*
Y3690000D03*
X13830000Y3890000D03*
Y3670000D03*
Y3350000D03*
X14140000Y4010000D03*
X13830000Y4110000D03*
X14490000Y2480000D03*
Y2160000D03*
Y2920000D03*
Y2700000D03*
X14460000Y3470000D03*
Y3250000D03*
Y3690000D03*
Y4010000D03*
G54D20*
X13175000Y1775000D03*
Y1725000D03*
Y1675000D03*
Y1625000D03*
Y1575000D03*
Y1525000D03*
Y1475000D03*
Y1425000D03*
Y1375000D03*
Y1325000D03*
Y1875000D03*
Y1825000D03*
X14025000Y1325000D03*
Y1375000D03*
Y1425000D03*
Y1475000D03*
Y1525000D03*
Y1575000D03*
Y1625000D03*
Y1675000D03*
Y1725000D03*
Y1775000D03*
Y1825000D03*
Y1875000D03*
G54D12*
X234000Y1416000D03*
X488000D03*
X234000Y1670000D03*
X488000D03*
X742000Y1416000D03*
X996000D03*
X742000Y1670000D03*
X996000D03*
X1250000Y1416000D03*
X1504000D03*
X1758000D03*
X1250000Y1670000D03*
X1504000D03*
X1758000D03*
X1404000Y4456000D03*
X1658000D03*
X1404000Y4710000D03*
X1658000D03*
X2012000Y1416000D03*
X2266000D03*
X2520000D03*
X2012000Y1670000D03*
X2266000D03*
X2520000D03*
X1912000Y4456000D03*
X2166000D03*
X2420000D03*
X1912000Y4710000D03*
X2166000D03*
X2420000D03*
X2774000Y1416000D03*
X3028000D03*
X2774000Y1670000D03*
X3028000D03*
X2674000Y4456000D03*
X2928000D03*
X3182000D03*
X2674000Y4710000D03*
X2928000D03*
X3182000D03*
X3282000Y1416000D03*
X3536000D03*
X3790000D03*
X3282000Y1670000D03*
X3536000D03*
X3790000D03*
X3436000Y4456000D03*
X3690000D03*
X3944000D03*
X3436000Y4710000D03*
X3690000D03*
X3944000D03*
X4044000Y1416000D03*
X4298000D03*
X4552000D03*
X4044000Y1670000D03*
X4298000D03*
X4552000D03*
X4198000Y4456000D03*
X4452000D03*
X4198000Y4710000D03*
X4452000D03*
X4806000Y1416000D03*
X5060000D03*
X5314000D03*
X4806000Y1670000D03*
X5060000D03*
X5314000D03*
X4706000Y4456000D03*
X4960000D03*
X5214000D03*
X4706000Y4710000D03*
X4960000D03*
X5214000D03*
X5568000Y1416000D03*
X5822000D03*
X5568000Y1670000D03*
X5822000D03*
X5468000Y4456000D03*
X5722000D03*
X5976000D03*
X5468000Y4710000D03*
X5722000D03*
X5976000D03*
X6076000Y1416000D03*
X6330000D03*
X6584000D03*
X6076000Y1670000D03*
X6330000D03*
X6584000D03*
X6230000Y4456000D03*
X6484000D03*
X6230000Y4710000D03*
X6484000D03*
X6838000Y1416000D03*
X7092000D03*
X7346000D03*
X6838000Y1670000D03*
X7092000D03*
X7346000D03*
X6738000Y4456000D03*
X6992000D03*
X7246000D03*
X6738000Y4710000D03*
X6992000D03*
X7246000D03*
X7600000Y1416000D03*
Y1670000D03*
X7854000Y1416000D03*
Y1670000D03*
X8108000Y1416000D03*
Y1670000D03*
X7500000Y4456000D03*
X7754000D03*
X8008000D03*
X7500000Y4710000D03*
X7754000D03*
X8008000D03*
X8362000Y1416000D03*
Y1670000D03*
X8616000Y1416000D03*
Y1670000D03*
X8262000Y4456000D03*
X8516000D03*
X8770000D03*
X8262000Y4710000D03*
X8516000D03*
X8770000D03*
X8870000Y1416000D03*
Y1670000D03*
X9124000Y1416000D03*
Y1670000D03*
X9378000Y1416000D03*
Y1670000D03*
X9024000Y4456000D03*
X9278000D03*
X9024000Y4710000D03*
X9278000D03*
X9632000Y1416000D03*
Y1670000D03*
X9886000Y1416000D03*
Y1670000D03*
X10140000Y1416000D03*
Y1670000D03*
X9532000Y4456000D03*
X9786000D03*
X10040000D03*
X9532000Y4710000D03*
X9786000D03*
X10040000D03*
X10394000Y1416000D03*
Y1670000D03*
X10648000Y1416000D03*
Y1670000D03*
X10294000Y4456000D03*
X10548000D03*
X10802000D03*
X10294000Y4710000D03*
X10548000D03*
X10802000D03*
X10902000Y1416000D03*
Y1670000D03*
X11156000Y1416000D03*
Y1670000D03*
X11410000Y1416000D03*
Y1670000D03*
X11056000Y4456000D03*
X11310000D03*
X11564000D03*
X11056000Y4710000D03*
X11310000D03*
X11564000D03*
X11664000Y1416000D03*
Y1670000D03*
X11918000Y1416000D03*
Y1670000D03*
X12172000Y1416000D03*
Y1670000D03*
X11818000Y4456000D03*
X12072000D03*
X11818000Y4710000D03*
X12072000D03*
X12426000Y1416000D03*
Y1670000D03*
X12680000Y1416000D03*
X12326000Y4456000D03*
X12580000D03*
X12834000D03*
X12326000Y4710000D03*
X12580000D03*
X12834000D03*
X13088000Y4456000D03*
X13342000D03*
X13596000D03*
X13088000Y4710000D03*
X13342000D03*
X13596000D03*
X13850000Y4456000D03*
G54D21*
X13325000Y1175000D03*
X13375000D03*
X13425000D03*
X13475000D03*
X13525000D03*
X13575000D03*
Y2025000D03*
X13525000D03*
X13475000D03*
X13425000D03*
X13375000D03*
X13325000D03*
X13625000Y1175000D03*
X13675000D03*
X13725000D03*
X13775000D03*
X13825000D03*
X13875000D03*
Y2025000D03*
X13825000D03*
X13775000D03*
X13725000D03*
X13675000D03*
X13625000D03*
G54D13*
X95000Y3815000D03*
Y3965000D03*
G54D22*
X12970000Y1310000D03*
Y1437000D03*
Y1564000D03*
Y1691000D03*
Y1818000D03*
G54D14*
X919000Y246000D03*
Y5754000D03*
X14381000Y246000D03*
Y5754000D03*
G54D23*
X12970000Y1990000D03*
X13070000D03*
G54D24*
X14146000Y1154000D03*
Y900000D03*
Y646000D03*
X14654000D03*
Y1154000D03*
G54D15*
X599800Y4513340D03*
X14700000Y5048000D03*
G54D16*
X599800Y5021340D03*
X14700000Y4540000D03*
G54D25*
X14310000Y4390000D03*
Y4550000D03*
X15180000Y3190000D03*
Y3350000D03*
G54D17*
X1681000Y500000D03*
X1427000D03*
X1681000Y754000D03*
X1427000D03*
X1681000Y1008000D03*
X1427000D03*
X1681000Y5246000D03*
Y4992000D03*
Y5500000D03*
X2443000Y500000D03*
X2189000D03*
X1935000D03*
X2443000Y754000D03*
X2189000D03*
X1935000D03*
X2443000Y1008000D03*
X2189000D03*
X1935000D03*
Y5246000D03*
X2189000D03*
X2443000D03*
X1935000Y4992000D03*
X2189000D03*
X2443000D03*
X1935000Y5500000D03*
X2189000D03*
X2443000D03*
X3205000Y500000D03*
X2951000D03*
X2697000D03*
X3205000Y754000D03*
X2951000D03*
X2697000D03*
X3205000Y1008000D03*
X2951000D03*
X2697000D03*
Y5246000D03*
X2951000D03*
X3205000D03*
X2697000Y4992000D03*
X2951000D03*
X3205000D03*
X2697000Y5500000D03*
X2951000D03*
X3205000D03*
X3713000Y500000D03*
X3459000D03*
X3713000Y754000D03*
X3459000D03*
X3713000Y1008000D03*
X3459000D03*
Y5246000D03*
X3713000D03*
X3459000Y4992000D03*
X3713000D03*
X3459000Y5500000D03*
X3713000D03*
X4475000Y500000D03*
X4221000D03*
X3967000D03*
X4475000Y754000D03*
X4221000D03*
X3967000D03*
X4475000Y1008000D03*
X4221000D03*
X3967000D03*
Y5246000D03*
X4221000D03*
X4475000D03*
X3967000Y4992000D03*
X4221000D03*
X4475000D03*
X3967000Y5500000D03*
X4221000D03*
X4475000D03*
X5237000Y500000D03*
X4983000D03*
X4729000D03*
X5237000Y754000D03*
X4983000D03*
X4729000D03*
X5237000Y1008000D03*
X4983000D03*
X4729000D03*
Y5246000D03*
X4983000D03*
X5237000D03*
X4729000Y4992000D03*
X4983000D03*
X5237000D03*
X4729000Y5500000D03*
X4983000D03*
X5237000D03*
X5999000Y500000D03*
X5745000D03*
X5491000D03*
X5999000Y754000D03*
X5745000D03*
X5491000D03*
X5999000Y1008000D03*
X5745000D03*
X5491000D03*
Y5246000D03*
X5745000D03*
X5999000D03*
X5491000Y4992000D03*
X5745000D03*
X5999000D03*
X5491000Y5500000D03*
X5745000D03*
X5999000D03*
X6507000Y500000D03*
X6253000D03*
X6507000Y754000D03*
X6253000D03*
X6507000Y1008000D03*
X6253000D03*
Y5246000D03*
X6507000D03*
X6253000Y4992000D03*
X6507000D03*
X6253000Y5500000D03*
X6507000D03*
X7269000Y500000D03*
X7015000D03*
X6761000D03*
X7269000Y754000D03*
X7015000D03*
X6761000D03*
X7269000Y1008000D03*
X7015000D03*
X6761000D03*
Y5246000D03*
X7015000D03*
X7269000D03*
X6761000Y4992000D03*
X7015000D03*
X7269000D03*
X6761000Y5500000D03*
X7015000D03*
X7269000D03*
X8031000Y500000D03*
X7777000D03*
X7523000D03*
X8031000Y754000D03*
X7777000D03*
X7523000D03*
X8031000Y1008000D03*
X7777000D03*
X7523000D03*
Y5246000D03*
X7777000D03*
X8031000D03*
X7523000Y4992000D03*
X7777000D03*
X8031000D03*
X7523000Y5500000D03*
X7777000D03*
X8031000D03*
X8793000Y500000D03*
X8539000D03*
X8285000D03*
X8793000Y754000D03*
X8539000D03*
X8285000D03*
X8793000Y1008000D03*
X8539000D03*
X8285000D03*
Y5246000D03*
X8539000D03*
X8793000D03*
X8285000Y4992000D03*
X8539000D03*
X8793000D03*
X8285000Y5500000D03*
X8539000D03*
X8793000D03*
X9301000Y500000D03*
X9047000D03*
X9301000Y754000D03*
X9047000D03*
X9301000Y1008000D03*
X9047000D03*
Y5246000D03*
X9301000D03*
X9047000Y4992000D03*
X9301000D03*
X9047000Y5500000D03*
X9301000D03*
X10063000Y500000D03*
X9809000D03*
X9555000D03*
X10063000Y754000D03*
X9809000D03*
X9555000D03*
X10063000Y1008000D03*
X9809000D03*
X9555000D03*
Y5246000D03*
X9809000D03*
X10063000D03*
X9555000Y4992000D03*
X9809000D03*
X10063000D03*
X9555000Y5500000D03*
X9809000D03*
X10063000D03*
X10825000Y500000D03*
X10571000D03*
X10317000D03*
X10825000Y754000D03*
X10571000D03*
X10317000D03*
X10825000Y1008000D03*
X10571000D03*
X10317000D03*
Y5246000D03*
X10571000D03*
X10825000D03*
X10317000Y4992000D03*
X10571000D03*
X10825000D03*
X10317000Y5500000D03*
X10571000D03*
X10825000D03*
X11333000Y500000D03*
X11079000D03*
X11333000Y754000D03*
X11079000D03*
X11333000Y1008000D03*
X11079000D03*
Y5246000D03*
X11333000D03*
X11079000Y4992000D03*
X11333000D03*
X11079000Y5500000D03*
X11333000D03*
X12095000Y500000D03*
X11841000D03*
X11587000D03*
X12095000Y754000D03*
X11841000D03*
X11587000D03*
X12095000Y1008000D03*
X11841000D03*
X11587000D03*
Y5246000D03*
X11841000D03*
X12095000D03*
X11587000Y4992000D03*
X11841000D03*
X12095000D03*
X11587000Y5500000D03*
X11841000D03*
X12095000D03*
X12857000Y500000D03*
X12603000D03*
X12349000D03*
X12857000Y754000D03*
X12603000D03*
X12349000D03*
X12857000Y1008000D03*
X12603000D03*
X12349000D03*
Y5246000D03*
X12603000D03*
X12857000D03*
X12349000Y4992000D03*
X12603000D03*
X12857000D03*
X12349000Y5500000D03*
X12603000D03*
X12857000D03*
X13619000Y500000D03*
X13365000D03*
X13111000D03*
X13619000Y754000D03*
X13365000D03*
X13111000D03*
X13619000Y1008000D03*
X13365000D03*
X13111000D03*
Y5246000D03*
X13365000D03*
X13619000D03*
X13111000Y4992000D03*
X13365000D03*
X13619000D03*
X13111000Y5500000D03*
X13365000D03*
X13619000D03*
X13873000Y5246000D03*
Y4992000D03*
Y5500000D03*
G54D26*
X14826000Y1644000D03*
Y1390000D03*
Y2406000D03*
Y2152000D03*
Y1898000D03*
Y2914000D03*
Y2660000D03*
X15080000Y1644000D03*
Y2406000D03*
Y2152000D03*
Y1898000D03*
Y2914000D03*
Y2660000D03*
G54D18*
X1427000Y5246000D03*
Y4992000D03*
Y5500000D03*
X13873000Y500000D03*
Y754000D03*
Y1008000D03*
G54D27*
X14840000Y3180000D03*
X15020000D03*
G54D19*
X12680000Y1670000D03*
X13850000Y4710000D03*
X15080000Y1390000D03*
G54D28*
X14700000Y3180000D03*
G54D29*
X14995000Y3400000D03*
X14845000D03*
M02*
